<?xml version="1.0" encoding="UTF-8"?>
<svg id="Livello_1" data-name="Livello 1" xmlns="http://www.w3.org/2000/svg" width="180.27mm" height="106.74mm" viewBox="0 0 511 302.57">
  <defs>
    <style>
      .cls-1 {
        fill: #e9237d;
      }

      .cls-2 {
        fill: #fab31f;
      }

      .cls-3 {
        fill: #1da1e8;
      }

      .cls-4 {
        fill: #f68b1e;
      }

      .cls-5 {
        fill: #202020;
      }

      .cls-6 {
        fill: #1ea360;
      }

      .cls-7 {
        fill: #0095e5;
      }
    </style>
  </defs>
  <g>
    <g>
      <path class="cls-7" d="M378.16,69.91c-.2,0-.4-.05-.56-.14-.31-.03-.62-.08-.92-.15-.5-.22-.7-.6-.65-1.02.04-.42.32-.75.7-.84l.31,1.24.14-.26c.03-.06.06-.11.1-.16-.04-.07-.1-.13-.18-.17.07.01.15.03.23.04l-.12-.49c.38-.09.79-.08,1.16.04.07,0,.15,0,.22,0,.61.03,1.12.37,1.33.89l.32.79-.85.09c-.25.03-.5.04-.76.05-.09.03-.18.06-.28.08-.07.01-.14.02-.2.02Z"/>
      <path class="cls-7" d="M378.11,71.75c-.14,0-.28-.01-.42-.04-1.06-.18-1.92-1.05-2.1-2.1l-.05-.28.15-.19-.08-.09.35-.43c.19-.23.42-.41.69-.55.16-.33.42-.62.76-.84.64-.41,1.42-.46,2.03-.14.56.3.95.86,1.07,1.54.07.43.03.86-.12,1.24,0,.01,0,.02,0,.03l.1.28-.14.26c-.45.81-1.34,1.32-2.26,1.32Z"/>
      <g>
        <g>
          <path class="cls-3" d="M324.04,70.72l.64.32c0-.12-.16-.24-.64-.32Z"/>
          <path class="cls-3" d="M380.79,120.34c-.02.05-.04.11-.05.16.05-.1.06-.14.05-.16Z"/>
          <polygon class="cls-3" points="348.13 82.89 348.09 82.88 347.91 82.91 348.13 82.89"/>
          <path class="cls-3" d="M315.46,78.03c8.59.91,10.73,2.37,19.69,3.08,4.23.69,8.79,1.16,12.94,1.78,2.13-.56,5.4,1.02,7.84.76l.77.71c.84-.08,1.8-.05,2.5.42l-.09.14c1.25-.11,2.45.46,3.04.42l-.09.14.51.11,6.78,1.54-.45-6.21-.1-1.35.24.36c-.3-1.52-.6-2.54-.78-3.63-.19-1.03-.26-2-.26-2.88l-.62.21c.2-1.89,0-3.06-.03-4.12-.08-1.07.03-2.1.84-3.05l.13.09c-.24-1.7.94-2.46,2.08-2.86.3-.1.59-.2.88-.33.35-.07.69-.16,1.02-.3.61-.33,1.47-.56,2.31-1.24-.43.32.27.27.26.43,1.86-.61,3.83-.77,3.83-2.02,1.42,0,1.13.41,1.28.89,0-.55,1.22-.73,2.24-.55-.17.03-.34.07-.5.12.98.1,1.92.3,2.83.63-.04-.39-.09-.79-.16-1.19,1.41.92-.11,1.3,1.31,1.75l.41-.76c1.94,1.36,1.69,3.17,1.9,4.9.87,1.93,1.08,4.17.43,5.9l-1.73,4.63,4.04,1.21c1.78.53,3.24,1.17,4.55,2.23,1.32,1.04,2.57,2.56,3.73,4.25l.73-4.77c-1.15,1.05-3.83,1.2-6.43.48l-.34-.68c-.02-.94-2.75,1.1-3.15.17l-1.46.31c-.4-.21-1.81-.32-.71-.57-.33.01-.45-.01-.86.05-.4.06-.74.14-1.03.23-.19.07-.19.05-.5.19-.28.13-.54.28-.78.44-.48.33-.87.71-1.17,1.1l-2.36,3.01,1.87,1.5c.13.1.27.22.49.4-.04.36-.12.72-.2,1.07.37,1.61.81,3.1,1.15,4.73.32,1.62.46,3.4.04,5.31-.94,2.2-1.94,5.32-3.41,8.62-1.43,3.28-3.25,6.68-4.7,9.16-1.85,3.66-5.08,6.76-8.43,9.49-3.37,2.76-6.79,5.11-9.49,7.99-.28.04-.65.65-.59.74-2,1.29-4.07,2.4-6.23,3.33,0,0-.49.21-1.3.55-.81.33-1.95.78-3.26,1.2-2.62.89-5.92,1.61-8.52,2.02-2.59.44-4.55.76-4.26,1.91.16.53.9,1.34,2.61,2.17,1.7.8,4.42,1.74,8.45,1.95l-.17.24c4.68-.41,7.59-1.45,10.02-3.69,1.02.98,3.43-1.57,4.52-1.77l-.03.14c1.87-2.25,5.28-2.49,6.83-4.88-.02.14.16.45-.31.85,1.45-1.33,3.2-3.31,3.8-2.87,3.32-3.24,7.74-7.85,8.59-10.83l.04.28c.39-1.77,1.22-1.72,2.01-3.41.14-.02.25-.09.27-.05.45-1.86,2.98-4.26,3.5-5.68l.46.19c.63-1.03,1.23-2.08,1.81-3.15l-.78,1.12c-.93-1.08,2.17-1.93,2.56-4.78.62-1.1.47-2.57.3-3.97-.17-1.41-.38-2.74.24-3.87-.35-1.32.77,1.28.69-.6.7.09.24.94.9.6.06-1.84,1.31-2.87.99-5.23l.55-.07c-.43-1.55-.27-2.96-.23-4.32.04-1.34.02-2.61-.71-3.51-.57-1.38-.46-2.02-.36-2.63.11-.61.21-1.19-.61-2.27l-3.06,1.96c.16.1.28.25.3.43.02.06-.02.05.03.17l.14.34c.08.23.14.47.18.72.03.21.05.42.05.63v.31s.06.58.06.58c.03.14.06.15.08.23.03.06.03.12.06.18l.18.2c.38.08.68-.11.89-.29.22-.18.51-.31,1.16-.05-.15.45,1.78.59.88.93,1.63.55,3.53.47,5.69.14,2.17-.38,4.68-.83,7.89-2.34.06-.15.15-.3.26-.45l3.45-4.89-2.5-1.25c-1.07-.53-1.9-2.35-2.84-2.52.13-.17-.63-1.12-1.18-1.83-.57-.69-.87-1.19.47-.43.22.14.5.47.37.55l.64-.1c-.57-1.44-1.74-2.39-3.03-3.09-1.3-.7-2.68-1.15-3.97-1.87.71.54,1.75,1.1.88,1.03-.78-.48-1.58-.87-2.38-1.25l.69-.19c-.52-.28-1.04-.52-1.56-.76l2.67,6.75c.44-.81.83-1.66,1.13-2.53l-.74.47c.51-1.05.95-1.77,1.23-2.58.28-.8.39-1.72-.08-2.99-.51-1.09-.64,2.1-.95-.18.09-1.44-.03-3.27-.58-5.14-.54-1.87-1.51-3.76-2.82-5.26-.22.7-.9-.09-1.79-.68l.26-.5c-.96-.54-1.42-.8-1.69-1.06-.27-.26-.34-.48-.41-.71-.14-.43-.27-1-2.21-1.53l.48-.22c-.48.21-.95.43-1.4.67-1.78-.07-2.1-.4-2.54-.76-.41-.32-.98-.69-2.85-.15,1.41.07.48,1.24-1.11.89l.45-.51c-.94.05-1.24.27-1.84.16.55-.27.28-.8-1.07-.66.29-.23.59-.47.9-.69-.88.34-1.71.71-2.5,1.12-.99-.19-2.19.03-3.24.26-1.1.29-2.06.54-2.57.29.06-.18-4.49,1.26-4.94,2.77.55-.97-1.84.37-1.56-.53-.37.62-1.21,1.75-2.05,2.81-.76,1.16-1.61,2.26-2.18,2.86l.08-.3c-1.76,2.54-1.93,5.07-1.97,7.18-.02,2.16.3,4,.09,6.06.61-.24.51,1.86,1.26,1.25.75,2.13.46,4.27.31,4.99l5.48-4.04c-1.14-.43-2.09-.5-2.93.39-1.73-.29-1.87-1.07-2.72-1.4l.43-.04c-3.23-.53-4.15-.68-6.5-1.22-1.23.02-1.63,1.12-3.68.45.77-.33-.11-.41-.9-.55.52.02.7-.12-.28-.62-.17.12-.41.16-.64.2,0-.04-.04-.07,0-.12-1.35-.07-1.14.11-.54.28-.04.06,0,.16.16.32-1.26-.84-3.81-.61-3.85-1.43-4-.47-6.96-.06-10.3-.19-.32-.45.5-.72,1.49-.75l-2.37-.16c.1-.58,1.4-.17,2.14-.18-2.69-1.32-5.89.2-9.09-1.01l-.73.4-.19-.1c-.01.25-.79.51-1.28.55-.42-.56.15-1.18-1.5-1.3-1.26-.61-3.72-.05-5.43.12.91.15.6.41.19.57-.82-.04-1.27-.57-1.91-.38l-.04-.7c.29.67-2.19.59-2.5.88-.45-.53,1.3-.4,1.52-.77-3.32-.05-1.66-.06-4.99-.05-1.78.5.31.66-.54,1.26-1.56.13-3.06.61-4.86.28l.59.59c-2.89.57-4.59.68-6.65.29-5.34,1.95-7.6,4.43-7.82,5.76-.13.6-.18,1.22.03,1.5.19.3.56.39,1.03.34.37.11.64.16,1.01.16.44.02.77-.04,1.26-.06.94-.09,1.7-.17,1.7-.17,3.37-.15,6.32-.44,9.45-.92,3.16-.45,6.63-.99,11.53-.96Z"/>
        </g>
        <g>
          <path class="cls-3" d="M298.93,147.88l-.51.26c.1.06.26.02.51-.26Z"/>
          <path class="cls-3" d="M321.19,176.85s0-.09-.01-.13c0,.09,0,.12.01.13Z"/>
          <path class="cls-3" d="M279.94,157.72s.02-.02.02-.02c.01-.05.02-.09.03-.14l-.05.16Z"/>
          <path class="cls-3" d="M296.13,138.18c-1.13,1.36-2.05,2.44-2.91,3.39-.77.83-1.48,1.53-2.22,2.26-1.46,1.46-2.92,3.01-4.9,5.83-2.15,2.48-4.19,5.39-6.14,8.04-.25,1.79-2.7,3.39-3.21,5.39l-.87.27c-.18.68-.49,1.42-1.11,1.81l-.1-.12c-.25,1.06-1.1,1.89-1.22,2.47l-.11-.12c-.22.4-.43.76-.64,1.2l-.07-.33c-.32,1.03-.75,1.9-1.2,3.61l-.15.72c-.05.24-.08.75-.08,1.12l.02.6c0,.15.1.61.18.91.22.69.41,1.25.92,1.89.48.62,1.22,1.23,1.8,1.53.48.23,1,.42,1.52.54.62.14.76.11,1.09.14.29.01.58.02.87,0-.15-.2-.28-.41-.41-.62.18,0,.36,0,.5.01l.79-.17c2.27-.46,3.25-1.31,4.2-2.04.93-.75,1.76-1.46,3.21-2.04l.06.15c1.97-3.64,5.35-2.91,7.05-6.21-.21.4.34.16.4.31.54-.51,1.07-.93,1.26-1.26.19-.31-.12-.55-.26-1.17-.05.01-.08.02-.28.04-.16.01-.23,0-.46-.01-.38-.04-.58-.14-.78-.15-.37-.06-.46.13-.83.11.1-.09.02-.37-.03-.57-.03-.12-.06-.26-.08-.42-.02-.15,0-.15.01-.24.07-.33.18-.02.19.23l-.21-.22.03.23.1-.65c-.15.81-.28,1.61-.4,2.42l1.14-.34c-.61,1.44-1.33.12-1.38,1.63l.85.14c-.56,2.05-2.03,3.1-2.9,5.16-.08.55-.14,1.1-.19,1.66-.04.59-.09,1.02-.09,1.87.04.82,0,1.88.76,3.5.38.79,1.12,1.72,2.05,2.29.92.6,2.01.88,2.86.91,1.73.04,2.66-.42,3.45-.75.74-.35,1.4-.78,1.78-1.04.88-.59,1.76-1.18,2.64-1.76,1.76-1.16,3.52-2.29,5.31-3.27l.67-.36c.18-.09.57-.3.5-.25-.03.02-.16.1-.47.17-.31.08-.84.12-1.34-.02-1.1-.3-1.62-1.03-1.81-1.38-.21-.39-.26-.63-.3-.92,0-.12-.01-.05-.02,0l-.03.13-.07.26c-.1.37-.23.74-.39,1.16l-.69.21c-.95-.09,1.03,2.42.15,2.8.12.42.24.84.39,1.29-.18.35-.26,1.27-.54.55.09,1.38.3,1.47.87,2.39-.01.57.03,1.16.13,1.76l.06.13.12.27.39.45c.34.39.7.74,1.13,1.05.54.34,1.14.64,1.76.78.62.15,1.35.2,1.81.13.26-.03.52-.07.78-.12.25-.06.39-.11.58-.17,1.43-.54,2.01-1.12,2.49-1.54.95-.91,1.4-1.64,1.88-2.37.41-.66.82-1.32,1.24-1.99.19-.29.4-.57.58-.78.17-.21.39-.39.3-.27.03,0-.11.15-.18.21-.02.02-.15.11-.28.17-.14.07-.24.11-.42.16-.53.15-1.04.2-1.88,0-.4-.12-.7-.26-.99-.43-.26-.14-.62-.49-.71-.57-.29-.25-.52-.67-.57-.72-.04-.07-.08-.14-.12-.22-.03-.06-.04-.04-.05-.06-.05-.12-.06.02-.06.07l-.04-.59c-.07,1.56.2,3.31.92,5,.36.84.83,1.67,1.41,2.43.14.19.3.38.45.56l.17.19c.13.15.27.29.41.43.28.27.61.51.94.71,1.37.8,2.67.85,3.61.73.97-.12,1.73-.42,2.4-.8.65-.35,1.34-.94,1.74-1.42.84-.97,1.26-1.92,1.53-2.67.27-.77.4-1.36.5-1.84.11-.5.21-.97.31-1.42.85-6.37,6.97-11.88,7.66-18.55.2-.15.1-.77,0-.8l2.1-5.55s2.41-6.78,2.92-11.27c.52-4.51-.72-6.66-7.82,2.37l-.15-.2c-1.49,2.89-2.24,4.75-1.97,7.17-1.32-.09-.99,2.44-1.63,3.01l-.07-.1c.27,2.17-2.12,3.5-1.94,5.57-.07-.1-.38-.26-.25-.68-.32,1.34-.7,3.2-1.44,3.04-.96,3.14-2.89,7.33-2.52,9.73l-.14-.21c.33,1.41-.43,1.5-.52,2.91-.12.04-.2.11-.23.08.29,1.44-1.25,3.87-1.16,4.24l-.44-.23-.07.16v.04s-.02,0-.02,0h0s0,0,0,0c-.13-.14,1.12,1.2.59.63h0s0,0,0,0h0s0,0,0,0h0s-.07-.08-.07-.08c-.16-.2,0-.08.1.45-.06-.37-.19-.59-.16-.54-.01-.01,0-.01.05.11.04.12.16.45.14.88,0,.2-.06.4-.11.49-.02.05-.04.07-.04.07,0-.01.03-.02.03-.02h0c-1.51,1.22,2.06-1.66,1.69-1.36h0s0,0,0,0h0s0-.01,0-.01v-.02s-.02-.04-.02-.04c-.1-.23-.26-.42-.59-.57-.14-.4-.67-.64-1.28-1.05-.6-.39-1.24-.94-1.49-1.58v-.13c-.23-.45-.29-.84-.44-1.47-.66-.44-.31-.35.1-.26.2.05.35.06.39-.04.02-.05,0-.14-.13-.32-.06-.08-.15-.18-.25-.28-.13-.11-.35-.26-.6-.37.06-.38.72-.13,1.02.11.28.2.52.4.39-.23-.14-.17-.49-.45-.8-.63-.29-.19-.72-.32-1.11-.39-.75-.11-1.36.06-1.71.19-.76.28-1.16.53-1.54.75-.74.45-1.31.9-1.68,1.72l-.47-.29c-.55,2.33-3.06,2.66-2.64,3.43.18.23.41.65.53.93.12.21.2.43.24.64.05.11.07.23.06.34,0,.06,0,.07,0,.11-.02.04.03-.08.07-.12.08-.14.18-.23.28-.29l1.96-.82c.27-.35.61-.33-.04-.6.24-.15.47-.27.72-.41.14-.48-.91-.4-.45-1.19.45.15.55-1.14.9-.51.27-.52.4-1.16.45-1.91.03-.36.03-.77.01-1.19l-.03-.7c-.01-.6-.1-1.16-.27-1.75-.18-.59-.45-1.21-.95-1.9-.49-.66-1.33-1.45-2.53-1.86-1.17-.43-2.49-.3-3.22-.05-.76.24-1.14.48-1.37.59-.66.35-1.35.59-2.19.71-.15,1.13-1.8,1.43-1.91,2.28-.27-.31-2.8,1.49-1.67-.13.1-.14.34-.26.4-.11l-.08-.58c-2.06-.02-2.57,2.08-4.2,2.81.55-.1,1.14-.48.91.07-.48.24-1.05.54-1.3.63l-.02-.5c-.25.08-.46.13-.5.09-.06-.18.11.36.2.66.09.35.17.63.22.92.11.53.13,1.02.12,1.3,0-.16,0-.4-.02-.62.06.66-.02.97-.06,1.09-.01.05-.04.1-.02.06.02-.03-.05.06,0,0,.05-.04.21-.19.64-.35.47-.17,1.09-.35,2.57-.47.11,0,.16-.01.11-.01h-.04s-.08,0-.08,0h-.15c-.13.03-.03.02-.58.08-.23.03-.4.06-.54.08.11-.02.22-.03.41-.06.23-.03.11-.02.12-.02-.01,0-.02-.02-.04-.03.17-.15.49-1.34.79-2.22.3-.95.61-1.94.83-2.86-.65.08-.56-.42-.6-.96l.55.03c-.41-2.11,1.3-.51,1.09-2.55l.34.25-1.01-.75c-.46-1.38.35-1.19.57-1.67l.12-.26.03-.7c.02-.49.07-.98-.74-2.64.29,1.11-.08,1.22-.37,1.01-.17-.15-.3-.3-.5-.74-.11-.25-.22-.49-.33-.74-.12-.28-.39-.76-.65-1.16.34.16.69.37,1.02.63-.34-.56-.58-.9-1.02-1.28-.43-.37-.85-.64-1.24-.8-.39-.16-.78-.27-1.17-.36-.4-.09-.64-.09-1.03-.14.65-.12.89-.27.48-.46-.19-.09-.62-.18-1.1-.17-.33,0-1,.1-1.39.26.14-.17.36-.34.65-.51.29-.16.5-.33.91-.46-.53.12-.87.28-1.28.45-.34.17-.55.34-.82.52-.45.35-.78.69-1.05,1.02-1.94.4-3.14,2.3-4.04,2.04,0,0-.63.37-1.22.87-.6.5-1.17,1.11-1.15,1.63.09-.74-1.17.05-1.23-.68-.17.89-1.43,2.52-2.41,2.5l.07-.14c-1.29.61-2.08,1.43-2.82,2.14-.71.7-1.51,1.32-2.13,1.18l1.12,1.38c.05.18.09.37.11.57-.02-.11.03.13.03.54,0,.21-.02.45-.07.72-.02.21,0,.3-.04.47-.03.13-.14.32-.17.37,0,.01,0,.03,0,.04-.02.03-.03.04,0,0,0,.01-.03.03-.05.04.05-.04.11-.08.16-.1.15-.06.14,0,.4-.05.25-.05.51-.05.75-.01.12.02.24.05.35.08l.56.07c.19.03.37.06.55.11.15.03.45.12.37.1,0,0-.02.04,0,0l.11-.17c.2-.28.56-.62.86-.93.63-.66,1.03-1.28.26-2.39.58-1.08,1.32-.84,1.79-1.28l-.06.32c1.2-1.98,1.63-2.54,2.75-3.89.35-.84-.48-1.68.74-2.75.04.69.38.13.76-.33-.18.34-.12.54.61.13-.04-.18,0-.36.04-.53.03.02.07.01.1.06.5-.88.28-.83-.06-.52-.04-.06-.14-.09-.33-.06,1.12-.42,1.79-2.26,2.49-1.85,1.76-2.44,2.5-4.64,3.84-6.79.5.04.41.73.07,1.4l1.01-1.49c.45.38-.38,1.02-.64,1.52,2.09-1.06,2.02-4.02,4.25-5.51l-.05-.7.15-.08c-.2-.14-.13-.8.03-1.16.63.01.95.73,1.68-.35.97-.5,1.35-2.35,1.88-3.49-.47.48-.57.14-.54-.2.35-.49.96-.46,1.07-.95l.59.38c-.66-.22.39-1.65.32-1.99.61.07-.24.98-.02,1.35,1.43-1.84.69-.95,2.17-2.69.47-1.24-.64-.29-.67-1.13.65-.9,1.12-2,2.38-2.64l-.74-.15c1.26-1.87,2.2-2.78,3.65-3.51,1.7-3.99,2-6.44,1.93-7.81-.1-1.38-.72-1.72-1.51-1.55-.78.15-1.7.78-2.43,1.37-.74.57-1.28,1.1-1.28,1.1-2.38,2.01-3.5,3.38-5.02,5.31-.78.98-1.73,2.2-2.7,3.58-.99,1.38-1.94,2.89-3.08,4.57Z"/>
        </g>
        <path class="cls-7" d="M379.19,72.76c-1.23-.62-2.21-1.72-2.7-3.01l-.41-1.05h0s-.81-2.14-.81-2.14l1.44,1.59c.63-.44,1.49-.51,2.18-.17l-.57,1.16c-.06-.03-.12-.05-.19-.06.16.1.34.19.52.25-.02-.02-.04-.03-.06-.05l.69-1.09,2.65,1.64-.76.57c-.65.48-1.46.71-2.27.63.26.23.55.42.86.58l-.58,1.15Z"/>
      </g>
    </g>
    <g>
      <path class="cls-3" d="M317.67,78.58l-.67-.36c0,.15.17.29.67.36Z"/>
      <path class="cls-3" d="M290.17,116.79s.11-.07.15-.11c-.11.06-.14.09-.15.11Z"/>
      <polygon class="cls-3" points="288.91 70.27 288.95 70.26 289.12 70.13 288.91 70.27"/>
      <path class="cls-3" d="M327.1,69.4c-4.81-.69-7.82-1.38-10.99-1.9-3.17-.48-6.47-.87-11.83-.25-5.17.16-10.7,1.55-15.33,3-1.93,1.71-6.1,1.79-8.3,3.6l-1.19-.29c-.76.6-1.69,1.2-2.68,1.17v-.2c-1.13.93-2.67,1.21-3.22,1.69l-.02-.2-1.52.68.16-.36c-2.03,1.38-4.27,2.35-6.35,3l.49.66c-4.6,1.06-5.4,3.3-9.59,4.21l-.04-.2c-3.68,4.27-8.08,2.64-11.74,7.19.45-.57-.46-.2-.52-.4-2.02,1.49-4.2,3.05-3.37,4.39-1.53.98-1.46.37-2.1.07.36.56-1.4,2.12-3,3.36l.56-.73-2.34,1.84c-.7.64-1.37,1.27-1.95,1.93.73-.11,1.45-.2,2.17-.24-2.33,1.68-2.35-.05-3.69,1.99l1.28.16c-1.25,1.3-2.47,2.41-3.55,3.72-1.08,1.31-1.96,2.78-2.25,4.76-.11,2.02.46,2.88.84,4.11,4.06.88,8.01,1.78,12.47,1.93,2.21.11,4.36.15,6.66-.04,1.53-.1,2.83-.32,4.24-.47,5.47-.74,10.62-1.6,15.46-1.37l.57.74c.34,1.15,2.69-2.09,3.21-1.05l.58-.33c.18-.11.43-.23.45-.32.16.2.36.4.18.69.32.01.32-.18.69-.57.08.24.12.49.12.73.41.26.92.03,1.85-.23.1-.02.27-.09.31-.07.02.04.04.08.05.13.03.1.05.21.05.35,0,.27-.08.63-.29,1.04-.5.5-.82.87-1.04,1.24l-.04.07v.02s-.08.21-.08.21l-.16.48c-.22.65-.44,1.3-.66,1.96-.43,1.32-.87,2.67-1.32,4.03-.43,1.36-.87,2.73-1.32,4.12-.22.69-.43,1.38-.65,2.08l-.32,1.04c-.09.31-.26.79-.24.85,4.23-1.34,8.68-2.86,12.63-4.26,3.72-1.32,7.22-2.57,10.11-3.6l.5-.2.33-.15.62-.26c.42-.17.84-.33,1.27-.47.86-.28,1.75-.52,2.66-.72,1.81-.4,3.7-.64,5.62-.84,1.33-.05,1.77.17,2.22.32.43.16.67.31,1.04.25,0,.38.06.62.45.88-.2.17.19.2.33.15l-1.09,4.89s-.22,1.01-.55,2.57l-1.58,7.35,7.31-1.07c2.21-.32,5.42-.93,8.49-1.85,3.08-.91,6.01-2.12,7.75-3.32,1.74-1.21,2.28-2.34.74-3.16-1.54-.85-5.18-1.3-11.64-2.05l.14-.29c-2.81.17-4.91.29-6.81.8l5.31,5.83c.13-1.2.1-2.37-.13-3.6.83-.09,1.06-1.03,1.17-2.07l.07-.84c.04-.4.09-.79.12-1.15.09-.73.2-1.35.4-1.78l.11.15c-.27-2.15.28-4.27.84-6.67.55-2.34,1.14-4.97.76-6.5.12.02.61-.37.52.62.02-.91.13-2.02.09-2.9-2.45.64-4.45,1.04-4.12.32-1.98.46-4.15.97-6.37,1.49-2.22.52-4.5,1.05-6.47,1.57l-.75.2-.6.17c-.3.1-.6.19-.9.29-.59.19-1.15.4-1.67.62-1.04.43-1.93.91-2.57,1.46l.14-.3c-1.42,1.39-2.12.69-3.85,1.66-.13-.09-.28-.12-.27-.17-.19.18-.42.34-.67.48-.21.11-.42.22-.64.33-.29.15-.63.24-.96.31-.66.15-1.22.19-1.69.54l.24-.7-1.72.63h.51c-.76,1.08-1,.87-1.13.56-.18-.3-.07-.75-1.45.21-.04,0-.08.01-.14.04-.2.27-.59.92-1.08,1.33-.48.44-.99.7-1.38.67-.2-.01-.36-.09-.49-.23-.16-.03-.12-.61-.12-.93.02-.73.16-1.38.59-2.06-.2-.66.05-.38.34-.17.29.22.63.35.67-.74.99-.18.24,1.04,1.2.38.17-1.19.73-2.19,1.32-3.37.54-1.12,1.11-2.43,1.18-3.74l.89-.6c-.09-.82.06-1.69.34-2.64l.23-.72c-.16-.07-.43-.05-.63-.09-.42-.06-.83-.11-1.24-.17-1.6-.25-3.21-.5-5.06.12-2.34.28-2.78-.17-3.45-.55-.62-.37-1.52-.69-4.11.17-.62-.27-1.31-.5-2.04-.74-1.52,0-.91,1.23-2.5.97.02-.59-1.97-.23-1.15-.89-3.55-.49-6.73,2.22-11.21,1.2-.8,1.24-3.02.8-3.62,1.7-.18-.45-4.25.23-1.96-1,.19-.1.55-.11.54.09l.23-.7c-1.24-.54-2.26-.33-3.31.05-.23.08-.58.17-.71.26-.03.08-.07.17-.12.24-.1.14-.28.23-.4.18.08.23.37.16.1.63-.23-.02-.44-.07-.65-.11.14-.19.28-.38.4-.56-.19-.12-.34-.24-.43-.37-.19.23-.36.46-.52.7-.07-.2.2-.58.36-.8.14-.23.2-.27-.66.15-1.04.46-.85.94-1.7,1.05-.01-.08-.02-.16-.02-.26.02-.14.05-.28.11-.42.03-.07.05-.12.11-.21.11-.12.2-.24.32-.34.43-.43.87-.71,1.13-.88-1.42.19-1.28.04-1.4-.13l1.14-.04c-1.02-.56,2.39.05,1.49-.27l.59.18c-.6-.16-1.16-.36-1.68-.59-.52-.48.02-.42.35-.28.39.09.51.29.15-.59-.18.27-1.31-.95-.5-1.13.08.21.17.42.27.61.07-.21.38-.75.84-.89-.2.56.32.95,1.24.21l-.2,1.13,1.21-2.23c1.82-.33,3.69-2.49,4.77-2.05,0,0,3.4-1.46,3.65-2.75-.34.92,1.55.14,1.41,1.08.48-1.09,2.69-2.95,4.05-2.77l-.15.17c4.04-1.19,5.91-4.14,9.73-4.78-.48-.67,1.51-1.05.66-1.79,3.21-2.49,7.32-.72,7.52-4.18,1.62-.77,2.24-.02,3.15-.18l-.34.3c3.05-1.33,3.97-1.68,6.32-2.33,1.07-.64.85-2.12,3.06-2.36-.53.75.3.4,1.09.2-.48.22-.58.47.55.58.1-.21.3-.37.48-.52.02.04.07.07.06.13,1.26-.52.99-.63.36-.57,0-.09-.07-.19-.3-.3,1.54.39,3.81-.88,4.17.08,3.85-.93,6.62-2.17,10.06-2.67.4.51-.39.98-1.36,1.22l2.39-.25c-.01.74-1.37.45-2.1.63,2.83,1.09,5.9-1.26,9.29.02l.74-.55.2.11c0-.31.8-.68,1.32-.75.44.68-.14,1.48,1.56,1.57,1.29.72,3.84,0,5.65-.16-.94-.21-.6-.53-.17-.71.86.07,1.28.76,1.97.55v.88c-.26-.85,2.31-.63,2.67-.94.41.7-1.39.39-1.65.86,3.41.34,1.71.17,5.12.51,1.9-.4-.22-.86.75-1.5,1.63.06,3.3-.31,5.06.5l-.46-.86c3.13-.11,4.93.31,6.82,1.45,5.9-.49,9.32-1.03,11.07-1.76,1.76-.72,1.84-1.6,1.19-2.46-1.33-1.73-5.79-3.27-5.79-3.27-8.82-3.5-14.02-2.12-25.02-2.73Z"/>
    </g>
    <g>
      <path class="cls-3" d="M412.79,115.94l.05.65c.12-.09.15-.28-.05-.65Z"/>
      <path class="cls-3" d="M379.35,169.03c-.09,0-.2,0-.29.01.2.02.26,0,.29-.01Z"/>
      <path class="cls-3" d="M414.51,139.79s-.01-.02-.01-.02c-.05-.02-.09-.06-.14-.08l.15.11Z"/>
      <path class="cls-3" d="M400.8,116.19c3.86,6.08,3.66,8.46,8.05,14.43,1.72,3.08,3.88,6.18,5.65,9.15,1.81.91,2.1,4.01,3.81,5.33l-.27.97c.59.46,1.13,1.07,1.09,1.83l-.19.04c.88.69,1.07,1.85,1.5,2.2l-.19.04.57,1.08-.34-.08c1.18,1.37,1.94,3.06,2.25,4.52l.7-.41c.17,1.66.66,2.55,1.1,3.44.43.87.8,1.76.43,2.99h-.2c2.39,2.93-1.4,3.63-.74,7.27-.06-.47-.45-.01-.61-.12-.06.21-.08.32-.07.36v.2c0,.14.02.29.06.48.09.36.27.87.78,1.55-.39.55-.61-.03-.99-.56.41.65.24,1.4-.1,1.84l.04-.49c-.26.44-.57.88-.91,1.32.13.57.28,1.12.46,1.64-.82.16-.39-2.15-.96-1.17v1.7c-.11.06-.23.09-.33.08-.08-.2-.15-.42-.22-.65-.47-1.61-.44-3.55-.4-4.58-.2-.43-.43-.74-.71-1.06,0,.04-.34-.47-.53-.73l-.66-.94c-.71-1.11-1.44-2.22-2.14-3.41-1.41-2.32-2.68-4.72-3.91-7.08-1.23-2.35-2.39-4.64-3.45-6.92-.07.06-.14.1-.21.19l-.23.36-.46.72-.91,1.39c-.61.91-1.21,1.78-1.82,2.63-1.22,1.69-2.46,3.27-3.8,4.8-.24-.12-.49-.23-.75-.33-.37-.51-.77.9-1.09,2.22-.16.66-.31,1.3-.47,1.75-.08.22-.17.4-.28.51-.05.05-.11.09-.17.11-.07.03-.14.03-.04-.1l.29-.09.14-.04.07-.02h.04s0-.01,0-.01l2.53,3.81h0s0,0,0,0h0s0-.01,0-.01c-.02-.04-.03-.1-.04-.21-.02-.22.05-.55.17-.89.23-.68.8-1.45.34-.73.48-.77.38-.51.14-.31l-.11.1-.06.05-.03.02h-.01s0,.02,0,.02h0s0,0,0,0l2.01-1.72h0s0,0,0,0c-.05-.02-.1-.03-.16-.05-.12-.04-.25-.08-.42-.13l-.02-1.17c-.42-.73-.89-1.36-1.41-1.96l-.79-.87-.41-.42c-.14-.15-.24-.23-.52-.58-1.9-2.25-3.49-4.47-5.04-7.61-.72-2-1.75-4.3-2.9-6.6-2.72,2.68-6.07,6.86-8.98,10.29-.72.84-1.44,1.68-2.15,2.5-.2.23-.29.34-.37.45l-.27.35c-.18.23-.36.46-.53.69-.35.45-.69.89-1.01,1.31l-.12.16h0c-.36-.38,3.09,3.35,1.63,1.77h0s0,0,0,0h0s0,0,0,0h0s-.05-.08-.05-.08c-.04-.08-.11-.25-.14-.43-.07-.33-.04-.74,0-.92.04-.2.07-.14-.09.1v.02s-.02.01-.02.01h0c.55-.83.15-.23.28-.41h0s-.01,0-.01,0h-.03s-.04-.03-.06-.05c-.04-.03-.09-.09-.15-.15-.12-.14-.25-.36-.4-.65-.28-.55-.68-1.5-1.03-2.37-.34-.89-.68-1.78-1.02-2.68-.35-.9-.69-1.79-1.04-2.68l-.56-1.31-.3-.64-.56-1.03c-.78-1.47-1.67-2.89-2.83-3.83-1.15-.94-2.59-1.58-4.07-1.64-.32-.28-1.37-.01-1.38.14-1.69-.16-3.44.15-5.16.7l-2.11.68c-.43.14-.73.18-.85.18,0,0-.55.17-1.72-.14-1.19-.3-2.71-1.4-3.62-2.39-.5-.49-.91-.97-1.36-1.37-.44-.37-.98-.76-1.65-.64-.63.1-1.6.64-2.22,2.41-.56,1.7-.7,4.85,1.78,8.49l-.34.06c3.49,3.65,8.06,4.53,11.46,2.39.49.72,1.48.47,2.24.09.26-.19.56-.54.75-.32l-.02.14c.36-.76.94-.63,1.25-.24.35.4.39.89.95.77-.1.08-.4.42-.5.33.19.1.45.26.58.48.07.12.07.19.06.36.04.25-.01.46-.19.6,1.05,1.5,2.13,3.39,3.27,5.06.57.84,1.14,1.61,1.74,2.27.61.68,1.4,1.45,2.25,1.9l-.35-.03c1.02.48,1.55.95,2.17,1.48.57.48,1.51,1.22,3.02,1.34.13.16.34.26.29.31.8-.09,1.73-.13,2.83-.41.54-.14,1.12-.34,1.7-.66.28-.15.57-.34.83-.54l.55-.46c.79-.69,1.6-1.32,1.89-1.89l.48.39.49-.53.21-.26.43-.53-.43.25c-.44-.75-.03-.79.4-.74.45.02.82.24,1.03-.78.24-.15.4-.92.69-2,.14-.54.31-1.15.5-1.77.11-.31.21-.62.31-.92.1-.24.24-.74.31-.66.28-.1.59.16.77.94.63-.41-.72,1.21.03,1.34-.28,1.19-.41.35-.51,1.52.28.09.39.7.48,1.22.1.54.16.98.59,1.1l-.39.65c.33-.06.57.11.72.34.08.11.13.25.17.38l.05.2.15.36c.42.98.8,1.88,1.77,2.15.99.8.86,1.44.81,2.04-.02.3-.02.59.16.87.09.14.22.28.42.42.07,0,.77.66,1.41.93.43.71.9,1.46,2.17,2.17,1.1.38,2.57.34,3.71-.15.54-.22,1.03-.55,1.38-.85.21-.25.49-.57.57-.72-.12-.23-.21-.48.05-.48.35.5.51.03.71.71.4.2.34-.29.5-.96.11-.61.47-1.45.6-.29.04-.42.07-.72.11-.85.17-.73.26.22.52-.79-.11.86.49,1.17-.17,2.17-.05.09-.07.01,0-.27l-.24.96c-.15,1.07-.1.79.11.55.2-.28.56-.53.61-.24.09-.3-.05-.44.3-.75l.2.54c-.16.11-.31.22-.46.35,0,.13,0,.23.03.38l.02.19v.09s.1.2.14.3c.15-.21.23-.52.43-.65.14.59.1,1.27.16,1.79.02.14.05.27.1.39.04.12.1.23.27.48.3.43.7.86,1.27,1.26,1.06.6-.44-2.4,1.03-.57,1.19,2.78,3.59,7.2,6.03,10.72-.03-1.35.59-.48,1.26.13l-.03,1.09c.2.15.37.29.52.42,1-.82,1.22-.6,1.48-.3.26.27.67.38,2.1-1.22l-.23.8c.24-.81.44-1.59.63-2.36,1.18-1.85,1.54-1.71,2.03-1.72.43-.03,1.07-.12,2-2.46-1.01,1.18-1.09-1.02.15-1.99l.04.97c.59-.91.65-1.37,1.14-1.79-.15.79.37,1.1,1.28-.26-.03.5-.07,1.01-.13,1.54.41-1.16.71-2.33.94-3.43.42-.38.86-.9,1.21-1.51l.51-.93c.17-.33.32-.63.39-.83.39-.88.69-1.66,1.27-1.82,0,0,.44-.82.72-1.82.3-1.01.41-2.1,0-2.73.47.97,1.14-1.3,1.75-.53-.27-.63-.46-1.75-.58-2.84-.12-1.08-.14-2.14.18-2.78l.11.22c.18-2.31-.5-4.09-1.19-5.63-.7-1.55-1.42-2.91-1.58-4.63-.69.42-.92-1.33-1.71-.55-2.16-2.6-.43-6.26-3.79-6.02-.76-1.25-.05-1.88-.23-2.63l.3.24c-1.41-2.37-1.79-3.06-2.64-4.91-.74-.77-2.11-.24-2.63-2,.79.25.35-.36.03-.96.28.34.54.36.46-.61-.22-.03-.41-.14-.57-.26.04-.03.05-.08.11-.09-.72-.9-.79-.64-.61-.14-.09.02-.17.11-.24.33.11-1.39-1.62-2.83-.82-3.45-1.87-2.86-4.02-4.41-5.82-6.59.27-.54,1.01-.23,1.61.37l-1.22-1.6c.64-.38.98.75,1.42,1.2-.25-2.68-3.62-3.54-4.26-6.46l-.81-.16v-.19c-.26.18-.96-.11-1.28-.39.31-.69,1.25-.81.43-1.94-.11-1.26-2.04-2.38-3.17-3.34.37.69-.07.7-.45.56-.42-.54-.14-1.25-.68-1.51l.66-.57c-.5.7-1.79-.93-2.23-.91.28-.7,1.09.52,1.58.37-1.75-2.17-.87-1.08-2.62-3.25-1.42-.77-.49.72-1.52.63-.93-.93-2.19-1.53-2.72-3.02l-.3.85c-2-1.51-2.85-2.66-3.32-4.42-4.14-2.42-6.8-3.3-8.41-3.43-1.61-.12-2.2.54-2.25,1.48-.13,1.86,1.72,4.78,1.72,4.78,3.18,6.24,7.13,7.47,12.49,13.71Z"/>
    </g>
  </g>
  <g>
    <path class="cls-3" d="M91.12,176.8l-.34-.37c.04.2.13.33.34.37Z"/>
    <path class="cls-3" d="M95.57,233.21s-.07.06-.1.11c.07-.04.09-.08.1-.11Z"/>
    <path class="cls-3" d="M71.13,173.76s.02-.03.02-.03c-.01-.06,0-.13,0-.19v.21Z"/>
    <path class="cls-3" d="M94.71,163.3c-3.17-.29-5.29-.65-7.55-.62-2.22.03-4.66.38-7.9,2.62-3.37,1.68-6.35,5.05-8.11,8.42.16,1.16-.36,2.23-.91,3.36-.48,1.14-1,2.37-.57,3.52l-1.05.57c.25.8.49,1.63-.09,2.28l-.25-.07c.5,1.12.16,2.26.46,2.79l-.26-.04c.02.43.09.85.17,1.27l-.38-.2c.83,1.8,1.18,3.54,1.37,5.22l.98-.44c-.1,1.81.69,2.82,1.36,3.71.77.86,1.38,1.68,1.78,3.3l-.23.12c1.15.37,1.86.83,2.44,1.4.55.59.92,1.28,1.37,1.94.88,1.39,1.89,2.65,4.05,2.33-.53.09-.11.57-.26.78,1.56.52,3.05.97,3.91-.94.92.44.51.94.32,1.74.35-.85,1.29-.89,2.02-.67l-.46.2c.73.18,1.43.32,2.13.45l.19-1.77c.87.84-.44,2.09.71,2.05l.45-1.37c1.32.74,1.48,3.09,2.47,4.53,2.39,1.09,4.91,1.3,6.91,1.78.44.13,1,.24,1.37.41.22.1.25.06.38.1.13.04.25.12.36.2.48.29.76.82.65,1.38-.02.2-.16.43-.32.63l-1.08.35c-.8.21-.19.1.45.1.64-.02,1.32.09.55.18.25.04.51.1.76.17-.3.08-.62.18-.99.09-.06.16.2.16.67.35-.35.04-.71.06-1.05.05-.46.2-.25.44-.11.85.11.41.28.88-.3,1.14-1.26-.12-2.22.52-3.28,1.45-1.04.92-2.22,2.03-3.22,2.78-.33.33-.71.55-1.11.67-.46.08-.94.06-1.42-.01-.97-.21-1.93-.72-2.84-1.28-1.85-1.13-3.43-2.39-5.66-1.62-.06-.25-.52.14-.57.31-1.13-.41-2.27-.9-3.42-1.4,0,0-1.05-.43-2.52-.9-1.47-.46-3.38-.96-5.09-.95-1.7.02-3.19.58-3.72,2.3-.51,1.72-.2,4.6,2.1,9.23l-.24.27c1.84,1.74,3.28,2.52,5.49,1.5-.49,2.09,1.85.91,2.19,1.73l-.11.15c1.93-1.07,2.72,2.26,4.61,1.21-.1.15-.27.72-.62.66,1.18,0,2.79-.14,2.66,1.08,2.76.24,6.91,1.02,8.66-1.08l-.11.35c.97-1.39,1.29-.23,2.47-1.08.09.15.18.22.18.29.52-.72,1.33-.9,2.13-1.06.81-.12,1.61-.22,1.97-.64l.31.76c.74-.29,1.44-.62,2.13-1l-.87.17c-.27-1.11.24-.94.98-.76.74.2,1.71.3,2.12-.74.78-.22.85-1.72.87-2.99.03-1.3-.06-2.5.85-2.5-.18-1.27.66,1.73.91.39.81.85.1.91.93,1.42.24-.6.76-.68,1.34-.85.57-.17,1.2-.55,1.41-1.41l.78.5c.03-1.37.8-2.02,1.56-2.73.69-.72,1.45-1.44.87-2.37-.02-1.16.76-1.35,1.36-1.69.6-.3,1.15-.76.35-2.04.42-.31.84-.64,1.25-1,.19-1.17-1.49-.69-1.08-1.93.79-.03.34-1.65,1.2-1.06.22-1.3-.48-2.48-1.19-3.58-1.28-1.49-2.63-2.7-3.31-5.13-.87.21-1.47-.15-2.03-.51-.54-.35-1.16-.69-1.75-.41.09-.14-.11-.38-.31-.6-.19-.2-.46-.45-.65-.63-.39-.36-.56-.72.56-.9.19-.04.42.16.26.36l.68-.63c-.35-1.28-1.2-1.43-2.12-1.48-.92-.05-1.8.24-2.48-.24.31.47.9.67.26,1.05-.42-.24-.86-.5-1.26-.71l.57-.58-1.77-1.2-.08.98c-.75-.83-.51-2.41-1.99-1.53-.7.54.42,1.5-.61,1.44-.95-1.01-2.35-2.49-3.62-3.2-.21,1.05-.55.89-.98.97l.25-.88c-1.79.74.09-2.08-1.52-1.58l.32-.56-.98,1.69c-1.82,1.29.04-2-2.07-.16.54.04-.51,1.97-.99,1.36l.49-.76c-.41.05-.65.33-.79.07.37-.36.6-1.14.11-1.2l.74-.88c-.48.38-.98.75-1.5,1.12-.17-1.15-1.68-.57-1.19-1.78,0,0-.16-.29-.44-.44-.33-.16-.54-.17-1.09.29.67-.55.5-1.09,1.26-1.76-.4.33-.83.5-1.11.47-.29-.02-.43-.22-.08-.65l.11-.04c.14-.64-.28-.69-.78-.85-.42-.17-.91-.44-.4-1.02-1.02.35-.59-.26-1.87.18-.37-.19-.43-.46-.35-.72.12-.27.35-.51.5-.71.31-.41.32-.62-1.79-.99-.16-.61,1.07-.56,1.3-.77l.21.15c-.11-.48-.08-.79-.08-1.07.06-.27.17-.49.32-.8-.22-.45-1.94-1.42-1.14-1.88.52.6.58.28.73.06,0,.21.23.39.84.42-.17-.17-.26-.32-.32-.45.05.03.1.05.16.1,0-.52-.19-.6-.42-.5-.09-.08-.22-.16-.43-.23,1.09.25.81-1.1,1.83-.18.61-1.08.81-2.78,1.89-3.88.43.58.36,1.23.18,1.64.21-.23.48-.39.72-.59.38.92-.25.71-.4,1,.82.53,1.05-.05,1.48-.62.4-.57.92-1.18,1.73-.59l.12-.83.1.11c-.09-.41.13-1.02.33-1.17.33.82.29,1.96.92,1.82.57.74,1.41-.53,2.15-.99-.38-.16-.27-.63-.09-.93.37-.02.55.85.83.49l-.02,1.16c-.09-1.12.98-1.13,1.16-1.56.11.88-.62.68-.75,1.31,1.35.07.69-.04,2.03.11.9-.72.07-1.1.63-2.03.74-.12,1.65-.65,2.26.22l.05-1.05c1.6-.33,2.47.19,2.81,1.54,3.27-.69,5.8-.59,7.54-.93,1.73-.33,2.48-1.21,2.9-2.11.25-1.04-.17-2.41-.72-3.44-.56-.99-1.19-1.7-1.19-1.7-2.33-3.04-5.06-3.98-7.76-4.29-2.75-.25-5.56.14-9.17.43Z"/>
  </g>
  <g>
    <path class="cls-6" d="M138.24,184.09l-.45.13c.2.02.37,0,.45-.13Z"/>
    <path class="cls-6" d="M141.59,220.37s.03-.06.05-.1c-.02.04-.04.07-.05.1Z"/>
    <path class="cls-6" d="M122.97,189.34h0s-.06-.05-.1-.07l.1.07Z"/>
    <path class="cls-6" d="M125.34,180.29c-.79,2.23-2.86,2.56-2.4,5.18-.33,1.19-.05,2.58.03,3.86,1.47.77-.17,1.66,1.05,2.51l-.91.19c.42.3.69.61.19.82l-.25-.04c.63.43.19.82.51,1.04l-.26-.04.08.47-.36-.11c.66.72.65,1.39.3,1.98h1.07c-1.27,1.24.95,1.79-.5,2.91l-.26-.02c2.8,1.33-1.96,1.91.68,3.37-.33-.18-.55.06-.81.04.29.65.43,1.35,2.53,1.41-.04.47-.67.38-1.48.42.92.01,1.29.43,1.35.81l-.35-.18.31,1.09,1.74-.21c-.5.57-2.12.15-1.7.7l1.44-.02c-.28.79-2.45,1.31-3.47,2.21-.22,1.79.7,3.71,1.69,5.71l.38.77c.13.28.2.33.29.51.17.29.3.64.38.99.17.72.11,1.5-.29,2.42l-1.01.42c-1.51.49,2.48.2,1.12.73.27.06.53.1.8.16-.24.2-.43.59-.85.45.09.5.35.45.91.62-.25.28-.5.58-.74.88.01,1.13.64,1.95,1.34,2.62.69.69,1.44,1.26,1.87,2.22-.07,1.26.62,2.41,1.65,3.26,1.03.85,2.47,1.28,3.75,1.45.96.03,1.83-.06,2.54-.15,2.03-.79,3.51.16,5.62.85,1.03.36,2.15.57,3.25.5.52-.03,1.13-.2,1.65-.46.37-.2.68-.53.93-.98.17.17.24-.39.17-.56.9-.27,1.79-.56,2.7-.94,0,0,.81-.35,1.78-1.11.97-.78,2.1-1.98,2.59-3.58.22-.72.28-1.61,0-2.27-.25-.68-.82-1.15-1.62-1.56-.8-.4-1.9-.69-3.05-1.2-1.2-.52-2.49-1.25-3.9-2.26l-.17-.29c-1.01-.32-1.42-.31-1.18,1.51-.99-1.86-.72.1-1.2-.45l-.05-.17c.15,1.71-1.55-.85-1.33.6-.04-.16-.2-.73-.19-.76.05.27-.16.83-.37-.41-.32.41-.6-.12-1.25,1.94l.08-.36c-.45,1.4-.28.22-.67.91.03-.17.04-.26.06-.33-.65,1.37-.74.12-1.14.61l.37-.83h-.05c-.15.02-.28,0-.44,0l.05.25c-.61,1.09-.54.69-.39.19.15-.52.38-1.09-.19-.54-.01-.23-.9.69-1.8,1.39-.9.72-1.8,1.21-1.54.54-.95.57,1.43-1.09.61-.8.9-.87.65-.42,1.33-1.18-.59.14.73-1.2-.04-.95l.76-.58c-.78.36-.61-.02-.39-.32.21-.31.46-.56-.3-.31-.84-.1,2.44-1.26.67-.92l1.14-.52c.11-.33-1.52.23-1.03-.25.76-.19.48-.59,1.25-.6.97-1.04-2.09-1.09-.4-2.78-1.53.15-.83-.72-1.99-.62.57-.41-.07-.71,1.39-.79.12,0,.11.04-.14.11l.87-.21c1.6-.62-1.03-.25-.84-.74-.28.17-.17.31-.8.32l.06-.42.76-.03.36-.64-.92.19c.44-.37,2.02-.61.67-.86-.75-.12-1.23.42-1.56.08.6-.52,1.53-1.28,1.79-1.9-1.06.09-1.02-.09-1.24-.27l.92-.04c-1.28-.67,2.01-.26,1-.95l.64.06-1.92-.18c-1.82-.66,1.91-.33-.57-1.08.15.29-2.03.11-1.62-.25l.88.11c-.18-.21-.55-.28-.37-.41.48.13,1.29.09,1.14-.21l1.1.22-1.62-.6c.96-.41-.21-1.16,1.04-1.32,0,0,.64-.98-.72-1.25.84.23,1.18-.33,2.17-.15-.95-.29-1.73-1.12-.7-1.44l.11.06c1.07-.97-1.4-1.71-.08-2.55-1.06-.02-.46-.45-1.83-.42-1.28-1.05,2.87-1.48-1.28-2.19-.18-.46,1.03-.43,1.27-.63l.21.13c-.27-.85-.27-1.1-.11-1.7-.37-.35-2.31-.63-1.77-1.14.75.28.63.03.66-.18.1.15.38.23.93.02-.23-.07-.37-.15-.49-.22.06,0,.11,0,.19.02-.23-.38-.48-.36-.6-.21-.12-.02-.27-.03-.49,0,1.04-.23.07-1.04,1.39-.91-.17-1.1-1.42-2.07-1.81-3.05.69,0,1.27.29,1.49.59l-.16-.68c.98.14.51.45.68.68,1.69-.56-1.36-1.81.21-2.53l-.75-.29.14-.04c-.41-.05-.94-.33-1.05-.48.87-.02,1.97.27,1.97-.2.87-.27-.28-1.09-.69-1.63-.17.24-.64.1-.93-.04,0-.23.87-.27.52-.49l1.16.11c-1.1-.03-1.11-.74-1.57-.87.87-.04.7.44,1.33.57-.01-.96,0-.48-.02-1.44-.82-.59-1.1-.01-2.09-.35-.18-.46-.95-.95-.22-1.4l-1.04.08c-.74-.88-.58-1.33.49-1.83-4.06-3.23-6.97-3.39-8.78-3.04-1.83.37-2.62,1.34-2.62,1.34-2.36,1.88.56,3.05,1.07,5.75Z"/>
  </g>
  <g>
    <path class="cls-6" d="M120.66,185.33l.06.33c.02-.15,0-.28-.06-.33Z"/>
    <path class="cls-6" d="M146.91,188.58s.02-.04.03-.07c-.02.02-.03.04-.03.07Z"/>
    <path class="cls-6" d="M123.31,196.59s0,0,0,0c-.01.03-.03.05-.04.08l.04-.08Z"/>
    <path class="cls-6" d="M118.13,195.04c1.34.56,1.51,2.1,3.03,1.68.67.21,1.45-.04,2.14-.13.47-1.12.88.1,1.38-.83l.06.68c.17-.32.35-.52.44-.15l-.03.19c.26-.47.44-.15.57-.38l-.03.19.25-.05-.08.27c.41-.48.76-.47,1.03-.19l.08-.8c.54.97.99-.64,1.45.49l-.03.19c1.02-2,1,1.58,2.03-.31-.13.24-.01.41-.04.61.38-.18.78-.25.99-1.81.26.05.15.52.1,1.12.09-.69.35-.94.56-.96l-.13.25.61-.16.05-1.31c.26.41-.12,1.59.21,1.31l.13-1.07c.4.27.44,1.92.75,2.76,1.65.68,3.84-1.82,5.19.27l-.03.81c-.12,1.18.66-1.68.58-.59l.25-.51c.03.22.11.46-.02.71.17.07.19-.12.36-.46l.09.75c.6.65,1.36-.68,2.03-.31.66,1.6,2.44.44,3.47-.24,1.53-1.59,2.44,3.28,4.03,1.45.02.17.18-.19.2-.32l1.2.32s5.85,1.21,2.61-9.1l.06-.25c-.59-.71-.99-.9-1.62.33.13-1.59-.53-.23-.62-.76l.03-.13c-.56,1.16-.71-1.12-1.24-.08.03-.12.1-.56.19-.57-.31.16-.75.46-.65-.46-.71.15-1.61-.39-2.24,1.02l.06-.25c-.38.96-.34.11-.69.57,0-.12-.01-.19,0-.24-.4.94-.81.05-1.09.44l.06-.61-.56.07.19.16c-.29,1.67-.27-1.1-.81-.07-.34-.26-1.19,3.39-1.47,2.52-.28.76.32-1.26-.03-.69.1-.88.2-.53.22-1.24-.32.38-.32-.95-.73-.4l.07-.68c-.59,1.19-.69-1-1.13.15-.52.51-.04-2.06-.67-.79l-.06-.95c-.18-.17-.29,1.11-.45.64.09-.58-.22-.5-.02-1.03-.38-.97-1.17,1.16-1.63-.46-.29,1.11-.53.4-.74,1.23.05-.49-.65-.16-.14-1.19.04-.08.1-.06.07.13l.13-.66c-.21-1.31-.77.61-1.11.37.08.24.23.2.08.64l-.33-.13.14-.56-.47-.4-.02.71c-.2-.39-.14-1.59-.55-.63-.2.54.12.97-.18,1.16-.27-.52-.68-1.3-1.08-1.56-.06.79-.17.75-.31.89l.07-.68c-.57.89.03-1.52-.52-.83l.1-.47-.3,1.41c-.58,1.3-.04-1.44-.72.35.19-.09-.11,1.51-.29,1.19l.14-.65c-.14.12-.21.39-.28.25.12-.35.16-.95-.03-.86l.23-.81-.49,1.17c-.17-.74-.69.09-.68-.85,0,0-.5-.53-.76.47.19-.62-.08-.9.1-1.63-.24.7-.74,1.23-.81.44l.04-.08c-.53-.86-1.22.93-1.66-.09-.08.8-.32.33-.38,1.35-.72.93-.81-2.2-1.42.91-.29.13-.22-.77-.34-.95l.08-.16c-.53.19-.68.2-1.05.08-.22.28-.44,1.73-.73,1.34.18-.56.03-.47-.09-.49.09-.08.14-.29.03-.7-.05.18-.1.28-.14.37,0-.05,0-.08.01-.14-.23.18-.22.36-.13.45-.02.09-.02.2-.01.37-.12-.77-.61-.03-.51-1.02-.65.15-1.23,1.12-1.8,1.44,0-.52.19-.96.36-1.13l-.39.14c.1-.73.27-.4.4-.53-.29-1.24-1.06,1.07-1.43-.09l-.18.57-.02-.1c-.04.31-.21.71-.3.8,0-.65.19-1.47-.07-1.47-.12-.64-.61.24-.92.55.13.13.04.48-.05.69-.13,0-.12-.64-.26-.38l.1-.87c-.05.82-.45.84-.54,1.18,0-.65.27-.53.36-1-.52.01-.26,0-.78.02-.36.62-.06.82-.28,1.56-.26.14-.57.71-.78.15v.78c-.54.54-.8.41-1-.4-4.17,5.81-1.81,8.44-1.81,8.44,1.11,1.86,2.08-.28,3.73-.67Z"/>
  </g>
  <g>
    <path class="cls-1" d="M177.07,197.56l-.41.24c.2-.02.36-.08.41-.24Z"/>
    <path class="cls-1" d="M180.08,194.13s.03-.07.03-.11c-.03.05-.04.08-.03.11Z"/>
    <path class="cls-1" d="M163.26,206.87h0s-.07-.04-.11-.06l.11.06Z"/>
    <path class="cls-1" d="M163.66,195.77c-.34,2.96-2.28,3.89-1.25,6.82-.06,1.44.52,2.91.86,4.26,1.6.54.15,1.79,1.51,2.46l-.86.36c.46.23.79.52.33.82h-.26c.69.35.33.81.67.99h-.26s.15.47.15.47l-.37-.06c.76.64.84,1.33.56,1.96l1.06-.11c-1.11,1.39,1.12,1.74-.23,2.99h-.26c2.88,1.37-1.82,2.4.89,3.82-.34-.18-.55.09-.81.08.33.69.49,1.42,2.59,1.41-.02.51-.65.42-1.46.49.92-.01,1.31.43,1.37.83l-.36-.18c.03.09.05.2.08.26.01.04.03.06.04.08h0s0,.01,0,.01h0s0,0,0,0h.21s3.07.12,3.07.12c.41.02.82.04,1.24.08.43.04.55.01.83.08.08.03.1.01.15.02-.02.05.05-.02.08-.03.09-.04.17-.03.29-.03.34-.06.68-.1,1.03-.13l2.7-.22,1.26-.08h-.01s-.06-.1-.09-.17l-1.73.24c.48-.51,2.11-.18,1.68-.68l-1.44.03c.27-.81,2.46-1.29,3.53-2.03.34-1.58-.34-3.28-.72-4.95-.38-1.66-.44-3.33,1.06-4.44l1.09.09c1.55.27-2.15-1.18-.69-.97l-.63-.46c.29-.02.63-.11.94.11.12-.25-.13-.31-.54-.62h1.02c.5-.36.35-.81.17-1.26-.21-.35-.48-.7-.18-.82.45.14.73.2.9.18.33-.02.19-.27.42-.87.15-.56.39-1.27.64-1.84.33-1.44,1.76-.79,2.75,0,1.09.8,1.76,1.7,2.68.4.03.23.22-.25.24-.43.52.13,1.01.3,1.49.49.01-.02.42.17,1.04.19.29.06.64.06,1.03.02.36,0,.79-.11,1.25-.27.86-.3,1.99-.95,2.97-2.43.48-.75.9-1.73,1.09-3.1.19-1.38.1-3.09-.64-5.24l.22-.28c-1.37-1.53-2.64-2.09-4.25-.7.28-2.1-1.42-.56-1.71-1.26l.07-.17c-.68.73-1.18.32-1.72-.1-.54-.39-1.12-.8-1.68-.09.04-.17.08-.75.34-.77-.83.22-1.88.77-2.01-.47-1.91.4-4.87.37-5.48,2.69l-.02-.35c-.26,1.46-.8.44-1.3,1.37-.1-.14-.18-.19-.19-.26-.2,1.45-1.92,1.08-2.21,1.87l-.44-.7-1.23.99.58-.16c.52,1.01.11.85-.49.7-.6-.15-1.34-.25-1.39.72-.79.36.28,2.63.67,3.76.17.53.19.88-.25.9.59.98-1.14-1.35-.89-.31-.98-.66-.4-.71-1.27-1.11.03.92-1.74.44-1.5,1.73l-.83-.38c.92,1.93-2.05,1.79-.79,3.05.41,1.26-2.85,0-1.41,1.59l-1.31.15c-.31.45,1.4.68.7,1.08-.76-.2-.75.54-1.41.08-1.45,1.02,1.27,2.68-.97,3.9,1.46.52.48,1.16,1.59,1.52-.67-.03-.25,1.48-1.6.5-.11-.08-.08-.21.18-.18l-.89-.19c-1.78.71.79,1.65.47,2.46.31-.23.26-.56.86-.3l-.18.76-.75-.21-.51,1.13.95-.11c-.51.53-2.12.67-.81,1.36.73.31,1.28-.48,1.56.12-.67.72-1.66,1.82-1.94,2.81,1.06-.09,1.02.18,1.23.45l-.92.03c1.28,1.08-2.02.37-.98,1.57l-.64-.1,1.93.29c.24.15.38.3.49.63.07.34.13.63.19.89.1.46.25.92.44,1.36.09.22.2.42.31.62l.08.15.24.38c.24.35.55.8,1.25,1.44.69.59,1.93,1.57,4.16,1.85,1.08.12,2.33-.03,3.37-.42,1.05-.39,1.87-.97,2.44-1.5,1.15-1.1,1.51-1.94,1.78-2.52.13-.29.21-.53.27-.74l.11-.41v-.05s.05-.19.05-.19c.02-.13.04-.25.07-.38.04-.36.07-.61.1-.94.07-.29.28-.35.48-.46.39-.2.7-.35-.54-.83.16.39-2.02.19-1.63-.28l.89.11c-.19-.26-.56-.35-.38-.52.48.15,1.29.07,1.13-.32l1.11.25-1.64-.71c.95-.58-.28-1.44.97-1.71,0,0,.58-1.24-.8-1.46.86.21,1.16-.46,2.16-.31-.97-.28-1.8-1.16-.79-1.58l.12.06c.98-1.41-1.54-2.24-.35-3.51-1.06.12-.52-.55-1.87-.31-1.41-1.15,2.61-2.43-1.61-2.59-.26-.54.94-.73,1.13-1.03l.23.12c-.42-1.02-.48-1.31-.44-2.09-.44-.36-2.39-.27-1.97-.99.79.16.63-.11.61-.36.13.15.42.18.92-.19-.24-.03-.4-.09-.52-.15.06,0,.11-.02.19-.02-.31-.41-.54-.32-.63-.11-.12,0-.27.03-.48.1.97-.52-.16-1.23,1.17-1.38-.41-1.26-1.85-2.07-2.44-3.09.68-.17,1.3.04,1.59.32l-.3-.73c.99-.06.6.39.81.61,1.53-1.01-1.72-1.73-.33-2.88l-.79-.17.12-.07c-.41.03-.99-.17-1.13-.31.85-.2,1.98-.12,1.89-.63.8-.46-.49-1.13-.98-1.64-.13.3-.61.23-.92.12-.05-.26.8-.45.43-.63l1.16-.09c-1.09.16-1.21-.61-1.69-.68.85-.19.76.36,1.41.39-.16-1.02-.08-.51-.24-1.53-.9-.51-1.09.15-2.12-.06-.25-.48-1.07-.92-.4-1.51l-1.02.22c-.84-.89-.73-1.46.29-2.1-4.27-3.35-7.1-3.82-8.93-3.28-1.81.53-2.57,2.01-2.57,2.01-2.22,2.98.83,4.41,1.82,7.7Z"/>
  </g>
  <g>
    <path class="cls-4" d="M222.58,206.34l.24.31c-.02-.16-.09-.28-.24-.31Z"/>
    <path class="cls-4" d="M220.58,222.77s.04-.04.06-.07c-.04.02-.05.04-.06.07Z"/>
    <path class="cls-4" d="M238.25,205.72v.03c.02.06.03.13.05.18l-.05-.21Z"/>
    <path class="cls-4" d="M219.21,216.94c1.19.21,2.18.39,3.1.55.96.15,1.83.28,2.73.33,1.8.02,3.77-.02,6.77-2.05,1.52-.81,3.11-2.14,4.32-3.96.61-.91,1.09-1.91,1.46-2.94.32-1.02.56-2.05.66-3.11-.5-1.06-.44-2.33-.63-3.6-.17-1.25-.53-2.51-1.39-3.14.12-.32.23-.63.33-.96-.61-.44-1.18-.91-1.21-1.63l.19-.08c-.96-.46-1.35-1.41-1.86-1.55l.18-.11c-.27-.25-.54-.48-.82-.7l.34-.09c-1.5-.65-2.78-1.53-3.89-2.35l-.3.81c-.5-.52-1.01-.84-1.5-1.03-.5-.16-.98-.21-1.43-.25-.92-.12-1.74-.05-2.89-.8l.05-.2c-.82.52-1.47.68-2.1.66-.61.03-1.19-.12-1.81-.26-1.18-.24-2.56-.39-3.61,1.1.26-.36-.29-.37-.33-.57-1.21.69-2.45,1.42-1.68,2.94-.79.4-.89-.11-1.31-.62.36.65-.18,1.27-.7,1.72l.11-.42c-.5.46-1.03.87-1.47,1.39l1.16.84c-1,.33-1.27-1.15-1.81-.24l.78.85c-1.14.75-3,.17-4.65.96-1.08,1.25-1.84,2.86-2.28,4.55-.44,1.85-.45,3.2-.43,4.63.02,2.86.23,5.45-.4,8.22l-.82.37c-1.22.34,2.09,1.16,1,1.57l.72.48c-.18.22-.31.66-.67.42.11.59.29.55.79.85l-.54.86c.09,1.26.79,2.28,1.58,3.2.8.93,1.71,1.77,2.47,2.92.41,1.8,2.46,3.69,4.89,4.59,2.45.94,4.79.86,6.36.66,2.24-.6,4.29.25,6.56.85,2.23.6,4.64.97,6.4-.54.17.15.41-.32.38-.46,1.21-.22,2.41-.5,3.6-.81,0,0,1.08-.32,2.42-.95,1.33-.64,2.92-1.65,3.88-2.85.97-1.21,1.28-2.51.31-3.58-.96-1.11-3.11-1.96-6.55-3.3l-.05-.28c-1.68,0-2.58.15-3.21,1.81-.67-1.58-1.28.22-1.8-.23v-.14c-.63,1.52-2.13-.61-2.78.71.01-.14-.05-.6.14-.67-.6.32-1.44.83-1.61-.14-1.51.48-3.48.07-4.48,1.59l.08-.27c-.59,1.02-.7.11-1.34.59-.02-.13-.05-.21-.03-.26-.34.48-.78.45-1.17.36-.37-.13-.7-.33-.98-.16l.15-.64c-.35-.04-.65-.12-.99-.17l.3.25c-.36.83-.47.49-.59.07-.09-.46-.12-.97-.7-.59-.18-.26-.94.36-1.79.82-.8.42-1.72.69-1.72.04-.89.27,1.22-.69.35-.69.68-.65.6-.21,1.05-.83-.7-.1.19-1.21-.66-1.34l.59-.43c-.79.07-.76-.46-.71-.85.07-.43.19-.81-.52-.82-.88-.66,1.84-1.23.23-1.65l.88-.58c.07-.38-1.27.02-.87-.51.62-.1.4-.62,1.02-.48.38-.52.02-.93-.31-1.44-.28-.5-.51-1.12.35-1.74-1.22-.32-.45-.96-1.34-1.25.51,0,.24-1.35,1.28-.46.08.07.06.18-.15.15l.71.16c1.43-.52-.57-1.38-.2-2.09-.28.16-.27.46-.72.17.08-.21.16-.46.24-.64.18.07.37.17.56.26.19-.23.37-.33.52-.48l-.73-.17c.44-.21,1.71.28.84-.48-.46-.43-1.03-.15-1.1-.6.35-.11.8-.2,1.18-.3.45-.07.78-.19,1.08-.31-.67-.52-.53-.62-.52-.88l.54.5c-.26-1.22,1.28,1.02,1.16.03l.29.43-.84-1.3c-.34-1.55,1.11,1.07.59-.97-.18.25-.99-1.3-.46-1.23l.27.66c.1-.23.03-.52.22-.46.07.4.43.94.62.69l.25.88c-.07-.48-.1-.93-.11-1.39.66.51.95-.56,1.39.35.03-.04.81.33.84-.79-.05.68.36.92.33,1.72.03-.38.17-.75.34-.92.16-.14.34-.08.4.33l-.04.09c.16.19.26.26.39.24.12-.03.28-.18.42-.24.14-.09.3-.17.43-.18.11.04.2.16.2.43.38-.77.41-.24.9-1.2.57-.29.54.39.49.74-.01.36.05.42,1.48-.49.38.21-.42.79-.5.98l-.19.04c.46.25.51.38.46.56.33,0,1.92,0,1.51.33-.62-.15-.49-.03-.52.04-.08-.08-.32-.09-.73-.13.19.05.3.09.38.14-.05-.01-.08-.02-.15-.04.17.16.36.24.46.19.09.03.21.06.38.09-.78-.09-.17.5-1.09-.05.12.34.22,1.7-.55,2.5-.31-.46-.29-1-.19-1.29-.13.14-.28.29-.46.42-.28-.74.16-.54.23-.76-.53-.44-.69-.05-.99.39-.28.43-.71.87-1.28.37l-.12.64-.07-.1c.05.32-.14.81-.3.93-.21-.67-.13-1.58-.61-1.5-.44-.65-.99.36-1.74.67.33.14.2.51.04.74-.31,0-.45-.7-.71-.42l.05-.93c.06.89-.92.87-1.08,1.23-.12-.7.56-.54.69-1.05-1.36-.04-.68-.02-2.04-.06-.81.63.06.89-.37,1.67-.68.13-1.36.72-2.12.13l.21.83c-1.29.58-1.98.5-2.93-.26-2.37,1.92-2.79,3.79-2.63,5,.12,1.24.52,2.11,1.17,2.58.46.59.81,1,1.05,1.27.25.28.39.39.4.39,1.36,1.55,2.65-.71,7.34-.94Z"/>
  </g>
  <g>
    <path class="cls-2" d="M257.29,199.07l-.19-.28c.07.14.14.26.19.28Z"/>
    <path class="cls-2" d="M263.26,230.97s-.04.04-.06.07c.04-.02.05-.05.06-.07Z"/>
    <path class="cls-2" d="M244.32,201.37v-.02s-.05-.08-.09-.11l.09.13Z"/>
    <path class="cls-2" d="M258.15,188.33c-2.67-.22-4.73-.06-6.66.57-1.88.64-3.81,1.83-5.17,4.49-1.66,2.31-2.16,5.28-2,7.96.61.65.65,1.47.77,2.38.13.9.35,1.88,1.13,2.41-.15.27-.3.55-.42.83.57.35,1.06.84,1,1.42l-.19.08c.84.35,1.06,1.19,1.52,1.3l-.18.11c.21.21.42.42.65.61l-.32.09c1.29.54,2.21,1.27,2.92,2.04l.41-.76c1.28,1.96,2.7.61,3.71,2.24l-.09.19c1.31-.72,1.85-.16,2.43.42.58.58,1.18,1.15,2.23.28-.26.21,0,.45-.07.65.81-.07,1.58-.04,1.93-1.69.5.13.3.6.24,1.25.14-.72.66-.93,1-.9-.07.08-.13.16-.21.24.32,0,.63-.04.95-.03l.17-1.39c.4.53-.31,1.67.23,1.47l.32-1.11c.63.43.44,2.21.59,3.2.23.15.47.3.47.26.1.03.23.03.37.03.29,0,.66-.01,1.03.07.76.12,1.41.88.65,1.51-.1.08-.22.16-.37.22l-.92.03c-.67,0-.17.03.31.12.49.09.98.24.37.18.19.06.37.13.56.21-.24,0-.51,0-.78-.1-.08.08.13.12.48.3-.27-.03-.54-.07-.81-.13-.69.03.58.91-.18,1.3-.41-.14-.69-.18-.82-.18-.12.13-.22-.24.17.71.12.3.19.58.23.81.02.08.03.17.04.26v.07s0,.02,0,.02h0s0,0,0,0c0,.28-.08-2.45-.04-1.29h0s0,0,0,0l-.03.02-.13.08c-.3.24-.83.46-1.21.66-1.19.87-2.46-.07-3.64-1-1.2-.92-2.35-1.84-3.76-1.01-.05-.19-.32.17-.35.31-.73-.2-1.45-.41-2.16-.63,0,0-2.62-.7-4.21-.06-.2.08-.41.19-.6.32-.16.13-.32.29-.5.48-.34.38-.73.84-1.01,1.5-.64,1.25-.58,3.56,1.15,6.76l-.14.24c1.26,1.06,2.13,1.4,3.38.26-.21,1.7,1.09.41,1.3,1.02l-.06.13c1.08-1.12,1.53,1.41,2.55.39-.05.13-.15.58-.34.58.63-.11,1.49-.35,1.39.63,1.45-.02,3.42.69,4.53-.78l-.09.27c.64-1.01.7-.08,1.36-.57.02.13.06.2.05.25.67-1,1.75-.04,2.38-.51l.04.66c.36-.03,1.25-.16,1.88-.33-.26,0-.53-.01-.79-.03.03-.92.42-.64.98-.43.57.24,1.41.44,1.78-.38.63-.15.7-1.29.63-2.27-.06-1-.25-1.83.36-1.79-.25-.9.64,1.27.69.36.67.67.16.65.8,1.08.19-.8,1.54-.16,1.64-1.29l.6.42c-.13-.92.38-1.24.89-1.6.5-.35,1-.72.59-1.35-.03-1.35,2.46-.15,1.55-1.92.38-.11.75-.23,1.13-.37.33-.62-1.1-.62-.49-1.24.63.11.63-.86,1.17-.4.39-.58.37-1.22.21-1.84-.39-1.15-1.06-2.12-.54-3.78-1.28-.06-1.08-1.28-2.08-1.19.48-.29-1.07-1.82.59-1.39.14.04.23.22.04.3l.71-.22c.26-.9-.29-1.34-.94-1.61-.64-.3-1.43-.39-1.8-.91.09.43.48.73-.13.82-.23-.29-.49-.57-.76-.84l.62-.27c-.36-.47-.74-.95-1.17-1.39l-.28.72c-.42-.78,0-2.04-1.47-1.66-.68.29.15,1.26-.73,1.02-.85-1.06-1.7-2.28-2.73-2.88-.19.84-.46.69-.8.77l.2-.71c-1.43.62.06-1.69-1.33-1.24l.24-.47-.7,1.4c-.68.58-.72.18-.8-.16-.07-.34-.24-.63-.87.25.38-.05-.17,1.62-.54,1.21l.26-.67c-.27.1-.41.37-.54.19.22-.35.28-.99-.08-.95l.41-.82-.91,1.14c-.33-.84-1.25-.07-1.2-1.09,0,0-.78-.69-1.24.31.35-.61-.04-.98.31-1.72-.4.69-1.2,1.1-1.12.25l.07-.07c-.23-.52-.57-.36-.9-.23-.33.14-.67.23-.51-.29-.46.71-.37.23-.97,1.13-.51.28-.31-.29-.18-.53.15-.27.11-.24-1.32.63-.29-.1.53-.62.69-.71l.16-.07c-.3.04-.35-.06-.31-.21-.32-.02-1.91.08-1.53-.28.63.1.5-.02.51-.12.09.08.31.08.75,0-.19-.03-.3-.06-.4-.1.05,0,.09,0,.15.01-.21-.18-.4-.19-.49-.11-.09-.01-.21-.02-.39-.01.8-.09.05-.59,1.09-.35-.12-.48-.91-1.39-.83-2.14.45.31.75.73.85.94.01-.11,0-.25.04-.36.57.53.24.42.31.58.59.27.39.03.28-.32-.13-.33-.14-.75.26-.29-.08-.19-.15-.39-.22-.58l.06.08c-.14-.29-.25-.76-.21-.88.3.62.57,1.49.65,1.41.23.63.14-.38.41-.76-.12-.12-.11-.5-.05-.74.14-.02.18.67.29.37l-.05.93c0-.87.37-.9.5-1.27-.05.68-.3.56-.37,1.07.41-.02.2-.03.65.01.49-.58.23-.85.64-1.57.34-.07.98-.49,1.05.2l.3-.77c.96-.18,1.39.29,1.1,1.21,2.14-.27,3.95.41,5.24.68,1.31.27,2.16-.11,2.82-.5.57-.62.78-1.73.69-2.63-.05-.93-.33-1.61-.33-1.61-.81-2.96-2.78-4.39-4.84-5.07-2.13-.66-4.4-.8-7.44-.55Z"/>
  </g>
  <g>
    <path class="cls-3" d="M295.19,199.97l-.17-.31c.04.15.09.28.17.31Z"/>
    <path class="cls-3" d="M298.77,230.5s-.04.04-.06.07c.04-.02.06-.05.06-.07Z"/>
    <path class="cls-3" d="M281.54,198.41s0-.02,0-.02c-.02-.05-.02-.1-.04-.14l.03.17Z"/>
    <path class="cls-3" d="M297.16,189.27c-1.05-.15-1.95-.28-2.79-.4-.85-.11-1.77-.16-2.63-.11-1.73.12-3.61.61-5.59,2.53-2.15,1.5-3.83,4.1-4.61,7.09.37.88.12,1.8.01,2.87-.13,1.03-.11,2.23.58,2.98-.19.26-.38.53-.56.82.49.53.92,1.05.79,1.74l-.2.04c.83.62,1.03,1.57,1.49,1.79l-.19.08c.21.27.44.52.66.77l-.34.04c1.33.82,2.29,1.63,3.03,2.49l.44-.74c.61,1.04,1.38,1.24,2.04,1.37.68.14,1.27.24,1.85,1.07l-.09.19c1.39-.69,1.97-.12,2.68.46.72.58,1.41,1.12,2.39.2-.25.23.02.45-.03.65.8-.12,1.51-.14,1.79-1.79.49.1.3.58.26,1.23.12-.73.58-.96.93-.94l-.21.25,1-.05.12-1.4c.42.51-.25,1.68.28,1.46l.29-1.12c.61.39.5,2.22.35,3.09.08.14.24.19.42.23.41.06,1.12.13,1.57.57.27.33.42.65.4.91-.02.28-.2.58-.62.74l-.88-.06c-.64-.07-.17.01.32.16.48.14.98.36.39.23.19.08.38.18.57.28-.23-.02-.48-.04-.76-.18-.06.08.15.14.51.37-.27-.06-.54-.13-.8-.22-.33.02-.16.23,0,.55.17.31.29.73.03.79,0,0-.02,0-.03,0-.82-.52-.99-.52-1.2-.2-.21.3-.48.9-.97,1.29-1.08.87-2.35-.05-3.4-1.02-1.1-.94-2.07-1.92-3.44-1.19-.02-.19-.32.15-.36.28-.64-.26-1.3-.52-1.89-.81,0,0-.14-.05-.37-.14-.22-.07-.54-.17-.9-.28-.33-.1-.78-.17-1.09-.2-.18-.01-.36-.01-.56,0-.14.03-.27.08-.43.14-.42.09-.51.43-.96.71-.41.31-.99.52-1.55.95-.56.42-1.17,1-1.41,2.23-.21,1.13-.03,2.73.66,4.58l-.2.2c.61.7,1.15,1.15,1.74,1.36.57.16,1.17.07,1.91-.39-.41,1.68,1.12.56,1.29,1.2l-.07.12c1.25-.95,1.53,1.57,2.7.68-.07.12-.2.57-.4.54.68-.04,1.62-.23,1.45.75,1.55.1,3.68.88,4.85-.58l-.1.26c.67-.98.75-.09,1.43-.57.02.13.06.2.05.26.6-.96,2.26-.09,2.86-.54l.13.65c.56-.03,1.08-.18,1.61-.28l-.64-.07c-.09-.9.24-.65.76-.34.51.31,1.25.67,1.57-.05.56-.06.72-.97.69-1.94,0-.96-.04-1.65.57-1.57-.16-.89.51,1.29.66.42.6.71.09.64.7,1.12.14-.33.47-.33.81-.37.39-.09.89-.16.95-.81l.56.46c-.1-.94.39-1.23.84-1.58.49-.31.91-.67.51-1.37-.13-1.43,2.33.05,1.34-1.88.35-.08.71-.17,1.06-.27.28-.62-1.1-.76-.56-1.35.61.17.58-.82,1.12-.3.56-.79.2-1.76-.12-2.68-.33-.95-.66-1.83-.12-3.15-1.32-.2-.89-1.31-1.89-1.31.53-.19-.8-2.05.77-1.37.13.07.19.26,0,.33l.72-.13c.37-.93-.14-1.45-.72-1.83-.58-.4-1.33-.6-1.62-1.2.04.46.37.84-.22.85-.2-.34-.38-.68-.62-.99l.63-.2c-.31-.53-.6-1.1-.99-1.59l-.34.71c-.28-.67-.01-1.54-.6-1.83-.16-.06-.39-.08-.71-.01-.7.24.07,1.28-.8.96-.31-.51-.74-1.16-1.31-1.76-.64-.64-1.23-1.12-1.8-1.45-.16.84-.47.7-.84.77l.18-.71c-1.49.63-.05-1.71-1.46-1.22l.22-.47-.66,1.42c-1.27,1.22-.26-1.62-1.67.14.42-.05-.11,1.62-.52,1.23l.24-.68c-.29.1-.43.38-.57.21.21-.35.25-1-.15-.95l.39-.83-.9,1.17c-.42-.83-1.31-.02-1.32-1.03,0,0-.21-.16-.46-.19-.22-.03-.45.08-.66.59.29-.63-.02-.97.28-1.72-.34.72-1.03,1.16-.94.33l.06-.08c-.16-.5-.47-.32-.76-.18-.3.15-.59.24-.39-.23-.5.69-.32.24-.98,1.1-.49.29-.22-.22.02-.38.06-.05.1-.08,0-.01-.03.02-.06.04-.11.07.06-.03-.46.26-1.18.59-.22-.04.69-.41.86-.45.04,0,.16-.05.13-.04,0,0,.02,0,0,0-.1.03-.2.05-.3.08h-.04s-.1.03-.05.02c.04,0,.02,0,.2,0-.27,0-1.84-.34-1.4-.5.56.25.49.14.51.07.07.08.3.15.7.24-.18-.08-.29-.14-.36-.2.05.02.08.03.14.06-.14-.19-.32-.28-.43-.25-.08-.04-.2-.09-.36-.14.77.22.21-.48,1.1.1.04-.47-.33-1.66.05-2.39.35.43.48.92.47,1.18l.22-.38c.39.69.06.51.05.69.52.42.49.08.54-.32.04-.38.2-.81.58-.31l-.05-.63.05.09c-.08-.32-.04-.79.04-.92.2.66.25,1.57.51,1.49.27.62.61-.38,1.01-.75-.19-.12-.13-.5-.03-.74.2-.01.26.68.42.39l-.05.93c-.02-.89.56-.89.68-1.26.02.69-.37.56-.46,1.07.72,0,.36,0,1.12.04.56-.6.1-.88.47-1.63.44-.1,1.02-.61,1.36.06l.07-.83c1-.38,1.5-.1,1.76.88,4.28-1.96,5.6-3.82,5.68-5.38.12-1.53-1.01-2.65-1.01-2.65-1.05-1.4-2.34-1.71-3.84-1.67-1.52.06-3.21.39-5.59.59Z"/>
  </g>
  <g>
    <path class="cls-5" d="M323.24,209.29l.43-.22c-.14-.05-.29,0-.43.22Z"/>
    <path class="cls-5" d="M366.13,199.34s.06.04.1.06c-.05-.05-.07-.06-.1-.06Z"/>
    <path class="cls-5" d="M338.35,200.13v.02s.02.08.04.12l-.04-.13Z"/>
    <path class="cls-5" d="M331.16,216.82c2-4.33,3.86-4.98,5.02-9.81.95-2.16,1.51-4.64,2.16-6.86-.71-1.44,1.06-2.85.59-4.41l.8-.23c-.16-.54-.19-1.11.31-1.41l.17.1c-.24-.81.31-1.41.19-1.81l.17.1.21-.79.21.23c-.09-1.28.3-2.42.9-3.33l-.79-.2c1.65-1.81.36-3.18,2.08-4.73l.17.09c-1.11-3.17,2.78-3.36,1.79-6.57.13.4.44,0,.62.1.2-1.24.53-2.52-.96-3.07.32-.84.71-.52,1.33-.43-.66-.23-.67-1.06-.48-1.74l.15.39.44-1.98-1.37-.06c.71-.88,1.6.27,1.64-.8l-1.03-.34c.68-1.32,2.52-1.61,3.74-2.71l.23-.57-10.08,1.18c2.73,4.84,7.91,8.8,8.65,14.28l-.62.59c-1.01.63,2.24.5,1.35,1.19l.77.31c-.11.25-.15.68-.53.53.22.53.4.46.91.67l-.39.88c.45,2.28,2.6,3.39,3.29,5.7-.18,3.2,3.09,7.59,4.92,10.25,1.6,1.74,1.67,4.25,1.72,6.71.03,2.48.07,4.9,1.62,6.78-.13.18.34.44.47.41.32,1.32.58,2.65.84,3.99,0,0,1.04,4.8,2.67,7.62,1.65,2.76,4.29,3.78,7.62-4.95l.28.05c.13-2.44-.06-3.95-1.74-5.22,1.5-.63-.3-1.93.07-2.59l.14.02c-1.57-1.07.21-3.14-1.23-4.19.14.02.57-.08.68.23-.47-.93-1.23-2.15-.35-2.49-.91-2.26-1.6-5.63-3.51-6.6h.28c-1.25-.48-.53-1.01-1.34-1.76.1-.09.13-.18.18-.19-1.25-.56-1.11-2.57-1.79-3.14l.56-.27-.83-1.73.13.71c-1.67.4.48-1.75-1.09-2.61-.31-1.29-4.25-1.03-4.04-2.56-.99-.26,1.42-.01.47-.63.8-.39.69.18,1.24-.33-.77-.68.2-1.77-.82-2.58l.61-.33c-1.78-.84-.39-2.97-1.91-3.36-1.18-1.15,1.39-1.85-.55-2.7l.55-.99c-.18-.69-1.25.07-1.19-.82.55-.23-.02-1.09.68-.94,0-1.99-2.8-2.54-2.55-5.3-1.25.12-1.22-1.23-2.15-1.13.41-.3-1.06-2.07.52-1.47.13.05.21.24.04.32l.67-.2c.48-1.8-1.82-1.72-2.29-2.95,0,.45.31.86-.27.8l-.53-1.09.62-.07-.63-1.72-.48.58c-.14-.94.73-1.83-.65-2.16-.71-.09-.38,1.21-1.06.53-.09-.59-.21-1.31-.37-2.06-.51-2.42-2.89-3.96-5.3-3.44-1.04.22-1.92.78-2.54,1.55l-2.53,3.11c-.53.65-1.05,1.36-1.4,2.06.8.13.65.49.67.92l-.67-.18c.41,1.77-1.62.04-1.4,1.73l-.41-.29,1.24.86c.84,1.76-1.6.23-.34,2.29.09-.61,1.54.24,1.01.84l-.57-.4c0,.44.22.66,0,.87-.26-.35-.87-.45-.97.16l-.65-.66.77,1.5c-.98.59-.6,2.22-1.61,2.25,0,0-1.09,1.64-.27,2.4-.47-.58-1.06.32-1.67-.22.51.71.57,2.29-.36,2.57l-.04-.13c-1.49,1.76-.27,3.85-1.85,5.34.79.2.01,1.01,1.07,1.13.25,2.25-3.25,2.71-.53,4.51-.16.92-1.08.76-1.4,1.14l-.08-.26c-.37,1.7-.52,2.18-1.04,3.36.06.71,1.41,1.32.67,2.27-.42-.55-.48-.08-.63.32.01-.29-.16-.44-.73-.06.14.14.2.29.25.43-.05-.01-.09,0-.14-.04-.06.74.16.69.35.41.08.05.2.06.38.02-.97.43-.69,1.96-1.66,1.68-.54,2.1-.11,3.91-.37,5.73-.56,0-.84-.55-.85-1.11l-.27,1.26c-.7-.27-.15-.84-.15-1.26-1.66,1,.03,3.35-1.63,4.63l.43.55-.13.07c.3.1.55.63.56.91-.7.01-1.4-.54-1.67.3-.83.44-.39,1.97-.37,2.95.27-.42.56-.15.7.13-.13.42-.83.44-.68.85l-.84-.26c.84.12.44,1.39.73,1.66-.7.01-.29-.83-.72-1.1-.52,1.69-.26.85-.79,2.54.3,1.11.84.12,1.41.8-.12.84.18,1.81-.64,2.53l.84-.02c.05,1.67-.34,2.52-1.43,3.26,1.1,6.54,2.99,7.78,4.55,7.43,1.57-.35,2.85-2.3,2.85-2.3,3.1-3.69,1.73-6.63,3.01-11.92Z"/>
  </g>
  <g>
    <path class="cls-5" d="M279.86,196.06l.27.43c0-.2-.07-.37-.27-.43Z"/>
    <path class="cls-5" d="M346.31,195.63s.04-.05.06-.1c-.04.03-.06.06-.06.1Z"/>
    <path class="cls-5" d="M290.17,210.42h-.01s-.04.07-.07.11l.08-.11Z"/>
    <path class="cls-5" d="M362.21,205.33c-.41-1.78-1.75-4.06-4.6-7.26l.06-.34c-1.68-.79-2.69-.94-3.82.81-.22-2.12-1.38-.2-1.78-.88l.03-.17c-1,1.65-2.12-1.32-3.09.15.04-.17.05-.75.28-.79-.72.28-1.7.76-1.76-.48-1.72.34-4.12-.2-5.21,1.78l.07-.34c-.62,1.34-.81.2-1.51.88-.04-.16-.09-.24-.08-.31-.68,1.32-2,.22-2.55.78l-.04-.82-1.37.2.51.17c-.16,2.26-1.04-1.41-2.02.06-.93-.28-1.86,4.7-2.83,3.6-.46,1.06.4-1.72-.29-.9-.03-1.18.32-.74.14-1.68-.39.33-.7-.13-1.06-.41-.93,4.2-2.26,8.31-3.82,12.33,1.4.06,2.68-1.25,4.21-.93,2.17,2,6.24.13,8.59-.96,3.28-2.38,7.19,3.87,10.57,1.12.11.22.39-.29.39-.47l3.13.17s.94.03,2.2-.16c1.29-.2,2.73-.53,4.04-1.37,1.25-.82,1.99-2.02,1.62-3.78Z"/>
  </g>
  <g>
    <path class="cls-5" d="M389.51,210.89l-.38.21c.17,0,.32-.06.38-.21Z"/>
    <path class="cls-5" d="M376.84,218.92s0,0,0-.01c-.04-.02-.06-.04-.1-.05l.1.06Z"/>
    <path class="cls-5" d="M377.54,213.19c-.12,1.34.27,2.76.48,4.06.97.45.5,1.2.67,1.85.11,0,.22-.01.32.01,1.94.48,3.96.15,5.91-.09,1.92-.24,3.8-.35,5.7-.03-.02-.25-.02-.48.01-.8-.34-.36-1.94-.39-1.56-1.04.64.2.52-.06.51-.31.1.15.33.2.76-.13-.2-.04-.32-.11-.42-.17.05,0,.09-.02.16-.01-.23-.4-.43-.33-.51-.14-.1,0-.22,0-.4.07.82-.43-.07-1.17,1.02-1.24-.27-1.21-1.4-2.06-1.84-3.07.56-.12,1.06.11,1.28.4l-.21-.72c.81,0,.47.41.63.62,1.3-.88-1.32-1.74-.13-2.76l-.64-.2.11-.06c-.34,0-.8-.21-.91-.36.7-.15,1.62-.02,1.57-.51.67-.4-.35-1.11-.74-1.62-.12.28-.51.2-.76.08-.03-.25.68-.4.37-.59l.95-.04c-.89.11-.97-.63-1.36-.72.7-.15.61.38,1.14.43-.1-.99-.05-.5-.15-1.49-.72-.52-.9.11-1.73-.13-.19-.47-.86-.91-.29-1.46l-.84.18c-.66-.87-.57-1.4.28-2.01-6.93-6.45-9.39-1.24-9.39-1.24-1.84,2.61.63,3.91,1.32,6.97-.4,2.71-2.02,3.45-1.33,6.24Z"/>
    <path class="cls-5" d="M390.8,218.84c-.14-.65-.1-1.43-.22-2.15-1.2.11-2.4.28-3.58.44-2.69.37-5.4.8-8.11.87-.59,1.17-.96,2.34-.02,3.42-.18.09.23.3.38.3l-.16,2.38s-.37,11.53,10.24,2.61l.28.05c.67-1.31.81-2.13-.61-3.01,1.73-.17.17-1.07.73-1.38l.14.03c-1.34-.77,1.09-1.65-.11-2.4.14.03.62.04.65.21-.23-.55-.62-1.31.39-1.37Z"/>
  </g>
  <path class="cls-5" d="M372.15,142.65s0,0,0,0c-.04-.01-.06-.03-.11-.04l.11.05Z"/>
  <path class="cls-5" d="M375.76,187.74c3.91.49,7.84.46,11.77.4.02-.01.03-.03.05-.04l-.64-.17.11-.05c-.34,0-.8-.18-.91-.31.7-.13,1.62-.01,1.58-.44.68-.35-.35-.96-.73-1.4-.12.24-.51.17-.76.07-.03-.21.68-.35.37-.51l.95-.03c-.89.09-.97-.55-1.36-.62.7-.13.61.33,1.14.37-.1-.86-.05-.43-.14-1.29-.72-.45-.9.09-1.73-.12-.19-.4-.85-.79-.29-1.26l-.84.16c-.66-.75-.57-1.21.28-1.73-6.91-5.58-9.39-1.09-9.39-1.09-1.85,2.25.62,3.37,1.29,6.02-.15.85-.46,1.47-.76,2.03Z"/>
  <path class="cls-5" d="M387.05,183.41c-.21-.87,0-2-.59-2.81-3.98-.04-7.99.29-11.51,2.39-.47.9-.67,1.78.16,2.61-.18.07.23.26.38.26l-.17,2.05s-.42,9.94,10.23,2.27l.28.05c.68-1.13.82-1.84-.6-2.59,1.74-.14.17-.92.73-1.19l.14.02c-1.34-.67,1.1-1.42-.1-2.07.14.02.62.03.64.18-.22-.48-.61-1.13.4-1.18Z"/>
  <g>
    <path class="cls-5" d="M413.93,209.65l-.07-.43c0,.2,0,.37.07.43Z"/>
    <path class="cls-5" d="M413.96,216.8s.01-.06.02-.1c-.01.03-.02.06-.02.1Z"/>
    <path class="cls-5" d="M406.73,196.13h.01c0-.05.01-.08.02-.12l-.03.12Z"/>
    <path class="cls-5" d="M416.9,196.62c-2.32-.8-3.11-2.88-6.04-1.84-1.43-.03-2.88.73-4.12,1.35-.15,1.66-1.71.58-1.91,2.09l-.61-.7c-.06.51-.19.91-.63.58l-.1-.24c-.1.79-.77.69-.8,1.1l-.11-.23-.43.39-.11-.37c-.34,1.03-.94,1.53-1.72,1.75l.72.79c-.96.01-1.19.59-1.38,1.1-.19.52-.34.98-1.34,1.1l-.19-.17c.56,1.58-.15,1.81-.96,2.24-.78.39-1.64,1.02-.69,2.39-.24-.34-.55-.08-.8-.17-.01.99-.03,1.97,2.04,2.35-.12.53-.72.34-1.54.3.91.14,1.22.67,1.25,1.09l-.34-.23c.06.43.15.84.26,1.24l1.74-.21c-.49.56-2.12.16-1.68.74l1.44-.07c-.24.76-2.35,1.5-3.21,2.66.09,2.01,1.66,3.71,3,4.84,1.39,1.21,2.55,2.13,2.87,4.11l-.61.91c-.97,1.27,2.19-1.2,1.35-.01l.73-.35c-.09.28-.09.66-.45.83.25.25.41.05.88-.2l-.24,1.02c.83,1.45,2.79.33,3.95,1.17.2.54.58.92,1.05,1.19,1.61.94,4.07-.1,5.27-.94,1.11-1.16,2.19-.22,3.46.58,1.23.8,2.6,1.48,3.3-.06.11.2.17-.32.13-.5l1.77-.2s2.07-.41,2.73-2.18c.71-1.78.06-4.83-4.39-10.32l-.06-.34c-.97-.59-1.43-.65-1.47,1.15-.61-2.03-.62-.06-.95-.7l-.03-.17c-.06,1.7-1.11-1.14-1.18.36-.02-.17-.12-.74-.04-.79-.2.31-.49.84-.71-.38-.57.42-1.3-.09-1.57,1.89v-.34c-.16,1.34-.24.2-.47.88-.01-.16-.03-.24-.02-.31-.26,1.32-.66.18-.86.73l.06-.82-.43.15.13.19c-.37,2.24-.1-1.44-.61-.05-.13-.23-.91,2.22-1.5,3.1-.2.33-.36.43-.37.11-.5.95.68-1.59.18-.89.37-1.11.34-.67.58-1.58-.39.45.14-1.22-.36-.58l.36-.84c-.99,1.4.13-1.28-.79.03-.67.46,1.34-2.36.13-1.03l.66-1.05c.06-.21-.98,1.15-.7.61.5-.6.3-.56.82-1.09.33-.53,0-.24-.32-.09-.3.16-.59.18.14-.56-1.23.91-.59.24-1.55.87.53-.4-.08-.31,1.21-.97.1-.06.09-.03-.12.11l.75-.49c1.39-.97-.87.38-.71.11-.25.16-.16.17-.72.43l.05-.17.69-.31c.12-.1.25-.16.38-.24l-.86.37c.42-.25,1.94-.76.67-.34-.72.2-1.18.45-1.49.47.29-.15.66-.3,1-.41.17-.05.33-.1.47-.13.13-.03.31-.05.18-.04-.45.06-.66.08-.79.1-.15.01-.19.01-.3.01l.91-.09c-.71.05.12-.01-.12,0-.09,0-.09,0-.19,0h.03s-.08,0-.08,0c-.29,0-.51-.02-.42-.01.06,0,.33.01.22,0-.09,0-.01,0-.29-.03.16.02-2.02-.2-1.6-.23l.88.13c-.18-.04-.55-.11-.37-.09.24.04.55.1.79.14.06,0,.11.02.16.03.01,0-.01,0-.01,0-.03,0-.03,0-.06-.01h.07s-.09,0-.09,0l-.25-.06c.16.04.13.03.1.02-.02,0-.04-.01-.06-.02l-.1-.03c-.11-.04-.03-.01,0,0-.03-.02.28.13.28.13.02,0,.12.06.09.05.08.04.29.18.38.25h-.02c.15.1.28.21.37.3l.07.07s-.05-.06-.05-.06c-.03-.04.06.05.22.25-.64-.78-.28-.38-1.1-1.44-.34-.6.16-.09.36.18.22.26.2.24-.71-1.65.02-.27.63.8.78.97l.05.22c.16-.46.25-.52.52-.52-.03-.43-.61-2.29-.19-1.92.14.77.2.6.29.57-.03.14.04.41.29.88-.05-.24-.06-.39-.07-.51.02.06.03.1.05.18.08-.3,0-.53-.1-.61-.03-.12-.07-.26-.15-.46.41.94.46-.18.76,1.12.36-.38.54-1.8,1.01-2.35.1.68.02,1.29-.07,1.57l.28-.26c.05.99-.14.58-.21.77.23.79.34.39.52-.04.17-.41.4-.84.59-.11l.12-.77.02.13c.02-.41.15-.97.23-1.1.01.86-.12,1.98.08,1.94.09.84.5-.36.81-.8-.11-.16,0-.63.09-.92.13,0,.07.85.22.5l-.17,1.15c.12-1.09.49-1.12.63-1.58-.09.86-.32.7-.45,1.33.47-.04.24-.01.72-.03.44-.8.19-1.08.53-2.05.29-.18.75-.88.86-.14l.17-1.02c.71-.65,1.01-.42,1.02.67,1.56-1.7,2.79-3.11,3.61-4.36.83-1.25,1.23-2.35,1.43-3.25.33-1.82-.43-2.93-.43-2.93-.67-1.44-1.61-1.54-2.67-1.24-1.06.31-2.23,1.01-3.66,1.2Z"/>
  </g>
  <g>
    <path class="cls-5" d="M429.2,170.53l-.43.16c.2,0,.37-.04.43-.16Z"/>
    <path class="cls-5" d="M432.02,215.7s.06.02.1.03c-.04-.03-.07-.03-.1-.03Z"/>
    <path class="cls-5" d="M414.72,177.58h0s-.07-.04-.11-.06l.11.06Z"/>
    <path class="cls-5" d="M415.99,167.84c-.57,2.53-2.65,3.22-1.83,5.89-.16,1.26.28,2.63.55,3.84,1.57.55.06,1.6,1.38,2.26l-.88.29c.45.23.76.49.29.74h-.26c.68.33.28.73.63.9h-.26s.13.41.13.41l-.37-.06c.73.59.81,1.21.5,1.77l1.07-.09c-1.15,1.23,1.09,1.56-.29,2.69h-.26c2.89,1.19-1.8,2.22.95,3.45-.34-.15-.55.11-.81.11.34.62.54,1.29,2.63,1.16,0,.46-.63.42-1.44.53.92-.06,1.33.31,1.41.67l-.37-.14.38,1.01,1.72-.32c-.46.58-2.1.28-1.65.77l1.44-.11c-.23.77-2.38,1.36-3.38,2.17-.39,3.09,3.53,6.03,1.26,9.05l-1.07.22c-1.57.2,2.4.57.95.8l.75.26c-.27.12-.56.34-.92.21-.03.31.23.29.72.46l-.95.41c-.65,1.26,1.33,2.09,1.07,3.38-1.85,1.69.26,4.34,1.49,5.84,2.58,2.04-3.41,5.32-.48,7.36-.21.1.31.24.49.22v2.14s.1,2.58,1.73,4.01c1.63,1.43,4.8,1.8,10.93-2.77l.35.02c.72-1.26.83-2.01-.98-2.64,2.1-.34.12-.98.78-1.32h.17c-1.7-.54,1.2-1.59-.32-2.13.17,0,.75-.04.8.12-.32-.47-.86-1.11.37-1.27-.44-1.16-.04-2.88-2.08-3.44l.35.02c-1.37-.3-.25-.54-.98-.96.16-.04.24-.09.31-.09-1.36-.34-.35-1.36-.94-1.68l.81-.11-.28-.92-.14.37c-2.26.1,1.34-.85-.18-1.39.22-.66-4.79-.84-3.76-1.61-1.08-.21,1.74.11.88-.28,1.17-.13.76.15,1.68-.06-.6-.41,1.12-.87.28-1.37l.91-.11c-1.74-.59,1.07-1.52-.57-1.86-.82-.7,2.66-.76.8-1.4l1.21-.42c.17-.36-1.53-.11-.97-.54.78-.05.58-.53,1.34-.38,1.14-.96-1.88-1.58.08-2.89-1.53-.12-.68-.76-1.84-.85.66-.09.02-1.14,1.5-.63.12.04.11.14-.15.16h.9c1.64-.78-1.02-1.08-.81-1.74-.28.21-.18.46-.81.34l.08-.6.77.06.37-.91-.93.19c.45-.47,2.03-.74.66-1.12-.76-.16-1.23.5-1.56.07.59-.62,1.49-1.55,1.72-2.3-1.05.14-1.02-.06-1.25-.24l.91-.09c-1.32-.69,1.99-.42.93-1.12l.64.02-1.93-.07c-1.86-.57,1.87-.5-.66-1.11.18.3-2.01.27-1.64-.13l.89.04c-.2-.2-.58-.24-.4-.39.49.09,1.29-.02,1.12-.31l1.12.13-1.66-.47c.92-.5-.31-1.14.93-1.39,0,0,.56-.99-.82-1.13.86.15,1.15-.4,2.16-.3-.97-.19-1.8-.89-.79-1.23l.12.05c.99-1.12-1.51-1.77-.28-2.79-1.06.09-.5-.45-1.86-.27-1.38-.96,2.69-1.92-1.52-2.15-.24-.45.97-.57,1.18-.81l.22.1c-.36-.84-.41-1.09-.33-1.73-.42-.31-2.37-.33-1.91-.9.78.17.63-.06.63-.27.13.13.41.17.93-.11-.24-.04-.39-.09-.51-.15.06,0,.11-.01.19,0-.28-.35-.52-.29-.63-.12-.12,0-.27,0-.48.06,1-.38-.07-1.03,1.27-1.08-.31-1.05-1.69-1.82-2.2-2.72.69-.09,1.29.12,1.56.38l-.25-.63c.99.02.57.37.77.56,1.59-.72-1.58-1.56-.09-2.4l-.78-.2.13-.05c-.41,0-.97-.22-1.1-.35.86-.1,1.98.07,1.94-.36.84-.31-.39-.97-.84-1.44-.15.23-.63.14-.93.02-.02-.22.84-.31.48-.49l1.16.03c-1.1.03-1.14-.61-1.61-.72.87-.08.72.37,1.36.45-.05-.85-.03-.43-.08-1.28-.84-.51-1.1.01-2.1-.27-.2-.42-.98-.88-.26-1.3l-1.03.07c-.76-.84-.59-1.31.51-1.72-3.87-3.31-6.65-4.15-8.51-3.92-1.85.22-2.76,1.44-2.76,1.44-2.58,2.41.37,4,.99,6.97Z"/>
  </g>
</svg>