<?xml version="1.0" encoding="UTF-8"?>
<svg id="Livello_1" data-name="Livello 1" xmlns="http://www.w3.org/2000/svg" width="131.25mm" height="124.92mm" viewBox="0 0 372.05 354.12">
  <defs>
    <style>
      .cls-1 {
        fill: #4d916a;
      }

      .cls-2 {
        fill: #01974c;
      }

      .cls-3 {
        fill: #202020;
      }
    </style>
  </defs>
  <g>
    <path class="cls-1" d="M34.62,205.74c-.01-.08-.02-.14-.03-.19-.42-.25-.65-.59-1.07-.81l1.1,1Z"/>
    <path class="cls-1" d="M336.94,202.05c-1.26-4.88-2.2-10.23-1.52-15.25,1-7.41,4.83-14.22,3.99-21.87-.76-6.95-3.56-13.48-7.3-19.34-3.89-6.2-8.94-11.87-14.07-16.6-5.13-4.75-10.4-8.53-14.83-11.45-.89-.39-1.78-.78-2.68-1.17-.81-.38-1.55-.75-2.23-1.16-1.37-.81-2.53-1.76-3.57-2.81-2.02-2.12-3.44-4.69-4.47-7.64-2.1-5.86-2.87-13.24-4.3-20.76-1.39-7.49-3.54-15.09-7.67-20.77-3.99-5.58-10.58-9.73-20.24-9.38.26-2.14-4.36-.05-5.14,1.28-7.54-5.61-16.86-11.2-28.27-15.28,0,0-.63-.23-1.87-.57-1.23-.34-2.97-.83-5.35-1.3-4.69-1-11.29-1.8-18.6-1.4-7.3.36-15.27,1.98-22.49,5.08-1.9.81-3.74,1.72-5.5,2.72-.19-.45-.37-.88-.56-1.31-2.13-3.47-4.83-6.24-7.74-8.39-2.9-2.16-6.02-3.74-8.84-4.69-2.83-.98-5.41-1.51-7.27-1.8-1.87-.3-2.99-.29-2.99-.29-2.39-.39-4.69-.59-6.89-.64-2.21-.05-4.34.02-6.33.36-2,.3-3.9.74-5.72,1.3-1.82.56-3.55,1.21-5.2,2.08-3.27,1.7-6.3,3.76-8.89,6.18-2.55,2.44-4.88,5.15-6.97,8.07-2,2.96-3.85,6.1-5.63,9.37-1.67,3.31-3.27,6.74-4.93,10.23-1.53,3.53-3.17,7.11-4.89,10.75-.83,1.83-1.7,3.67-2.65,5.52-.94,1.8-1.91,3.67-2.92,5.59-1.39,1.24-2.77,2.4-4.12,3.48-1.34,1.09-2.6,2.14-3.89,3.12-2.55,1.96-5.06,3.69-7.4,5.36-4.81,3.29-9.22,6.21-13.41,9.48-4.06,3.34-7.91,7.01-10.94,12.04-.77,1.25-1.5,2.57-2.2,3.98-.66,1.43-1.28,2.88-1.85,4.56-1.13,3.26-2.08,7.17-2.7,11.74-3.39,8.07-5.33,18.07-5.62,29.37-.43,15.89.78,30.01,10.96,42.44,8.24,10.05,9.9,20.59,14.4,32.33,4.58,11.96,14.23,21.15,23.58,29.9,1.45,1.36,3.04,2.8,5.01,3.09,1.97.3,4.32-1.14,4.15-3.13.69,8.22,12.41,11.51,17.86,15.65,3.41,2.59,5.13,6.4,8.36,7.5,3.03,1.04,6.45.29,9.43,1.66,8.26,3.81,12.29,11.8,22.03,14.15,1.72.42,3.49.71,5.13,1.36,1.27.51,2.45,1.25,3.76,1.67,4.22,1.35,8.7-.75,12.63-2.8,7.55-3.92,17.5-11.64,26.09-12.64,3.95-.46,3.77-4.24,6.16-6.23,5.63,3.82,8.04,11.45,11.5,17.04,1.63,2.65,3.64,5.23,6.43,6.6,7.32,3.6,18.53-1.18,25.51-3.78,8.69-3.22,16.97-7.54,24.59-12.83,18.44-12.8,26.15-35.49,48.06-44.66,2.88-1.21,6.13-2.35,7.63-5.08,1.33-2.42.89-5.36.84-8.12-.16-8.15,3.61-16.29,9.93-21.44,1.81-1.48,3.89-2.8,5-4.86,2.62-4.87-1.21-10.87-2.42-15.62Z"/>
    <path class="cls-1" d="M153.55,186.06s-.07.1-.11.14c-.06.07-.14.12-.23.15-.08.04-.18.07-.27.06-.1,0-.19-.02-.27-.06-.08-.03-.14-.07-.2-.13.03.02.06.04.09.07-.07-.05-.15-.08-.22-.12-.11-.06-.19-.15-.26-.26-.02-.06-.05-.11-.07-.17-.03-.13-.03-.25,0-.38.02-.06.05-.11.07-.17.04-.08.11-.15.18-.2.07-.06.15-.11.24-.13.09-.03.19-.03.28-.01.09,0,.18.03.27.08.04.03.08.05.13.07.02.01.04.02.07.04,0,0,.01,0,.02.01.05.04.1.08.16.12.01,0,.02.02.03.03.09.09.15.19.18.31,0,.06.02.13.03.19,0,.13-.03.25-.1.36Z"/>
  </g>
  <g>
    <path class="cls-2" d="M186.44,229.65c-1.81-1.03-2.19-24.97-2.28-28.08-.27-9.92.75-18.86,0-28.76-.48-6.42,1.26-18.79-2.42-24.28-3.91-5.83-14.04-10.28-20.22-13.08-8.78-3.97-18.24-6.45-27.85-7.19,5.67,29.9-.32,60.94,3.89,91.09-.47-3.36,36.86,4.66,39.92,5.92,5.11,2.1,9.27,4.99,14.94,4.08,7.11-1.13,14.29-4.81,21.22-6.83,5.41-1.58,17.23-4.58,21.81-1.3-3.46-2.47-3.71-14.25-3.83-17.73-.27-7.44-.96-14.12-.96-21.57,0-10.18-.51-16.67,0-26.84.4-7.96.7-18.85-2.25-26.5-8.13.03-16.61.67-24.47,2.88-7.98,2.24-15.65,6.6-20.31,13.46"/>
    <g>
      <path class="cls-3" d="M179.18,162.71l.4-1.16c-.19.02-.33.3-.4,1.16Z"/>
      <path class="cls-3" d="M225.48,176.5c-.03-.09-.05-.2-.09-.28.04.2.06.26.09.28Z"/>
      <path class="cls-3" d="M156.75,124.5s.05.02.07.02c.12,0,.25.02.36.02l-.43-.04Z"/>
      <path class="cls-3" d="M191.74,177.21c0-1.76-.03-3.43-.06-4.97,0-1.02.08-2.23.18-3.4.24-2.56.46-4.82.67-7.01.18-2.33.32-4.69.13-7.48-.06-.71-.14-1.45-.23-2.2-.15-.82-.25-1.59-.49-2.49-.43-1.74-1.15-3.87-2.63-6.19-2.25-3.27-5.07-5.69-8.21-7.71-3.99-2.86-8.12-4.85-12.1-6.59-2.03-.87-3.79-1.6-5.95-2.46-2.08-.81-4.17-1.52-6.22-2.17-2.16.02-4.83-.8-7.64-1.53l-1.46-.37-1.78-.38c-1.19-.26-2.36-.48-3.5-.62-2.28-.34-4.4-.45-6.08-.3-1.08-.39-2.2-.77-3.36-1.15-2.34.22-5.12.19-8.12-.43l-.13-.27-.54.13c1.21,4.46,1.56,8.32,2.18,10.44l-.29-.31.85,5.08-.49-.98c.45,1.89.84,3.74,1.2,5.54.08.48.16.83.22,1.4l.12.81.18,1.4c.23,1.85.29,3.69.22,5.43l.98-.34c-.74,7.43,1.31,10.14-.02,16.97l-.24-.09c2.56,8.66-2.02,13.68.39,22.81-.3-1.14-.51.48-.75.39.24,4.2.47,8.74,2.41,8.77.05,3.08-.54,2.52-1.29,2.95.86-.04,1.25,2.62,1.46,5.04l-.39-1.1c.22,2.31.4,4.6.72,6.91l1.5-1.48c-.09,1.72-.52,2.46-.89,2.76-.35.36-.63.76-.15,3.28l1.28-.59c.05.91.11,1.8.12,2.67,1.23.87,2.43,1.57,4.02,1.99-.18-.11,0-.2.22-.25.77-.16,1.8-.21,2.81-.3.51-.04,1.04-.08,1.58-.12l.2-.02h.1s.04-.02.05,0l-.1.49c-.27,1.33-.54,2.67-.81,4.02-.14.69-.28,1.38-.42,2.08.08.1.21.06.32.1l.69.12,1.83.19,1.02.14,1.99.28c1.35.2,2.71.39,4.08.59,2.77.41,5.56.82,8.35,1.23,2.81.44,5.62.88,8.42,1.31,1.39.24,2.77.49,4.15.73l2,.4,1.41.32c1.68.59,3.71,1.55,6.02,2.46,2.3.91,5.11,1.8,8.15,1.93.75.05,1.51.02,2.26-.01.73-.07,1.53-.14,2.08-.24,1.23-.17,2.4-.39,3.56-.62,2.3-.47,4.47-1,6.55-1.48l1.15.65c.91,1.24,4.13-3.87,5.2-2.82l1.71-1.33c.63.05,1.83-.05,1,.58,1.76-.52,1.65-.74,2.83-1.54l2.17.35c1.56-.25,3.04-.56,4.45-.87.7-.16,1.39-.31,2.08-.46l.6-.12c.34-.07.69-.12,1.04-.17.7-.09,1.42-.11,2.12-.17l.53-.04c.15-.05.4.07.46-.15l.58-.88c.37-.53.8-1.29,1.12-1.56l1.03-1.07.87-.8c1.08-.9,1.96-1.32,2.49-1.08-.3-.18-.27-.79-.1-1.53.25-.8.75-1.85,1.7-3.52.16-.2.13-.4.44-.61l.97-.64.99-.65.25-.16-.04-.26-.08-.52c-.27-1.38-.4-2.87-.51-4.1-.08-1.54-.17-3.15-.26-4.8-.08-1.75-.23-3.69-.41-5.52-.36-3.7-.86-7.31-1.28-10.62-.44-3.34-.72-6.26-.98-9.09-1.16-7.74-.62-15.81.69-23.7.65-4.16,1.22-8.5,1.21-12.93,0-1.11-.05-2.22-.12-3.34l-.16-1.68-.26-1.8c-.55-3.49-1.59-6.77-2.89-9.51-.09-.94-1.17-2.61-1.29-2.43-.2-.5-.32-1.14-.61-1.5-3.62.01-7.22-.03-10.9.12l-2.36.11-1.74.11c-1.16.08-2.33.18-3.5.31,0,0-1.15.12-3.05.42-1.9.3-4.56.8-7.56,1.64-3.01.83-6.42,2.12-9.54,3.82-3.14,1.71-6.04,3.85-8.21,6.11-2.19,2.23-3.62,4.54-4.21,6.22-.59,1.72-.4,2.68.55,2.76.99.1,2.66-.84,5.61-2.16,2.91-1.32,7.14-2.99,13.07-3.78l-.16.41c3.28-.95,6.05-1.4,8.62-2.02,2.55-.6,4.84-1.29,7.28-2.37.51.94,2,.83,3.62.61l.61-.09c.16-.03.19-.05.29-.07.17-.05.34-.09.5-.12.33-.06.62-.06.74.1l-.12.17c.64-.45,1.32-.55,1.84-.49.11-.02.14.07.14.19l.04.31c.03.21.03.43.03.64,0,.42-.05.83-.07,1.18-.03.36-.03.66.03.94.04.16.08.22.18.51.1.37.24.72.4,1.08-.17-.15-.72-.18-.86-1.1.65,2.86,1.15,7.18,0,7.41.1,1.86.09,3.93.03,6.09-.04,1.09-.07,2.19-.11,3.29-.04,1.16-.07,2.34-.07,3.48-.02,4.59.37,8.78,1.33,11.33l-.32-.35c1.29,2.91.26,3.79.94,7-.15.18-.22.41-.28.37.64,1.57.7,3.81.67,6.08-.03,2.32-.08,4.55.24,5.84l-.75.2.52,6.38.02-2.38c2.13.7-1,4.89.57,9.28-.03,2.05,1.1,4.27,2.25,6.47.28.55.56,1.1.83,1.64.26.48.49.88.69,1.37.4.92.63,1.96.54,2.78.7,1.11.19.53-.32.07-.5-.44-1.04-.78-.37.55-1.19-.55-.96-1.32-1.79-1.23.37.79.4,1.36.42,1.76.02.4-.05.7.4,1.04-.36-.24-.66-.37-.93-.33l-1.03-.86c-.3.47-2.03.24-3.1.07-.55-.26-3.38-.13-4.85.96-2.61.91-3.62.56-4.67.29-1.06-.23-2.06-.42-4.64,1.28l-2.5-.37c-2.35.65-1.16,1.92-3.77,2.3-.13-.73-3.19.58-2.06-.58-2.85.46-5.24,1.77-7.75,2.73-.63.25-1.26.45-1.9.63-.3.07-.68.17-.92.21-.21.02-.43.08-.64.07-.85.02-1.71-.29-2.73-1.1-.72.51-1.76.27-2.89-.12-1.12-.39-2.33-.9-3.14-.68,0-.24-.81-.69-2.02-1.27-1.69-.7-2.52-.89-2.99-1.19-.4-.25-.24-.47,1.43-.46.36-.02,1.54.38,1.37.59l.72-.28.41-.17-.27-.19c-.43-.27-.87-.5-1.32-.7-.35-.17-.64-.3-.92-.42-.57-.23-1.09-.39-1.61-.52-1.04-.25-2.06-.33-3.08-.37-2.04-.08-4.08.02-6.17-.54,1.21.54,2.92.84,1.67,1.15l-3.95-.95.97-.52-5.88-1.58.66,1.01c-2.83-.99-3.61-2.65-7.16-1.99-1.62.43,2.6,1.62-.56,1.38-1.88-.6-4.21-1.33-6.82-1.97-.89-.19-.79-.25-.94-.34l-.31-.23c-.18-.14-.32-.25-.45-.26-.01,0-.03,0-.03.01-.37.46-.64.69-.78.94-.15.05-.21-.09-.33-.2l.78-.75c-.24,0-.32-.13-.3-.25.03-.26.5-.53.86-.75.18-.11.34-.19.4-.25.06-.11.04.04-.17-.23.22.2.4.04.6.07-.15.02-.3.03-.44.03l-.47-.29-.94-.59c-1.99-4.43,1.6-2.52-.94-7.47.21,2.01-1.86,1.03-1.55-1.49l.84.61c-.21-1.37-.57-1.83-.42-2.75.47.81,1.2.41,1.02-1.61l1.06,1.34c-.55-1.25-1.04-2.54-1.56-3.82.84-2.96-.2-7.72.96-8.94,0,0,.66-6.45-.57-7.99.77,1.32,1.13-2.26,2.04-1.23-.86-1.7-1.51-6.73-.55-8.75l.1.39c1.04-7.5-1.32-12.86-.51-19.75-.97.37-.63-3.28-1.84-2.31-.45-1.75-.6-3.43-.61-5.03v-.3s.02-.03.02-.04l.04-.19c.03-.13.06-.25.09-.36.07-.2.14-.4.2-.58.23-.7.16-.9-2.15-3.34-.11-.37-.13-.62-.1-.78.01-.07.04-.13.07-.16.11.03.26.11.38.17.26.13.5.28.73.42.46.29.84.57,1.13.68-.03.07-.06.14-.07.21.85-.08,1.51-.06,2.12.01.3.04.6.09.91.16.43.12.89.24,1.43.38,2.03.16,2.87-1.56,6.26.02-1.36.3.11.65,1.4,1.11-.86-.19-1.19-.03.31,1.03.31-.13.73-.12,1.11-.09,0,.06.04.13-.02.18,2.21.59,1.93.26.98-.24.09-.08.06-.25-.17-.55.95.86,2.46,1.49,3.74,2.09,1.34.63,2.38,1.17,2.26,1.8,3.28,1.35,6.09,2.31,8.66,3.35,2.56,1.03,4.94,2.14,6.9,3.76-.11.84-1.23.4-2.5-.32.99.69,1.8,1.43,2.48,2.15-.67.55-1.51-.96-2.48-1.52.63,1.14,1.38,1.99,1.96,2.62.46.4,1.26,1.52,1.72,3.06.48,1.52.65,3.38.23,5.33.26.37.5.77.74,1.16l-.12.34c.39-.03.91,1.28,1.02,2.15-.81.84-1.84-.11-1.84,2.86-.4,1.18-.35,2.88-.06,4.85.07.48.18,1.03.28,1.53.1.51.21.85.31,1.28.22.81.39,1.62.54,2.35.06-1.59.53-1.1.84-.43.08,1.44-.7,2.28-.34,3.38l-1.08.15c1.03-.59,1.1,3.76,1.51,4.32-.81.81-.65-2.28-1.26-2.63.03,5.83.02,2.88-.04,8.82.73,3.22,1.03-.55,1.94,1,.14,2.83.82,5.6.22,8.89l.94-1.05c.83,5.3.81,8.43-.03,12.04,1.15,4.89,2.26,8.67,3.33,11.48,1.06,2.76,2.13,4.77,3.02,5.31.28-.06.93.21,1.32.37.42.16.76.18,1.02.11.53-.16.77-.74.81-1.56.05-.08.1-.2.18-.25.08.05.15.1.22.17l.03.02h.01s0,.02,0,.02c.21-.06-1.83.57-.94.3l.05-.02.79-.26c.19-.06.14-.05.15-.05h.02s.03-.03.03-.03c.16-.08.24-.51.33-.9.16-.87.28-1.99.38-3.05.19-2.13.26-4,.26-4,.61-7.44.34-13.34-.31-19.36-.65-5.81-.96-12.33-1.52-22.15Z"/>
    </g>
  </g>
</svg>