<?xml version="1.0" encoding="UTF-8"?>
<svg id="Livello_1" data-name="Livello 1" xmlns="http://www.w3.org/2000/svg" width="131.25mm" height="124.92mm" viewBox="0 0 372.05 354.12">
  <defs>
    <style>
      .cls-1 {
        fill: #f57c01;
      }

      .cls-2 {
        fill: #f2a15f;
      }

      .cls-3 {
        fill: #202020;
      }
    </style>
  </defs>
  <g>
    <path class="cls-2" d="M35.18,211.92c-.01-.08-.02-.14-.03-.2-.43-.25-.66-.59-1.08-.81l1.11,1.01Z"/>
    <path class="cls-2" d="M340.98,208.19c-1.28-4.93-2.22-10.35-1.54-15.43,1.01-7.49,4.88-14.38,4.04-22.12-.77-7.03-3.6-13.64-7.39-19.56-3.94-6.28-9.05-12.01-14.23-16.79-5.19-4.8-10.52-8.63-15-11.58-.9-.39-1.8-.79-2.71-1.18-.82-.38-1.57-.76-2.26-1.17-1.38-.82-2.56-1.78-3.61-2.84-2.04-2.14-3.48-4.74-4.52-7.73-2.13-5.93-2.9-13.39-4.35-21-1.41-7.58-3.58-15.26-7.75-21-4.04-5.65-10.7-9.84-20.47-9.49.26-2.16-4.41-.05-5.2,1.29-7.62-5.68-17.05-11.33-28.6-15.46,0,0-.64-.23-1.89-.58-1.25-.35-3-.84-5.41-1.31-4.74-1.01-11.42-1.82-18.81-1.42-7.39.37-15.45,2-22.75,5.14-1.92.82-3.78,1.74-5.56,2.76-.19-.45-.38-.89-.57-1.33-2.16-3.51-4.88-6.31-7.83-8.49-2.94-2.19-6.09-3.78-8.94-4.74-2.86-1-5.47-1.53-7.36-1.82-1.89-.3-3.02-.29-3.02-.29-2.42-.39-4.74-.6-6.97-.65-2.24-.05-4.39.02-6.4.36-2.02.3-3.95.75-5.78,1.31-1.84.56-3.59,1.22-5.26,2.11-3.3,1.72-6.37,3.8-8.99,6.25-2.58,2.47-4.93,5.21-7.05,8.17-2.03,2.99-3.9,6.17-5.7,9.48-1.69,3.35-3.3,6.82-4.99,10.34-1.54,3.57-3.21,7.19-4.95,10.87-.84,1.85-1.72,3.71-2.68,5.58-.95,1.82-1.93,3.71-2.95,5.65-1.41,1.26-2.8,2.42-4.17,3.52-1.36,1.1-2.63,2.16-3.93,3.15-2.58,1.98-5.12,3.74-7.49,5.42-4.86,3.33-9.33,6.28-13.56,9.59-4.1,3.38-8,7.09-11.06,12.18-.78,1.26-1.52,2.6-2.22,4.02-.67,1.45-1.29,2.91-1.87,4.61-1.15,3.3-2.11,7.25-2.73,11.87-3.43,8.16-5.4,18.28-5.68,29.7-.43,16.07.79,30.36,11.09,42.92,8.34,10.16,10.02,20.83,14.57,32.7,4.63,12.1,14.39,21.39,23.85,30.24,1.47,1.38,3.07,2.83,5.07,3.13,1.99.3,4.37-1.15,4.2-3.17.7,8.32,12.55,11.64,18.07,15.83,3.45,2.62,5.19,6.47,8.46,7.59,3.07,1.05,6.53.29,9.54,1.68,8.36,3.86,12.44,11.94,22.28,14.32,1.74.43,3.53.71,5.19,1.38,1.28.52,2.48,1.26,3.8,1.69,4.27,1.37,8.8-.76,12.77-2.83,7.64-3.97,17.7-11.77,26.39-12.79,4-.47,3.81-4.28,6.23-6.3,5.7,3.87,8.14,11.58,11.63,17.24,1.64,2.68,3.68,5.29,6.5,6.68,7.4,3.64,18.74-1.2,25.8-3.82,8.79-3.26,17.17-7.63,24.87-12.98,18.65-12.95,26.45-35.9,48.62-45.17,2.91-1.22,6.2-2.38,7.72-5.14,1.35-2.45.9-5.42.85-8.21-.17-8.24,3.65-16.47,10.04-21.68,1.83-1.5,3.93-2.83,5.06-4.92,2.65-4.93-1.22-10.99-2.45-15.8Z"/>
    <path class="cls-2" d="M155.48,192.01s-.08.1-.11.15c-.07.07-.14.12-.23.15-.09.05-.18.07-.28.06-.1,0-.19-.02-.28-.06-.08-.03-.15-.07-.21-.13.03.02.06.05.09.07-.07-.05-.15-.08-.22-.12-.11-.06-.19-.15-.26-.26-.02-.06-.05-.11-.07-.17-.03-.13-.03-.26,0-.38.02-.06.05-.11.07-.17.05-.08.11-.15.19-.2.07-.06.15-.11.25-.13.1-.03.19-.03.29-.01.1,0,.19.03.27.09.04.03.09.05.13.07.02.01.05.02.07.04,0,0,.01,0,.02.01.05.04.11.08.16.12.01,0,.02.02.03.03.09.09.15.2.19.32,0,.06.02.13.03.19,0,.13-.03.25-.1.36Z"/>
  </g>
  <g>
    <path class="cls-1" d="M138.61,174.05c5.38-15.1,10.75-30.2,16.13-45.31,1.2-3.36,2.43-6.79,4.61-9.62,3.84-4.98,10.22-7.48,16.49-8s12.54.71,18.7,1.94c5.13,1.02,10.42,2.13,14.68,5.17,5.75,4.11,8.65,11.07,10.84,17.78,2.06,6.3,3.74,12.71,5.03,19.21,1.2,6,2.08,12.13,4.53,17.73,3.54,8.1,10.05,14.46,16.4,20.6-6.8,2.65-14.29,2.76-21.59,2.83-22.59.21-45.18.33-67.77.35-4.3,0-28.46,2.39-29.94-1.27-1.2-2.96,4.81-7.18,6.16-9.03,2.67-3.68,4.22-8.14,5.72-12.39Z"/>
    <g>
      <path class="cls-3" d="M150.28,126.22l.69-.72c-.18-.05-.41.12-.69.72Z"/>
      <path class="cls-3" d="M172.37,201.84c-.07.03-.15.05-.21.09.15-.03.19-.06.21-.09Z"/>
      <path class="cls-3" d="M180.9,119.58s-.03,0-.04,0c-.06.04-.14.05-.19.09l.23-.09Z"/>
      <path class="cls-3" d="M158.44,140.5c1.1-2.74,2.11-4.94,3.05-6.88.94-1.95,1.81-3.67,2.58-5.03.78-1.38,1.52-2.52,2.22-3.42.69-.84,1.34-1.65,2.73-2.75,1.44-.81,3.24-1.58,5.26-2.09,1.97-.52,4.23-.77,6.59-.75,2.33-1.38,6.42.69,9.68.11l1.03,1.05c1.14-.2,2.47-.23,3.4.43l-.11.22c1.66-.3,3.14.45,3.87.33l-.12.22c.55.11,1.08.23,1.59.36l-.36.24c2.37.04,4.27.93,5.28,2.13l.5-.88c1.09,1.53,2.05,2.35,3.05,3.34.97.99,1.89,2.15,2.19,4.34l-.25.05c2.34,1.89,2.71,4.33,3.01,6.73.31,2.47.56,4.93,2.59,7.63-.51-.68-.41.46-.66.46,1.04,2.72,1.87,5.7,3.81,5.31.45,2.09-.23,1.83-.91,2.26.84-.2,1.58,1.54,1.96,3.18l-.48-.69,1.22,4.76,1.42-1.27c.04,2.69-1.84,1.03-.94,3.48l1.32-.31c.53,3.69-.97,6.38-.49,10.6.8,2.38,1.95,4.73,3.28,6.86.67,1.07,1.38,2.1,2.13,3.08.37.5.76.97,1.15,1.44.08.09.24.29.25.3-.04-.07.04.03.06.03l.19.16c1.02.86,2.57,1.97,4.19,3.26l.85.7c.12.07.02.09-.03.12l-.18.09c-.12.06-.25.12-.38.17-.53.21-1.14.37-1.79.44-1.29.15-2.75.02-3.87-.44-.21-.33-.39-.67-.55-1-.3-.73-.2-.19-.38.38-.04.14-.09.28-.15.41-.09.12-.05.23-.31.3-.39.13-.7.11-.83-.23l-1.55.69c-.44-.26-1.38-.54-.6-.88-1.45-.05-1.49.19-2.53.65l-1.57-.91c-5.74-.69-10.61,1.12-16.65.79-7.27-1.84-20.91-.04-28.77,1.01-5.53,1.14-11.51.25-17.53-.6-1.93-.2-3.35-.3-4.9-.41-1.51-.09-3-.16-4.46-.16-1.46,0-2.9.05-4.3.19-.45.1-.72.29-1.28.62,0-.21-.51.27-.62.44-1.11-.1-2.19-.13-3.08-.59.02-.01-.21-.04-.29-.35-.18-.7.66-1.53,1.35-2.46.19-.24.3-.56.42-.9.06-.17.11-.35.15-.54.2-.5.39-1,.58-1.49.78-2.12,1.21-4.07,1.39-5.66.34-3.17-.23-5.02-2.15-4.4-.97.31-2.28,1.3-4.07,2.99-.9.83-1.92,1.84-3.1,2.9-.62.55-1.11.92-2.26,2.1-1.2.94-2.74,2.11-4.27,3.41-.05-.12-.09-.25-.13-.37-2.81,2.82-4,4.83-4.63,6.59-.64,1.77-.58,3.23.25,5.11.62.88,1.5,1.44,2.41,1.79-.68.75.25,1.59,1.68,2.11,1.42.55,3.35.74,3.99,1.19l-.3.11c2.96-.2,5.31.22,8.02.61,1.34.18,2.75.35,4.18.36.71,0,1.44-.02,2.13-.11.48-.08.88-.2,1.31-.39-.13.16-.18.71-.97.78,2.5-.34,5.84-.98,6.08.17,1.46-.16,3.07-.28,4.65-.39.7-.04,1.4-.08,2.1-.12.82-.03,1.65-.06,2.45-.08,3.22-.15,6.18-.5,8.04-1.43l-.25.32c2.12-1.26,2.75-.2,5.12-.85.13.15.3.23.27.29,2.31-1.25,6.75-.23,8.61-.76l.12.77,4.6-.2-1.72-.16c.59-2.12,3.49,1.31,6.82-.08,3.13.25,6.31-4.44,9.56-3.42,1.54-1-1.35,1.62.96.84.08,1.1-1.08.7-.47,1.58,2.27-.54,3.73,1.11,6.53.35l.12.86c3.64-1.59,6.9,1.1,9.32-.42,3.76-.73,2.55,2.54,6.46.84l1.54,1.16c.85.09,1.15-.27,1.48-.59.16-.16.33-.3.58-.38.14-.04.24-.05.47-.05.27,0,.59.03.97.09-.16.76,4.04.45,2.33,1.21,3.87.42,7.65-.35,10.88-1.37,3.35-1.05,6.02-2.23,11.13-2.97-.06-.73,1.09-1.29,2.33-1.85.27-.14.7-.27.81-.41.1-.13.18-.27.23-.4.1-.27.02-.52-.34-.81.29.06.67-.08,1.11-.31-.69-.8-1.92-2.05-2.36-2.67-.43-.61-.14-.66,2.46,1.14.58.4,1.19,1.03.67.86l2.18.94c-.68-1.77-3.37-4.07-6.05-6.14-2.72-2.11-5.44-3.98-7.34-6.09.89,1.31,2.62,2.9.77,1.88-1.21-1.25-2.36-2.5-3.5-3.77l1.51.58c-.86-1-1.66-2.01-2.48-3.04l-1.16-1.58-.64-.88-.23-.41c-.11.35-.33.55-.34,1.02-.87-1.93.14-3.11-1.96-4.13-1.06-.42-.17,2.06-1.36.58-.76-2.41-1.17-5.69-1.7-8.81-.88.55-1.07-.28-1.48-1.11l.81-.31c-1.94-3.18,1.56-1.6-.09-4.95l.65.2-1.95-.62c-2.33-3.04,1.43-2.14-1.64-5.57.45,1.51-1.71,1.1-1.74-.85l.91.3c-.39-1.01-.81-1.28-.8-2.01.58.52,1.26.06.77-1.44l1.25.8-2.17-2.55c.33-2.46-1.71-5.68-.85-6.9,0,0-.2-1.23-.62-2.55-.42-1.32-1.05-2.72-1.84-3.06,1.07.71.5-2.01,1.63-1.56-1.25-.98-3.3-4.45-3.15-6.39l.23.25c-.81-3.08-2.48-5.5-4.4-7.68-1.93-2.2-4.02-4.16-6.38-6.69-.33.92-2.92-1.47-2.89.1-3.09-1.19-5.38-2.69-7.41-3.68-2.01-.95-3.64-1.29-5.01.42-2.38-.31-2.55-1.48-3.68-1.92l.58-.1c-4.28-.52-5.58-.74-8.91-1.33-1.76.16-2.21,1.91-5.2,1.24,1.04-.66-.22-.62-1.39-.66.74-.08,1.01-.35-.54-.89-.23.22-.57.35-.89.47-.01-.06-.08-.1-.04-.18-2,.27-1.64.52-.72.59-.04.11.04.25.32.46-2.06-1.01-5.75.47-6.2-.68-3.09.68-5.6,1.91-7.77,3.37-2.16,1.49-4,3.18-5.75,5.16-.88-.05-.39-1.37.75-2.56-.98.88-1.93,1.8-2.76,2.84-.67-.66,1.22-2.07,2.1-2.93-2.34.9-4,3.2-5.03,5.56-1.06,2.37-1.65,4.71-3.14,6.67l.34,1.16-.21.21c.37.12.52,1.26.42,1.91-.97.31-1.74-.66-2.42,1.39-1.31,1.35-1.27,4.72-1.61,6.98.53-1.09.83-.58.92.01-.34,1.03-1.31,1.35-1.26,2.25l-1.06-.27c1.11-.06.1,3.04.38,3.57-.97.31-.09-1.82-.57-2.28-1.36,4.13-.68,2.06-2.04,6.19,0,2.46,1.11-.05,1.64,1.31-.49,2-.44,4.14-1.85,6.13l1.16-.38c-.58,3.87-1.46,6.01-3.25,8.12-2.18,29.63,8.12,9.3,8.12,9.3,5.8-9.91,5.1-16.34,8.89-29.24Z"/>
    </g>
  </g>
  <g>
    <path class="cls-1" d="M173.58,218.33c-3.23,4.43-1.96,11.19,2.11,14.86,4.08,3.67,10.24,4.43,15.48,2.81.88-.27,1.76-.62,2.5-1.18.8-.61,1.39-1.44,1.88-2.31,2.15-3.75,2.73-8.37,1.56-12.53"/>
    <g>
      <path class="cls-3" d="M176.83,224.83l-.39.12c.18-.02.34-.06.39-.12Z"/>
      <path class="cls-3" d="M191.72,228.55s-.04-.03-.08-.05c.02.03.05.04.08.05Z"/>
      <path class="cls-3" d="M165.86,234.3h0s-.07-.01-.12-.01h.12Z"/>
      <path class="cls-3" d="M164.35,223.34c-.3,1.45-.81,2.42-1.13,3.45-.31,1.02-.41,2.11.41,3.52.28,1.5,1.32,2.83,2.22,3.97.81-.06,1.04.33,1.26.75.25.41.49.86,1.21.81l-.48.75c.51-.03.93.03.76.53l-.2.14c.75-.09.76.51,1.15.44l-.19.15.44.29-.31.18c1,.07,1.54.5,1.83,1.12l.6-.81c.33,1.71,1.91.27,2.13,1.97l-.14.2c1.3-.75,1.52-.14,1.83.54.29.68.68,1.36,1.81.46-.28.23-.12.51-.21.73.73-.03,1.45.04,2.04-1.84.41.16.16.69,0,1.44.24-.83.71-1.08,1.05-1.04l-.24.28c.34-.01.68-.02,1.02-.06l.17-1.63c.37.55-.29,1.97.26,1.68l.25-1.33c.59.4.67,2.45,1.31,3.55,1.51.45,3.13-.26,4.55-.86.72-.31,1.4-.58,2.1-.69.35-.04.7-.06,1.07,0,.44.05.9.15,1.39.31l.45.93c.56,1.38.22-2.35.79-1.1l.12-.76c.2.21.54.39.49.76.37-.08.29-.31.33-.81l.77.67c1.26.01,1.72-1.19,2.31-2.06.22-.33.47-.61.83-.81,1.3.09,2.29-.99,2.77-2.35.47-1.36.5-2.96.35-3.94-.6-1.44.62-2.16,1.77-3.18,1.15-.98,2.2-2.27,1.03-3.57.22-.06-.25-.3-.41-.3.12-.71.2-1.42.25-2.15,0,0,.03-.66-.2-1.51-.21-.84-.7-1.86-1.55-2.47-.86-.62-2.03-.79-3.61-.22-1.6.53-3.57,1.88-6.47,3.3l-.32.02c-.7.67-.87.91.78,1.28-2,.09-.2.47-.86.61l-.16-.02c1.52.44-1.31.58.02,1.02-.16-.03-.7-.11-.72-.18.22.25.61.64-.53.46.21.58-.48,1.07,1.15,2l-.3-.13c1.11.61.09.32.59.77-.15-.04-.23-.06-.28-.08,1.03.74-.05.62.36.97l-.68-.36c.01.12,0,.24,0,.37l.2-.02c1.77,1.18-1.23-.51-.21.46-.16,0,.65.8,1.31,1.62.67.81,1.2,1.64.68,1.42.58.87-1.05-1.3-.68-.54-.78-.82-.42-.59-1.08-1.2.21.56-.99-.64-.66.08l-.55-.69c.03.05.05.1.08.15.49,1.18-1.08-.82-.44.5.06.76-1.34-2.24-.8-.63l-.54-1.05c-.13-.16.48,1.35.17.85-.25-.69-.3-.52-.48-1.2-.25-.53-.16-.12-.2.19-.08.33-.33.61-.72-.32.11,1.43-.28.64-.23,1.7-.09-.62-.56-.04-.39-1.42.01-.11.06-.1.08.15l-.06-.84c-.4-1.56-.4.92-.72.68.09.28.2.2.15.78l-.28-.1.04-.72c-.13-.13-.25-.28-.37-.42l.04.88c-.2-.46-.19-1.95-.44-.71-.14.69.13,1.2-.1,1.46-.25-.62-.53-1.55-.76-1.85-.12.99-.19.94-.31,1.13l.13-.85c-.52,1.12.23-1.89-.21-1l.15-.58-.45,1.75c-.68,1.6.3-1.77-.58.41.16-.11-.43,1.85-.52,1.44l.27-.79c-.14.14-.27.48-.28.29.18-.41.37-1.15.22-1.05l.38-.97c-.21.46-.44.93-.68,1.38.12-.89-.54.05-.17-1.07,0,0-.07-.64-.7.46.41-.69.38-1.04.85-1.86-.46.79-1.07,1.31-.65.42l.07-.09c.11-.5-.16-.27-.45-.1-.28.19-.59.32-.31-.24-.62.78-.4.26-1.2,1.26-.59.35-.24-.26-.1-.54.14-.29.09-.32-1.45.91-.29-.02.56-.77.67-.95l.19-.1c-.44-.03-.53-.12-.59-.35-.38.11-1.97,1.02-1.73.55.68-.28.51-.31.46-.39.13,0,.37-.12.75-.45-.21.09-.34.13-.45.16.05-.03.09-.05.16-.09-.29-.02-.49.1-.54.21-.1.05-.23.12-.4.23.77-.58-.27-.43.87-.95-.43-.28-1.78-.21-2.38-.58.61-.21,1.2-.24,1.47-.2-.1-.07-.21-.14-.31-.22.9-.21.56.03.76.06.67-.34.29-.38-.12-.48-.42-.09-.86-.24-.19-.51h-.74s.12-.03.12-.03c-.39.04-.92,0-1.06-.06.8-.13,1.84-.15,1.8-.32.79-.16-.42-.36-.83-.59-.15.1-.59.06-.87,0-.02-.11.79-.13.45-.22l1.09.06c-1.03-.03-1.1-.34-1.53-.43.81.03.68.23,1.29.31-.08-.37-.03-.18-.08-.54-.78-.35-1.02-.15-1.95-.42-.19-.25-.84-.67-.14-.76l-.95-.18c-.61-.68-.33-1,.67-.91-1.46-1.57-2.41-3.14-3.33-4.24-.92-1.1-1.84-1.68-2.62-2.07-.84-.29-1.63-.19-2.22,0-.59.19-.95.47-.95.47-1.74.97-2.1,2.38-1.93,3.77.17,1.42.77,2.86,1.09,4.54Z"/>
    </g>
  </g>
</svg>