<?xml version="1.0" encoding="UTF-8"?>
<svg id="Livello_1" data-name="Livello 1" xmlns="http://www.w3.org/2000/svg" width="131.25mm" height="124.92mm" viewBox="0 0 372.05 354.12">
  <defs>
    <style>
      .cls-1 {
        fill: #f9a902;
      }

      .cls-2 {
        fill: #202020;
      }

      .cls-3 {
        fill: #f4c376;
      }
    </style>
  </defs>
  <g>
    <path class="cls-3" d="M32.86,208.37c-.01-.08-.02-.14-.03-.2-.43-.25-.67-.6-1.09-.82l1.12,1.02Z"/>
    <path class="cls-3" d="M342.13,204.6c-1.29-4.99-2.25-10.47-1.55-15.6,1.02-7.58,4.94-14.55,4.09-22.37-.78-7.11-3.64-13.79-7.47-19.78-3.98-6.35-9.15-12.15-14.39-16.98-5.25-4.86-10.64-8.72-15.17-11.72-.91-.39-1.82-.8-2.74-1.2-.83-.39-1.58-.77-2.28-1.18-1.4-.83-2.59-1.8-3.65-2.87-2.06-2.17-3.52-4.79-4.57-7.81-2.15-6-2.93-13.55-4.4-21.24-1.42-7.67-3.63-15.44-7.84-21.24-4.09-5.71-10.83-9.95-20.7-9.6.26-2.19-4.46-.05-5.26,1.31-7.71-5.74-17.25-11.46-28.92-15.63,0,0-.65-.23-1.91-.58-1.26-.35-3.03-.85-5.47-1.33-4.79-1.02-11.55-1.84-19.03-1.44-7.47.37-15.63,2.02-23.01,5.19-1.94.82-3.82,1.76-5.62,2.79-.19-.46-.38-.9-.58-1.34-2.18-3.55-4.94-6.38-7.92-8.59-2.97-2.21-6.16-3.82-9.05-4.79-2.9-1.01-5.54-1.55-7.44-1.84-1.91-.31-3.06-.29-3.06-.29-2.44-.39-4.79-.61-7.05-.66-2.26-.05-4.44.02-6.47.36-2.04.31-3.99.76-5.85,1.33-1.86.57-3.63,1.23-5.32,2.13-3.34,1.74-6.44,3.84-9.09,6.32-2.61,2.49-4.99,5.27-7.13,8.26-2.05,3.03-3.94,6.24-5.76,9.59-1.71,3.38-3.34,6.89-5.05,10.46-1.56,3.61-3.25,7.27-5,10.99-.85,1.87-1.74,3.76-2.71,5.65-.96,1.84-1.96,3.75-2.98,5.72-1.42,1.27-2.83,2.45-4.22,3.56-1.37,1.12-2.66,2.19-3.98,3.19-2.61,2.01-5.18,3.78-7.57,5.49-4.92,3.37-9.43,6.35-13.71,9.7-4.15,3.41-8.09,7.17-11.19,12.31-.79,1.28-1.54,2.63-2.25,4.07-.68,1.47-1.31,2.95-1.89,4.66-1.16,3.33-2.13,7.33-2.76,12.01-3.47,8.25-5.46,18.49-5.75,30.04-.44,16.25.8,30.7,11.21,43.41,8.43,10.28,10.13,21.07,14.74,33.08,4.68,12.23,14.55,21.64,24.12,30.59,1.49,1.39,3.11,2.86,5.13,3.17,2.01.31,4.42-1.17,4.25-3.2.71,8.41,12.69,11.77,18.27,16.01,3.49,2.65,5.25,6.54,8.56,7.67,3.1,1.07,6.6.29,9.65,1.7,8.45,3.9,12.58,12.07,22.53,14.48,1.76.43,3.57.72,5.25,1.39,1.3.53,2.51,1.28,3.84,1.71,4.32,1.39,8.9-.77,12.92-2.86,7.73-4.01,17.9-11.91,26.69-12.93,4.04-.47,3.85-4.33,6.3-6.38,5.76,3.91,8.23,11.71,11.76,17.44,1.66,2.71,3.72,5.35,6.57,6.75,7.48,3.68,18.95-1.21,26.09-3.87,8.89-3.3,17.36-7.72,25.15-13.12,18.86-13.09,26.75-36.31,49.17-45.69,2.95-1.23,6.27-2.41,7.81-5.2,1.36-2.47.91-5.49.86-8.3-.17-8.34,3.69-16.66,10.15-21.93,1.85-1.52,3.98-2.86,5.11-4.98,2.68-4.98-1.23-11.12-2.48-15.98Z"/>
    <path class="cls-3" d="M154.53,188.24s-.08.1-.11.15c-.07.07-.14.12-.23.15-.09.05-.18.07-.28.06-.1,0-.19-.02-.28-.06-.08-.03-.15-.07-.21-.13.03.02.06.05.09.07-.07-.05-.15-.08-.22-.13-.11-.06-.2-.15-.26-.26-.02-.06-.05-.12-.07-.17-.03-.13-.03-.26,0-.39.02-.06.05-.12.07-.17.05-.08.11-.15.19-.2.07-.06.15-.11.25-.13.1-.03.19-.03.29-.01.1,0,.19.03.27.09.04.03.09.05.13.07.02.01.05.02.07.04,0,0,.01,0,.02.01.05.04.11.08.16.12.01,0,.02.02.03.03.09.09.15.2.19.32,0,.06.02.13.03.19,0,.13-.03.25-.1.37Z"/>
  </g>
  <g>
    <path class="cls-1" d="M133.34,131.25c-11.5,18.08-18.54,45.19-12.07,66.08,8.1,26.14,34.13,43.7,61.09,45.6,26.35,1.87,52.51-14.98,65.07-37.62,12.56-22.65,8.23-55.36-8.94-73.63-22.42-23.86-56.92-36.31-89.18-16.68-6.57,4.01-11.8,9.7-15.97,16.25Z"/>
    <g>
      <path class="cls-2" d="M124.58,188.91l-.22,1.05c.18-.05.29-.33.22-1.05Z"/>
      <path class="cls-2" d="M210.2,117.13c-.09,0-.18-.03-.26-.02.17.04.23.04.26.02Z"/>
      <path class="cls-2" d="M135.03,232.55s-.04-.03-.05-.04c-.1-.04-.21-.11-.31-.14l.36.18Z"/>
      <path class="cls-2" d="M111.38,175.98c-.53,8.09-.52,13.43.17,18.91.42,2.74.97,5.54,2.04,8.53.26.76.52,1.54.82,2.34.36.78.73,1.58,1.12,2.43.41.83.83,1.7,1.28,2.61.5.88,1.06,1.77,1.65,2.7,4.03,7.42,10.25,14.02,16.52,19,1.97.61,3.96,2.28,6.16,3.82,1.11.76,2.23,1.54,3.35,2.21,1.14.64,2.31,1.11,3.41,1.4l1.09,1.59c1.55.37,3.29.84,4.47,1.94l-.19.18c2.31.45,4.58,1.64,5.74,1.8l-.18.19c.86.33,1.75.58,2.64.83l-.57.18c3.99.67,7.9,1.68,11.39,2.65l-.1-1.05c1.83.6,3.39,1.03,4.84,1.17,1.44.14,2.74.16,4,.19,1.25.05,2.55-.1,3.91-.02.69.02,1.41.07,2.17.16.77.08,1.58.11,2.47.24l-.08.25c1.1-.4,2.13-.68,3.12-.88.98-.24,1.92-.45,2.84-.57.92-.13,1.82-.2,2.72-.24.89-.08,1.77-.16,2.65-.25.88-.08,1.78-.15,2.68-.26.89-.14,1.79-.36,2.7-.62.91-.27,1.84-.59,2.78-1.02.92-.48,1.85-1.06,2.78-1.76-.93.7.64.31.65.58,3.78-1.8,7.65-3.99,6.73-5.8,2.58-1.4,2.4-.61,3.13-.13-.23-.38.19-.93.87-1.6.67-.68,1.64-1.42,2.58-2.06l-.71.86c1.83-1.23,3.53-2.62,5.22-4.01l-2.02-.56c3.01-1.69,1.98,1.15,4.29-1.28l-.9-1.03c1.9-1.41,3.73-2.18,5.53-3.03.92-.41,1.85-.81,2.82-1.27.93-.5,1.88-1.07,2.88-1.78,1.78-1.73,3.28-3.77,4.85-5.74,1.4-2.11,2.9-4.17,4.07-6.46.6-1.14,1.26-2.2,1.78-3.42l1.57-3.61c.54-1.19.86-2.46,1.29-3.68.41-1.23.83-2.45,1.09-3.7.3-1.24.6-2.48.9-3.71.21-1.24.43-2.48.64-3.72.25-1.23.4-2.46.52-3.69.14-1.22.28-2.44.42-3.66.11-2.43.43-4.83.45-7.2.06-1.19.12-2.37.18-3.54,0-1.17.03-2.34.08-3.5l.95-.93c.75-.26.06-1.5-.74-2.72-.77-1.23-1.56-2.46-.94-2.93-.32-.67-.73-1.32-1.11-1.96.13-.64.12-1.95.69-.98-.41-1.96-.63-1.96-1.44-3.22l.26-2.31c-.21-.97-.45-1.92-.72-2.85-.32-.91-.68-1.79-1.05-2.66-.38-.87-.76-1.72-1.18-2.56l-1.42-2.44c-.49-.8-.94-1.62-1.47-2.42-.54-.79-1.08-1.58-1.63-2.39-1.02-1.65-2.25-3.24-3.41-5.02-.51-1.2-1.31-2.39-2.22-3.65-.45-.63-.93-1.27-1.44-1.93-.51-.62-1.06-1.18-1.62-1.78-1.14-1.17-2.3-2.42-3.61-3.57-1.33-1.13-2.71-2.26-4.11-3.38-5.73-4.32-12.26-7.64-17.14-9.64-7.06-2.39-14.12-6.03-22.12-8.39-7.89-2.38-16.79-3.21-24.36-.55-.54-.11-1.75.62-1.7.79-1.17.23-2.35.41-3.51.7l-3.43,1c-1.14.35-2.3.64-3.41,1.05l-3.3,1.33s-.99.42-2.64,1.12c-1.6.78-3.74,2.04-6.17,3.43-2.48,1.45-5.16,3.56-7.45,5.8-2.31,2.26-4.26,4.74-5.69,7.02-2.85,4.6-3.65,8.27-1.79,8.42.95.11,2.56-.65,5.18-2.19,2.6-1.51,6.25-3.89,11.35-5.97l-.02.43c1.33-.82,2.57-1.48,3.7-2.07,1.15-.59,2.35-1.13,3.36-1.73,1.04-.58,1.96-1.27,2.88-1.93.94-.61,1.83-1.31,2.71-2.14.73.83,1.92.25,3.24-.28,1.32-.53,2.7-1.26,3.51-1.17l-.09.2c.42-.33.86-.6,1.32-.83.47-.17.96-.29,1.45-.37.99-.17,2.02-.21,3.03-.24,1-.08,2.02.03,2.99-.02.98-.05,1.92-.23,2.83-.67-.14.17-.18.74-1.03.86.67-.12,1.4-.31,2.13-.39.73-.06,1.46-.1,2.11-.1,1.3,0,2.28.18,2.36.76,1.61-.04,3.38.2,5.2.31,1.81.18,3.65.62,5.44.85,1.78.33,3.47.77,5.04.95,1.57.2,2.94.49,4.12.4l-.39.2c1.37-.15,2.15.06,2.91.41.75.39,1.49.85,2.88,1.15.07.2.21.36.16.4.74.02,1.59.17,2.42.54.83.37,1.68.85,2.51,1.34.82.5,1.64.96,2.35,1.43.7.47,1.34.85,1.87,1.05l-.31.73,2.31,1.41c.76.48,1.48,1.04,2.22,1.55l-1.51-1.37c.9-.66,1.54.26,2.42,1.47.44.61.94,1.29,1.58,1.9.62.63,1.35,1.25,2.32,1.63.65.66,1.51,1.09,2.49,1.43.97.34,1.99.66,3.04.98,2.09.63,4.2,1.42,5.04,3.3,1.98.77-2.31-.19.08,1.42-.81.77-1.37-.52-1.6.58,1.09.8,1.49,1.87,1.93,2.97.45,1.1,1.01,2.16,2.11,3.39l-.68.56c.86.7,1.53,1.5,1.97,2.38.42.9.71,1.82.97,2.69.28.86.49,1.71.75,2.48.28.76.66,1.42,1.27,1.94,1.14,1.92.63,2.87.39,3.72-.3.88-.37,1.66.92,3.65l-.75,1.95c.26,1.87,1.67,1.07,1.48,3.27-.75,0-.16,2.72-1.05,1.6-.09,1.2-.1,2.39.1,3.59.22,1.2.42,2.43.58,3.73.19,1.29.36,2.64.21,4.05-.11,1.4-.33,2.88-1.07,4.33.63.75.64,1.89.59,2.97-.12,1.07-.28,2.09.15,2.7-.35,0-.6,1.58-1.08,2.59-.43,1.03-.8,1.57-.97-.26-.02-.31.14-.8.37-.71l-.73-.6c-1.25,1.44-1.44,2.95-1.55,4.54-.22,1.52-.14,3.25-1.02,4.7.75-.75,1.09-2.08,1.33-1-.41.98-.99,1.87-1.47,2.81l-.36-.91-1.22,1.98-1.43,1.95,1.11-.11c-.82.9-1.62,1.34-2.32,1.88-.71.53-1.26,1.19-1.5,2.66-.13,1.42,2.28-1.17,1.05,1.09-1.19,1.14-2.78,2.46-4.38,3.85-1.65,1.34-3.38,2.75-4.96,4.04.97.46.15,1.2-.53,2.14l-.68-.56c-2.54,3.69-2.4-.38-5.12,2.96l-.07-.7.2,2.12c-2.15,3.75-2.68-.28-5.01,4.06,1.35-1.08,1.73,1.23-.35,1.99l.05-.99c-.94.72-1.12,1.22-1.89,1.45.4-.74-.27-1.25-1.7-.29l.5-1.48c-.68.98-1.39,1.95-2.16,2.85-2.6.34-5.89,2.72-7.24,1.99,0,0-1.31.24-2.71.68-1.39.5-2.92.97-3.37,1.74.85-1.02-2.03-.69-1.42-1.8-.28.29-.72.64-1.26.91-.54.26-1.18.5-1.85.68s-1.34.31-1.96.35c-.62.01-1.17-.12-1.58-.33l.29-.13c-2.93-.25-5.31,0-7.76.19-1.24.02-2.47.04-3.72-.05-1.24-.12-2.49-.48-3.75-.99.02.52-.64.52-1.26.56-.61,0-1.18.04-.98.76-1.45-.05-2.8-.36-3.99-.83-1.18-.52-2.24-1.12-3.2-1.6-1.92-.99-3.41-1.67-5.19-.2-2.52-.89-2.43-2.2-3.55-2.95l.65.08c-4.48-1.95-5.69-2.74-8.64-4.84-1.71-.69-3.01.53-5.38-1.85,1.31.09.15-.62-.73-1.47.66.44,1.01.39.16-1.05-.32.02-.67-.11-.99-.24.03-.05.01-.13.09-.16-1.69-1.17-1.59-.78-.95-.06-.11.05-.15.21-.07.56-.5-1.03-1.5-2.11-2.35-3.03-.83-.93-1.51-1.68-1.09-2.22-4.18-4.37-7.54-7.47-10.27-11.95.35-.8,1.37.05,2.22,1.26l-1.73-3.16c.87-.35,1.36,1.64,1.98,2.56-.18-2.27-1.52-3.99-2.58-6.04-1.19-1.99-2.21-4.19-2.03-6.76l-.91-.88.07-.32c-.37.08-1.15-.94-1.35-1.69.73-.83,1.87-.21,1.55-2.66.56-1.99-.72-5.53-1.06-8.21-.16,1.41-.61.95-.88.32-.03-1.29.88-1.98.6-2.99l1.11-.04c-1.09.43-.87-3.42-1.19-3.95.92-.63.41,2.07,1.05,2.44.2-2.54.33-3.18.38-3.82.05-.64.14-1.27.56-3.81-.33-2.87-1.11.3-1.83-1.19.3-2.46.08-5.04,1.53-7.62l-1.19.61c.52-4.77,1.69-7.46,3.73-10.07,1.48-8.88,2.75-14.07,2.84-16.92.1-2.84-.93-3.23-2.35-2.62-1.42.74-3.41,2.65-4.79,4.5-.71.91-1.36,1.77-1.79,2.42-.41.66-.67,1.06-.67,1.06-4.34,6.49-6.19,12.19-7.38,18.3-1.12,6.15-1.67,12.75-1.84,21.94Z"/>
    </g>
  </g>
  <g>
    <path class="cls-2" d="M165.11,193.2l-.15.41c.12-.14.2-.29.15-.41Z"/>
    <path class="cls-2" d="M200.43,197.64s0-.06,0-.1c0,.04,0,.07,0,.1Z"/>
    <path class="cls-2" d="M162.82,208.41h0s-.06.03-.1.05l.11-.05Z"/>
    <path class="cls-2" d="M155,201.04c1.66,2.25,1.08,4.23,3.94,5.43,1.07.95,2.58,1.43,3.87,1.93,1.28-.92,1.58.86,2.83.14l-.13.88c.42-.25.82-.38.86.14l-.12.21c.63-.4.86.13,1.18-.08l-.12.22.47.1-.22.28c.89-.31,1.55-.11,2,.41l.33-.96c.79,1.56,1.97-.28,2.63,1.37l-.09.23c1.12-1.02,1.52-.44,1.96.17.44.6.91,1.28,1.96.2-.26.27-.04.53-.11.76.76-.13,1.53-.12,1.93-2.07.47.13.27.7.2,1.47.16-.86.65-1.15,1.04-1.14l-.23.3,1.14-.12.03-1.67c.49.56-.14,2.02.46,1.71l.17-1.36c.73.36.98,2.46,1.72,3.54,1.7.43,3.51-.27,5.18-.83,1.69-.58,3.23-1.01,4.95-.06l.3,1c.32,1.48.48-2.35.83-1l.23-.74c.15.24.42.49.3.85.34,0,.3-.25.45-.74l.55.84c1.49.38,2.15-1.61,3.55-1.68,2.22,1.37,4.68-1.52,5.77-3.19.63-1.55,2.19-1.32,3.84-1.27,1.62.06,3.36-.04,3.66-1.88.2.12.09-.4-.01-.53.69-.4,1.35-.85,2.01-1.31,0,0,.6-.42,1.21-1.18.61-.75,1.26-1.78,1.34-2.92.1-1.13-.31-2.28-1.67-3.31-1.35-1.06-3.64-1.92-6.94-3.06l-.19-.26c-1.23.07-1.73.29-1.21,1.97-1.36-1.5-.72.34-1.32-.04l-.08-.14c.46,1.58-1.7-.34-1.34,1.1-.07-.15-.37-.6-.29-.7-.18.43-.4,1.1-1.06.13-.61.8-2,.93-1.66,2.88l-.11-.31c.27,1.28-.32.37-.39,1.13-.09-.13-.15-.19-.17-.25.2,1.32-.95.68-1.03,1.28l-.33-.71-.64.48.33.04c.72,2.02-1.05-1-1.07.47-.57-.09.46,4.61-.49,3.79.03,1.04-.26-1.63-.43-.76-.35-1.06-.03-.72-.41-1.54-.23.63-.96-.9-1.2-.03l-.26-.83c-.19,1.71-1.42-.82-1.45.76-.48.87-.97-2.43-1.25-.63l-.47-1.11c-.3-.14.07,1.46-.33.95-.11-.73-.47-.51-.42-1.24-.81-1.06-1.14,1.84-2.23-.03-.06,1.45-.58.63-.65,1.72-.07-.62-.91-.03-.48-1.43.04-.12.11-.1.12.14v-.86c-.54-1.57-.82.91-1.34.68.15.28.34.2.22.79l-.47-.11.09-.72c-.22-.14-.45-.26-.66-.42l.08.9c-.33-.47-.38-1.99-.79-.74-.2.7.27,1.21-.1,1.48-.44-.61-1.02-1.59-1.53-1.91-.05,1-.2.95-.38,1.14l.08-.87c-.74,1.14.03-1.91-.66-1.05l.14-.59-.41,1.78c-.81,1.62.02-1.83-.97.4.26-.11-.22,1.91-.46,1.49l.23-.82c-.2.15-.32.48-.4.29.18-.42.28-1.19.02-1.1l.36-1-.75,1.42c-.15-.96-.95.03-.81-1.16,0,0-.56-.76-1.08.44.36-.74.05-1.14.43-2.02-.42.83-1.21,1.39-1.12.38l.07-.09c-.44-1.2-1.82.83-2.08-.6-.35.95-.51.29-.92,1.52-1.31.87-.23-3-2.23.5-.45.03,0-1.03-.08-1.3l.17-.15c-.76-.04-.97-.11-1.38-.44-.42.22-1.39,1.81-1.58,1.16.51-.55.27-.54.12-.63.16-.04.33-.25.38-.8-.15.18-.26.27-.36.35.03-.05.04-.09.09-.16-.39.07-.47.29-.4.45-.07.09-.13.22-.2.42.23-.98-.79-.41-.14-1.49-.88-.27-2.2.46-3.12.36.32-.57.82-.92,1.14-.99l-.57-.14c.57-.74.57-.24.81-.29.45-1.59-1.98.41-1.67-1.17l-.6.46.05-.12c-.25.3-.73.59-.9.61.46-.69,1.24-1.42.94-1.62.3-.77-.87-.24-1.45-.21.05.24-.31.53-.57.67-.16-.12.33-.78-.01-.63l.76-.8c-.67.79-1.14.46-1.51.72.51-.65.71-.29,1.18-.69-.6-.44-.31-.21-.88-.69-.88.27-.71.77-1.55,1.28-.4-.12-1.23.11-1.02-.64l-.64.74c-1.05-.05-1.24-.49-.77-1.48-2.4.2-4.23.44-5.63.91-1.39.45-2.28,1.11-2.88,1.76-1.16,1.35-.93,2.92-.93,2.92-.01,3.56,3.18,2.95,5.93,4.57Z"/>
  </g>
  <g>
    <path class="cls-2" d="M165.45,146.75l-.41.04c.19,0,.35,0,.41-.04Z"/>
    <path class="cls-2" d="M165.27,159.71s.05.01.09.01c-.03,0-.06-.01-.09-.01Z"/>
    <path class="cls-2" d="M151.68,148.39s0,0,0,0c-.04,0-.06-.01-.1-.02l.1.02Z"/>
    <path class="cls-2" d="M152.86,145.8c-.51.67-2.41.81-1.66,1.54-.16.33.27.71.49,1.04,1.48.2,0,.43,1.25.65l-.84.05c.42.07.71.16.25.21h-.24c.63.1.25.2.57.26h-.25s.11.11.11.11l-.35-.03c.67.18.71.36.4.5h1.02c-1.14.31.96.48-.4.74h-.25c2.67.43-1.84.53.69.97-.32-.06-.52,0-.77,0,.29.18.43.37,2.43.43-.03.13-.63.09-1.4.09.87.02,1.23.14,1.29.24l-.34-.05.29.29h1.65c-.48.13-2.01-.03-1.62.13l1.37.03c-.28.2-2.35.27-3.36.45-.61.83,2.86,1.83.43,2.55h-1.03c-1.5-.02,2.22.28.83.28l.68.11c-.27.02-.56.07-.89.01-.06.08.19.09.64.16l-.94.07c-.73.31,1.06.64.69.99-1.91.37-.19,1.21.82,1.69,2.23.7-3.77,1.29-1.22,2.02-.21.02.26.08.44.09l-.23.6s-.65,2.9,11.84,1.01l.32.02c.8-.31.98-.51-.66-.78,2.02.02.22-.27.87-.33h.16c-1.55-.23,1.3-.37-.08-.6.16.01.71.03.75.08-.25-.15-.69-.35.48-.33-.3-.35.26-.8-1.61-1.07l.32.02c-1.26-.16-.18-.16-.82-.32.15,0,.23-.01.3,0-1.25-.17-.19-.4-.71-.52h.78s-.17-.26-.17-.26l-.17.1c-2.14-.09,1.35-.17-.03-.4.27-.17-4.44-.48-3.39-.64-1-.12,1.63.12.86-.03,1.12.02.7.08,1.59.07-.53-.15,1.15-.19.4-.37l.87.02c-1.58-.25,1.16-.37-.36-.55-.71-.24,2.59-.08.89-.35l1.18-.06c.19-.09-1.44-.11-.87-.2.74.03.6-.12,1.3-.04,1.17-.21-1.63-.54.34-.81-1.44-.11-.58-.25-1.66-.33.63,0,.11-.32,1.47-.11.11.02.09.05-.16.04l.85.04c1.62-.14-.88-.36-.63-.53-.28.05-.21.12-.8.06l.12-.17.72.05.43-.24h-.89c.46-.1,1.98-.1.72-.28-.7-.08-1.2.09-1.48-.05.61-.15,1.53-.37,1.81-.57-1.01,0-.97-.06-1.17-.13l.87.02c-1.2-.25,1.92-.03.96-.28l.61.04-1.82-.11c-1.72-.24,1.81-.06-.54-.34.15.09-1.92,0-1.54-.11l.84.05c-.18-.06-.53-.09-.35-.13.45.05,1.22.05,1.08-.04l1.05.09-1.54-.21c.91-.11-.22-.34.97-.36,0,0,.59-.26-.71-.36.8.08,1.12-.07,2.06,0-.91-.09-1.65-.33-.68-.38l.11.02c1-.29-1.35-.57-.13-.82-1.01-.01-.46-.15-1.75-.14-1.27-.32,2.64-.46-1.35-.67-.21-.14.94-.13,1.15-.2l.21.04c-.32-.26-.36-.33-.26-.51-.39-.1-2.24-.16-1.79-.32.74.07.6,0,.6-.06.12.04.39.06.88,0-.23-.02-.37-.04-.48-.06.06,0,.1,0,.18,0-.26-.11-.49-.1-.59-.05-.11,0-.26,0-.46,0,.96-.08-.06-.3,1.21-.28-.29-.32-1.59-.57-2.07-.84.65-.01,1.23.06,1.48.14l-.23-.19c.94.03.54.12.72.18,1.52-.18-1.5-.49-.1-.7l-.74-.07h.12c-.39-.02-.92-.09-1.05-.13.82-.01,1.88.05,1.84-.08.79-.08-.39-.29-.82-.43-.14.07-.59.03-.88,0-.03-.06.79-.08.44-.14l1.1.02c-1.04,0-1.12-.19-1.57-.23.82-.01.7.12,1.32.15-.1-.26-.05-.13-.14-.38-.83-.16-1.04,0-2.01-.09-.21-.12-.98-.26-.31-.38l-.98.02c-.75-.24-.64-.37.36-.5-7.93-1.87-10.88-.63-10.88-.63-2.18.6.66,1.01,1.4,1.81Z"/>
  </g>
  <g>
    <path class="cls-2" d="M213.21,143.66l-.41.06c.19,0,.35-.02.41-.06Z"/>
    <path class="cls-2" d="M213.68,157.6s.05,0,.09.01c-.03,0-.06-.01-.09-.01Z"/>
    <path class="cls-2" d="M199.54,146.12s0,0,0,0c-.04,0-.06,0-.1-.01h.1Z"/>
    <path class="cls-2" d="M200.58,143.28c-.48.75-2.37.99-1.58,1.74-.15.37.3.75.54,1.1,1.48.14.03.47,1.28.64l-.84.1c.43.06.71.13.26.21h-.24c.64.09.26.21.58.26h-.25s.11.12.11.12h-.35c.68.15.73.33.42.51l1.02-.04c-1.13.38.98.45-.36.8h-.25c2.69.34-1.81.67.74,1.02-.32-.04-.52.03-.77.04.29.18.45.38,2.45.34-.02.14-.62.13-1.39.16.87-.02,1.24.09,1.3.2l-.34-.04.3.3,1.65-.1c-.47.17-2.01.09-1.61.24l1.37-.03c-.26.23-2.33.41-3.34.65-.56.92,2.95,1.82.56,2.72l-1.03.06c-1.5.05,2.23.18.84.25l.69.08c-.27.03-.55.1-.89.06-.06.09.19.09.64.14l-.93.12c-.72.38,1.09.64.74,1.03-1.89.5-.12,1.31.91,1.78,2.26.64-3.7,1.58-1.12,2.23-.21.03.27.08.44.07l-.2.65s-.5,3.16,11.88.48h.32c.79-.36.96-.59-.7-.8,2.02-.09.2-.3.85-.39h.16c-1.56-.18,1.28-.47-.11-.65.16,0,.71,0,.75.04-.26-.15-.71-.34.46-.38-.32-.36.22-.88-1.66-1.06h.33c-1.27-.09-.19-.16-.84-.29.15-.01.23-.02.3-.02-1.25-.12-.2-.42-.74-.52l.78-.03-.19-.28-.16.11c-2.14.01,1.34-.25-.05-.42.27-.2-4.46-.29-3.42-.52-1.01-.07,1.63.05.86-.08,1.12-.03.7.05,1.59,0-.53-.13,1.14-.26.38-.42l.87-.03c-1.6-.19,1.14-.46-.38-.57-.72-.22,2.58-.22.87-.42l1.18-.12c.19-.11-1.44-.04-.88-.17.74,0,.59-.16,1.29-.11,1.15-.29-1.66-.5.29-.89-1.44-.04-.59-.24-1.68-.27.63-.02.09-.35,1.46-.19.11.01.09.04-.15.05h.86c1.61-.23-.9-.33-.65-.54-.28.06-.2.14-.79.1l.11-.18.72.02.41-.28-.89.06c.45-.14,1.97-.22.7-.34-.71-.05-1.2.15-1.48.02.6-.19,1.51-.48,1.77-.71-1,.04-.97-.02-1.17-.08l.87-.03c-1.22-.21,1.91-.13.95-.35h.61s-1.82-.01-1.82-.01c-1.73-.18,1.81-.16-.56-.34.15.09-1.92.09-1.54-.04h.84c-.18-.05-.53-.06-.36-.11.45.03,1.22,0,1.08-.1l1.05.04-1.55-.14c.9-.16-.24-.35.95-.44,0,0,.57-.31-.73-.35.81.04,1.11-.13,2.06-.11-.91-.06-1.67-.27-.7-.38h.11c.99-.34-1.37-.53-.17-.86-1.01.04-.46-.14-1.76-.07-1.28-.28,2.61-.63-1.38-.65-.22-.14.93-.19,1.14-.27l.21.03c-.33-.26-.37-.33-.29-.53-.39-.09-2.25-.06-1.8-.25.74.04.6-.03.6-.1.12.04.39.05.88-.05-.23,0-.37-.02-.49-.04.06,0,.1,0,.18,0-.26-.1-.49-.08-.59-.03-.11,0-.26,0-.46.03.95-.14-.07-.32,1.2-.36-.3-.33-1.62-.53-2.11-.8.65-.05,1.23,0,1.49.08l-.24-.19c.94-.02.54.1.73.16,1.51-.27-1.52-.45-.14-.75l-.74-.04.12-.02c-.39.01-.93-.04-1.05-.08.82-.06,1.88-.04,1.83-.18.79-.13-.4-.3-.84-.43-.14.08-.59.06-.88.04-.03-.07.79-.12.43-.17l1.1-.03c-1.04.05-1.13-.15-1.58-.17.82-.06.71.09,1.32.09-.11-.27-.05-.13-.16-.4-.83-.13-1.04.05-2.01,0-.22-.12-.99-.23-.33-.39l-.98.07c-.77-.22-.66-.37.33-.55-8.01-1.61-10.9-.13-10.9-.13-2.15.75.71,1.05,1.49,1.87Z"/>
  </g>
</svg>