<?xml version="1.0" encoding="UTF-8"?>
<svg id="Livello_1" data-name="Livello 1" xmlns="http://www.w3.org/2000/svg" width="131.25mm" height="124.92mm" viewBox="0 0 372.05 354.12">
  <defs>
    <style>
      .cls-1 {
        fill: #e256a3;
      }

      .cls-2 {
        fill: #202020;
      }

      .cls-3 {
        fill: #e6076c;
      }
    </style>
  </defs>
  <g>
    <path class="cls-1" d="M28.02,213.59c-.01-.08-.02-.14-.03-.2-.44-.26-.68-.61-1.11-.84l1.15,1.05Z"/>
    <path class="cls-1" d="M344.23,209.73c-1.32-5.1-2.3-10.7-1.59-15.95,1.04-7.75,5.05-14.87,4.18-22.88-.8-7.26-3.72-14.1-7.64-20.23-4.07-6.49-9.35-12.42-14.72-17.36-5.36-4.97-10.88-8.92-15.51-11.98-.93-.4-1.86-.81-2.8-1.22-.85-.4-1.62-.78-2.33-1.21-1.43-.85-2.65-1.84-3.73-2.94-2.11-2.22-3.6-4.9-4.68-7.99-2.2-6.13-3-13.85-4.5-21.71-1.45-7.84-3.71-15.78-8.02-21.72-4.18-5.84-11.07-10.17-21.17-9.82.27-2.24-4.56-.05-5.38,1.34-7.88-5.87-17.63-11.72-29.57-15.98,0,0-.66-.24-1.95-.6-1.29-.36-3.1-.87-5.59-1.36-4.9-1.04-11.81-1.88-19.45-1.47-7.64.38-15.98,2.07-23.53,5.31-1.98.84-3.91,1.8-5.75,2.85-.19-.47-.39-.92-.59-1.37-2.23-3.63-5.05-6.53-8.09-8.78-3.04-2.26-6.3-3.91-9.25-4.9-2.96-1.03-5.66-1.58-7.61-1.88-1.95-.31-3.13-.3-3.13-.3-2.5-.4-4.9-.62-7.21-.67-2.31-.05-4.53.02-6.62.37-2.09.31-4.08.78-5.98,1.36-1.9.58-3.71,1.26-5.44,2.18-3.42,1.78-6.59,3.93-9.29,6.47-2.67,2.55-5.1,5.39-7.29,8.44-2.1,3.1-4.03,6.38-5.89,9.8-1.75,3.46-3.42,7.05-5.16,10.7-1.6,3.69-3.32,7.44-5.12,11.24-.87,1.92-1.78,3.84-2.77,5.77-.98,1.88-2,3.83-3.05,5.85-1.45,1.3-2.89,2.51-4.31,3.64-1.4,1.14-2.72,2.24-4.07,3.26-2.67,2.05-5.3,3.86-7.74,5.61-5.03,3.45-9.64,6.5-14.02,9.92-4.24,3.49-8.27,7.33-11.44,12.59-.81,1.31-1.57,2.69-2.3,4.16-.69,1.5-1.34,3.01-1.93,4.77-1.19,3.41-2.18,7.5-2.82,12.28-3.54,8.44-5.58,18.9-5.88,30.72-.45,16.62.82,31.39,11.46,44.39,8.62,10.51,10.36,21.54,15.07,33.82,4.79,12.51,14.88,22.12,24.67,31.27,1.52,1.42,3.18,2.92,5.24,3.24,2.06.31,4.52-1.19,4.34-3.27.72,8.6,12.98,12.04,18.68,16.37,3.57,2.71,5.36,6.69,8.75,7.85,3.17,1.09,6.75.3,9.87,1.74,8.64,3.99,12.86,12.34,23.04,14.81,1.8.44,3.65.74,5.37,1.42,1.33.54,2.57,1.31,3.93,1.75,4.42,1.42,9.1-.78,13.21-2.92,7.9-4.1,18.3-12.17,27.29-13.22,4.13-.48,3.94-4.43,6.44-6.52,5.89,4,8.41,11.97,12.02,17.83,1.7,2.77,3.8,5.47,6.72,6.91,7.65,3.77,19.38-1.24,26.68-3.95,9.09-3.37,17.75-7.89,25.72-13.42,19.29-13.39,27.35-37.12,50.27-46.71,3.01-1.26,6.41-2.46,7.98-5.32,1.39-2.53.93-5.61.88-8.49-.17-8.53,3.77-17.04,10.38-22.42,1.89-1.55,4.07-2.92,5.23-5.09,2.74-5.09-1.26-11.37-2.54-16.34Z"/>
    <path class="cls-1" d="M152.42,193.01c-.04.05-.08.1-.12.15-.07.07-.15.12-.24.15-.09.05-.18.07-.29.06-.1,0-.2-.02-.29-.06-.08-.03-.15-.08-.21-.14.03.02.06.05.09.07-.07-.05-.16-.08-.23-.13-.11-.07-.2-.16-.27-.27-.03-.06-.05-.12-.08-.18-.04-.13-.04-.26,0-.4.03-.06.05-.12.08-.18.05-.09.11-.16.19-.21.07-.07.16-.11.25-.13.1-.03.2-.04.3-.01.1,0,.19.03.28.09.04.03.09.05.13.07.02.01.05.02.07.04,0,0,.01,0,.02.01.06.04.11.08.16.13.01,0,.02.02.03.03.09.09.16.2.19.33,0,.07.02.13.03.2,0,.13-.03.26-.1.38Z"/>
  </g>
  <g>
    <path class="cls-3" d="M123.75,228.48c.51,2.95,1.11,6,2.87,8.41,3.52,4.83,10.32,5.56,16.3,5.82,32.19,1.39,64.43,1.41,96.62.06,2.4-.1,5.04-.3,6.78-1.96,1.33-1.27,1.86-3.15,2.31-4.94,7.8-30.95,8.58-63.65,2.26-94.94-.5-2.5-1.11-5.11-2.81-7.01-1.78-2-4.47-2.9-7.04-3.65-26.16-7.68-54.04-9.3-80.94-4.99-8.7,1.39-32.54,3.53-38.27,10.82-2.87,3.64-1.78,14.74-2.07,19.3-.45,7.32-.65,14.66-.59,22,.14,17.12,1.66,34.22,4.58,51.09Z"/>
    <g>
      <path class="cls-2" d="M182.07,238.51l1.18.43c-.02-.19-.31-.36-1.18-.43Z"/>
      <path class="cls-2" d="M127.21,138.43s-.03.08-.02.13c.04-.06.04-.1.02-.13Z"/>
      <path class="cls-2" d="M228.5,252s-.05,0-.06,0c-.1.05-.22.07-.31.12l.37-.12Z"/>
      <path class="cls-2" d="M167.43,251.19c16,.79,20.26,2.76,36.88,1.85,7.93.07,16.39-.56,24.12-1.04,1.81-.82,4.35-.9,6.98-.98,1.31-.04,2.65-.07,3.92-.18.39-.04.77-.08,1.14-.11.56-.06,1.11-.13,1.63-.22,1.06-.19,2.04-.46,2.9-.84,1.04.05,2.09,0,3.15-.16,2.28-1.45,4.36-3.68,6.05-5.7l.12.29c.8-1.89,1.44-3.91,1.89-5.76.1-.42.19-.82.28-1.21.05-.24.1-.48.14-.69.08-.43.13-.81.12-1.11l.22.15.54-2.75.24.55c.23-4.08.99-8.13,1.92-11.67l-1.08.12c2.44-7.5.67-10.6,2.73-17.42l.24.12c-.46-2.27-.52-4.26-.41-6.13.13-1.86.5-3.6.78-5.36.64-3.51,1.21-7.11-.12-11.67.34,1.14.53-.49.78-.4-.32-4.21-.73-8.7-2.76-8.66-.1-3.04.5-2.51,1.27-2.96-.89.07-1.45-2.54-1.68-4.9l.42,1.06c-.26-2.26-.64-4.5-.95-6.75l-1.54,1.51c.11-3.62,1.97-1.14,1.13-4.52l-1.38.22c-.17-2.48.16-4.51.52-6.55.39-2.04.86-4.1.89-6.59-.31-1.87-.53-3.48-1.11-5.76-.15-.56-.32-1.15-.53-1.77-.2-.6-.53-1.43-.85-2.11-.67-1.42-1.54-2.74-2.6-3.9-2.29-2.61-6.1-4.28-8.34-4.87-1.24-.37-2.29-.61-3.32-.84l-3.13-.7c-4.18-.88-8.37-1.61-12.51-2.26-8.3-1.3-16.38-2.3-24.03-3.81l-.77-1.11c-.3-1.54-5.33,2.01-5.99.59l-2.21.66c-.61-.29-1.91-.6-.81-.93-2.04-.11-2.09.17-3.55.64l-2.19-.94c-8.1-.59-14.81,1.72-23.18,2.48-1.29-.06-2.71-.04-4.23.05-1.39.08-2.86.2-4.5.38-3.25.36-6.85.93-10.49,1.71-7.28,1.58-14.72,3.96-20.32,7.31-.97.72-1.85,1.2-2.94,2.15-1.29.92-2.13,2.02-3.13,3.07-.75,1.05-1.38,2.2-1.81,3.44-.23.62-.43,1.24-.58,1.89l-.24.97-.16.81c-.4,2.08-.62,4.01-.84,5.91-.19,1.83-.37,3.67-.56,5.51-.09.88-.18,1.76-.3,2.52-.05.41-.12.74-.18,1.05l-.22,1.31c-1.19,7.22-1.89,14.54-.68,21.39-.21.51.3,1.82.47,1.81,0,4.76.09,9.52.3,14.27,0,0,.2,4.33.84,9.96.65,5.63,1.79,12.56,3.3,17.74,1.49,5.19,3.26,8.62,4.8,7.44,1.61-1.17,2.8-6.96,4.51-19.9l.37.3c0-7.56-.16-12.24-2.13-17.32,2-.92-.08-6.18.54-7.97l.17.16c-1.73-4.56,1.15-9.43-.2-13.84.16.17.72.28.75,1.29-.24-3.21-.55-7.62.67-7.81,0-1.91.06-4.02.16-6.17l.08-1.62c.03-.67.05-1.43.04-2.02,0-1.26-.04-2.38-.09-3.45-.09-2.14-.21-4.08-.35-5.71-.15-1.59-.28-3.06-.63-3.78l.3.21c-.7-1-.29-1.53.15-2,.22-.18.43-.54.63-.89.15.08.27.11.3.17.28-1.05,2.11-2.02,3.88-2.65,1.84-.65,3.77-1.07,4.83-1.63l.35.73c1.84-.55,3.74-1.05,5.68-1.49-.74.08-1.48.18-2.2.29.3-2.34,4.65.42,8.72-1.66,4.08-.38,7.72-5.68,12.24-5.29,1.88-1.31-1.54,1.91,1.39.68.27,1.12-1.31.91-.39,1.7,2.89-.99,5.01.45,8.57-.73l.24.87c4.64-2.09,9.07.4,12.16-1.24,4.94-.91,3.35,2.55,8.45.77l1.97,1.24c2.17.25,1.6-1.47,4.01-.77-.18.75,3.02.75,1.58,1.4,5.31,1.47,11.24-.9,18.08,2.18,1.78-1.24,5.2.26,6.55-.59.08.61,7.09,1.6,2.83,2.1-.36.04-.96-.11-.87-.35l-.65.75c3.62,2.46,7.41.7,11.27,2.03-1.07-.61-2.64-.94-1.45-1.25l3.6,1.12-.96.5c.86.32,1.81.64,2.55.95.74.3,1.33.6,1.72.85.01-.33,0-.67-.05-1.01.62.45.45.74.45,1.06-.04.3-.12.52-.02.58.07.05.23.02.6,0,.38-.04.61-.29.75-.56.15-.25.26-.48.63-.09.01.2-.03.33-.02.6.02.36.03.73.05,1.12.04,1.05.08,2.16.13,3.3.12,2.45.28,5.01.49,7.35.95-.6,1.11.66,1.52,1.92l-.86.28c1.88,4.78-1.69,2.07-.11,6.83l-.66-.36,1.98,1.09c2.19,4.29-1.54,2.55,1.22,7.31-.29-1.95,1.89-1.08,1.68,1.39l-.9-.56c.28,1.33.68,1.76.53,2.67-.5-.78-1.27-.35-1.03,1.61l-1.13-1.26,1.75,3.65c-.83,2.9.4,7.46-.85,8.64,0,0-.16,1.54-.16,3.26-.02,1.72.07,3.62.72,4.36-.78-1.27-1.22,2.11-2.15,1.1.85,1.62,1.34,6.41.15,8.21l-.08-.37c-1.6,6.82.08,12.04-2.19,18.04,1.07-.1-.07,3.06,1.38,2.5.03,3.33-1.23,6.13-2.11,8.44-.44,1.16-.77,2.2-.77,3.16-.03.58.14.7.37.93.23.23.56.51.99.87-.11.77-.54,1.04-.96,1.08-.42.04-.82-.09-1.12-.02.03-.11.05-.22.06-.34-.67.75-1.44.8-2.02.9-.04.01-.59.04-.97.06-.4.02-.81.03-1.23.05-.84.02-1.74.04-2.8.07-2.1.48-2.37,2.38-6.18,2.06,1.2-.8-.34-.6-1.76-.56.9-.15,1.17-.43-.7-.88-.26.24-.66.4-1.03.53-.02-.06-.09-.1-.06-.18-2.36.33-1.94.56-.84.63-.05.12.04.26.39.46-2.49-.9-6.86.24-7.19-1.05-7.11.45-12.19,1.87-18.13,2.4-.67-.66.71-1.26,2.43-1.53l-4.21.27c.03-.96,2.41-.57,3.71-.77-5.01-1.5-10.33,1.59-16.2.14l-1.22.75-.35-.13c.02.4-1.31.94-2.18,1.06-.82-.84.08-1.92-2.83-1.9-2.29-.83-6.54.31-9.56.7,1.62.17,1.09.63.38.91-1.46,0-2.28-.85-3.41-.52l-.11-1.13c.55,1.08-3.83,1.05-4.38,1.5-.81-.86,2.28-.66,2.66-1.28-5.83-.06-2.92-.03-8.75-.09-3.14.74.53,1.09-.99,2.02-2.76.12-5.47.82-8.6,0l.96,1.04c-5.19.59-8.36.33-11.3-1.42-2.27-.02-4.28-.37-6.02-1.1-1.72-.73-3.15-1.84-4.21-3.02-2.11-2.42-3.16-4.5-4.14-5.65-1.86-2.35-2.94-1.93-3.57-.42-.6,1.53-.83,4.67.21,8.24.5,1.74,1.36,3.49,2.17,4.66.4.58.74,1.05.98,1.36.26.3.4.47.4.47,2.27,2.75,5.04,4.54,7.48,5.63,2.47,1.11,4.71,1.67,6.74,2.02,4.09.67,7.39.51,10.38.38,6.2-.3,12.76-.99,21.87-1.18Z"/>
    </g>
  </g>
  <g>
    <path class="cls-2" d="M141.36,155.94l.33.41c0-.19-.09-.35-.33-.41Z"/>
    <path class="cls-2" d="M221.27,153.77s.05-.05.07-.1c-.05.03-.07.06-.07.1Z"/>
    <path class="cls-2" d="M153.99,169.66s-.01,0-.02,0c-.03.04-.06.06-.08.11l.1-.11Z"/>
    <path class="cls-2" d="M137.85,168.93c4.24.4,5.41,2.31,9.77,1.41,2.09.1,4.31-.4,6.35-.68.93-1.54,2.68-.09,3.8-1.39l.47.85c.38-.44.84-.75,1.25-.3l-.02.25c.57-.66,1.25-.29,1.53-.63l-.02.25.71-.13-.11.36c1.01-.71,2.07-.79,3.02-.5l-.1-1.04c2.03,1.11,2.71-1.06,4.55.27l-.02.25c2.21-2.8,3.65,1.77,5.94-.89-.29.33.14.53.12.78,1.08-.33,2.23-.51,2.19-2.55.79,0,.66.62.78,1.41-.03-.89.65-1.28,1.26-1.35l-.27.35,1.76-.35-.39-1.68c.95.46.29,2.05,1.18,1.62l-.05-1.4c1.3.24,2.11,2.34,3.39,3.34,5.22.47,10.73-3.24,15.64-.9l.24,1.05c.13,1.53,1.28-2.3,1.5-.89l.55-.71c.17.27.51.56.23.91.52.05.53-.2.89-.68l.58.94c2.08.69,3.78-1.2,5.95-.88,2.65,1.88,7.5-.03,10.29-1.14,3.91-2.39,8.67,3.6,12.66.87.14.21.47-.28.46-.46l3.72.12s18.02.13,4.02-12.23l.08-.33c-2.05-.76-3.34-.91-4.7.81-.27-2.06-1.68-.17-2.17-.83l.04-.17c-1.2,1.62-2.59-1.25-3.75.2.04-.17.05-.73.33-.77-.86.28-2.04.77-2.14-.43-2.07.37-4.99-.12-6.27,1.83l.08-.33c-.73,1.31-.98.22-1.81.9-.05-.16-.11-.24-.1-.3-.8,1.3-2.41.26-3.06.82l-.06-.8-1.64.23.62.16c-.16,2.2-1.28-1.34-2.44.11-1.13-.25-2.15,4.61-3.34,3.57-.53,1.04.45-1.68-.36-.87-.06-1.14.37-.73.13-1.63-.8.56-1.36-1.13-2.35-.34l-.06-.89c-1.27,1.66-2.5-1.11-3.33.46-1.33.77-.97-2.62-2.33-.84l-.58-1.19c-.61-.18-.39,1.49-1.07.92.02-.76-.86-.58-.49-1.31-1.54-1.15-3.02,1.76-5.06-.19-.39,1.49-1.42.63-1.71,1.75-.07-.64-2.01-.05-.92-1.48.09-.12.26-.1.26.15l.11-.88c-1.17-1.62-2.04.96-3.16.73.34.28.78.19.5.8l-1.04-.09.2-.74-1.56-.39.24.91c-.77-.45-1.08-1.99-1.9-.68-.37.73.75,1.21-.04,1.52-1.03-.6-2.57-1.49-3.88-1.73.15,1.02-.2.99-.56,1.21l-.06-.89c-1.34,1.27-.55-1.95-1.89-.93l.1-.62-.31,1.87c-1.19,1.8-.71-1.83-2.02.61.54-.17.3,1.96-.37,1.59l.15-.87c-.36.19-.48.55-.73.38.21-.47.08-1.25-.45-1.09l.34-1.09-.98,1.61c-.81-.9-2.04.29-2.39-.92,0,0-1.72-.55-2.07.79.32-.83-.62-1.12-.38-2.1-.42.94-1.7,1.74-2.25.76l.1-.11c-1.95-.97-3.26,1.47-5.02.28.1,1.03-.82.49-.56,1.81-1.76,1.35-3.33-2.6-3.87,1.5-.81.24-.99-.93-1.41-1.13l.19-.22c-1.52.37-1.96.42-3.09.36-.56.41-.6,2.31-1.62,1.88.31-.76-.1-.61-.48-.6.24-.12.31-.4-.2-.9-.06.24-.17.38-.27.5,0-.06-.03-.1-.02-.19-.63.28-.51.51-.21.61-.01.12.02.26.11.47-.68-.96-1.83.11-1.94-1.18-1.89.35-3.22,1.72-4.79,2.26-.19-.66.16-1.26.61-1.53l-1.12.27c-.01-.96.63-.57.97-.77-1.38-1.52-2.72,1.62-4.32.23l-.31.77-.1-.12c.01.4-.32.96-.55,1.09-.24-.83-.03-1.93-.81-1.86-.63-.79-1.73.45-2.53.92.44.13.31.6.13.9-.39.04-.63-.79-.92-.42l-.07-1.13c.18,1.06-.98,1.17-1.12,1.64-.24-.83.58-.73.66-1.37-1.55.15-.78.07-2.33.22-.81.87.18,1.06-.19,2.06-.73.24-1.42,1.04-2.28.39l.29.99c-1.36.81-2.18.72-3.14-.27-10.05,8.41-1.88,11.19-1.88,11.19,4.09,2.11,6.11-.86,10.89-1.76Z"/>
  </g>
  <g>
    <path class="cls-2" d="M160.9,190.26l-.42-.03c.19.03.35.05.42.03Z"/>
    <path class="cls-2" d="M160.19,200.56s.05,0,.09,0c-.03,0-.06,0-.09,0Z"/>
    <path class="cls-2" d="M146.77,189.73h0s-.06-.02-.1-.03l.1.03Z"/>
    <path class="cls-2" d="M148.33,187.36c-.62.57-2.56.42-1.91,1.26-.21.31.17.75.35,1.11,1.47.38-.04.44,1.19.8l-.86-.05c.42.12.7.24.23.24l-.25-.04c.63.18.23.24.55.33l-.25-.04.09.13-.35-.07c.66.26.69.43.35.54l1.03.12c-1.19.18.93.55-.47.67l-.25-.03c2.68.66-1.92.38.63,1.02-.32-.08-.53-.03-.78-.06.28.2.41.4,2.44.59-.04.12-.65.04-1.43-.02.89.08,1.25.22,1.3.32l-.34-.07.28.3,1.69.09c-.5.1-2.05-.14-1.66.03l1.39.12c-.29.17-2.41.12-3.46.24-.66.81,2.85,1.86.36,2.51h-1.05c-1.54-.05,2.26.29.84.27l.7.11c-.27.02-.57.06-.91,0-.06.08.19.09.65.16l-.96.06c-.75.31,1.08.63.71.96-1.95.39-.17,1.2.88,1.62,2.29.56-3.79,1.44-1.14,2.02-.22.03.27.06.45.06l-.19.6s-.11.73,1.36,1.06c1.47.36,4.5.18,10.78-1.12h.33c.79-.32.96-.48-.73-.58,2.06-.13.2-.22.87-.32h.17c-1.59-.09,1.3-.38-.12-.48.16,0,.73-.02.76.02-.26-.1-.73-.24.47-.28-.32-.25.22-.62-1.69-.76h.33c-1.29-.07-.19-.12-.85-.22.16,0,.24-.01.3-.02-1.28-.09-.2-.31-.75-.39h.8s-.19-.22-.19-.22l-.17.08c-2.19-.03,1.37-.16-.04-.32.28-.14-4.55-.33-3.48-.49-1.02-.09,1.67.09.88-.04,1.14.01.72.06,1.63.04-.54-.12,1.17-.16.4-.3h.89c-1.62-.19,1.18-.28-.37-.43-.73-.2,2.64-.04.91-.27l1.21-.03c.2-.07-1.47-.1-.89-.17.76.03.61-.08,1.33,0,1.19-.14-1.66-.45.35-.61-1.47-.13-.59-.21-1.69-.31.64.03.12-.25,1.5-.03.11.02.09.04-.16.02l.87.06c1.66-.05-.89-.3-.63-.43-.29.02-.22.08-.82,0l.13-.12.73.07.44-.16-.91-.03c.47-.06,2.02.01.74-.18-.72-.1-1.23,0-1.51-.12.63-.09,1.58-.2,1.86-.34-1.03-.07-.98-.11-1.19-.17l.89.07c-1.22-.27,1.96.1.99-.15l.62.07-1.85-.2c-1.75-.31,1.85.08-.54-.3.15.08-1.96-.15-1.57-.2l.85.1c-.18-.06-.53-.11-.35-.13.46.07,1.24.13,1.1.05l1.07.15-1.56-.28c.93,0-.21-.28,1-.2,0,0,.61-.15-.7-.34.82.13,1.14.05,2.1.19-.92-.15-1.67-.4-.67-.35l.11.03c1.04-.11-1.33-.57-.08-.63-1.03-.12-.46-.16-1.77-.3-1.27-.4,2.72-.05-1.32-.68-.2-.13.97,0,1.18-.02l.21.05c-.3-.24-.34-.3-.22-.43-.38-.13-2.26-.42-1.79-.48.74.15.61.08.62.03.11.05.38.1.9.11-.23-.04-.37-.08-.49-.11.06,0,.1.01.18.03-.25-.12-.48-.14-.59-.12-.11-.01-.26-.03-.47-.06.98.06-.03-.25,1.25-.06-.26-.29-1.55-.68-2.01-.97.66.09,1.24.24,1.48.34l-.21-.19c.95.16.53.17.71.25,1.56.1-1.46-.62-.03-.57l-.74-.18h.13c-.4-.06-.92-.2-1.05-.26.83.12,1.9.35,1.86.24.81.07-.36-.29-.78-.48-.15.03-.6-.08-.89-.15-.02-.06.81.07.46-.03l1.11.21c-1.05-.18-1.1-.35-1.55-.45.83.13.69.21,1.31.35-.06-.22-.03-.11-.1-.33-.81-.27-1.05-.19-2.01-.43-.2-.14-.95-.39-.26-.37l-.99-.17c-.72-.34-.58-.44.43-.35-3.84-1.55-6.52-2.29-8.27-2.56-1.75-.28-2.55-.11-2.55-.11-2.31.19.47,1.14,1.09,2.04Z"/>
  </g>
  <g>
    <path class="cls-2" d="M194.32,192.15l-.39-.15c.17.08.33.14.39.15Z"/>
    <path class="cls-2" d="M193.16,199.35s.05,0,.09,0c-.03,0-.06,0-.09,0Z"/>
    <path class="cls-2" d="M180.71,188.39h0s-.06-.03-.09-.05l.09.05Z"/>
    <path class="cls-2" d="M182.86,186.21c-.77.43-2.63-.15-2.22.91-.29.3-.02.84.07,1.27,1.36.67-.14.46,1,1.06l-.84-.2c.39.2.64.37.18.29l-.24-.08c.59.3.18.29.47.44l-.24-.08.07.15-.33-.13c.6.38.6.56.25.63l1,.28c-1.21,0,.83.7-.58.63l-.24-.07c2.56,1.03-1.96.16.48,1.15-.31-.12-.53-.1-.77-.15.25.24.36.47,2.35.89-.05.11-.65-.03-1.42-.17.88.18,1.22.36,1.26.46l-.33-.11.25.33,1.67.26c-.5.05-2.03-.34-1.65-.13l1.38.25c-.3.14-2.41-.11-3.47-.07-.74.84,2.72,2.08.21,2.65l-1.05-.03c-1.54-.07,2.26.36.84.31l.7.13c-.27.01-.57.05-.91-.01-.06.08.19.1.65.18l-.96.05c-.75.33,1.07.67.7,1.02-1.95.44-.14,1.29.93,1.66,1.16.24.23.63-.64,1.08-.87.44-1.7.95-.34,1.11-.21.05.28.04.45.01l-.12.65s0,.79,1.5.93c1.52.2,4.44-.63,10.53-2.56l.33-.06c.76-.33.92-.44-.76-.29,2.03-.35.19-.18.84-.33l.17-.02c-1.59.12,1.27-.4-.15-.3.16-.02.72-.09.76-.07-.27-.04-.73-.09.46-.23-.33-.14.2-.4-1.72-.37l.33-.02c-1.29.03-.2-.07-.86-.1.16-.01.24-.02.3-.03-1.28,0-.21-.21-.76-.25l.8-.04-.19-.14-.17.06c-2.19.06,1.36-.16-.05-.23.28-.09-4.56-.16-3.48-.31-1.03-.06,1.67.05.88-.04,1.14,0,.72.04,1.63.02-.54-.08,1.17-.13.39-.23h.89c-1.62-.15,1.18-.19-.37-.31-.73-.16,2.64.02.91-.17h1.2c.2-.03-1.47-.1-.89-.13.76.05.61-.03,1.32.04,1.19-.03-1.66-.38.35-.37-1.47-.17-.59-.17-1.69-.31.64.06.12-.16,1.5.08.11.02.09.03-.16,0l.87.1c1.65.1-.88-.25-.62-.31-.29,0-.22.03-.81-.06l.13-.07.73.11.44-.06-.91-.11c.47,0,2.01.2.74-.05-.71-.14-1.22-.12-1.5-.23.62,0,1.57.03,1.86-.01-1.01-.16-.97-.18-1.17-.25l.88.15c-1.2-.32,1.94.31.98.04l.61.12-1.83-.37c-1.72-.43,1.82.31-.52-.27.14.07-1.93-.36-1.54-.35l.84.19c-.17-.07-.52-.15-.34-.14.45.11,1.22.26,1.09.19l1.05.25-1.53-.41c.92.13-.19-.22,1,.02,0,0,.61.01-.68-.33.8.22,1.12.22,2.05.48-.9-.25-1.62-.54-.64-.33l.11.04c1.02.14-1.27-.61-.05-.4-.99-.28-.44-.19-1.71-.55-1.21-.54,2.65.55-1.23-.75-.19-.14.94.21,1.15.25l.2.08c-.28-.23-.3-.28-.18-.34-.36-.18-2.15-.83-1.68-.76.7.29.58.2.59.17.1.06.36.16.85.3-.21-.09-.35-.15-.46-.2.06.02.1.04.18.06-.23-.15-.45-.22-.56-.23-.11-.04-.25-.09-.45-.16.94.28,0-.19,1.21.27-.22-.26-1.42-.89-1.82-1.23.62.24,1.15.51,1.37.64l-.18-.19c.88.38.48.27.65.37,1.47.5-1.32-.84.04-.41l-.68-.34.12.04c-.37-.16-.85-.42-.96-.5.77.33,1.75.8,1.73.72.75.29-.3-.31-.67-.58-.15-.03-.56-.24-.81-.38,0-.05.75.3.44.11l1.02.49c-.96-.45-.99-.59-1.39-.81.76.35.62.37,1.18.66-.03-.18-.01-.09-.04-.26-.72-.46-.96-.47-1.82-.96-.16-.17-.82-.61-.18-.37l-.9-.44c-.61-.5-.45-.54.48-.14-3.26-2.52-5.55-4.12-7.13-4.91-1.57-.8-2.41-.85-2.41-.85-2.31-.43.05,1.36.39,2.42Z"/>
  </g>
  <g>
    <path class="cls-2" d="M226.58,189.56l-.41.07c.19-.01.36-.03.41-.07Z"/>
    <path class="cls-2" d="M227.38,200.42s.05,0,.09,0c-.03,0-.06,0-.09,0Z"/>
    <path class="cls-2" d="M212.67,192.07s0,0,0,0c-.04,0-.06,0-.11,0h.11Z"/>
    <path class="cls-2" d="M213.67,189.81c-.47.61-2.4.87-1.57,1.42-.14.29.32.57.57.83,1.52.04.04.36,1.32.44l-.85.11c.44.03.73.07.27.16h-.25c.65.05.27.17.6.19h-.25s.12.1.12.1h-.36c.7.1.75.24.44.39l1.04-.07c-1.14.34,1.01.31-.35.64h-.25c2.75.16-1.83.61.78.78-.33-.02-.53.05-.78.06.31.13.47.28,2.51.16-.02.11-.63.13-1.42.19.89-.05,1.27.02,1.33.1l-.35-.02.32.22,1.68-.15c-.48.16-2.05.16-1.64.25l1.4-.08c-.26.19-2.37.42-3.39.65-.55.74,3.05,1.29.63,2.1l-1.05.09c-1.53.1,2.28.05.86.16l.7.03c-.27.04-.56.1-.91.08-.06.07.2.06.66.08l-.95.13c-.72.32,1.13.45.77.77-1.92.47-.1,1.03.97,1.35,2.32.4-3.74,1.39-1.09,1.79-.22.03.28.05.45.04l-.19.52s-.44,2.49,12.14-.14h.33c.8-.33.96-.52-.73-.61,2.06-.15.2-.24.86-.34h.17c-1.59-.08,1.3-.43-.13-.51.16,0,.73-.03.77,0-.27-.1-.73-.24.46-.32-.33-.26.2-.69-1.72-.76h.33c-1.3-.03-.2-.13-.86-.21.16-.02.24-.03.3-.03-1.28-.04-.22-.32-.77-.37l.8-.05-.2-.21-.17.09c-2.19.1,1.36-.25-.07-.33.27-.17-4.56-.04-3.5-.26-1.03-.01,1.67-.03.87-.1,1.14-.07.72,0,1.63-.07-.55-.08,1.15-.25.38-.34l.89-.06c-1.63-.08,1.15-.41-.41-.43-.74-.14,2.63-.28.88-.37l1.2-.15c.19-.09-1.48.03-.9-.1.76-.04.6-.15,1.32-.14,1.17-.28-1.71-.32.28-.71-1.48.03-.61-.16-1.72-.14.64-.05.09-.28,1.49-.21.11,0,.1.03-.16.04l.87-.03c1.64-.25-.92-.23-.68-.39-.29.06-.21.12-.81.11l.11-.15h.74s.42-.25.42-.25l-.91.08c.46-.13,2.01-.26.71-.3-.72,0-1.22.17-1.51.08.61-.17,1.54-.44,1.8-.63-1.02.08-.99.03-1.2,0l.89-.06c-1.25-.11,1.95-.19.96-.31l.62-.02-1.86.06c-1.77-.06,1.84-.2-.58-.24.16.06-1.96.15-1.58.04l.86-.03c-.18-.04-.54-.03-.37-.08.47,0,1.25-.06,1.1-.12h1.08s-1.59-.06-1.59-.06c.91-.16-.25-.26.96-.38,0,0,.58-.27-.75-.24.83,0,1.13-.15,2.1-.17-.94,0-1.71-.14-.72-.27h.11c1-.32-1.42-.36-.2-.67-1.03.07-.48-.08-1.79.02-1.32-.17,2.66-.6-1.43-.45-.23-.1.95-.19,1.15-.26h.22c-.35-.17-.39-.23-.3-.39-.4-.05-2.3.05-1.85-.12.76,0,.61-.05.61-.1.12.03.4.02.9-.08-.23,0-.38,0-.5,0,.06,0,.11,0,.19-.01-.27-.07-.5-.04-.61,0-.12,0-.26.02-.47.04.97-.15-.08-.24,1.21-.33-.32-.24-1.66-.35-2.18-.53.66-.06,1.26-.05,1.52,0l-.25-.14c.96-.06.56.06.75.09,1.54-.28-1.57-.28-.16-.58h-.76s.12-.02.12-.02c-.4.02-.95,0-1.08-.01.83-.08,1.92-.11,1.87-.22.8-.13-.42-.21-.87-.3-.14.07-.6.08-.9.07-.03-.05.8-.13.44-.15l1.13-.07c-1.06.08-1.15-.07-1.61-.06.83-.08.72.04,1.35.01-.12-.21-.06-.1-.18-.31-.85-.06-1.06.08-2.05.09-.23-.09-1.02-.14-.35-.29l-1,.1c-.79-.14-.68-.26.33-.45-8.22-.91-11.14.37-11.14.37-2.18.68.75.79,1.57,1.4Z"/>
  </g>
  <g>
    <path class="cls-2" d="M165.38,109.87l-.41.12c.19-.01.35-.05.41-.12Z"/>
    <path class="cls-2" d="M165.41,135.72s.05.02.09.03c-.03-.02-.06-.03-.09-.03Z"/>
    <path class="cls-2" d="M151.55,114.37h0s-.06-.02-.11-.03l.11.03Z"/>
    <path class="cls-2" d="M152.43,109.44c-.42,1.32-2.35,1.75-1.49,3.03-.13.64.34,1.29.61,1.9,1.53.24.05.81,1.33,1.11l-.85.16c.44.11.74.24.28.37h-.25c.66.16.27.37.6.45h-.25l.12.21-.36-.03c.7.29.75.62.44.91l1.04-.05c-1.15.63,1.01.82-.36,1.39h-.25c2.75.66-1.86,1.11.75,1.8-.33-.09-.53.04-.79.04.3.33.46.68,2.5.68-.03.24-.64.2-1.43.23.89,0,1.26.21,1.32.4l-.35-.09.3.54,1.69-.1c-.49.29-2.06.07-1.65.34h1.4c-.28.4-2.4.62-3.43,1-.61,1.56,2.91,3.37.4,4.79l-1.05.03c-1.53-.03,2.25.49.83.49l.69.2c-.28.04-.57.13-.91.03-.07.16.19.17.64.3l-.96.13c-.77.59,1.06,1.21.65,1.85-1.98.69-.28,2.27.7,3.2,2.21,1.39-3.99,2.34-1.48,3.77-.22.02.26.17.43.18l-.32,1.11s-.27,1.35,1.08,2.35c1.35.98,4.33,1.71,10.87.14l.33.06c.88-.58,1.09-.98-.55-1.58,2.06.11.26-.52.94-.62l.17.03c-1.55-.53,1.39-.72,0-1.22.16.03.73.08.75.17-.24-.3-.67-.73.53-.65-.26-.7.37-1.61-1.52-2.17l.33.05c-1.27-.33-.17-.33-.81-.65.16,0,.24-.02.31-.01-1.26-.35-.15-.79-.68-1.04l.8.03-.15-.54-.18.19c-2.18-.2,1.4-.32,0-.79.3-.35-4.51-.97-3.42-1.28-1.02-.23,1.66.24.88-.06,1.14.05.71.16,1.62.14-.53-.29,1.19-.37.43-.73l.89.03c-1.61-.49,1.2-.75-.34-1.1-.72-.46,2.65-.19.93-.71l1.21-.13c.2-.19-1.47-.19-.88-.39.76.04.62-.25,1.33-.1,1.2-.46-1.65-1.05.37-1.64-1.47-.18-.58-.48-1.69-.62.64,0,.12-.65,1.51-.25.11.03.09.09-.16.08l.87.06c1.66-.34-.9-.7-.63-1.06-.29.1-.22.25-.82.14l.12-.34.74.08.44-.5-.91.06c.47-.24,2.03-.31.73-.61-.72-.14-1.23.22-1.51-.05.63-.32,1.57-.81,1.84-1.23-1.03.03-.99-.08-1.2-.2h.89c-1.24-.46,1.96-.16.98-.62l.62.04-1.86-.12c-1.76-.41,1.85-.22-.56-.67.15.18-1.96.08-1.58-.13l.86.05c-.18-.12-.54-.16-.36-.24.46.07,1.25.04,1.1-.14l1.08.12-1.58-.33c.92-.26-.24-.66.97-.78,0,0,.59-.56-.74-.68.83.1,1.14-.21,2.11-.13-.93-.14-1.7-.55-.71-.74l.11.03c1-.65-1.41-1.06-.19-1.65-1.03.05-.48-.26-1.8-.16-1.31-.55,2.66-1.14-1.43-1.23-.23-.26.95-.34,1.15-.48l.22.06c-.35-.49-.39-.63-.31-1-.4-.17-2.3-.13-1.86-.47.76.08.61-.05.61-.17.12.07.4.09.9-.09-.23-.01-.38-.04-.5-.07.06,0,.11,0,.19-.01-.28-.19-.51-.15-.61-.05-.12,0-.26.01-.47.05.96-.25-.09-.59,1.2-.67-.33-.6-1.68-.98-2.21-1.46.66-.09,1.26,0,1.53.13l-.26-.35c.96-.05.56.18.76.28,1.53-.51-1.59-.81-.2-1.39l-.76-.06.12-.04c-.4.02-.95-.06-1.08-.12.83-.12,1.92-.1,1.86-.35.8-.25-.43-.54-.9-.77-.13.15-.6.13-.89.09-.04-.12.79-.25.43-.32l1.13-.08c-1.06.12-1.17-.25-1.63-.27.83-.13.73.15,1.36.14-.14-.5-.07-.25-.21-.74-.87-.21-1.06.12-2.06.06-.24-.22-1.03-.39-.38-.71l-.99.16c-.81-.38-.71-.65.27-1.02-4.19-1.31-6.98-1.21-8.72-.84-1.74.38-2.44,1.04-2.44,1.04-2.11,1.38.84,1.78,1.71,3.2Z"/>
  </g>
  <g>
    <path class="cls-2" d="M226.65,111.11l-.42.09c.19,0,.36-.01.42-.09Z"/>
    <path class="cls-2" d="M227.18,136.25s.05,0,.09.02c-.03-.01-.06-.02-.09-.02Z"/>
    <path class="cls-2" d="M212.52,114.7h0s-.06-.02-.1-.03l.1.03Z"/>
    <path class="cls-2" d="M213.81,109.39c-.56,1.38-2.51,1.69-1.77,3.17-.17.69.26,1.45.48,2.13,1.5.35,0,.89,1.27,1.29l-.86.14c.43.14.72.29.26.42h-.25c.65.19.26.41.58.51h-.25s.11.23.11.23l-.36-.04c.68.35.73.7.41,1.01l1.04-.02c-1.16.66.99.9-.39,1.5h-.25c2.74.74-1.86,1.19.74,1.96-.33-.09-.53.04-.79.04.3.36.46.74,2.5.72-.03.26-.64.22-1.42.26.89-.01,1.27.21,1.33.41l-.35-.09.31.57,1.69-.14c-.48.31-2.06.11-1.64.39l1.4-.03c-.27.43-2.38.71-3.41,1.14-.56,1.75,3.06,3.47.66,5.15l-1.05.11c-1.53.09,2.29.35.87.47l.71.16c-.27.06-.56.19-.91.11-.05.17.2.17.67.27l-.95.23c-.71.71,1.15,1.2.82,1.93-1.9.96-.02,2.48,1.08,3.34,2.37,1.13-3.61,3.09-.89,4.23-.21.06.28.13.46.12l-.12,1.24s-.02,1.5,1.51,2.27c1.52.79,4.57.79,10.7-1.95h.33c.75-.71.89-1.12-.82-1.42,2.05-.24.17-.54.82-.75h.17c-1.61-.26,1.25-.9-.2-1.16.16,0,.73-.03.77.05-.28-.25-.76-.59.43-.7-.36-.63.12-1.57-1.81-1.85h.33c-1.31-.15-.21-.29-.88-.51.16-.02.24-.05.3-.05-1.29-.18-.25-.75-.8-.92l.79-.06-.22-.51-.16.2c-2.19.06,1.35-.47-.09-.77.26-.36-4.59-.47-3.53-.9-1.03-.12,1.67.07.87-.15,1.14-.07.72.09,1.63-.03-.55-.23,1.14-.48.36-.76l.89-.06c-1.64-.33,1.14-.83-.43-1.03-.75-.39,2.63-.4.87-.76l1.2-.22c.19-.2-1.48-.07-.91-.31.76-.02.59-.29,1.32-.19,1.17-.51-1.72-.89.27-1.58-1.48-.09-.61-.43-1.72-.49.64-.04.08-.63,1.49-.32.12.03.1.08-.15.08h.88c1.64-.39-.93-.6-.68-.96-.29.11-.21.25-.81.17l.11-.33.74.05.42-.49-.91.09c.46-.25,2.01-.37.71-.6-.72-.1-1.22.25-1.51,0,.61-.33,1.54-.82,1.81-1.23-1.03.06-.99-.05-1.2-.16l.89-.03c-1.24-.41,1.96-.19.97-.6l.62.03-1.86-.09c-1.77-.36,1.85-.23-.57-.63.15.17-1.96.1-1.58-.11l.86.04c-.18-.11-.54-.15-.37-.23.46.06,1.25.02,1.1-.14l1.08.1-1.58-.3c.92-.26-.24-.64.97-.75,0,0,.59-.53-.74-.65.83.1,1.14-.19,2.11-.11-.93-.13-1.7-.54-.7-.7l.11.03c1.02-.6-1.39-1.03-.15-1.56-1.03.02-.47-.26-1.79-.2-1.31-.57,2.7-.99-1.39-1.24-.22-.26.96-.29,1.17-.42l.21.06c-.33-.48-.37-.62-.27-.98-.4-.18-2.29-.25-1.83-.56.75.12.62-.02.62-.13.12.08.39.11.9-.04-.23-.03-.38-.06-.49-.1.06,0,.11,0,.19,0-.26-.2-.5-.17-.6-.08-.12,0-.26,0-.47.02.98-.19-.05-.58,1.24-.57-.29-.6-1.62-1.07-2.1-1.58.67-.04,1.26.1,1.51.25l-.23-.36c.96.03.54.22.73.33,1.56-.37-1.52-.91-.08-1.36l-.75-.13.13-.02c-.4-.01-.94-.14-1.07-.22.84-.04,1.93.07,1.88-.17.81-.16-.38-.56-.82-.83-.15.13-.61.07-.9,0-.02-.12.81-.16.46-.27l1.13.03c-1.06,0-1.13-.37-1.59-.43.84-.03.71.22,1.34.28-.08-.49-.04-.25-.13-.74-.84-.3-1.07,0-2.05-.17-.21-.24-.99-.51-.3-.74l-1,.04c-.76-.48-.62-.74.4-.98-3.99-1.85-6.76-2.2-8.53-2.06-1.78.14-2.56.78-2.56.78-2.28,1.23.6,2.08,1.31,3.69Z"/>
  </g>
</svg>