<?xml version="1.0" encoding="UTF-8"?>
<svg id="Livello_1" data-name="Livello 1" xmlns="http://www.w3.org/2000/svg" width="131.25mm" height="124.92mm" viewBox="0 0 372.05 354.12">
  <defs>
    <style>
      .cls-1 {
        fill: #e256a3;
        stroke: #e256a3;
        stroke-miterlimit: 10;
        stroke-width: 1.77px;
      }

      .cls-2 {
        fill: #202020;
      }

      .cls-3 {
        fill: #e6076c;
      }
    </style>
  </defs>
  <g>
    <path class="cls-1" d="M27.58,207.06c-.01-.08-.02-.14-.03-.2-.43-.25-.68-.61-1.1-.83l1.14,1.03Z"/>
    <path class="cls-1" d="M340.32,203.24c-1.31-5.05-2.27-10.59-1.57-15.78,1.03-7.66,4.99-14.71,4.13-22.63-.79-7.18-3.68-13.95-7.55-20.01-4.03-6.42-9.25-12.28-14.55-17.17-5.3-4.91-10.76-8.82-15.34-11.85-.92-.4-1.84-.8-2.77-1.21-.84-.39-1.6-.77-2.31-1.19-1.42-.84-2.62-1.82-3.69-2.91-2.09-2.19-3.56-4.85-4.63-7.9-2.18-6.06-2.97-13.7-4.45-21.47-1.44-7.75-3.67-15.61-7.93-21.48-4.13-5.78-10.95-10.06-20.94-9.71.27-2.21-4.51-.05-5.32,1.32-7.8-5.81-17.44-11.59-29.25-15.81,0,0-.66-.24-1.93-.59-1.28-.35-3.07-.86-5.53-1.34-4.85-1.03-11.68-1.86-19.24-1.45-7.55.38-15.8,2.04-23.27,5.25-1.96.83-3.87,1.78-5.69,2.82-.19-.46-.38-.91-.58-1.36-2.21-3.59-4.99-6.45-8-8.68-3-2.24-6.23-3.87-9.15-4.85-2.93-1.02-5.6-1.56-7.52-1.86-1.93-.31-3.09-.3-3.09-.3-2.47-.4-4.85-.61-7.13-.66-2.29-.05-4.49.02-6.54.37-2.07.31-4.04.77-5.92,1.34-1.88.58-3.67,1.25-5.38,2.15-3.38,1.76-6.51,3.89-9.19,6.4-2.64,2.52-5.05,5.33-7.21,8.35-2.07,3.06-3.98,6.31-5.83,9.69-1.73,3.42-3.38,6.97-5.1,10.58-1.58,3.65-3.28,7.35-5.06,11.12-.86,1.9-1.76,3.8-2.74,5.71-.97,1.86-1.98,3.79-3.02,5.78-1.44,1.28-2.86,2.48-4.26,3.6-1.39,1.13-2.69,2.21-4.02,3.22-2.64,2.03-5.24,3.82-7.66,5.55-4.97,3.41-9.54,6.43-13.87,9.81-4.2,3.45-8.18,7.25-11.32,12.45-.8,1.29-1.56,2.66-2.27,4.12-.69,1.48-1.32,2.98-1.91,4.71-1.17,3.37-2.15,7.41-2.79,12.14-3.5,8.34-5.52,18.69-5.81,30.38-.44,16.44.81,31.05,11.34,43.9,8.53,10.39,10.25,21.3,14.9,33.45,4.74,12.37,14.72,21.88,24.4,30.93,1.5,1.41,3.14,2.89,5.19,3.2,2.04.31,4.47-1.18,4.29-3.24.72,8.51,12.84,11.91,18.48,16.19,3.53,2.68,5.3,6.62,8.65,7.76,3.14,1.08,6.68.3,9.76,1.72,8.55,3.95,12.72,12.21,22.79,14.64,1.78.44,3.61.73,5.31,1.41,1.31.53,2.54,1.29,3.89,1.73,4.37,1.4,9-.77,13.06-2.89,7.81-4.06,18.1-12.04,26.99-13.08,4.09-.48,3.9-4.38,6.37-6.45,5.83,3.95,8.32,11.84,11.89,17.63,1.68,2.74,3.76,5.41,6.65,6.83,7.57,3.73,19.17-1.22,26.39-3.91,8.99-3.33,17.56-7.8,25.44-13.27,19.08-13.24,27.05-36.71,49.72-46.2,2.98-1.25,6.34-2.43,7.89-5.26,1.38-2.5.92-5.55.87-8.4-.17-8.43,3.73-16.85,10.27-22.17,1.87-1.53,4.02-2.89,5.17-5.03,2.71-5.04-1.25-11.24-2.51-16.16Z"/>
    <path class="cls-1" d="M150.61,186.7s-.08.1-.12.15c-.07.07-.15.12-.24.15-.09.05-.18.07-.28.06-.1,0-.2-.02-.28-.06-.08-.03-.15-.08-.21-.14.03.02.06.05.09.07-.07-.05-.15-.08-.23-.13-.11-.07-.2-.15-.26-.26-.02-.06-.05-.12-.07-.18-.04-.13-.04-.26,0-.39.02-.06.05-.12.07-.18.05-.09.11-.16.19-.21.07-.07.15-.11.25-.13.1-.03.2-.04.29-.01.1,0,.19.03.27.09.04.03.09.05.13.07.02.01.05.02.07.04,0,0,.01,0,.02.01.05.04.11.08.16.12.01,0,.02.02.03.03.09.09.15.2.19.33,0,.07.02.13.03.2,0,.13-.03.26-.1.37Z"/>
  </g>
  <g>
    <path class="cls-3" d="M140.72,123.31c-1.92.71-3.97,1.5-5.16,3.17-.9,1.26-1.17,2.85-1.37,4.38-.95,7.53-.51,15.17-.07,22.75.45,7.82.91,15.63,1.36,23.45.3,5.13.62,10.38,2.57,15.14,2.12,5.18,5.99,9.4,9.79,13.51,4.06,4.39,8.12,8.77,12.18,13.16,5.38,5.82,10.86,11.72,17.63,15.85,3.52,2.15,7.67,3.83,11.71,2.99,2.07-.43,3.94-1.49,5.75-2.58,13.13-7.91,24.83-18.16,34.41-30.13,3.79-4.74,7.3-9.85,9.07-15.66,1.15-3.76,1.53-7.71,1.91-11.62,1.69-17.54,3.39-35.14,2.82-52.76-9.22-2.75-18.31-5.92-27.24-9.5-8.77-3.51-17.35-9.06-26.27-11.94-7.77-2.51-16.39,5.3-23.49,8.79-8.34,4.09-16.88,7.77-25.59,11.01Z"/>
    <g>
      <path class="cls-2" d="M140.55,175.3l-.35,1.02c.19-.03.34-.29.35-1.02Z"/>
      <path class="cls-2" d="M212.45,119.69c-.09,0-.19-.02-.27-.02.18.04.24.04.27.02Z"/>
      <path class="cls-2" d="M145.01,215.48s-.03-.03-.04-.04c-.09-.03-.17-.09-.25-.12l.29.16Z"/>
      <path class="cls-2" d="M127.11,163.9c.14,6.72-.22,10.93-.41,15.33-.07,2.25-.1,4.67.29,7.68.2,1.51.51,3.17,1.05,5.02.53,1.84,1.35,3.94,2.49,6.01,1.94,4.08,4.63,7.41,7.19,10.17,2.61,2.78,4.96,5,7.26,7.33,3.19,1.24,5.79,6.23,9.18,8.05l.34,1.62c1.17.63,2.41,1.54,2.97,2.8l-.24.11c1.8.97,3.09,2.83,4.04,3.31l-.23.12,1.84,1.63-.55-.04c3.04,1.97,5.93,4.34,8.58,6.56l.36-1c2.61,2.51,5.12,3.67,7.77,4.5,1.33.41,2.7.76,4.3,1.09,1.6.33,3.45.66,5.86.75l-.1.26c3.06-1.01,5.2-2.26,6.9-3.12,1.74-.91,3.04-1.48,4.48-2.08,2.82-1.21,5.72-2.52,8.14-5.87-.61.83.65.18.73.42,2.77-2.37,5.65-4.96,4.4-6.55,2.02-1.63,2.02-.88,2.8-.5-.58-.66.9-2.41,2.36-3.82l-.47.88c1.38-1.37,2.73-2.77,4.04-4.2l-1.97-.4c2.51-1.8,2,.93,3.79-1.45l-1.01-.94c3.13-2.82,6.36-3.25,9.85-5.81,2.87-3.23,5.62-6.87,7.92-11.18,1.15-2.14,2.15-4.44,2.94-6.87.79-2.44,1.31-4.99,1.6-7.35.58-4.8.6-8.86,1.06-12.94.41-4.07,1.01-8.05,1.94-11.87l1.09-.6c1.54-.18-1.9-4.46-.46-4.94l-.56-1.86c.31-.49.67-1.54.95-.62.17-1.67-.07-1.73-.46-2.97l1.05-1.75c.54-3.3.42-6.41.18-9.55-.11-1.57-.23-3.16-.35-4.78-.05-.85-.09-1.56-.09-2.57-.02-1.34-.04-2.76-.01-4.2.28-2.33.43-5.1.47-8.17-1.7-.6-3.56-1.22-5.51-1.84-1.89-.59-3.85-1.2-5.85-1.82-1.19-.35-2.41-.7-3.63-1.06-1.19-.32-2.38-.65-3.57-.98-4.78-1.25-9.45-2.48-13.02-3.42-5.92-1.08-11.3-5.17-17.35-9.05-1.52-.97-3.09-1.93-4.76-2.81-.82-.45-1.69-.86-2.55-1.26-.43-.2-.89-.38-1.33-.57l-.67-.27c-.29-.1-.69-.21-1.03-.31-2.84-.85-5.83-.8-8.21-.23-2.41.56-4.45,1.49-6.09,2.59-.59,0-1.5,1.02-1.42,1.16-4.08,1.97-7.49,4.26-10.54,5.87,0,0-.17.09-.48.26-.31.16-.75.39-1.31.67-1.29.64-3.09,1.54-5.13,2.56-4.08,2.06-9.14,4.58-12.91,6.85-3.76,2.27-6.24,4.34-4.94,5.7,1.29,1.31,6.37,2.06,17.77.54l-.14.42c3.17-.96,5.72-1.86,7.89-2.96,1.08-.55,2.07-1.15,3-1.83.45-.33,1.02-.78,1.49-1.19.48-.43.9-.88,1.33-1.36.83.7,2.1,0,3.26-.84,1.17-.86,2.27-1.87,3.05-1.95l-.03.21c1.19-1.62,2.98-2.23,4.58-2.55,1.64-.33,2.92-.32,3.81-1.1-.06.15-.04.72-.49.84.74-.3,1.4-.41,1.87-.32.11.03.22.07.31.11.09.04.38.2.51.3.32.24.48.5.42.79,5.49,1.53,13.3,6.41,18.11,6.61l-.41.16c2.79-.07,2.98,1.24,5.86,1.8.08.21.24.36.18.41,3.09-.06,7.35,2.7,9.6,2.96l-.14.79,5.06,1.63-1.81-.82c1.37-1.81,3.33,2.64,7.45,2.52.73.31,1.55.38,2.4.33.56-.15,1.26-.38,1.97-.63,1.42-.5,3.49-.86,4.93-.52.14.29.03.77-.07,1.21.52.46.1.35-.34.38-.44.04-.91.2-.5.96-1.12.6-.72-.45-1.61.48.29.63,0,1.43-.25,2.09-.13.35-.24.65-.29,1.01-.04.55-.01,1.29.18,2.06l-.88.12c1.57,4.1-1.33,7.64.08,10.4.51,4.26-2.75,2.67-1.3,7.16l-1.3,1.62c-.32,1.86,1.36,1.45.63,3.49-.73-.18-.81,2.59-1.42,1.31-1.54,4.6.84,9.72-1.74,15.8,1.32,1.5.16,4.58,1.14,5.63-.32.05-.51,1.54-.77,2.52-.26.98-.56,1.5-1.01-.14-.07-.28,0-.76.25-.7l-.81-.49c-2.02,2.96.07,5.48-1.17,8.01.57-.65.82-1.7,1.16-.83-.32.8-.66,1.6-1.08,2.39l-.44-.79c-.64,1.12-1.37,2.22-2.18,3.32l1.07-.04c-1.44,1.55-3.08,1.25-3.41,3.94-.07,1.32,2.19-.97,1.07,1.07-2.21,2.01-5.85,4.99-8.62,7.64.99.41.28,1.17-.31,2.09l-.73-.51c-1.95,3.82-2.41-.24-4.57,3.29l-.18-.69.52,2.07c-1.49,3.81-2.65.03-4.1,4.53,1.1-1.2,1.88.96.08,1.99l-.17-.98c-.73.86-.78,1.38-1.46,1.72.22-.77-.52-1.17-1.69-.03l.16-1.51c-.46,1.04-.9,2.11-1.4,3.14-2.4.78-4.79,3.88-6.28,3.47,0,0-1.13.59-2.29,1.41-1.17.79-2.38,1.8-2.53,2.65.43-1.23-2.11-.02-1.93-1.26-.3.73-1.25,1.82-2,2.41-.78.62-1.39.75-1.67.3l.05-.13c-.36-.17-.58-.19-1.07-.18-.47,0-1.13,0-1.89-.11-1.52-.23-3.41-1-4.96-2.82-.42.97-2.09-.95-2.38.45-2.4-1.01-3.75-3.12-4.95-4.71-1.21-1.6-2.32-2.71-4.47-2.02-1.9-1.66-1.36-2.81-2.11-3.91l.57.3c-3.5-3.28-4.5-4.32-6.87-7.01-1.51-1.05-3.08.02-4.93-2.65,1.25.26.26-.61-.56-1.5.61.48.97.47.27-1.03-.32,0-.66-.16-.96-.32.03-.05.02-.13.11-.16-1.56-1.29-1.49-.88-.93-.13-.12.04-.17.2-.13.55-.73-2.2-3.95-4.19-3.12-5.21-3.94-4.04-7.06-6.19-8.83-10.25.5-.65,1.32.17,1.97,1.15-.42-.85-.78-1.76-1.1-2.71.92-.19.95,1.5,1.44,2.23.17-1.79-.6-3.33-1.29-5.29-.69-1.92-1.27-4.14-.71-6.62l-.81-.98.11-.3c-.4.04-1-1.04-1.17-1.77.78-.75,1.91-.06,1.71-2.52.68-1.99-.72-5.5-1.31-8.02-.06,1.38-.54.96-.87.39-.1-1.23.68-1.98.27-2.91l1.11-.18c-1.02.54-1.32-3.14-1.8-3.57.78-.75.82,1.87,1.46,2.14-.39-4.92-.19-2.46-.58-7.38-.99-2.57-1.03.53-2.07-.66-.35-2.3-1.25-4.51-.66-7.17l-.96.87c-.91-4.29-.76-6.94.39-9.75-.4-1.99-.69-3.87-.95-5.41-.26-1.61-.25-3.25.23-4.54.99-2.58,2.7-3.96,3.71-5.16.59-.6.75-1.02.92-1.42.14-.39.18-.72.12-1.01-.12-.56-.61-.91-1.31-1.12-.21-.04-.33-.11-.65-.09-.31,0-.64.03-1.01.08-.72.09-1.52.26-2.34.51-1.64.5-3.34,1.4-4.66,2.56-1.34,1.15-2.31,2.5-2.88,3.55-.58,1.05-.83,1.78-.83,1.78-.59,1.4-.96,2.89-1.23,4.34-.07.41-.12.6-.16.8l-.14.63c-.08.41-.15.82-.22,1.23-.27,1.62-.42,3.16-.48,4.63-.13,2.96.09,5.67.45,8.39.74,5.45,2.03,10.74,2.84,18.35Z"/>
    </g>
  </g>
  <g>
    <path class="cls-2" d="M173.12,175.29l-.19.4c.14-.13.23-.27.19-.4Z"/>
    <path class="cls-2" d="M198.1,164.79s-.01-.06-.03-.1c0,.04.01.07.03.1Z"/>
    <path class="cls-2" d="M169.38,191.05h-.01s-.08,0-.12.03l.13-.03Z"/>
    <path class="cls-2" d="M162.32,182.38c1.24,2.11.31,3.92,2.65,5.19.19.24.4.46.64.66.21.17.76.65,1.17.95.88.66,1.76,1.29,2.59,1.86,1.44-.7,2.01,1.75,3.34,1.22l.02,1.13c.44-.19.85-.23,1,.5l-.09.25c.62-.32.99.49,1.28.31l-.08.26.54.31-.16.32c.9-.14,1.61.4,2.27,1.36l.04-1.31c.32.64.61.99.87,1.19.07.03.13.13.19.08l.19-.22.35-.47c.46-.64.86-1.19,1.56-.87v.31c.67-2.24,1.28-2.12,2.04-2.11.73.03,1.62.02,2.01-1.99-.09.49.27.46.35.72.69-.95,1.45-1.78.53-3.63.5-.38.7.24,1.15.88-.42-.8-.17-1.48.18-1.84v.44s.95-1.18.95-1.18l-1.2-1.17c.82-.05,1.37,1.51,1.67.73l-.89-1.06c.74-.26,2.37,1.11,3.54,1.47,2.5-1.29,2.52-5.89,6.05-5.64l.75.73c1.01,1.14-.89-2.18.08-1.16l-.21-.72c.24.16.56.27.66.62.25-.13.1-.33-.04-.81l.83.54c1.3-.13.85-2.12,1.97-2.56,2.28.61,3.15-2.4,3.64-4.14.18-3.09,5.87.05,5.89-3.33.19.12.02-.37-.09-.5l1.65-1.08s7.71-5.61-5.76-10.8l-.17-.29c-1.34.06-1.98.36-1.5,2.13-1.37-1.51-.82.4-1.43.05l-.09-.14c.48,1.64-1.87-.15-1.48,1.35-.08-.14-.43-.59-.33-.7-.2.5-.4,1.25-1.17.35-.66.95-2.2,1.5-1.55,3.42l-.17-.29c.5,1.25-.28.48-.22,1.27-.12-.1-.19-.15-.23-.2.46,1.26-.86.97-.8,1.61l-.52-.6-.56.7.36-.08c1.29,1.75-1.37-.63-.97.86-.63.17,1.93,4.25.78,3.82.42.97-.85-1.44-.69-.56-.73-.86-.29-.68-.95-1.3,0,.69-1.28-.44-1.21.49l-.58-.67c.49,1.68-1.75-.06-1.13,1.42-.09,1.02-2.04-1.71-1.51.1l-.98-.73c-.37.06.75,1.27.11,1.05-.46-.59-.73-.18-1.02-.86-1.37-.39-.19,2.32-2.28,1.47.76,1.27-.21.94.36,1.89-.43-.47-.89.6-1.31-.84-.03-.12.05-.16.2.03l-.5-.71c-1.51-.87-.27,1.39-.89,1.58.32.11.45-.1.71.46l-.5.26-.38-.63-.91.2.67.62c-.61-.1-1.7-1.18-1.23.09.3.68,1.07.69.93,1.18-.81-.13-2.03-.32-2.74-.09.7.74.54.83.52,1.11l-.58-.66c.26,1.38-1.6-1.19-1.04-.39l-.37-.49c.37.49.74.98,1.09,1.49.86,1.55-1.04-1.52.12.62-.02-.18,1.04,1.66.72,1.43l-.39-.78c.04.2.19.54.07.41-.18-.44-.57-1.14-.55-.96l-.45-1.01c.22.49.42,1.01.59,1.54-.45-.81-.17.44-.6-.76-.02.01-.28-.53-.02.96-.16-.93-.3-1.21-.48-2.31.2,1.03.16,2.04,0,.9v-.14c-.11-.56-.1-.13-.15.33-.04.5-.15.8-.15-.04-.09,1.3-.12.53-.25,2.17-.21.69-.25-.24-.25-.67-.02-.45-.04-.44-.67,1.74-.23.09.11-1.18.12-1.45l.1-.2c-.32.16-.42.12-.54-.11-.25.31-1.19,2.01-1.19,1.39.45-.6.3-.55.23-.62.11-.06.26-.29.45-.8-.14.19-.23.29-.32.38.03-.05.06-.09.1-.16-.26.12-.38.33-.38.47-.07.09-.15.22-.24.41.43-.92-.42-.31.38-1.32-.13-.02-.28.02-.48.07-.19.06-.54,0-.81.04-.58.03-1.17.08-1.63-.03.41-.53.96-.8,1.3-.82l-.57-.23c.68-.66.62-.15.87-.16.63-1.54-2.06.07-1.59-1.47l-.66.39.06-.12c-.29.27-.8.51-.98.51.53-.65,1.4-1.29,1.1-1.54.38-.76-.88-.37-1.49-.38.04.26-.34.51-.62.64-.15-.13.39-.76.02-.64l.82-.76c-.73.76-1.19.37-1.58.61.55-.63.74-.24,1.23-.62-.59-.52-.3-.26-.89-.78-.91.23-.75.75-1.62,1.23-.41-.14-1.24.08-1.01-.69l-.67.74c-1.05-.06-1.24-.47-.77-1.48-4.82.44-7.22,1.8-8.34,3.21-1.12,1.39-.98,2.78-.98,2.78-.23,3.21,2.79,2.34,5.17,3.85Z"/>
  </g>
</svg>