<?xml version="1.0" encoding="UTF-8"?>
<svg id="Livello_1" data-name="Livello 1" xmlns="http://www.w3.org/2000/svg" width="131.25mm" height="124.92mm" viewBox="0 0 372.05 354.12">
  <defs>
    <style>
      .cls-1 {
        fill: #4bb9e0;
      }

      .cls-2 {
        fill: #202020;
      }

      .cls-3 {
        fill: #0095e5;
      }
    </style>
  </defs>
  <g>
    <path class="cls-1" d="M38.96,208.06c-.01-.08-.02-.14-.03-.2-.43-.25-.66-.59-1.08-.81l1.11,1.01Z"/>
    <path class="cls-1" d="M344.75,204.33c-1.28-4.93-2.22-10.35-1.54-15.43,1.01-7.49,4.88-14.38,4.04-22.12-.77-7.03-3.6-13.64-7.39-19.56-3.94-6.28-9.05-12.01-14.23-16.79-5.19-4.8-10.52-8.63-15-11.58-.9-.39-1.8-.79-2.71-1.18-.82-.38-1.57-.76-2.26-1.17-1.38-.82-2.56-1.78-3.61-2.84-2.04-2.14-3.48-4.74-4.52-7.73-2.13-5.93-2.9-13.39-4.35-21-1.41-7.58-3.58-15.26-7.75-21-4.04-5.65-10.7-9.84-20.47-9.49.26-2.16-4.41-.05-5.2,1.29-7.62-5.68-17.05-11.33-28.6-15.46,0,0-.64-.23-1.89-.58-1.25-.35-3-.84-5.41-1.31-4.74-1.01-11.42-1.82-18.81-1.42-7.39.37-15.45,2-22.75,5.14-1.92.82-3.78,1.74-5.56,2.76-.19-.45-.38-.89-.57-1.33-2.16-3.51-4.88-6.31-7.83-8.49-2.94-2.19-6.09-3.78-8.94-4.74-2.86-1-5.47-1.53-7.36-1.82-1.89-.3-3.02-.29-3.02-.29-2.42-.39-4.74-.6-6.97-.65-2.24-.05-4.39.02-6.4.36-2.02.3-3.95.75-5.78,1.31-1.84.56-3.59,1.22-5.26,2.11-3.3,1.72-6.37,3.8-8.99,6.25-2.58,2.47-4.93,5.21-7.05,8.17-2.03,2.99-3.9,6.17-5.7,9.48-1.69,3.35-3.3,6.82-4.99,10.34-1.54,3.57-3.21,7.19-4.95,10.87-.84,1.85-1.72,3.71-2.68,5.58-.95,1.82-1.93,3.71-2.95,5.65-1.41,1.26-2.8,2.42-4.17,3.52-1.36,1.1-2.63,2.16-3.93,3.15-2.58,1.98-5.12,3.74-7.49,5.42-4.86,3.33-9.33,6.28-13.56,9.59-4.1,3.38-8,7.09-11.06,12.18-.78,1.26-1.52,2.6-2.22,4.02-.67,1.45-1.29,2.91-1.87,4.61-1.15,3.3-2.11,7.25-2.73,11.87-3.43,8.16-5.4,18.28-5.68,29.7-.43,16.07.79,30.36,11.09,42.92,8.34,10.16,10.02,20.83,14.57,32.7,4.63,12.1,14.39,21.39,23.85,30.24,1.47,1.38,3.07,2.83,5.07,3.13,1.99.3,4.37-1.15,4.2-3.17.7,8.32,12.55,11.64,18.07,15.83,3.45,2.62,5.19,6.47,8.46,7.59,3.07,1.05,6.53.29,9.54,1.68,8.36,3.86,12.44,11.94,22.28,14.32,1.74.43,3.53.71,5.19,1.38,1.28.52,2.48,1.26,3.8,1.69,4.27,1.37,8.8-.76,12.77-2.83,7.64-3.97,17.7-11.77,26.39-12.79,4-.47,3.81-4.28,6.23-6.3,5.7,3.87,8.14,11.58,11.63,17.24,1.64,2.68,3.68,5.29,6.5,6.68,7.4,3.64,18.74-1.2,25.8-3.82,8.79-3.26,17.17-7.63,24.87-12.98,18.65-12.95,26.45-35.9,48.62-45.17,2.91-1.22,6.2-2.38,7.72-5.14,1.35-2.45.9-5.42.85-8.21-.17-8.24,3.65-16.47,10.04-21.68,1.83-1.5,3.93-2.83,5.06-4.92,2.65-4.93-1.22-10.99-2.45-15.8Z"/>
    <path class="cls-1" d="M159.25,188.15s-.08.1-.11.15c-.07.07-.14.12-.23.15-.09.05-.18.07-.28.06-.1,0-.19-.02-.28-.06-.08-.03-.15-.07-.21-.13.03.02.06.05.09.07-.07-.05-.15-.08-.22-.12-.11-.06-.19-.15-.26-.26-.02-.06-.05-.11-.07-.17-.03-.13-.03-.26,0-.38.02-.06.05-.11.07-.17.05-.08.11-.15.19-.2.07-.06.15-.11.25-.13.1-.03.19-.03.29-.01.1,0,.19.03.27.09.04.03.09.05.13.07.02.01.05.02.07.04,0,0,.01,0,.02.01.05.04.11.08.16.12.01,0,.02.02.03.03.09.09.15.2.19.32,0,.06.02.13.03.19,0,.13-.03.25-.1.36Z"/>
  </g>
  <g>
    <path class="cls-3" d="M130.38,236.5c-.66-4.41,1.79-8.63,4.15-12.42,3.01-4.84,6.03-9.68,9.04-14.53,1.94-3.12,3.96-6.32,6.89-8.54,4.93-3.72,11.56-4.05,17.73-4,4.47.04,9.05.21,13.19,1.9,3.47,1.41,6.45,3.82,9.14,6.43,9.3,9.03,15.74,20.96,18.18,33.69"/>
    <g>
      <path class="cls-2" d="M132.49,217.82l.51-.06c-.16-.09-.34-.11-.51.06Z"/>
      <path class="cls-2" d="M203.29,212.63s.07.02.12.02c-.06-.03-.09-.03-.12-.02Z"/>
      <path class="cls-2" d="M150.53,214.52h0c.02.06.02.1.04.14l-.03-.14Z"/>
      <path class="cls-2" d="M141.04,227.68c2.66-3.35,4.85-3.31,6.53-7.45,1.24-1.7,2.06-3.83,2.95-5.7-.71-1.63,1.36-2.23.87-3.7l.9.15c-.16-.51-.17-.98.37-.97l.18.16c-.24-.74.36-.9.25-1.25l.18.17.23-.45.21.29c-.06-.95.4-1.48.98-1.56l-.68-.74c.81.05.94-.31,1.16-.71.21-.38.49-.75,1.28-.38l.09.23c.11-1.5.94-1.32,1.67-1.03.76.27,1.43.61,2.13-.78-.18.34.18.5.2.74.77-.42,1.72-.66,1.55-2.62.7-.04.62.56.76,1.31-.07-.86.51-1.26,1.07-1.35l-.24.35c.53-.12,1.06-.25,1.61-.36l-.37-1.62c.91.45.27,1.98,1.11,1.57l-.03-1.35c1.25.25,1.99,2.31,3.17,3.32,2.46.32,4.78-.27,6.92-.36,2.14-.1,4.05.37,4.98,2.35l-.4.95c-.77,1.27,2.02-1.31,1.39-.07l.76-.29c-.05.29-.01.68-.39.81.29.29.44.1.96-.06l-.22,1c.79,1.56,3.13,1.36,4.26,3.03.13,1.5,1.2,2.74,2.53,3.84,1.31,1.12,2.9,2.11,4.05,2.89,1.94.89,2.26,3.11,2.42,5.24.18,2.15.24,4.19,2.11,5.36-.15.19.41.29.56.22.39,1.05.7,2.14,1.02,3.21,0,0,.3.97.83,2.2.53,1.23,1.25,2.74,2.22,3.84.94,1.1,2.2,1.8,3.8,1.26,1.57-.55,3.62-2.32,5.62-6.73h.34c.15-2.34-.16-3.79-2.19-4.68,1.79-.91-.45-1.77-.03-2.48h.17c-1.93-.67.11-3.12-1.72-3.75.17-.02.67-.23.83.04-.64-.77-1.59-1.75-.6-2.33-1.28-1.93-2.47-5.02-4.82-5.26l.32-.09c-1.48-.04-.74-.8-1.78-1.22.1-.13.13-.22.19-.25-1.5-.06-1.65-2.03-2.51-2.31l.59-.5c-.39-.45-.82-.87-1.23-1.31l.28.63c-1.82,1.13.23-1.9-1.69-2.03-.59-1.14-4.89,1.05-4.92-.49-1.11.26,1.52-.73.38-.84.78-.78.78-.17,1.27-.94-.95-.28-.18-1.81-1.47-2.06l.57-.64c-2.07.14-1.19-2.71-2.94-2.25-1.61-.43.84-2.65-1.52-2.35l.17-1.33c-.51-.59-1.25.85-1.61-.07.46-.58-.56-1.07.23-1.38-.51-1.01-1.62-1.19-2.74-1.42-1.13-.23-2.27-.51-3.23-1.88-1.01,1.15-2.01-.04-2.69.91.09-.64-2.44-.66-.75-1.67.15-.08.36-.01.29.22l.37-.78c-1.16-1.91-2.83.32-4.1-.09.37.33.91.33.47.86l-1.22-.26.34-.68-1.81-.59.18.9c-.84-.52-1.08-2.04-2.11-.83-.46.68.75,1.22-.15,1.46-1.1-.65-2.71-1.58-4.08-1.85.13.99-.25.96-.63,1.16l-.05-.86c-1.5,1.21-.55-1.9-2.08-.91l.12-.6-.36,1.81c-1.32,1.76-.83-1.77-2.28.65.61-.19.4,1.88-.36,1.55l.13-.84c-.4.2-.52.57-.81.42.21-.47.03-1.22-.59-1.02l.33-1.07-1.06,1.65c-1.05-.78-2.39.57-3.01-.49,0,0-.56-.05-1.16.11-.6.17-1.22.49-1.3,1.2.23-.9-1.07-.83-1-1.83-.35,1.03-1.74,2.29-2.8,1.73l.09-.16c-1.48.08-2.48.99-3.33,1.88-.86.9-1.62,1.78-2.99,2.16.72.68-.61,1.15.5,1.87-.46,1.28-1.62,1.59-2.43,2.05-.8.45-1.2,1.01.14,2.51-.39.88-1.41.35-1.86.64l-.04-.3c-.74,1.63-.94,2.04-1.67,3.01.01.71,1.52,1.76.6,2.39-.45-.67-.55-.24-.75.08.03-.27-.16-.47-.84-.31.16.18.22.35.26.49-.05-.03-.1-.03-.16-.08-.12.68.13.7.38.5.09.07.22.13.44.15-1.15.06-.92,1.6-2.02,1-.76,1.78-.39,3.62-.81,5.23-.64-.19-.93-.81-.9-1.33l-.4,1.08c-.78-.5-.11-.83-.08-1.23-1.98.35-.19,3.14-2.19,3.75l.45.66-.15.02c.33.2.59.78.58,1.04-.8-.24-1.57-1-1.94-.31-.99.11-.59,1.69-.65,2.61.35-.3.65.06.79.37-.18.35-.98.11-.85.55l-.95-.54c.96.41.39,1.48.69,1.85-.81-.22-.26-.91-.73-1.31-.77,1.47-.39.72-1.16,2.25.26,1.2.98.36,1.6,1.21-.2.81.12,1.81-.86,2.37l1,.15c.06,1.66-.31,2.34-1.56,3.07,1.12,3.39,3.09,4.51,4.47,4.79,1.42.31,2.53.22,3.31-.32,1.65-.53,2.39-.73,2.41-.78,2.22-.47.02-2.66,1.89-7.09Z"/>
    </g>
  </g>
  <g>
    <path class="cls-3" d="M154.91,145.66c.52,8.2,7.33,15.62,15.48,16.68s16.7-4.46,18.95-12.37c.57-2.02.77-4.12.9-6.22.18-3.05.16-6.31-1.44-8.91-1.07-1.73-2.74-2.99-4.48-4.04-12.69-7.59-30.48-2.41-29.4,14.85Z"/>
    <g>
      <path class="cls-2" d="M165.51,155.04l-.06.45c.1-.15.15-.32.06-.45Z"/>
      <path class="cls-2" d="M168.22,133.1s-.02.06-.03.1c.03-.04.03-.07.03-.1Z"/>
      <path class="cls-2" d="M173.27,170.96h-.02s-.08.06-.11.1l.13-.1Z"/>
      <path class="cls-2" d="M154.52,161.91c1.65,2.1,2.71,3.57,3.95,4.98,1.3,1.31,2.84,2.62,5.89,3.26,2.73,1.11,6.09,1.17,8.89.82.65-.72,1.51-.84,2.44-.92.92-.08,1.86-.26,2.45-1l.76.65c.4-.55.87-.99,1.51-.71l.05.24c.52-.85,1.44-.82,1.68-1.25l.07.24c.28-.14.54-.31.8-.48v.38c.94-1.16,2.04-1.85,3.23-2.23l-.63-.79c1.32-.23,1.92-.92,2.39-1.62.5-.69.94-1.31,2.2-1.66l.15.19c.05-.96.28-1.59.67-2.04.39-.45.92-.74,1.44-1.09,1.05-.64,2.15-1.52,1.72-3.44.12.48.53.08.74.21.38-1.41.72-2.93-1.16-3.55.32-.89.84-.56,1.61-.47-.83-.24-.96-1.11-.87-1.8l.26.39c.06-.69.08-1.35.08-2l-1.67.11c.61-.88,2.01.05,1.75-.95l-1.34-.16c.42-1.26,2.52-1.86,3.59-3.04.28-1.65.13-3.61-.43-5.76-.53-2.09-1.67-4.65-3.1-6.56-.82-1.13-1.74-2.16-2.64-3.14-.84-.92-1.61-1.79-2.26-2.74l.34-.99c.67-1.35-2.48,1.05-1.97-.2l-.9.29c-.03-.32-.24-.75.2-.89-.51-.33-.64-.13-1.22.08l-.18-1.13c-.96-.81-2.15-.96-3.3-1.07-1.18-.04-2.36.04-3.52-.45-1.29-1.18-3.58-1.6-5.87-1.26-2.3.31-4.52,1.29-6,2.17-1.98,1.55-4.46,1.57-7.31,2.18-1.34.43-2.84.81-3.97,1.73-1.16.87-2.13,1.99-2.37,3.5-.28.02-.16.66-.01.75l-.74.96-.61,1.03c-.4.69-.79,1.4-1.16,2.11,0,0-.5,1.34-.89,3.17-.18.91-.16,1.91-.13,2.91,0,1,.23,1.94.59,2.73.69,1.6,1.78,2.53,3.45,2.17.84-.17,1.82-.64,2.99-1.35,1.17-.7,2.45-1.7,4.21-2.56l.31.11c.24-.29.43-.55.56-.79.15-.23.29-.42.32-.63.09-.42-.21-.92-.77-1.63,1.89.69.64-.78,1.33-.75l.13.1c-.53-.72.05-.83.5-.91.48-.09.89-.11.66-.78.1.13.48.51.4.63.14-.45.31-1.27,1.07-.41.68-.87,2.11-1.17,2.3-3.11l.06.32c.04-1.33.52-.39.87-1.17.07.14.13.21.14.27.27-1.27,1.56-.58,1.95-1.09l.12.76,1.12-.27-.44-.13c0-1.06.26-.75.58-.36.33.38.7.96,1.14.28.39.16.85-.96,1.4-1.91.54-.93,1.18-1.75,1.6-1.17.63-.91-.67,1.53.14.88-.18,1.09-.42.64-.41,1.53.73-.45.74,1.3,1.63.76l-.19.84c1.41-1.31,1.3,1.62,2.4.42,1.23-.3-.47,2.56,1.13,1.49l-.22,1.2c.25.34.95-1.11,1.08-.42-.39.62.18.8-.4,1.25.1.74.65.62,1.14.62.51.01.88.09.24.85.75-.52.83-.39,1.02-.37.1.02.25,0,.61-.15-.52.33.16.59-1.2.86-.11.03-.1-.01.12-.11l-.78.34c-.69.41-.5.3-.1.26.38-.09.98-.03.89.23.25-.18.14-.34.74-.34l-.04.5h-.72s-.34.79-.34.79l.87-.17c-.42.48-1.92.63-.67,1.17.69.28,1.19-.5,1.46.07-.6.68-1.58,1.91-1.92,2.87,1,0,.94.25,1.11.54l-.86-.05c1.08,1.1-1.92.16-1.09,1.12l-.58-.16,1.75.5c1.54,1.08-1.81.04.29,1.3-.07-.34,1.89.3,1.41.63l-.78-.32c.12.26.42.41.21.5-.39-.25-1.14-.41-1.09-.12l-.93-.49c.44.29.87.62,1.29.98-.99.02-.23,1.11-1.38.7,0,0-.23.11-.33.32-.1.21-.13.52.34.98-.55-.6-1.07-.39-1.74-1.06.65.69.71,1.72-.17,1.26l-.04-.11c-.7,0-.72.51-.86,1.01-.09.52-.33.98-1.02.76.58.82-.15.61.62,1.64-.14.85-.94.49-1.41.38-.49-.11-.73-.03-.25,1.92-.44.42-.9-.69-1.19-.8l.05-.23c-.78.59-1.07.63-1.73.65-.27.4-.17,2.28-.9,1.86.18-.73-.08-.59-.32-.59.16-.12.18-.39-.12-.87-.04.23-.11.37-.17.49,0-.06-.01-.1,0-.18-.39.27-.34.47-.16.59-.01.11,0,.25.06.45-.38-.96-1.2-.03-1.1-1.27-1.12.12-2.34,1.12-3.62,1.12.14-.64.61-1.07.97-1.2-.25-.02-.52,0-.77-.06.39-.83.59-.32.87-.42-.11-.82-.59-.68-1.19-.52-.58.14-1.25.2-1.3-.65l-.59.47.02-.14c-.22.32-.73.6-.95.6.36-.75,1.11-1.46.7-1.75.2-.84-1.1-.42-1.82-.55.12.31-.27.56-.57.66-.23-.19.25-.84-.14-.77l.8-.75c-.69.77-1.29.19-1.71.39.53-.62.82-.11,1.33-.46-.77-.73-.37-.38-1.09-1.16-1.01-.02-.8.67-1.75.96-.44-.36-1.47-.47-1.16-1.39l-.76.64c-1.21-.67-1.38-1.47-.72-2.49-2.55-1.35-4.3-2.68-5.76-3.29-1.44-.62-2.52-.44-3.36-.07-.81.52-1.32,1.51-1.6,2.39-.24.86-.27,1.6-.27,1.6-.41,2.98.58,5.11,2.09,6.79,1.53,1.71,3.47,3.13,5.81,5.07Z"/>
    </g>
  </g>
  <g>
    <path class="cls-3" d="M222.74,142.29c6.38,3.31,12.03,8.64,14.15,15.51,2.12,6.86-.06,15.27-6.16,19.06-3.97,2.47-8.88,2.73-13.55,2.93"/>
    <g>
      <path class="cls-2" d="M232.77,143.05l-.14.42c.12-.14.19-.29.14-.42Z"/>
      <path class="cls-2" d="M230.84,182.63s0,.06,0,.1c.02-.04.02-.07,0-.1Z"/>
      <path class="cls-2" d="M226.54,156.13h0s-.06.02-.1.04l.1-.04Z"/>
      <path class="cls-2" d="M223.51,151.58c.89,1.35-.13,2.94,1.36,3.38.33.58,1.1.81,1.66,1.18,1.36-.62.51.64,1.71.27l-.62.56c.42-.13.75-.15.42.19l-.21.12c.63-.17.41.2.72.12l-.22.11.2.14-.32.13c.73-.05.91.25.77.62l.9-.45c-.79,1.02,1.26.45.18,1.46l-.23.07c1.38-.1,1.04.35.64.7-.38.38-.8.67.49.78-.32-.03-.5.13-.74.17.35.24.53.55,2.49.32,0,.27-.59.28-1.34.4.86-.1,1.24.1,1.32.3l-.34-.07c.12.19.21.38.32.57l1.63-.19c-.46.37-1.99.16-1.58.45l1.35-.02c-.25.5-2.34.73-3.33,1.02-.36.72.27,1.58.5,2.51.28.91.17,1.89-1.21,1.94l-.93-.42c-1.31-.7,1.76,1.36.54.75l.5.48c-.25-.1-.54-.18-.79-.41-.12.08.08.21.4.54l-.85-.39c-.83-.04.29,1.39-.38,1.57-.89-.46-1.15-.25-1.31.22-.11.51-.26,1.34-.43,1.98-.1,1.27-1.19.67-2.06,0-.92-.67-1.69-1.37-2.23-.01-.08-.2-.13.29-.11.45l-1.45-.04s-1.8.01-3.01,1.45c-1.16,1.44-1.68,4.42,1.93,10.39l-.03.32c1.05.73,1.76.84,2.33-.85.32,1.97.89.12,1.22.72v.16c.44-1.6,1.57,1.07,2.02-.4,0,.16.08.7-.07.76.46-.34,1.02-.9,1.31.22,1.12-.52,3.09-.56,3.23-2.61l.06.32c0-1.33.5-.38.74-1.18.09.13.15.19.17.25-.04-1.31,1.26-.8,1.38-1.47l.39.66.81-.68-.42.06c-1-1.85,1.38.71,1.27-.89.38-.1.01-1.19-.39-2.18-.38-.99-.78-1.85-.2-1.66-.45-.92.9,1.36.71.5.77.79.31.65,1,1.22-.02-.7,1.36.23,1.26-.73l.65.56c-.63-1.61,1.87-.49,1.05-1.84-.12-1.07,2.43.98,1.53-.71l1.18.31c.38-.25-1.09-.97-.39-1.06.63.39.77-.2,1.26.36.74-.18.65-.84.58-1.47-.07-.64,0-1.21,1.11-1.49-1.24-.76-.24-1.08-1.19-1.61.62.16.45-1.18,1.55-.11.09.09.04.19-.19.12l.78.33c1.74-.31-.48-1.58-.08-2.2-.31.15-.32.44-.84.13.1-.2.16-.41.25-.62l.67.28.6-.93h-.89c.53-.4,2.06-.39.87-1.11-.66-.33-1.23.3-1.45-.23.68-.54,1.67-1.45,1.95-2.31-1,.05-.95-.17-1.15-.4l.86-.02c-1.19-.89,1.9-.34.92-1.26l.6.06-1.81-.18c-1.75-.69,1.79-.56-.63-1.27.18.33-1.88.32-1.54-.1l.84.02c-.2-.21-.55-.25-.4-.41.46.08,1.21-.07,1.03-.39l1.06.11c-.53-.17-1.06-.32-1.59-.46.8-.64-.45-1.23.66-1.66,0,0,.1-.3,0-.61-.09-.3-.36-.6-1.01-.55.83.02.96-.67,1.91-.75-.94-.08-1.89-.64-1.09-1.25l.12.03c.52-1.56-1.99-1.48-1.33-2.94-.89.46-.64-.27-1.73.4-1.56-.35,1.36-3.01-2.26-1.36-.41-.29.52-.95.56-1.27l.24-.02c-.76-.57-.92-.77-1.22-1.36-.51-.04-2.02,1-1.99.3.69-.29.45-.4.32-.57.17.04.41-.09.63-.61-.2.11-.35.14-.48.17.04-.04.07-.07.14-.12-.43-.11-.56.08-.54.26-.09.06-.2.16-.32.32.51-.87-.68-.73.26-1.56-.92-.63-2.37-.3-3.29-.53.39-.52.93-.79,1.29-.78l-.6-.26c.66-.65.63-.13.89-.12.53-1.61-2.11.01-1.79-1.55l-.62.43.04-.12c-.26.29-.74.56-.91.58.44-.69,1.23-1.4.87-1.64.24-.81-.98-.32-1.58-.23.1.25-.24.55-.49.72-.17-.1.23-.81-.11-.63l.65-.88c-.56.86-1.1.56-1.42.87.39-.72.66-.37,1.07-.82-.72-.42-.36-.21-1.09-.61-.83.42-.53.89-1.25,1.55-.43-.04-1.13.39-1.13-.38l-.42.88c-.97.27-1.22-.04-1.11-1.1-2.09,1.04-3.41,2.25-4.31,3.32-.9,1.08-1.4,2.07-1.63,2.9-.53,1.66-.27,2.62-.27,2.62.11,2.54,2.12.48,4.01.95Z"/>
    </g>
  </g>
  <g>
    <path class="cls-3" d="M223.36,196.91c10.33-1.25,20.79,4.43,26.69,13,5.9,8.57,7.59,19.57,6.15,29.87"/>
    <g>
      <path class="cls-2" d="M233.36,192.57l.09.43c.04-.18.03-.35-.09-.43Z"/>
      <path class="cls-2" d="M261.44,226.23s.05.02.09.03c-.04-.03-.06-.03-.09-.03Z"/>
      <path class="cls-2" d="M234.29,207.24h0s-.04.05-.07.08l.08-.08Z"/>
      <path class="cls-2" d="M229.08,204.42c1.47.75,1.28,2.67,2.93,2.4.62.39,1.5.28,2.28.41.99-1.18.87.45,1.85-.43l-.26.8c.34-.3.64-.43.53.03l-.13.2c.52-.42.54.04.8-.17l-.14.2.29.05-.23.26c.7-.37,1.06-.12,1.18.32l.56-.83c-.03,1.34,1.47-.09,1.2,1.4l-.16.18c1.21-.74,1.2-.12,1.14.47-.05.6-.13,1.15,1.08.62-.3.14-.33.4-.52.56.5.11.92.33,2.39-.99.22.26-.28.61-.81,1.15.64-.58,1.1-.59,1.31-.42l-.33.13.71.38,1.17-1.15c-.09.62-1.48,1.34-.92,1.38l1.06-.84c.14.64-1.3,2.13-1.83,3.1.35,1,1.52,1.54,2.5,2.29.96.74,1.7,1.71.99,3.1l-.91.46c-1.37.58,2.24-.29.99.29h.72c-.22.14-.44.37-.8.38.02.22.25.14.73.14l-.79.52c-.43,1.03,1.52,1.18,1.39,2.2-1.51,1.51.54,3.09,1.72,4.24,1.22.73.41,1.84-.41,2.83-.83,1.01-1.62,1.92-.37,2.8-.21.06.26.21.43.21-.06.55-.16,1.09-.25,1.63,0,0-.23,1.94.98,3.36.62.71,1.63,1.32,3.31,1.44,1.66.11,4.03-.24,7.27-1.86l.32.08c.89-1.07,1.11-1.83-.5-2.68,2-.05.25-.93.89-1.18l.16.03c-1.53-.71,1.28-1.45-.1-2.13.16.02.71.03.74.19-.26-.5-.74-1.16.42-1.24-.33-1.18.05-2.94-1.87-3.5l.33.02c-1.3-.29-.25-.54-.94-.94.15-.04.22-.09.28-.09-1.27-.3-.37-1.32-.96-1.61l.76-.15-.33-.89-.1.37c-2.11.27,1.2-.94-.3-1.34.11-.7-4.54-.27-3.7-1.07-1.04-.04,1.63-.14.78-.38,1.07-.29.73.03,1.55-.3-.62-.3.9-1.01.04-1.36l.82-.26c-1.71-.26.66-1.69-.91-1.71-.9-.49,2.26-1.33.38-1.54l.98-.71c.05-.4-1.42.27-1.03-.3.69-.24.37-.68,1.1-.72.7-1.3-2.19-1.05-.95-2.94-1.4.38-.91-.53-1.95-.21.54-.31-.45-1.11,1.05-1.14.12,0,.15.1-.07.21l.79-.32c1.1-1.39-1.4-.71-1.5-1.42-.14.32.06.51-.54.65l-.21-.6.68-.25c-.04-.35-.07-.7-.14-1.04l-.68.57c.14-.62,1.31-1.58-.04-1.35-.71.18-.76,1.01-1.25.76.19-.84.38-2.13.09-2.96-.75.65-.85.46-1.15.4l.67-.54c-1.47.04,1.31-1.43,0-1.53l.52-.32-1.55.96c-1.8.51,1.09-1.48-1.23-.62.33.16-1.34,1.36-1.31.82l.69-.47c-.28-.06-.58.12-.56-.1.42-.2.95-.76.61-.91l.93-.54-1.56.57c.31-.97-1.02-.74-.33-1.72,0,0-.39-1.15-1.44-.37.7-.44.47-1.06,1.23-1.64-.83.47-1.89.48-1.53-.45l.12-.04c-.34-1.55-2.44-.28-2.61-1.85-.55.84-.69.06-1.32,1.19-1.55.41-.27-3.29-2.69-.16-.51-.07,0-1.09-.12-1.4l.21-.12c-.97-.18-1.22-.26-1.78-.68-.49.18-1.35,1.77-1.68,1.14.49-.57.22-.56.01-.65.18-.04.34-.26.28-.83-.14.19-.25.28-.36.36.02-.05.03-.1.07-.17-.45.07-.48.31-.37.47-.05.1-.1.23-.14.44.04-1.02-.99-.39-.54-1.56-1.19-.16-2.38.74-3.39.94.1-.64.49-1.12.83-1.28l-.71.03c.29-.88.53-.39.79-.51-.34-1.66-2.01.92-2.54-.62l-.37.67-.02-.13c-.09.38-.42.84-.57.94.06-.82.43-1.81-.04-1.87-.2-.86-1.13.15-1.66.52.23.17.07.6-.08.87-.22,0-.23-.83-.46-.51l.14-1.08c-.07,1.03-.76,1.01-.9,1.44-.03-.82.44-.64.58-1.23-.94-.04-.47-.04-1.42-.02-.57.78,0,1.03-.33,1.97-.44.18-.87.91-1.3.22l.1.98c-.77.72-1.17.63-1.69-.36-1.36,1.99-1.83,3.76-1.98,5.13-.15,1.4-.01,2.5.28,3.32.49,1.68,1.17,2.35,1.17,2.35.69,1.01,1.1.89,1.65.35.54-.47,1.21-1.36,2.14-1.57Z"/>
    </g>
  </g>
</svg>