<?xml version="1.0" encoding="UTF-8"?>
<svg id="Livello_1" data-name="Livello 1" xmlns="http://www.w3.org/2000/svg" width="131.25mm" height="124.92mm" viewBox="0 0 372.05 354.12">
  <defs>
    <style>
      .cls-1 {
        fill: #e256a3;
      }

      .cls-2 {
        fill: #202020;
      }

      .cls-3 {
        fill: #e6076c;
      }
    </style>
  </defs>
  <g>
    <path class="cls-1" d="M30.22,212.47c-.01-.08-.02-.14-.03-.2-.44-.26-.68-.61-1.11-.84l1.15,1.05Z"/>
    <path class="cls-1" d="M346.44,208.61c-1.32-5.1-2.3-10.7-1.59-15.95,1.04-7.75,5.05-14.87,4.18-22.88-.8-7.26-3.72-14.1-7.64-20.23-4.07-6.49-9.35-12.42-14.72-17.36-5.36-4.97-10.88-8.92-15.51-11.98-.93-.4-1.86-.81-2.8-1.22-.85-.4-1.62-.78-2.33-1.21-1.43-.85-2.65-1.84-3.73-2.94-2.11-2.22-3.6-4.9-4.68-7.99-2.2-6.13-3-13.85-4.5-21.71-1.45-7.84-3.71-15.78-8.02-21.72-4.18-5.84-11.07-10.17-21.17-9.82.27-2.24-4.56-.05-5.38,1.34-7.88-5.87-17.63-11.72-29.57-15.98,0,0-.66-.24-1.95-.6-1.29-.36-3.1-.87-5.59-1.36-4.9-1.04-11.81-1.88-19.45-1.47-7.64.38-15.98,2.07-23.53,5.31-1.98.84-3.91,1.8-5.75,2.85-.19-.47-.39-.92-.59-1.37-2.23-3.63-5.05-6.53-8.09-8.78-3.04-2.26-6.3-3.91-9.25-4.9-2.96-1.03-5.66-1.58-7.61-1.88-1.95-.31-3.13-.3-3.13-.3-2.5-.4-4.9-.62-7.21-.67-2.31-.05-4.53.02-6.62.37-2.09.31-4.08.78-5.98,1.36-1.9.58-3.71,1.26-5.44,2.18-3.42,1.78-6.59,3.93-9.29,6.47-2.67,2.55-5.1,5.39-7.29,8.44-2.1,3.1-4.03,6.38-5.89,9.8-1.75,3.46-3.42,7.05-5.16,10.7-1.6,3.69-3.32,7.44-5.12,11.24-.87,1.92-1.78,3.84-2.77,5.77-.98,1.88-2,3.83-3.05,5.85-1.45,1.3-2.89,2.51-4.31,3.64-1.4,1.14-2.72,2.24-4.07,3.26-2.67,2.05-5.3,3.86-7.74,5.61-5.03,3.45-9.64,6.5-14.02,9.92-4.24,3.49-8.27,7.33-11.44,12.59-.81,1.31-1.57,2.69-2.3,4.16-.69,1.5-1.34,3.01-1.93,4.77-1.19,3.41-2.18,7.5-2.82,12.28-3.54,8.44-5.58,18.9-5.88,30.72-.45,16.62.82,31.39,11.46,44.39,8.62,10.51,10.36,21.54,15.07,33.82,4.79,12.51,14.88,22.12,24.67,31.27,1.52,1.42,3.18,2.92,5.24,3.24,2.06.31,4.52-1.19,4.34-3.27.72,8.6,12.98,12.04,18.68,16.37,3.57,2.71,5.36,6.69,8.75,7.85,3.17,1.09,6.75.3,9.87,1.74,8.64,3.99,12.86,12.34,23.04,14.81,1.8.44,3.65.74,5.37,1.42,1.33.54,2.57,1.31,3.93,1.75,4.42,1.42,9.1-.78,13.21-2.92,7.9-4.1,18.3-12.17,27.29-13.22,4.13-.48,3.94-4.43,6.44-6.52,5.89,4,8.41,11.97,12.02,17.83,1.7,2.77,3.8,5.47,6.72,6.91,7.65,3.77,19.38-1.24,26.68-3.95,9.09-3.37,17.75-7.89,25.72-13.42,19.29-13.39,27.35-37.12,50.27-46.71,3.01-1.26,6.41-2.46,7.98-5.32,1.39-2.53.93-5.61.88-8.49-.17-8.53,3.77-17.04,10.38-22.42,1.89-1.55,4.07-2.92,5.23-5.09,2.74-5.09-1.26-11.37-2.54-16.34Z"/>
    <path class="cls-1" d="M154.62,191.89c-.04.05-.08.1-.12.15-.07.07-.15.12-.24.15-.09.05-.18.07-.29.06-.1,0-.2-.02-.29-.06-.08-.03-.15-.08-.21-.14.03.02.06.05.09.07-.07-.05-.16-.08-.23-.13-.11-.07-.2-.16-.27-.27-.03-.06-.05-.12-.08-.18-.04-.13-.04-.26,0-.4.03-.06.05-.12.08-.18.05-.09.11-.16.19-.21.07-.07.16-.11.25-.13.1-.03.2-.04.3-.01.1,0,.19.03.28.09.04.03.09.05.13.07.02.01.05.02.07.04,0,0,.01,0,.02.01.06.04.11.08.16.13.01,0,.02.02.03.03.09.09.16.2.19.33,0,.07.02.13.03.2,0,.13-.03.26-.1.38Z"/>
  </g>
  <g>
    <path class="cls-3" d="M140.84,110.15c-19.97,8.56-36.35,34.61-37.91,55.21-1.73,22.91,6.25,45.7,19.92,65.2,12.92,18.44,37.34,28.13,59.4,27.04,39.55-1.95,74.55-31.66,81.65-69.01,2.9-15.28-.43-38.57-9.12-51.48-7.51-11.15-24.34-24.47-36.78-29.57-27.05-11.09-49.71-9.16-77.15,2.6Z"/>
    <g>
      <path class="cls-2" d="M107.25,167.5l-.41,1.21c.16-.01.32-.32.41-1.21Z"/>
      <path class="cls-2" d="M235.99,124.11c-.09-.04-.19-.1-.28-.13.18.11.24.13.28.13Z"/>
      <path class="cls-2" d="M107.2,219.02s-.02-.05-.03-.06c-.08-.09-.17-.19-.24-.28l.28.34Z"/>
      <path class="cls-2" d="M99.6,149.87c-3.23,8.84-4.05,15.48-4.5,21.33-.36,6.03-.25,12.31,2.12,21.74.96,4.53,2.41,9.08,4.11,13.48,1.73,4.39,3.78,8.59,5.85,12.53,3,3.17,5.64,10.19,9.37,13.66l.47,2c1.42,1.23,2.83,2.82,3.75,4.43l-.24.05c1.12.83,2.1,1.88,2.98,2.79.92.87,1.7,1.64,2.27,2l-.23.08c.79.75,1.63,1.45,2.49,2.11l-.63-.13c3.88,2.71,7.86,5.26,11.33,7.64l.14-.93c3.62,2.61,6.48,3.74,9.23,4.67,2.76.94,5.4,1.76,9.08,3.39l-.16.18c5.15.28,8.9,1.29,12.86,2.2,3.92.87,8.13,1.49,13.27.13-1.26.39.57.4.48.63,2.36-.34,4.8-.67,6.62-1.12,1.8-.58,2.97-1.28,2.86-2.14,3.33-.58,2.82.04,3.39.61-.09-.38.59-.74,1.59-1.15.99-.45,2.32-.9,3.59-1.27l-1.1.6c2.42-.75,4.86-1.42,7.18-2.44l-1.85-.86c3.86-.95,1.52,1.31,5.01-.32l-.47-1.09c5.13-1.85,8.86-1.54,14.05-3.51,10.02-5.4,18.93-13.51,25.85-22.7,7.01-9.17,12.22-19.19,16.46-28.96l1.15-.62c.68,0,.75-1.55.58-3.18-.12-1.62-.25-3.24.43-3.51v-2.53c.35-.65.82-2.11.91-.8.43-2.34.24-2.44,0-4.14.34-.79.73-1.61,1.03-2.41.63-4.56.32-8.78-.29-12.94-.62-4.18-1.5-8.32-2.34-12.95-.43-5.69-2.57-13.84-7.55-21.38-2.5-3.77-5.46-6.87-8.32-9.54-2.87-2.66-5.68-4.91-8.11-6.69-3.53-2.38-7-5.01-10.62-7.68-3.63-2.66-7.36-5.4-11.61-7.76-2.19-1.23-4.23-2.13-6.35-3.14-2.12-.94-4.3-1.78-6.49-2.53-2.22-.67-4.42-1.36-6.7-1.72-1.13-.2-2.25-.4-3.37-.53-1.13-.1-2.26-.16-3.37-.2-.54-.28-2.08-.08-2.09.09-5.35-.74-10.8-.89-16.2-.63,0,0-1.23.09-3.25.24-2.01.28-4.83.58-7.95,1.28-6.27,1.26-13.7,3.76-19,6.39-2.67,1.28-4.8,2.6-6.1,3.67-1.31,1.07-1.76,1.92-1.02,2.4.74.49,2.68.63,6.12.32,3.48-.18,8.47-.93,15.31-1.32l-.27.37c1.96-.31,3.73-.6,5.38-.86,1.64-.2,3.14-.46,4.56-.72,1.42-.21,2.76-.48,4.08-.83,1.32-.27,2.61-.63,3.95-1.08.47.82,2.07.88,3.79.73,1.72-.16,3.58-.24,4.48.05l-.18.14c1.21-.32,2.42-.25,3.63-.12,1.21.13,2.41.41,3.59.77,2.37.62,4.63,1.46,7.02,1.37-.21.1-.42.54-1.45.35,3.3.47,7.84,1.48,7.76,2.55.96.29,1.96.6,3,.91,1.02.38,2.07.77,3.14,1.17l1.6.6,1.47.63c.98.4,1.96.92,2.93,1.36,3.88,1.92,7.44,3.95,10.04,4.79l-.46.03c3.06.83,3.22,2.11,6.17,3.74.06.22.2.42.13.44,3.27,1.18,7.26,6.11,9.33,7.69l-.37.59c1.5,1.5,2.95,3.04,4.25,4.64-.46-.63-.87-1.28-1.37-1.9.99-.3,1.52.84,2.25,2.35.31.78.72,1.63,1.17,2.5.42.89,1.05,1.69,1.8,2.56.43.95,1.12,1.76,1.84,2.63.76.84,1.62,1.67,2.41,2.57.83.88,1.6,1.83,2.18,2.86.62,1.02,1.02,2.12,1.1,3.31,1.43,1.92-1.88-1.51-.36,1.5-.91.34-.99-1.32-1.52-.31,1.24,3,.27,5.28,1.49,9.04l-.72.27c1.07,2.42,1.05,4.88.93,7.07-.03,1.1-.15,2.14-.13,3.11.03.97.13,1.88.44,2.72.31,2.63-.39,3.46-.87,4.32-.52.85-.91,1.7-.55,4.38-.46.62-.85,1.21-1.35,1.81-.69,2.16.84,1.85-.23,4.21-.59-.31-1.23,2.97-1.48,1.37-.63,1.29-1.18,2.6-1.57,4.01-.2.7-.39,1.42-.57,2.15-.18.73-.47,1.44-.71,2.18-.52,1.47-1.03,3.02-1.79,4.54-.85,1.48-1.86,2.96-3.12,4.39.3,2.08-2.54,4.8-2.42,6.38-.46-.07-4.81,5.98-3.05,1.92.15-.35.57-.84.71-.68l-.28-.84c-1.9,1.23-2.87,2.88-3.88,4.57-1.06,1.63-2.03,3.39-3.55,4.87,1.03-.75,2.13-2.03,1.73-.85l-1.39,1.42-1.51,1.31.18-1.01c-1.55,1.22-3.03,2.5-4.6,3.67.38.03.76.07,1.12.07-2.52,1.52-4.11,1.06-6.01,3.93-.85,1.36,2.83-.78.48,1.22-1.8.84-3.96,1.97-6.29,3.04-1.19.49-2.4,1-3.58,1.52-.59.27-1.17.53-1.75.8-.58.26-1.18.45-1.74.69.8.6-.42,1.11-1.6,1.84l-.45-.62c-2.15,1.58-2.77,1.37-3.38,1.1-.61-.25-1.2-.54-3.46.72l.25-.65-.76,1.95c-.49.38-.9.65-1.26.85-.37.16-.67.26-.94.31-.53.1-.9.01-1.28-.06-.77-.13-1.53-.19-3.8,1.49.98-.33,1.31,0,1.08.48-.23.45-1.02,1.12-2.34,1.15l.49-.83c-1.36.4-1.77.78-2.72.8.76-.54.24-1.12-1.76-.63l1.2-1.15c-1.19.65-2.38,1.39-3.62,1.98-1.55-.25-3.47-.02-5.19.16-.86.11-1.65.14-2.31.08-.66-.05-1.18-.17-1.48-.43,0,0-.39-.02-1.01-.04-.61-.04-1.45-.11-2.33-.14-1.76,0-3.7-.12-4.5.39,1.34-.56-2.1-1.19-1-1.9-.85.25-2.5.39-4.16.24-1.65-.22-3.33-.56-4.14-1.27h.38c-1.66-.69-3.25-1.11-4.75-1.6-.75-.23-1.5-.42-2.24-.61-.72-.22-1.44-.44-2.15-.66-2.85-.83-5.55-1.94-8.07-3.95-.22.95-2.81-1.3-2.71.1-3.18-1.31-5.25-3.71-6.95-5.53-.88-.88-1.56-1.76-2.4-2.26-.41-.26-.83-.45-1.29-.56-.43-.13-.9-.16-1.42-.1-2.22-2.16-1.75-3.27-2.54-4.61l.58.46c-.45-.54-.87-1.03-1.25-1.48-.38-.46-.72-.96-1.04-1.38-.63-.87-1.16-1.62-1.67-2.32-.93-1.46-1.8-2.75-2.86-4.69-1.39-1.74-3.01-1.26-4.53-5,1.19.85.27-.52-.35-1.88.5.82.84.97.38-.97-.3-.16-.59-.49-.86-.81.04-.04.04-.12.12-.12-1.27-2.14-1.24-1.69-.86-.59-.11-.01-.19.13-.19.53-.19-1.34-.88-3-1.48-4.39-.55-1.41-.93-2.59-.47-2.92-2.86-6.84-5.27-11.73-6.74-17.85.46-.78,1.13.58,1.72,2.29-.38-1.42-.65-2.85-.93-4.29.84-.08.78,2.42,1.25,3.7.17-2.67-.54-5.22-1.13-7.96-.61-2.73-1.07-5.65-.44-8.68-.22-.42-.42-.85-.61-1.28l.12-.36c-.34,0-.73-1.39-.8-2.31.76-.81,1.57.12,1.87-2.72.85-2.13.82-6.43,1.36-9.53-.6,1.55-.8.94-.86.17.47-1.44,1.42-2.03,1.51-3.23l.94.2c-1.12.23.57-3.98.42-4.67.97-.51-.33,2.41.02,2.95,1.07-2.8,1.42-3.47,1.74-4.15.16-.34.32-.68.59-1.28.26-.61.68-1.45,1.4-2.77.94-3.18-1.08.08-1.06-1.69.59-1.34,1.21-2.64,1.9-3.98.66-1.35,1.59-2.61,2.78-3.81l-1.3.37c1.29-2.48,2.66-4.25,3.93-5.78,1.4-1.42,2.68-2.66,4.35-3.61,2.98-4.27,5.81-7.27,8.02-9.64,1.15-1.16,2.14-2.15,2.97-2.98.87-.8,1.57-1.49,2.12-2.09,2.17-2.36,1.55-3.06-.13-3.18-1.83.06-5.08.95-7.6,2.2-1.32.56-2.44,1.2-3.24,1.7-.81.49-1.31.8-1.31.8-1.05.58-1.98,1.23-2.87,1.88-.89.65-1.77,1.28-2.59,1.94-1.55,1.38-3.09,2.67-4.37,4.09-1.28,1.42-2.56,2.78-3.62,4.28-1.1,1.47-2.17,2.93-3.1,4.52-.48.78-.96,1.57-1.45,2.37-.44.82-.89,1.66-1.34,2.5-.93,1.68-1.75,3.49-2.62,5.39-1.69,3.82-3.42,8.07-4.93,13.25Z"/>
    </g>
  </g>
  <g>
    <path class="cls-2" d="M187.2,152.56l-.35.23c.16,0,.3-.06.35-.23Z"/>
    <path class="cls-2" d="M203.75,192.68s.06-.01.09-.03c-.05,0-.07.01-.09.03Z"/>
    <path class="cls-2" d="M175.24,160.95h0s-.05-.05-.09-.07l.09.07Z"/>
    <path class="cls-2" d="M176.22,150.11c-.36,2.87-2.01,3.62-1.35,6.55-.15,1.4.21,2.9.36,4.27,1.27.69-.03,1.8,1,2.62l-.74.27c.36.28.59.61.19.85l-.21-.03c.54.42.18.86.44,1.07l-.21-.03.07.49-.3-.1c.54.72.55,1.44.24,2.06h.88c-1.08,1.28.72,1.91-.55,3.04l-.21-.03c2.19,1.74-1.78,2.29.27,4.07-.26-.22-.46.04-.67,0,.19.75.22,1.54,1.95,1.74-.08.53-.59.38-1.26.37.75.08,1.02.58,1.02,1l-.27-.23c.03.14.03.56.03.86v.94c.51-.13,1-.24,1.5-.35-.53.89-1.79.26-1.56,1.18l1.21-.11c-.39,1.22-2.34,2.36-3.48,4.2-.25,1.2-.4,2.39-.44,3.51,2.64.95,5.43,1.63,7.75,2.42.6.2,1.14.39,1.7.66.46.2.67.32.99.52.58.37,1.08.88,1.45,1.57l-.3.85c-.57,1.17,1.69-1.27,1.22-.16l.61-.34c-.02.25.05.58-.26.74.27.21.38.03.79-.19l-.08.89c.85,1.2,2.63.46,3.68,1.48.57,2.29,4.02,2.79,6.07,3.2,1.63,0,2.31,1.51,2.94,3,.64,1.49,1.24,2.95,2.97,2.98-.06.2.39.03.48-.08.58.58,1.15,1.16,1.7,1.77,0,0,2.09,2.08,4.24,2.55,1.09.23,2.23.04,3.18-1.09.93-1.13,1.71-3.23,1.81-6.89l.24-.16c-.58-1.53-1.18-2.29-2.9-1.92,1.06-1.4-.77-.96-.66-1.6l.12-.09c-1.57.43-.67-2.08-2.13-1.72.12-.08.44-.44.61-.33-.64-.24-1.55-.5-.94-1.31-1.35-.77-2.75-2.47-4.51-1.74l.22-.19c-1.1.55-.67-.3-1.5-.22.05-.13.06-.21.1-.25-1.12.52-1.52-.88-2.18-.79l.36-.57-1.07-.55.29.37c-1.18,1.45-.09-1.47-1.49-.96-.55-.66-3.48,2.33-3.67,1.13-.8.52,1.05-1.01.2-.76.5-.83.56-.36.84-1.1-.74.07-.28-1.36-1.25-1.18l.37-.66c-1.52.69-1.02-1.79-2.24-.97-1.16.06.54-2.27-1.08-1.5l.15-1.09c-.31-.36-.88.94-1.07.28.34-.55-.3-.74.25-1.14-.51-1.43-2.65.2-3.18-1.97-.69,1.05-.47.33-1.08,1.08.29-.46-.36-.27.61-1.11.08-.07.09-.05-.05.13l.48-.59c.38-.59.27-.43-.03-.2-.29.24-.75.56-.75.44-.17.19-.03.18-.5.52l-.11-.16.59-.41c.04-.11.09-.22.16-.32l-.74.51c.18-.22.9-.68.92-.71.01-.02-.1.03-.45.18-.65.25-1.14.72-1.38.68.6-.55,1.47-1.08,1.72-1.25-.9.21-.86.15-1.04.11l.78-.13c-1.05-.07,1.7-.24.86-.25h.53c-.53,0-1.06,0-1.59-.02-.74-.11-.34-.16-.02-.14.32.1.59-.05-.38-.65.09.4-1.68,0-1.3-.44l.71.2c-.12-.28-.42-.4-.25-.56.37.2,1.05.2.96-.2l.88.36-1.26-.87c.84-.48-.06-1.47.99-1.61,0,0,.62-1.17-.48-1.55.68.31,1-.34,1.8-.08-.76-.39-1.33-1.37-.46-1.68l.09.08c.98-1.32-1-2.45.13-3.62-.88,0-.36-.62-1.49-.53-1.04-1.33,2.4-2.21-1.03-2.85-.16-.59.84-.65,1.03-.94l.18.15c-.24-1.1-.25-1.42-.15-2.22-.33-.42-1.93-.53-1.52-1.23.63.25.52-.05.53-.32.1.17.33.23.77-.11-.2-.06-.32-.14-.42-.21.05,0,.09-.01.16,0-.21-.46-.41-.38-.51-.18-.1-.01-.22,0-.4.06.84-.45-.03-1.3,1.07-1.33-.23-1.36-1.35-2.34-1.78-3.46.57-.12,1.07.14,1.28.47l-.2-.8c.81,0,.47.46.63.71,1.32-.95-1.3-1.96-.11-3.08l-.65-.22.11-.07c-.34,0-.81-.24-.92-.4.71-.17,1.63,0,1.58-.56.68-.45-.37-1.24-.76-1.8-.11.31-.51.22-.76.09-.03-.27.67-.45.36-.65l.96-.05c-.9.13-.99-.69-1.38-.78.7-.18.62.41,1.16.46-.13-1.1-.06-.55-.19-1.65-.74-.56-.9.14-1.75-.11-.21-.51-.89-.98-.34-1.6l-.84.22c-.7-.93-.64-1.51.19-2.21-3.66-3.39-6.05-3.54-7.51-2.94-1.46.61-2.01,2-2.01,2-1.72,2.8.82,4.05,1.57,7.29Z"/>
  </g>
</svg>