<?xml version="1.0" encoding="UTF-8"?>
<svg id="Livello_1" data-name="Livello 1" xmlns="http://www.w3.org/2000/svg" width="131.25mm" height="124.92mm" viewBox="0 0 372.05 354.12">
  <defs>
    <style>
      .cls-1 {
        fill: #4bb9e0;
      }

      .cls-2 {
        fill: #202020;
      }

      .cls-3 {
        fill: #0095e5;
      }
    </style>
  </defs>
  <g>
    <path class="cls-1" d="M31.54,209.49c-.01-.08-.02-.14-.03-.2-.43-.25-.67-.6-1.09-.82l1.12,1.02Z"/>
    <path class="cls-1" d="M340.8,205.72c-1.29-4.99-2.25-10.47-1.55-15.6,1.02-7.58,4.94-14.55,4.09-22.37-.78-7.11-3.64-13.79-7.47-19.78-3.98-6.35-9.15-12.15-14.39-16.98-5.25-4.86-10.64-8.72-15.17-11.72-.91-.39-1.82-.8-2.74-1.2-.83-.39-1.58-.77-2.28-1.18-1.4-.83-2.59-1.8-3.65-2.87-2.06-2.17-3.52-4.79-4.57-7.81-2.15-6-2.93-13.55-4.4-21.24-1.42-7.67-3.63-15.44-7.84-21.24-4.09-5.71-10.83-9.95-20.7-9.6.26-2.19-4.46-.05-5.26,1.31-7.71-5.74-17.25-11.46-28.92-15.63,0,0-.65-.23-1.91-.58-1.26-.35-3.03-.85-5.47-1.33-4.79-1.02-11.55-1.84-19.03-1.44-7.47.37-15.63,2.02-23.01,5.19-1.94.82-3.82,1.76-5.62,2.79-.19-.46-.38-.9-.58-1.34-2.18-3.55-4.94-6.38-7.92-8.59-2.97-2.21-6.16-3.82-9.05-4.79-2.9-1.01-5.54-1.55-7.44-1.84-1.91-.31-3.06-.29-3.06-.29-2.44-.39-4.79-.61-7.05-.66-2.26-.05-4.44.02-6.47.36-2.04.31-3.99.76-5.85,1.33-1.86.57-3.63,1.23-5.32,2.13-3.34,1.74-6.44,3.84-9.09,6.32-2.61,2.49-4.99,5.27-7.13,8.26-2.05,3.03-3.94,6.24-5.76,9.59-1.71,3.38-3.34,6.89-5.05,10.46-1.56,3.61-3.25,7.27-5,10.99-.85,1.87-1.74,3.76-2.71,5.65-.96,1.84-1.96,3.75-2.98,5.72-1.42,1.27-2.83,2.45-4.22,3.56-1.37,1.12-2.66,2.19-3.98,3.19-2.61,2.01-5.18,3.78-7.57,5.49-4.92,3.37-9.43,6.35-13.71,9.7-4.15,3.41-8.09,7.17-11.19,12.31-.79,1.28-1.54,2.63-2.25,4.07-.68,1.47-1.31,2.95-1.89,4.66-1.16,3.33-2.13,7.33-2.76,12.01-3.47,8.25-5.46,18.49-5.75,30.04-.44,16.25.8,30.7,11.21,43.41,8.43,10.28,10.13,21.07,14.74,33.08,4.68,12.23,14.55,21.64,24.12,30.59,1.49,1.39,3.11,2.86,5.13,3.17,2.01.31,4.42-1.17,4.25-3.2.71,8.41,12.69,11.77,18.27,16.01,3.49,2.65,5.25,6.54,8.56,7.67,3.1,1.07,6.6.29,9.65,1.7,8.45,3.9,12.58,12.07,22.53,14.48,1.76.43,3.57.72,5.25,1.39,1.3.53,2.51,1.28,3.84,1.71,4.32,1.39,8.9-.77,12.92-2.86,7.73-4.01,17.9-11.91,26.69-12.93,4.04-.47,3.85-4.33,6.3-6.38,5.76,3.91,8.23,11.71,11.76,17.44,1.66,2.71,3.72,5.35,6.57,6.75,7.48,3.68,18.95-1.21,26.09-3.87,8.89-3.3,17.36-7.72,25.15-13.12,18.86-13.09,26.75-36.31,49.17-45.69,2.95-1.23,6.27-2.41,7.81-5.2,1.36-2.47.91-5.49.86-8.3-.17-8.34,3.69-16.66,10.15-21.93,1.85-1.52,3.98-2.86,5.11-4.98,2.68-4.98-1.23-11.12-2.48-15.98Z"/>
    <path class="cls-1" d="M153.2,189.36s-.08.1-.11.15c-.07.07-.14.12-.23.15-.09.05-.18.07-.28.06-.1,0-.19-.02-.28-.06-.08-.03-.15-.07-.21-.13.03.02.06.05.09.07-.07-.05-.15-.08-.22-.13-.11-.06-.2-.15-.26-.26-.02-.06-.05-.12-.07-.17-.03-.13-.03-.26,0-.39.02-.06.05-.12.07-.17.05-.08.11-.15.19-.2.07-.06.15-.11.25-.13.1-.03.19-.03.29-.01.1,0,.19.03.27.09.04.03.09.05.13.07.02.01.05.02.07.04,0,0,.01,0,.02.01.05.04.11.08.16.12.01,0,.02.02.03.03.09.09.15.2.19.32,0,.06.02.13.03.19,0,.13-.03.25-.1.37Z"/>
  </g>
  <g>
    <path class="cls-3" d="M157.22,151.67c31.71-2.05,63.54-2.24,95.28-.59-.68,30.51-.56,61.04.36,91.55-32.22.23-64.43.46-96.65.7-9.3.07-18.61.13-27.89-.39-1.78-.1-3.7-.28-5.05-1.45-1.75-1.51-1.93-4.11-1.98-6.42-.47-21.53-.94-43.06-1.41-64.59-.18-8.08-3.92-19.12,6.43-18.95,10.41.18,20.43.82,30.91.14Z"/>
    <g>
      <path class="cls-2" d="M220.37,145.72l1.14.36c-.02-.16-.3-.3-1.14-.36Z"/>
      <path class="cls-2" d="M116.26,207.98c-.03-.09-.05-.19-.08-.27.03.19.06.25.08.27Z"/>
      <path class="cls-2" d="M244.96,162.95s0-.04,0-.06c-.03-.1-.05-.21-.08-.3l.08.36Z"/>
      <path class="cls-2" d="M206.54,156.35c15.11.42,19.06,2.1,34.69,1.97.93.05,1.87.09,2.81.14h.27s.06,0,.06,0c.07,0,.23-.08.33-.06.05.06.11.15.16.29l.04.11.02,1.29c.01.94.02,1.88.03,2.8,1.2,3.52-.12,9.7.91,13.85l-.72,1.6c.35,1.43.59,3.11.19,4.54l-.21-.09c.53,2.14.2,4.54.47,5.6l-.21-.09.09,2.59-.3-.45c.57,3.72.62,7.55.39,10.94l.86-.29c-.91,7.23.9,9.85-.14,16.39l-.21-.09c1.2,4.1.87,7.36.55,10.66-.16,1.65-.34,3.3-.31,5.08,0,.44.02.89.06,1.35.03.18.06.23.12.37.11.25.3.55.58,1.02-.28-.44-.45-.09-.66-.25.07.28.14.57.21.84,0,.07.07.18.04.21l-.11.07c-.07.05-.14.11-.2.18-.22.28-.39.73-.04,1.58-1.41-.01-1.22-.52-1.45-1.17.03.19,0,.34-.1.48-.05.07-.11.13-.19.18-.1.06-.36.11-.57.15-.89.18-2.06.28-3.17.31l1.02-.29-6.35.3,1.26,1.39c-3.37-.38-.87-1.7-4.09-1.34l.05,1.16c-4.66-.19-7.41-1.93-11.93-2.75-18.76-.36-38.89,2.74-56.36.83l-.78-.87c-.34-1.27-4.8,1.92-5.47.75l-2.03.6c-.57-.22-1.78-.46-.77-.75-1.88-.04-1.92.17-3.26.57l-2.01-.78c-3.68-.29-7.06-.07-10.49.14-1.71.11-3.43.21-5.2.24-.88.02-1.78.01-2.69-.01-.46-.02-.92-.04-1.38-.06l-.7-.05-.35-.03c-.12-.01-.1-.02-.16-.02-.68-.41-1.38-.73-1.54-1.55-.04-.18-.06-.37-.08-.56l-.02-.28-.03-.72c-.06-1.67-.15-3.37-.25-5.08-.43-6.84-1.17-13.77-1.71-18.83-1.11-7.11-.48-14.85.1-22.62.29-3.89.58-7.79.63-11.62.03-1.92,0-3.82-.12-5.7-.13-2.22-.51-4.23-.96-5.99.13-.5-.39-1.63-.53-1.6-.04-.53-.08-1.04-.1-1.52l-.04-.73v-.6s0-.55,0-.55l.02-.27c0-.18.05-.36.08-.53.13-.69.63-1.35,1.35-1.48,0,0,.31-.1.83-.11,1.43.01,3.43.03,5.7.04,5.28.03,11.96-.02,17.11-.71,5.16-.66,8.66-1.89,7.7-3.25-.97-1.41-6.24-2.86-18.33-5.83l.33-.27c-3.62-.43-6.6-.73-9.32-.75-.34,0-.68,0-1.01,0-.37.01-.74.02-1.11.03-.43.03-.86.05-1.28.07-.43.04-.8.05-1.33.17-1.96.33-3.81.91-5.22,2.15-1-.55-3.14.85-4.24,3.16-1.16,2.28-1.31,5.06-1.6,6.39l-.12-.28c.06.44.07.96.13,1.31.06.35.1.71.14,1.06.06.74.14,1.31.16,1.95.06,1.24.05,2.43.02,3.59-.03,1.15-.08,2.23-.04,3.23,0,.49.03.94.11,1.42.06.55.16,1.09.32,1.63-.14-.16-.61-.25-.66-1.24.28,3.13.76,7.41-.23,7.67.42,7.48.19,17.94,1.89,22.71l-.28-.32c1.13,2.71.24,3.54.85,6.58-.13.17-.19.39-.24.35,1.12,2.96.36,8.69.86,11.09l-.66.17.28,5.93.09-2.22c1.83.73-1.04,4.51.23,8.79-.04,1.01.19,2.02.55,3.03l.14.39.15.54c.11.36.23.7.36,1.04.26.67.56,1.3.89,1.87.67,1.15,1.45,2.12,2.33,2.93.88.83,1.9,1.42,2.91,2.01,1.27-.04.65.12.12.35-.53.17-.98.55.95.7-.23.96-1.98.06-1.34,1.04,1.01.18,1.91.33,2.79.49.83.14,1.91.3,2.44.44,1.29.29,2.68.54,4.52.28l.12.74c4.81-1.19,8.99,1.15,12.16-.13,4.88-.61,3.29,2.19,8.35.72l1.97.98c2.17.15,1.54-1.24,3.94-.77-.14.63,3.04.48,1.64,1.09,5.44.94,11.01-1.48,18.18.14,1.54-1.23,5.15-.53,6.3-1.46.2.53,7.22.03,3.18,1.22-.35.1-.96.08-.92-.12l-.48.73c4.09,1.34,7.41-.81,11.45-.62-1.2-.23-2.79-.16-1.73-.66l3.75.07-.78.62,5.59.32-.77-.75c2.74.37,3.71,1.65,6.78.55,1.39-.61-2.6-1,.29-1.26,3.66.49,9.14,1.23,13.81,1.42-.44-.85.81-.83,2.1-1.01l.15.74c4.94-1.06,1.83,1.61,6.73.76l-.43.52,1.29-1.55c4.42-1.5,2.4,1.52,7.31-.52-.97.07-1.21-.34-.89-.72.16-.19.45-.38.85-.5.2-.06.43-.1.68-.12.26-.02.79-.01,1.23.02-.3.24-.61.48-.94.72,2.2-.17,2.82-.47,4.29-.33-1.17.39-.4,1.04,2.97.89-.6.3-1.24.6-1.93.91,2.1-.45,4-.9,5.7-1.35.68.09,1.39.15,2.12.2l.55.03h.28c.02-.06,0-.15.01-.23,0-.34,0-.69,0-1.04,0-1.42-.07-2.93-.11-4.33-.1-2.82-.15-5.2.32-6.18-.04-1.47.31-7.03-.81-8.51.71,1.21.9-2.16,1.72-1.22-.81-1.56-1.53-6.22-.74-8.1l.1.35c.73-6.92-1.32-11.81-.34-18.02-.86.29-.41-2.99-1.5-2.18-1.12-6.42,2.21-11.71-1.18-14.03-.17-2.92.81-3.46.99-4.97l.18.7c-.24-5.48-.26-7.07-.14-11.13-.31-2.03-1.87-2.37-1.44-6.01.61,1.19.51-.3.54-1.66.08.87.31,1.14.76-.64-.19-.26-.3-.65-.39-1.01.05-.01.09-.08.16-.05-.06-.61-.11-1.05-.14-1.34-.04-.41-.09-.61-.13-.65s-.08.08-.12.31c-.04.21-.07.63-.1.84-.1-.05-.22.03-.4.36.21-.43.33-1.67.4-2.74.07-1.11.09-2.25.12-3.3.06-2.1.15-3.82.7-4.46,0-.66-.01-1.31-.02-1.94v-.47c-.13-.04-.33-.02-.49-.03-.33,0-.66,0-.98,0-1.29,0-2.54,0-3.76.01-2.42.03-4.65.09-6.72.19-.59.02-.86.06-1.22.09l-1.04.09-2.07.18c-1.38.12-2.76.22-4.19.27-.62-.57.73-1.02,2.4-1.18l-4.07.06c.06-.79,2.35-.38,3.61-.49-4.8-1.47-10.01.98-15.65-.3l-1.19.61-.34-.11c.01.33-1.27.77-2.11.87-.79-.7.07-1.6-2.74-1.59-2.22-.68-6.32.3-9.22.69,1.57.11,1.06.5.39.74-1.4.03-2.21-.67-3.3-.36l-.14-.93c.56.88-3.66.99-4.17,1.37-.81-.68,2.17-.62,2.52-1.14-5.63.16-2.82.08-8.44.25-2.99.76.56.87-.86,1.72-2.64.24-5.21.95-8.26.48l.99.8c-4.95.79-7.91.82-11.29.11-9.17,2.09-14.16,3.86-16.54,5.18-2.37,1.33-2.14,2.27-.76,2.91,1.37.65,3.87,1.02,6.02,1.23,2.15.22,3.96.28,3.96.28,14.47,1.14,21.78-1.55,38.97-2.33Z"/>
    </g>
  </g>
  <g>
    <path class="cls-2" d="M148.28,121.87l.45-.29c-.15-.04-.32.02-.45.29Z"/>
    <path class="cls-2" d="M230,112.64s.07.04.11.05c-.06-.05-.09-.06-.11-.05Z"/>
    <path class="cls-2" d="M164.69,113.4h0c.02.06.01.09.03.13l-.02-.13Z"/>
    <path class="cls-2" d="M157.36,129.2c.79-2.31,1.7-3.61,2.52-4.91.39-.67.79-1.31,1.14-2.08.34-.79.67-1.67.98-2.79.99-1.97,1.7-4.17,2.68-5.99-.53-1.56,1.52-2.21,1.42-3.77l.84.13c-.01-.52.13-1.04.67-1.07l.13.16c-.02-.83.73-1.03.74-1.43l.13.17.45-.56.11.3c.32-1.15,1.17-1.82,2.06-2.18l-.57-.65c2.19-.38,1.91-2.3,4.14-2.21l.07.2c.53-1.56,1.62-1.63,2.65-1.64,1.06,0,2.06.05,2.93-1.37-.22.35.27.38.31.59,1.02-.6,2.2-1.04,1.79-2.68.87-.2.83.34,1.1.94-.18-.72.49-1.21,1.17-1.39l-.25.35c.63-.23,1.26-.43,1.9-.63l-.64-1.3c1.13.2.56,1.63,1.51,1.13l-.19-1.14c1.52,0,2.58,1.65,3.96,2.41,2.76.05,5.56-.45,8.35-.34,2.77.07,5.48.88,7.1,2.97l-.25.86c-.59,1.12,2.1-.91,1.65.18l.8-.15c0,.28.14.67-.26.74.4.35.54.17,1.07.1l-.04.98c1.2,1.74,3.56,1.89,4.89,3.88.31,1.58,1.5,3.14,2.89,4.72,1.39,1.57,2.98,3.17,4.11,4.4,1.91,1.57,2.29,4.22,2.49,6.75.21,2.56.26,4.98,1.87,6.85-.14.19.35.45.49.41.28,1.34.49,2.69.66,4.03,0,0,.04.3.11.8.08.5.2,1.19.33,1.99.26,1.58.62,3.52,1.13,5.07.53,1.54,1.33,2.74,2.79,2.62,1.4-.15,3.7-1.57,6.17-6.3l.28.11c.55-2.79.42-4.62-1.25-6.24,1.63-.59-.22-2.23.16-2.95l.15.03c-1.62-1.31.24-3.61-1.36-4.82.15.02.61-.09.74.26-.52-1.07-1.42-2.43-.5-2.84-1.13-2.55-2.26-6.31-4.47-7.19h.3c-1.39-.44-.71-1.09-1.69-1.83.09-.11.11-.21.17-.23-1.43-.46-1.63-2.69-2.47-3.22l.54-.38c-.42-.59-.82-1.19-1.26-1.77.11.25.21.51.31.76-1.68.73.1-2-1.78-2.67-.67-1.39-4.77-.16-4.96-1.81-1.1,0,1.46-.39.29-.8.71-.63.77.01,1.18-.69-1.03-.51-.4-1.99-1.81-2.54l.5-.55c-2.15-.33-1.73-3.08-3.51-2.91-1.8-.69.41-2.53-2.06-2.57l-.07-1.27c-.63-.64-1.19.66-1.73-.25.39-.5-.78-1.07.02-1.28-.71-.99-1.9-1.26-3.13-1.54-1.23-.29-2.47-.63-3.61-1.88-.99.94-2.18-.15-2.86.62.07-.55-2.79-.73-.95-1.51.16-.06.4.02.34.21l.36-.66c-1.39-1.74-3.17.12-4.71-.27.45.28,1.09.32.6.75l-1.47-.26.37-.58c-.73-.21-1.47-.36-2.21-.53l.27.78c-1.04-.43-1.43-1.75-2.67-.67-.54.6,1.01,1.02-.11,1.26-1.4-.52-3.59-1.19-5.44-1.2.26.83-.22.85-.69,1.09l-.15-.73c-1.75,1.27-.94-1.52-2.71-.41l.08-.54-.22,1.61c-1.37,1.75-1.22-1.33-2.63,1.02.69-.29.69,1.51-.24,1.4l.05-.75c-.45.27-.54.59-.89.53.19-.45-.1-1.05-.79-.73l.26-.99-1.02,1.64c-1.26-.43-2.61,1.01-3.36.22,0,0-.6.08-1.22.33-.61.26-1.24.67-1.28,1.28.18-.82-1.14-.54-1.11-1.43-.29.96-1.67,2.29-2.7,1.91l.08-.15c-1.44.25-2.35,1.12-3.2,1.94-.85.84-1.63,1.66-2.96,1.99.6.62-.73,1.05.2,1.72-.67,1.19-1.89,1.52-2.77,1.99-.88.46-1.44,1.02-.55,2.51-.61.95-1.47.44-2,.77l.05-.32c-1.26,1.77-1.51,2.32-2.56,3.52-.22.82,1.04,1.83-.02,2.74-.28-.71-.49-.18-.77.25.09-.33-.04-.54-.77-.19.11.18.13.37.14.54-.05-.02-.09-.02-.14-.07-.25.85,0,.82.27.52.07.07.19.1.4.09-1.13.35-1.15,2.15-2.14,1.73-.99,2.4-.7,4.5-1.07,6.54-.6,0-.87-.61-.84-1.26-.12.48-.27.96-.37,1.44-.75-.3-.11-.96-.08-1.44-.96.57-.97,1.56-.97,2.56-.02,1,0,2.02-.86,2.81l.47.59-.14.08c.32.09.62.66.63.97-.74.07-1.54-.48-1.76.5-.84.59-.3,2.27-.16,3.35.24-.51.57-.24.76.05-.09.48-.83.59-.63,1.03l-.92-.17c.9.02.62,1.47.96,1.73-.74.12-.41-.87-.89-1.11-.36,1.95-.17.98-.51,2.93.47,1.17.91,0,1.6.65-.01.94.48,1.93-.28,2.85l.88-.17c.31,1.79.07,2.77-.96,3.76,2.34,6.78,4.57,7.73,6.14,7.05,1.58-.68,2.56-2.99,2.56-2.99,2.59-4.46.57-7.24,1.22-12.82Z"/>
  </g>
</svg>