<?xml version="1.0" encoding="UTF-8"?>
<svg id="Livello_1" data-name="Livello 1" xmlns="http://www.w3.org/2000/svg" width="131.25mm" height="124.92mm" viewBox="0 0 372.05 354.12">
  <defs>
    <style>
      .cls-1 {
        fill: #e256a3;
      }

      .cls-2 {
        fill: #202020;
      }

      .cls-3 {
        fill: #e6076c;
      }
    </style>
  </defs>
  <g>
    <path class="cls-1" d="M24.82,212.83c-.01-.08-.02-.15-.03-.2-.44-.26-.69-.62-1.12-.85l1.16,1.05Z"/>
    <path class="cls-1" d="M343.07,208.94c-1.33-5.13-2.31-10.77-1.6-16.06,1.05-7.8,5.08-14.97,4.2-23.02-.8-7.31-3.75-14.2-7.69-20.36-4.1-6.53-9.41-12.5-14.81-17.48-5.4-5-10.94-8.98-15.61-12.06-.94-.41-1.88-.82-2.82-1.23-.86-.4-1.63-.79-2.35-1.22-1.44-.86-2.66-1.85-3.75-2.96-2.12-2.23-3.62-4.93-4.71-8.04-2.21-6.17-3.02-13.94-4.53-21.85-1.46-7.89-3.73-15.88-8.07-21.86-4.2-5.88-11.14-10.24-21.3-9.88.27-2.25-4.59-.05-5.41,1.34-7.93-5.91-17.75-11.79-29.76-16.09,0,0-.67-.24-1.97-.6-1.3-.36-3.12-.88-5.63-1.37-4.93-1.05-11.88-1.89-19.58-1.48-7.69.38-16.08,2.08-23.68,5.34-2,.85-3.93,1.81-5.79,2.87-.2-.47-.39-.93-.59-1.38-2.24-3.66-5.08-6.57-8.14-8.84-3.06-2.27-6.34-3.93-9.31-4.93-2.98-1.04-5.7-1.59-7.66-1.89-1.97-.32-3.15-.3-3.15-.3-2.51-.41-4.93-.62-7.25-.68-2.33-.05-4.56.02-6.66.38-2.1.32-4.11.78-6.02,1.37-1.91.59-3.74,1.27-5.47,2.19-3.44,1.79-6.63,3.96-9.35,6.51-2.69,2.57-5.13,5.42-7.34,8.5-2.11,3.12-4.05,6.43-5.93,9.86-1.76,3.48-3.44,7.09-5.19,10.76-1.61,3.72-3.34,7.48-5.15,11.31-.87,1.93-1.79,3.87-2.79,5.81-.99,1.89-2.01,3.86-3.07,5.89-1.46,1.31-2.91,2.52-4.34,3.66-1.41,1.15-2.73,2.25-4.09,3.28-2.69,2.06-5.33,3.89-7.79,5.65-5.06,3.47-9.71,6.54-14.11,9.98-4.27,3.51-8.32,7.38-11.52,12.67-.81,1.31-1.58,2.71-2.31,4.19-.7,1.51-1.34,3.03-1.94,4.8-1.19,3.43-2.19,7.54-2.84,12.36-3.57,8.49-5.62,19.02-5.92,30.91-.45,16.73.83,31.6,11.54,44.67,8.68,10.58,10.43,21.68,15.16,34.04,4.82,12.59,14.98,22.27,24.82,31.48,1.53,1.43,3.2,2.94,5.28,3.26,2.07.32,4.55-1.2,4.37-3.3.73,8.66,13.06,12.12,18.8,16.48,3.59,2.73,5.4,6.73,8.81,7.9,3.19,1.1,6.79.3,9.93,1.75,8.7,4.02,12.94,12.42,23.19,14.9,1.81.44,3.67.74,5.4,1.43,1.34.54,2.58,1.31,3.96,1.76,4.44,1.43,9.16-.79,13.29-2.94,7.95-4.13,18.42-12.25,27.47-13.31,4.16-.49,3.96-4.46,6.49-6.56,5.93,4.02,8.47,12.05,12.1,17.94,1.71,2.79,3.83,5.5,6.76,6.95,7.7,3.79,19.5-1.25,26.85-3.98,9.15-3.39,17.87-7.94,25.88-13.5,19.41-13.47,27.53-37.36,50.6-47.01,3.03-1.27,6.45-2.48,8.03-5.35,1.4-2.54.94-5.65.89-8.54-.17-8.58,3.8-17.15,10.45-22.57,1.91-1.56,4.09-2.94,5.26-5.12,2.75-5.13-1.27-11.44-2.55-16.44Z"/>
    <path class="cls-1" d="M150.02,192.11c-.04.05-.08.1-.12.15-.07.07-.15.12-.24.16-.09.05-.19.07-.29.06-.1,0-.2-.02-.29-.06-.08-.03-.15-.08-.21-.14.03.02.06.05.09.07-.07-.05-.16-.08-.23-.13-.11-.07-.2-.16-.27-.27-.03-.06-.05-.12-.08-.18-.04-.13-.04-.27,0-.4.03-.06.05-.12.08-.18.05-.09.11-.16.19-.21.07-.07.16-.11.26-.13.1-.03.2-.04.3-.01.1,0,.19.03.28.09.04.03.09.05.13.07.02.01.05.02.07.04,0,0,.01,0,.02.01.06.04.11.08.16.13.01,0,.02.02.03.03.09.09.16.2.19.33,0,.07.02.13.03.2,0,.14-.03.26-.1.38Z"/>
  </g>
  <g>
    <path class="cls-3" d="M152.86,120.1c-12.29-1.32-24.99,6.38-29.5,17.88-5.65,14.39,1.08,30.44,8.22,44.15,11.59,22.28,24.56,43.85,38.8,64.53,9.84-14.97,25.88-24.45,40.78-34.4,14.9-9.95,29.93-21.89,35.66-38.87,4.29-12.69,2.74-26.71-1.21-39.51-.79-2.55-1.73-5.17-3.68-7-2.17-2.04-14.84-10.28-22.69-7.52-20.06,7.08-21.49,31.55-36.45,38.76-9.73,4.68-5.84-19.37-13.84-26.76-6.31-5.82-6.9-10.27-16.1-11.26Z"/>
    <g>
      <path class="cls-2" d="M127.23,163.15l.06,1.13c.12-.06.14-.36-.06-1.13Z"/>
      <path class="cls-2" d="M209.57,130.31c-.04.08-.09.16-.11.23.1-.15.12-.2.11-.23Z"/>
      <path class="cls-2" d="M138.31,207.15s-.02-.04-.03-.05c-.07-.07-.15-.16-.21-.22l.24.28Z"/>
      <path class="cls-2" d="M115.99,150.73c.05,4.38.58,7.84,1.12,10.87.62,2.99,1.22,5.61,2.01,8.13,1.54,5.06,3.6,10.03,7.61,17.06,3.46,6.85,7.67,13.88,11.55,20.3,2.66,2.57,4.96,8.5,7.89,11.65l.34,1.7c1,1.09,2.07,2.43,2.56,3.83h-.19c1.51,1.62,2.59,3.83,3.35,4.62l-.19.02,1.47,2.18-.45-.25c2.43,2.93,4.56,6.18,6.28,9.15l.44-.63c.67,1.29,1.05,2.01,2.31,3.89,1.04,1.58,2.02,2.98,2.95,4.26.93,1.26,1.81,2.45,2.69,3.65.43.6.87,1.2,1.31,1.81.22.31.44.63.67.94.22.32.45.69.67.84,1.29-1.81,2.59-3.59,4.42-5.71l-.03.35c1.04-1.82,1.95-3.49,2.91-4.79.47-.69.95-1.26,1.41-1.84l.46-.57c.13-.16.26-.32.4-.47,1.14-1.19,2.3-2.21,3.56-3.16,2.48-1.93,5.05-3.73,7.74-6.96-.66.81.57.02.61.21,2.87-2.48,6.17-4.92,5.42-6.11,2.33-1.6,2.14-.95,2.75-.71-.36-.5,1.52-2.1,3.36-3.36l-.72.77,5.21-3.7-1.69-.28c3.02-1.59,1.5.71,4.07-1.32l-.57-.78c4.03-2.44,7.18-2.79,11.39-4.95,7.97-5.54,15.66-12.66,21.55-21.17,5.94-8.47,9.58-18.44,11.08-27.87l.8-.79c.53-.14.23-1.52-.12-2.89-.39-1.37-.78-2.75-.32-3.12l-.56-2.17c.15-.62.26-1.93.57-.86-.09-2.03-.29-2.07-.76-3.47.15-.74.27-1.48.38-2.23-.31-3.99-1.28-7.56-2.46-11.06-.61-1.78-1.19-3.41-1.97-5.39-.81-1.95-1.84-4.28-3.92-6.49-1.33-1.51-2.36-2.3-3.66-3.28-1.27-.93-2.67-1.83-4.22-2.65-3.07-1.66-6.68-3.13-10.9-3.82-2.14-.3-4.48-.36-6.93.17-.62.17-1.24.35-1.85.55-.53.2-.91.42-1.37.63-.87.43-1.73.85-2.58,1.27-3.24,1.95-5.97,4.16-7.86,6.3-2.69,3.02-5.07,6.25-7.38,9.51-2.31,3.25-4.55,6.56-6.79,9.64-2.24,3.06-4.53,5.86-6.85,7.97l-.42.41c-.14.14-.29.29-.37.34l-.6.46-.56.45-.27.19c-.32.28-.8.71-1.4.68-.04-.22-.47-.15-.56-.05-.2-.33-.32-.69-.42-1.05-.1-.37-.16-.64-.41-1.87l-1.2-6.59s-.19-1.04-.61-2.81c-.45-1.77-1.05-4.3-2.53-7.31-.76-1.49-1.78-3.13-3.36-4.63l-.29-.28-.19-.17-.36-.33c-.24-.22-.49-.43-.73-.66-.48-.45-.97-.92-1.45-1.41-.97-.98-1.96-2.05-3.1-3.16-1.13-1.1-2.48-2.22-3.93-3.03-2.97-1.66-5.68-1.84-7.26-1.74-1.63.17-2.33.59-1.96,1.24.34.7,1.97,1.4,4.34,3.14,1.17.89,2.33,2.05,3.4,3.8,1.09,1.71,2.28,4.18,4.28,6.98l-.42-.1c.32.39.66.76.99,1.12l.49.53c.16.17.16.22.25.33.29.36.55.82.81,1.28.5.95.92,2.04,1.31,3.12.79,2.18,1.51,4.38,2.56,6.72-.62.52-.39,1.99,0,3.61.22.82.44,1.68.64,2.43.1.43.2.84.29,1.2.1.43.14.78.18,1.13l-.18-.2c1.45,3.25,2.66,6.62,5.73,8.33,1.54.79,3.28.95,4.92.54.42-.04.82-.28,1.21-.48l1.19-.63c.78-.43,1.54-.89,2.24-1.38-.18.22-.15.64-1.61,1.38.57-.3,1.16-.62,1.77-.95.52-.35.96-.73,1.44-1.11.46-.38.93-.76,1.37-1.13.22-.19.43-.37.64-.55.16-.16.32-.32.47-.48,1.22-1.24,2.26-2.09,2.62-1.94,2.81-3.35,5.34-7.47,7.4-11.14,2.05-3.7,3.77-6.9,4.52-9.17v.39c.8-2.62,1.82-2.82,3.33-5.22.18-.04.35-.16.36-.1.26-.7.83-1.3,1.42-1.99.31-.33.62-.69.98-1,.37-.29.75-.58,1.13-.87.38-.28.75-.57,1.12-.84.37-.27.77-.45,1.12-.67.71-.42,1.32-.81,1.73-1.17l.37.42,2.38-1.08.59-.28c.17-.06.3-.08.46-.13.29-.09.58-.2.94-.21-.56-.04-.93.13-1.44.18.01-.76.84-.82,2.02-.58,1.21.28,2.69.79,4.63.82,1.67.54,3.69.51,5.8.71,2.09.2,4.26.66,5.79,2.1,2.02.48-2.05.02.65,1.17-.37.69-1.37-.34-1.12.59.61.31,1.11.67,1.51,1.05.34.34.56.68.78,1.09.42.81.78,1.73,1.59,3.13l-.53.34c.62.85,1.03,1.91,1.32,2.95.31,1.03.47,2.06.62,3.04.29,1.96.45,3.71,1.27,5.1.68,2.27.33,3.12.07,3.97-.25.85-.42,1.68.39,4.01l-.7,1.9c-.09,2.01,1.1,1.43.67,3.68-.49-.13-.52,2.8-.96,1.48-.5,2.47-.49,4.96-.83,7.64-.31,2.67-1.05,5.53-2.96,8.2.39,1.71-1.68,4.37-1.6,5.66-.25-.04-1.12,1.38-1.86,2.32-.76.93-1.27,1.39-.59-.4.13-.3.43-.77.56-.64l-.27-.7c-2.94,2.42-3.43,5.86-6.16,8.58.93-.68,1.84-1.86,1.5-.83-.77.88-1.65,1.7-2.48,2.54l.14-.89c-1.26,1.21-2.63,2.35-3.99,3.48l.97-.03c-2.17,1.53-3.53,1.31-5.24,3.89-.73,1.24,2.47-.95.43.99-3.01,1.93-7.7,4.58-11.61,7,.76.34-.29,1.02-1.27,1.86l-.46-.43c-3.65,3.45-2.24-.13-6,3.17l.13-.6-.39,1.8c-3.07,3.5-2.73.26-5.98,4.45,1.59-1.21,1.53.6-.64,1.75l.18-.84c-1.05.86-1.28,1.33-2.1,1.75.48-.73-.14-.96-1.73.28l.68-1.38c-.84,1.02-1.66,2.05-2.48,3.1-1.39.59-2.89,1.79-4.24,2.83-1.33,1.08-2.5,1.98-3.24,2.06,0,0-1.31.96-2.68,2.14-1.35,1.22-2.76,2.66-2.96,3.53.56-1.33-2.2,1.04-1.93-.16-.41.81-1.35,2.27-2.46,3.61-.27.34-.55.68-.82,1.02-.13.16-.14.17-.23.24-.12.08-.25.09-.38-.02v-.12c-.3.02-.37.13-.51.49-.14.08-.37.04-.64-.16-.13-.11-.27-.26-.36-.44l-.03-.07s.01,0-.08-.15l-.38-.67c-.25-.45-.5-.92-.73-1.41-.44.63-1.93-2.33-2.24-1.15-4.3-4.92-4.78-10.89-8.41-11.37-1.67-2.42-1.27-3.31-1.94-4.68l.49.52c-3.06-4.58-3.9-5.94-5.92-9.49-1.26-1.62-2.57-1.23-4.12-4.57,1.04.77.21-.48-.47-1.67.51.72.8.86.22-.88-.26-.14-.54-.43-.79-.71.03-.03.02-.11.09-.11-1.28-1.9-1.23-1.47-.77-.51-.1,0-.14.12-.1.48-.59-2.39-3.27-5.75-2.62-6.44-3.48-5.91-6.62-9.85-9.51-14.75.13-.78,1.08.23,1.99,1.6-.66-1.16-1.32-2.33-1.95-3.5.61-.26,1.35,1.89,2.04,2.93-1.2-4.69-5.34-8.34-6.28-13.85-.29-.29-.6-.59-.87-.89l-.02-.34c-.26.11-.99-.94-1.33-1.69.33-.9,1.28-.34.54-2.87.02-2.14-1.5-5.66-1.93-8.35,0,1.45-.33,1.02-.61.39-.05-1.32.47-2.07.26-3.07l.79-.1c-.38.24-.53-.59-.63-1.57-.1-.97.02-2.05-.12-2.32.69-.62.17,2.03.65,2.39.23-2.51.35-3.13.49-3.73.16-.6.17-1.25.99-3.61.44-2.69-.91.17-1.04-1.27.75-2.31,1.6-4.76,3.79-6.7l-1.11.28c2.59-4.11,5.23-5.89,8.32-6.93,3.51-2.84,6.87-4.44,9.56-5.45,1.36-.46,2.54-.88,3.57-1.14,1.02-.33,1.88-.51,2.57-.71,1.43-.42,1.97-.76,2.13-1.15.14-.38-.21-.77-.84-1.15-1.51-.74-4.57-1.35-7.23-1.23-2.67.03-4.87.53-4.87.53-4.42.81-8.1,2.47-11.2,4.54-3.1,2.09-5.65,4.61-7.78,7.57-2.11,2.94-3.86,6.44-4.93,10.41-1.09,3.93-1.62,8.41-1.35,13.38Z"/>
    </g>
  </g>
</svg>