<?xml version="1.0" encoding="UTF-8"?>
<svg id="Livello_1" data-name="Livello 1" xmlns="http://www.w3.org/2000/svg" width="131.25mm" height="124.92mm" viewBox="0 0 372.05 354.12">
  <defs>
    <style>
      .cls-1 {
        fill: #4d916a;
      }

      .cls-2 {
        fill: #01974c;
      }

      .cls-3 {
        fill: #202020;
      }
    </style>
  </defs>
  <g>
    <path class="cls-1" d="M26.42,210.04c-.01-.08-.02-.15-.04-.21-.44-.26-.69-.62-1.13-.85l1.16,1.06Z"/>
    <path class="cls-1" d="M346.12,206.14c-1.33-5.16-2.32-10.82-1.61-16.13,1.06-7.83,5.11-15.04,4.22-23.13-.81-7.34-3.76-14.26-7.72-20.45-4.12-6.56-9.46-12.56-14.88-17.56-5.42-5.02-10.99-9.02-15.68-12.11-.94-.41-1.89-.82-2.84-1.24-.86-.4-1.64-.79-2.36-1.22-1.45-.86-2.68-1.86-3.77-2.97-2.13-2.24-3.63-4.95-4.73-8.08-2.22-6.2-3.03-14-4.55-21.95-1.47-7.93-3.75-15.96-8.11-21.96-4.22-5.9-11.19-10.29-21.4-9.92.27-2.26-4.61-.05-5.44,1.35-7.97-5.93-17.83-11.85-29.9-16.16,0,0-.67-.24-1.98-.6-1.3-.36-3.14-.88-5.66-1.37-4.95-1.06-11.94-1.9-19.67-1.49-7.72.38-16.15,2.09-23.78,5.37-2.01.85-3.95,1.82-5.81,2.88-.2-.48-.39-.94-.6-1.39-2.25-3.67-5.11-6.6-8.18-8.88-3.07-2.28-6.36-3.95-9.35-4.95-2.99-1.04-5.72-1.6-7.69-1.9-1.98-.32-3.16-.3-3.16-.3-2.53-.41-4.95-.63-7.28-.68-2.34-.05-4.58.02-6.69.38-2.11.32-4.12.78-6.05,1.37-1.92.59-3.76,1.27-5.5,2.2-3.45,1.79-6.66,3.97-9.4,6.54-2.7,2.58-5.16,5.44-7.37,8.54-2.12,3.13-4.07,6.45-5.96,9.91-1.76,3.5-3.45,7.13-5.22,10.81-1.61,3.73-3.36,7.52-5.17,11.36-.87,1.94-1.8,3.88-2.8,5.84-1,1.9-2.02,3.88-3.08,5.91-1.47,1.31-2.93,2.53-4.36,3.68-1.42,1.15-2.74,2.26-4.11,3.3-2.7,2.07-5.35,3.91-7.83,5.67-5.08,3.48-9.75,6.57-14.18,10.03-4.29,3.53-8.36,7.41-11.57,12.73-.81,1.32-1.59,2.72-2.32,4.21-.7,1.52-1.35,3.05-1.95,4.82-1.2,3.45-2.2,7.58-2.85,12.41-3.58,8.53-5.64,19.11-5.94,31.05-.45,16.8.83,31.74,11.59,44.88,8.72,10.63,10.47,21.78,15.23,34.19,4.84,12.65,15.04,22.37,24.94,31.62,1.54,1.44,3.21,2.96,5.3,3.27,2.08.32,4.57-1.21,4.39-3.31.73,8.69,13.12,12.17,18.89,16.55,3.6,2.74,5.42,6.76,8.85,7.93,3.2,1.1,6.82.3,9.98,1.76,8.74,4.03,13,12.48,23.29,14.97,1.82.44,3.69.75,5.43,1.44,1.34.54,2.59,1.32,3.97,1.76,4.46,1.43,9.2-.79,13.35-2.96,7.99-4.15,18.51-12.31,27.59-13.37,4.18-.49,3.98-4.48,6.52-6.59,5.96,4.04,8.51,12.1,12.16,18.02,1.72,2.8,3.85,5.53,6.79,6.98,7.74,3.81,19.59-1.25,26.97-4,9.19-3.41,17.95-7.98,26-13.57,19.5-13.54,27.65-37.53,50.83-47.23,3.05-1.27,6.48-2.49,8.07-5.38,1.41-2.56.94-5.67.89-8.58-.17-8.62,3.82-17.22,10.5-22.67,1.92-1.57,4.11-2.96,5.29-5.14,2.77-5.15-1.27-11.49-2.56-16.51Z"/>
    <path class="cls-1" d="M152.19,189.23c-.04.05-.08.1-.12.15-.07.07-.15.13-.24.16-.09.05-.19.07-.29.06-.1,0-.2-.02-.29-.06-.08-.03-.15-.08-.22-.14.03.02.06.05.09.07-.07-.05-.16-.08-.23-.13-.11-.07-.2-.16-.27-.27-.03-.06-.05-.12-.08-.18-.04-.13-.04-.27,0-.4.03-.06.05-.12.08-.18.05-.09.11-.16.19-.21.07-.07.16-.11.26-.14.1-.03.2-.04.3-.01.1,0,.19.03.28.09.04.03.09.05.13.07.02.01.05.02.07.04,0,0,.01,0,.02.01.06.04.11.08.16.13.01,0,.02.02.03.03.09.09.16.21.19.33,0,.07.02.13.03.2,0,.14-.03.26-.1.38Z"/>
  </g>
  <g>
    <path class="cls-2" d="M123.2,225.33c-.69-4.61,1.87-9.02,4.34-12.99,3.15-5.06,6.3-10.12,9.45-15.19,2.03-3.27,4.14-6.61,7.21-8.93,5.15-3.89,12.08-4.23,18.54-4.18,4.67.04,9.46.22,13.79,1.99,3.63,1.48,6.74,4,9.56,6.73,9.72,9.44,16.45,21.91,19.01,35.22"/>
    <g>
      <path class="cls-3" d="M125.41,205.79l.53-.06c-.17-.1-.35-.11-.53.06Z"/>
      <path class="cls-3" d="M199.42,200.37s.08.02.13.02c-.06-.03-.1-.03-.13-.02Z"/>
      <path class="cls-3" d="M144.26,202.34h0c.02.06.02.1.04.14l-.04-.14Z"/>
      <path class="cls-3" d="M134.35,216.1c2.78-3.5,5.07-3.46,6.82-7.79,1.3-1.78,2.15-4.01,3.08-5.95-.74-1.7,1.42-2.33.91-3.87l.94.16c-.17-.53-.18-1.03.39-1.01l.19.16c-.25-.77.38-.94.26-1.31l.19.17.24-.47.22.3c-.07-.99.42-1.54,1.02-1.63l-.72-.77c.84.05.98-.33,1.21-.74.21-.4.52-.79,1.33-.4l.09.24c.11-1.56.99-1.38,1.74-1.08.79.28,1.49.64,2.22-.81-.19.36.19.52.21.77.8-.44,1.8-.69,1.63-2.74.73-.04.64.59.8,1.38-.08-.9.54-1.32,1.12-1.41l-.25.36c.55-.13,1.1-.26,1.68-.37l-.39-1.7c.95.47.29,2.07,1.16,1.64l-.03-1.41c1.31.27,2.08,2.41,3.31,3.47,2.57.34,5-.28,7.24-.37,2.23-.1,4.23.39,5.21,2.46l-.42.99c-.38.68.12.31.67-.03.54-.34,1.14-.67.78-.04l.79-.31c-.06.3-.01.71-.41.85.31.3.46.11,1.01-.06l-.23,1.05c.83,1.64,3.27,1.42,4.45,3.17.14,1.57,1.25,2.86,2.65,4.01,1.37,1.17,3.03,2.2,4.23,3.02,2.03.93,2.37,3.25,2.53,5.48.19,2.25.25,4.38,2.21,5.6-.15.2.43.3.59.23.41,1.1.73,2.23,1.07,3.35,0,0,.32,1.01.87,2.3.55,1.29,1.31,2.86,2.32,4.01.99,1.15,2.3,1.88,3.97,1.32,1.64-.58,3.79-2.43,5.88-7.03h.35c.16-2.44-.17-3.96-2.29-4.89,1.87-.95-.47-1.85-.03-2.6h.18c-2.02-.7.11-3.26-1.8-3.92.17-.02.7-.24.87.04-.67-.81-1.66-1.83-.63-2.44-1.34-2.02-2.58-5.25-5.04-5.5l.34-.09c-1.55-.04-.77-.84-1.86-1.28.1-.13.13-.23.19-.26-1.57-.06-1.73-2.12-2.62-2.41l.62-.52c-.41-.47-.86-.91-1.29-1.37l.29.66c-1.9,1.19.24-1.99-1.76-2.13-.62-1.19-5.11,1.1-5.14-.51-1.16.27,1.59-.76.4-.88.82-.81.82-.18,1.33-.99-1-.29-.19-1.89-1.54-2.15l.6-.67c-2.17.14-1.24-2.83-3.07-2.35-1.68-.45.88-2.77-1.59-2.46l.17-1.39c-.53-.62-1.31.89-1.68-.07.48-.61-.59-1.12.24-1.45-.53-1.06-1.7-1.25-2.87-1.49-1.18-.24-2.37-.53-3.38-1.96-1.06,1.2-2.1-.04-2.81.95.1-.67-2.55-.69-.79-1.75.15-.08.37-.01.3.23l.38-.82c-1.21-2-2.96.34-4.29-.09.39.35.95.34.5.89l-1.28-.28.35-.71-1.89-.61.19.94c-.87-.54-1.13-2.13-2.21-.87-.48.71.78,1.28-.16,1.53-1.15-.68-2.83-1.66-4.27-1.93.13,1.04-.26,1-.65,1.21l-.05-.9c-1.56,1.27-.58-1.99-2.18-.96l.13-.63-.37,1.89c-1.38,1.84-.87-1.85-2.39.68.64-.19.42,1.96-.37,1.62l.13-.88c-.42.21-.54.59-.85.44.22-.49.03-1.27-.62-1.06l.35-1.12-1.1,1.72c-1.1-.82-2.5.59-3.15-.51,0,0-.58-.05-1.21.12-.63.17-1.28.52-1.35,1.25.24-.94-1.12-.87-1.04-1.91-.37,1.08-1.82,2.4-2.93,1.81l.09-.16c-1.55.08-2.59,1.04-3.48,1.96-.9.94-1.7,1.87-3.12,2.26.76.71-.64,1.2.52,1.96-.48,1.34-1.7,1.66-2.54,2.15-.84.47-1.26,1.06.15,2.62-.41.92-1.47.37-1.94.67l-.04-.32c-.77,1.7-.98,2.14-1.74,3.15.01.74,1.59,1.84.63,2.5-.47-.7-.58-.25-.79.09.03-.28-.16-.49-.87-.32.16.19.22.36.27.51-.05-.03-.1-.03-.17-.09-.12.71.14.73.39.53.09.08.23.13.46.16-1.2.06-.96,1.67-2.12,1.05-.8,1.86-.4,3.79-.85,5.47-.67-.2-.97-.84-.94-1.39l-.41,1.13c-.82-.52-.12-.87-.09-1.28-2.07.36-.2,3.29-2.29,3.92l.47.7-.16.02c.35.21.62.82.6,1.09-.84-.25-1.65-1.04-2.03-.32-1.03.12-.62,1.77-.68,2.73.36-.31.68.06.83.38-.19.36-1.03.11-.89.58l-.99-.57c1,.42.41,1.55.72,1.93-.85-.23-.28-.95-.76-1.37-.81,1.54-.41.75-1.21,2.36.28,1.26,1.02.38,1.67,1.26-.21.84.13,1.89-.9,2.48l1.04.15c.06,1.73-.33,2.45-1.63,3.21.57,1.75,1.39,2.96,2.24,3.73.84.77,1.69,1.12,2.43,1.28,1.49.33,2.65.23,3.46-.33,1.73-.56,2.5-.76,2.52-.81,2.32-.49.02-2.78,1.97-7.41Z"/>
    </g>
  </g>
  <g>
    <path class="cls-2" d="M148.85,130.35c.54,8.58,7.66,16.33,16.18,17.44,8.52,1.11,17.46-4.66,19.82-12.93.6-2.11.81-4.31.94-6.5.19-3.19.17-6.59-1.51-9.31-1.12-1.81-2.87-3.13-4.69-4.22-13.26-7.94-31.87-2.51-30.74,15.52Z"/>
    <g>
      <path class="cls-3" d="M159.93,140.16l-.06.47c.11-.16.16-.33.06-.47Z"/>
      <path class="cls-3" d="M162.76,117.22s-.02.06-.03.1c.03-.04.03-.07.03-.1Z"/>
      <path class="cls-3" d="M168.04,156.81s-.02,0-.02,0c-.04.04-.08.07-.12.11l.14-.11Z"/>
      <path class="cls-3" d="M148.43,147.34c1.72,2.2,2.83,3.73,4.13,5.2,1.36,1.37,2.97,2.74,6.16,3.41,2.85,1.16,6.37,1.22,9.3.85.68-.76,1.58-.87,2.55-.96.96-.08,1.95-.27,2.56-1.04l.8.68c.42-.57.91-1.03,1.58-.75l.05.25c.54-.89,1.51-.86,1.75-1.31l.07.25c.29-.15.56-.33.84-.5v.4c.99-1.21,2.13-1.93,3.37-2.33l-.66-.83c1.38-.25,2.01-.96,2.5-1.7.52-.72.98-1.37,2.3-1.73l.16.2c.05-1.01.29-1.66.7-2.14.41-.46.96-.78,1.51-1.14,1.1-.67,2.25-1.59,1.8-3.59.13.51.56.09.77.22.4-1.47.75-3.06-1.21-3.71.34-.93.88-.59,1.68-.49-.87-.25-1-1.16-.91-1.88l.27.41c.06-.72.08-1.42.08-2.09l-1.75.11c.64-.92,2.1.05,1.83-.99l-1.4-.17c.44-1.31,2.63-1.94,3.75-3.18.29-1.72.14-3.77-.45-6.02-.55-2.18-1.74-4.87-3.24-6.86-.86-1.18-1.82-2.25-2.76-3.28-.88-.96-1.69-1.87-2.36-2.86l.35-1.04c.37-.68-.31-.44-.97-.15-.67.28-1.35.62-1.09-.06l-.94.3c-.03-.33-.25-.78.21-.93-.54-.35-.67-.13-1.28.08l-.19-1.18c-1.01-.85-2.25-1-3.45-1.12-1.23-.05-2.46.04-3.68-.47-1.35-1.23-3.74-1.67-6.14-1.31-2.4.32-4.72,1.35-6.27,2.27-1.06.76-2.18,1.29-3.48,1.5-1.32.25-2.74.51-4.16.78-.71.21-1.44.44-2.15.72-.72.27-1.41.6-2,1.09-.6.46-1.15.98-1.61,1.57-.46.58-.71,1.33-.87,2.08-.29.02-.16.69-.01.79l-.78,1-.63,1.08c-.42.73-.82,1.46-1.21,2.21,0,0-.53,1.4-.93,3.31-.18.95-.16,2-.14,3.04.03.52.05,1.04.16,1.51.13.47.28.93.46,1.34.72,1.67,1.86,2.64,3.61,2.27.87-.17,1.9-.67,3.12-1.41,1.22-.73,2.56-1.78,4.4-2.68l.32.11c.25-.31.45-.57.59-.83.16-.24.31-.43.34-.66.09-.43-.22-.96-.8-1.7,1.98.72.67-.81,1.39-.79l.14.11c-.55-.75.06-.86.53-.95.5-.09.94-.11.69-.81.1.13.51.54.42.66.15-.48.32-1.33,1.12-.43.71-.91,2.21-1.23,2.41-3.25l.06.33c.05-1.39.55-.4.9-1.22.07.15.14.22.15.28.28-1.33,1.63-.6,2.04-1.14l.13.8,1.17-.29-.46-.13c0-1.11.27-.79.61-.37.34.4.73,1.01,1.19.29.41.16.88-1.01,1.47-2,.57-.97,1.24-1.84,1.67-1.22.66-.95-.7,1.6.14.92-.19,1.14-.44.67-.43,1.6.76-.47.78,1.36,1.7.79l-.2.88c.69-.66,1.1-.29,1.38.18.3.45.52.87,1.12.26,1.29-.31-.49,2.68,1.18,1.55l-.23,1.25c.27.36,1-1.16,1.13-.44-.41.64.19.83-.42,1.31.1.77.68.65,1.2.65.53,0,.92.1.26.88.78-.55.87-.4,1.06-.39.11.02.26,0,.64-.16-.55.34.17.62-1.26.9-.11.03-.1-.01.12-.12l-.81.36c-.72.43-.52.32-.11.27.4-.09,1.02-.03.93.24.27-.19.15-.36.77-.36l-.04.52h-.75s-.35.83-.35.83l.91-.18c-.44.5-2.01.66-.7,1.23.73.29,1.25-.52,1.53.07-.63.71-1.65,1.99-2.01,3,1.04,0,.98.27,1.17.57l-.9-.06c1.13,1.15-2,.16-1.14,1.17l-.61-.17,1.83.52c1.61,1.13-1.89.04.3,1.36-.07-.35,1.97.31,1.47.66l-.81-.33c.12.27.43.43.22.52-.4-.26-1.19-.43-1.14-.13l-.97-.51c.45.31.91.65,1.35,1.02-1.04.03-.24,1.16-1.44.73,0,0-.24.12-.34.34-.1.22-.13.54.36,1.03-.58-.63-1.12-.41-1.82-1.11.68.72.74,1.8-.17,1.32l-.04-.11c-.73,0-.75.53-.9,1.05-.1.55-.35,1.02-1.07.79.61.85-.16.64.65,1.72-.15.89-.98.52-1.48.39-.51-.11-.76-.03-.26,2-.46.44-.94-.72-1.24-.84l.05-.24c-.4.31-.69.48-.95.55-.26.08-.51.16-.86.13-.28.42-.18,2.39-.94,1.94.19-.76-.08-.62-.34-.62.16-.12.19-.4-.12-.91-.04.24-.11.38-.18.51,0-.06-.01-.11,0-.19-.41.28-.36.49-.16.62-.01.12,0,.27.06.48-.4-1-1.26-.03-1.15-1.33-1.17.12-2.45,1.17-3.79,1.17.14-.67.63-1.12,1.01-1.26-.26-.02-.54,0-.81-.06.4-.87.62-.33.91-.44-.12-.86-.62-.71-1.25-.55-.6.14-1.31.21-1.36-.68l-.62.5.02-.14c-.23.34-.76.63-.99.63.38-.78,1.16-1.53.73-1.83.2-.88-1.15-.44-1.9-.58.12.32-.28.58-.59.69-.24-.19.26-.88-.14-.81l.83-.78c-.72.81-1.35.2-1.79.41.55-.65.86-.11,1.39-.48-.81-.76-.38-.39-1.14-1.21-1.06-.02-.83.7-1.83,1.01-.46-.38-1.54-.49-1.22-1.45l-.8.67c-1.26-.7-1.44-1.54-.75-2.61-2.67-1.41-4.5-2.8-6.02-3.44-1.51-.65-2.63-.46-3.51-.08-.84.54-1.38,1.57-1.67,2.5-.25.9-.28,1.67-.28,1.67-.43,3.12.61,5.34,2.19,7.1,1.59,1.79,3.63,3.27,6.07,5.3Z"/>
    </g>
  </g>
  <g>
    <path class="cls-2" d="M219.75,126.84c6.67,3.46,12.58,9.03,14.8,16.21,2.22,7.18-.06,15.97-6.44,19.93-4.15,2.58-9.28,2.86-14.16,3.07"/>
    <g>
      <path class="cls-3" d="M230.25,127.62l-.15.44c.13-.15.2-.3.15-.44Z"/>
      <path class="cls-3" d="M228.22,169s-.01.06,0,.11c.02-.04.02-.08,0-.11Z"/>
      <path class="cls-3" d="M223.73,141.31h0s-.06.02-.1.04l.1-.04Z"/>
      <path class="cls-3" d="M220.56,136.54c.93,1.41-.14,3.08,1.43,3.53.34.61,1.15.84,1.73,1.23,1.42-.65.53.67,1.79.28l-.65.59c.44-.13.79-.16.44.2l-.22.12c.65-.17.42.21.76.13l-.23.12.21.14-.34.14c.77-.05.95.26.8.65l.94-.47c-.83,1.06,1.32.47.19,1.52l-.24.08c1.44-.1,1.09.36.67.73-.4.39-.83.7.51.81-.34-.03-.52.14-.78.17.37.25.56.57,2.6.34,0,.28-.62.3-1.41.41.9-.1,1.3.1,1.38.32l-.36-.07c.12.19.22.4.33.6l1.7-.2c-.48.39-2.08.16-1.65.48l1.41-.03c-.26.52-2.45.76-3.48,1.06-.38.75.28,1.65.52,2.62.29.95.18,1.97-1.27,2.03l-.97-.44c-1.37-.73,1.84,1.42.56.78l.52.5c-.26-.1-.57-.19-.82-.43-.13.08.09.22.42.56l-.88-.41c-.87-.04.3,1.46-.4,1.64-.94-.48-1.2-.26-1.37.24-.11.53-.27,1.4-.45,2.07-.1,1.33-1.24.7-2.16,0-.96-.7-1.76-1.43-2.33-.01-.08-.21-.14.3-.12.47l-1.51-.04s-1.88.01-3.15,1.52c-1.21,1.51-1.75,4.62,2.02,10.86l-.03.34c1.1.76,1.84.88,2.43-.89.33,2.06.93.12,1.27.75v.17c.46-1.67,1.64,1.12,2.11-.42,0,.17.09.73-.07.8.48-.36,1.07-.94,1.37.23,1.17-.55,3.24-.59,3.38-2.73l.06.34c0-1.39.52-.4.77-1.23.09.13.16.19.18.26-.04-1.37,1.31-.84,1.44-1.54l.41.69.85-.71-.44.06c-.51-.99-.17-.77.31-.56.47.22,1.1.44,1.02-.37.39-.1.01-1.24-.4-2.28-.4-1.04-.81-1.94-.21-1.74-.47-.96.94,1.42.75.53.81.83.32.68,1.05,1.27-.02-.73,1.43.24,1.31-.77l.68.59c-.3-.86.15-.96.62-1.06.46-.09.93-.18.47-.87-.12-1.11,2.54,1.02,1.59-.74l1.24.32c.39-.26-1.14-1.01-.41-1.1.65.4.81-.21,1.32.38.78-.19.68-.88.61-1.53-.07-.66,0-1.26,1.16-1.56-1.3-.79-.25-1.13-1.24-1.68.65.17.47-1.23,1.62-.12.09.1.04.2-.2.12l.82.35c1.82-.32-.5-1.65-.09-2.3-.32.16-.33.46-.87.13.1-.21.17-.43.26-.65l.7.29.62-.97h-.94c.56-.42,2.15-.4.91-1.16-.69-.34-1.29.31-1.51-.24.71-.57,1.75-1.52,2.03-2.42-1.04.05-.99-.18-1.2-.42l.9-.02c-1.25-.93,1.98-.36.96-1.31l.63.07-1.89-.18c-1.82-.72,1.87-.59-.66-1.32.19.35-1.96.33-1.61-.11l.88.02c-.21-.22-.58-.26-.42-.43.48.09,1.27-.07,1.08-.41l1.11.11c-.56-.17-1.11-.33-1.67-.48.84-.67-.47-1.28.69-1.74,0,0,.1-.32,0-.63-.1-.32-.37-.62-1.06-.58.87.02,1.01-.7,2-.78-.99-.09-1.98-.67-1.14-1.31l.13.03c.54-1.63-2.08-1.55-1.39-3.08-.93.49-.67-.29-1.81.42-1.63-.36,1.42-3.14-2.36-1.43-.43-.3.55-1,.58-1.32l.25-.02c-.8-.6-.96-.81-1.28-1.42-.53-.05-2.11,1.04-2.08.31.72-.31.47-.41.34-.59.18.04.43-.09.66-.64-.21.11-.37.15-.5.18.05-.04.08-.08.14-.12-.45-.12-.59.08-.57.27-.1.07-.2.17-.34.34.54-.9-.71-.76.27-1.64-.96-.66-2.47-.32-3.44-.55.41-.54.98-.82,1.35-.82l-.62-.28c.69-.68.65-.13.93-.13.55-1.68-2.2.01-1.88-1.62l-.65.45.05-.13c-.27.31-.77.59-.96.61.46-.72,1.28-1.47.91-1.71.25-.85-1.02-.34-1.65-.24.1.26-.25.58-.52.75-.18-.1.24-.85-.12-.66l.68-.92c-.59.9-1.15.58-1.48.91.41-.75.69-.38,1.12-.86-.75-.44-.38-.22-1.14-.64-.87.44-.55.93-1.3,1.62-.45-.04-1.19.41-1.18-.4l-.44.92c-1.02.28-1.27-.04-1.16-1.15-2.18,1.09-3.57,2.35-4.5,3.47-.94,1.13-1.46,2.16-1.71,3.04-.56,1.73-.28,2.74-.28,2.74.11,2.65,2.22.5,4.19,1Z"/>
    </g>
  </g>
  <g>
    <path class="cls-2" d="M220.4,183.93c10.8-1.3,21.74,4.64,27.91,13.59,6.17,8.96,7.93,20.46,6.43,31.23"/>
    <g>
      <path class="cls-3" d="M230.85,179.39l.09.45c.04-.19.03-.36-.09-.45Z"/>
      <path class="cls-3" d="M260.22,214.58s.06.02.1.03c-.04-.03-.07-.03-.1-.03Z"/>
      <path class="cls-3" d="M231.83,194.73h0s-.05.05-.07.08l.08-.08Z"/>
      <path class="cls-3" d="M226.39,191.79c1.53.79,1.34,2.79,3.06,2.51.33.22.72.29,1.13.31.42.04.84.08,1.25.12,1.03-1.23.91.47,1.94-.45l-.28.84c.36-.31.67-.45.56.03l-.14.21c.54-.44.56.04.83-.18l-.15.21.3.06-.24.28c.74-.38,1.11-.13,1.23.34l.59-.87c-.03,1.4,1.54-.09,1.25,1.47l-.17.19c1.27-.77,1.25-.12,1.19.49-.06.63-.13,1.2,1.13.64-.32.14-.35.42-.54.59.52.11.96.35,2.5-1.03.23.27-.29.64-.85,1.2.67-.6,1.15-.62,1.37-.44l-.35.13.74.4,1.22-1.2c-.1.65-1.55,1.39-.96,1.44l1.11-.88c.15.66-1.36,2.23-1.91,3.24.37,1.05,1.59,1.61,2.61,2.4,1,.78,1.77,1.79,1.03,3.25l-.95.48c-1.43.6,2.34-.3,1.03.3l.75-.02c-.23.16-.46.4-.83.41.02.23.26.15.76.15l-.82.55c-.45,1.07,1.59,1.24,1.46,2.3-1.58,1.58.57,3.23,1.79,4.43,1.28.76.43,1.92-.43,2.96-.87,1.06-1.7,2-.39,2.92-.22.06.27.22.45.22-.06.57-.16,1.14-.26,1.71,0,0-.24,2.03,1.03,3.51.65.74,1.71,1.38,3.46,1.51,1.74.11,4.21-.25,7.6-1.94l.33.08c.93-1.12,1.16-1.91-.52-2.8,2.09-.05.26-.97.93-1.23l.17.03c-1.6-.74,1.34-1.52-.1-2.23.17.02.74.03.77.19-.27-.52-.77-1.21.44-1.3-.34-1.24.05-3.07-1.96-3.66l.34.02c-1.35-.3-.26-.56-.99-.98.15-.05.23-.09.3-.1-1.33-.31-.39-1.38-1.01-1.68l.79-.16-.35-.93-.11.39c-2.2.28,1.25-.98-.32-1.41.12-.73-4.75-.28-3.86-1.12-1.08-.04,1.7-.15.81-.4,1.12-.3.76.03,1.62-.31-.65-.31.94-1.06.04-1.42l.86-.27c-1.78-.27.69-1.76-.96-1.79-.94-.52,2.36-1.39.4-1.61l1.02-.74c.05-.42-1.49.28-1.08-.31.72-.25.39-.71,1.15-.75.73-1.36-2.29-1.09-.99-3.07-1.47.4-.95-.55-2.04-.22.57-.32-.47-1.17,1.1-1.19.13,0,.16.11-.07.22l.82-.33c1.15-1.45-1.46-.74-1.57-1.48-.15.33.06.54-.56.68l-.22-.63.71-.26c-.04-.36-.08-.73-.14-1.09l-.71.6c.14-.65,1.37-1.65-.04-1.41-.74.19-.79,1.06-1.31.79.2-.88.4-2.23.09-3.1-.79.68-.89.48-1.2.42l.7-.57c-1.53.04,1.37-1.5,0-1.59l.54-.33-1.62,1c-1.88.53,1.14-1.55-1.29-.65.34.17-1.4,1.42-1.36.85l.72-.5c-.29-.06-.61.13-.58-.1.44-.21.99-.79.64-.95l.97-.56-1.64.6c.33-1.01-1.07-.78-.35-1.8,0,0-.4-1.2-1.5-.39.73-.46.5-1.11,1.29-1.72-.86.49-1.98.5-1.6-.48l.12-.04c-.36-1.62-2.55-.29-2.73-1.93-.57.88-.72.07-1.38,1.24-1.62.43-.28-3.44-2.81-.17-.54-.07,0-1.14-.12-1.47l.22-.12c-1.01-.19-1.28-.28-1.86-.71-.51.19-1.41,1.85-1.76,1.19.52-.6.23-.58.01-.68.19-.05.35-.28.29-.87-.14.2-.26.3-.37.38.02-.06.03-.1.07-.17-.47.08-.51.32-.39.49-.06.1-.11.24-.15.46.05-1.06-1.04-.4-.56-1.63-1.25-.16-2.49.78-3.54.98.11-.67.51-1.17.87-1.33l-.74.03c.3-.92.56-.41.83-.53-.35-1.74-2.1.96-2.66-.65l-.38.7-.03-.14c-.1.39-.43.88-.6.98.06-.85.45-1.89-.04-1.96-.21-.9-1.18.16-1.74.54.24.18.07.63-.09.91-.23,0-.24-.86-.48-.53l.15-1.13c-.07,1.08-.79,1.05-.94,1.5-.03-.86.46-.67.61-1.29-.99-.04-.49-.04-1.48-.02-.59.81,0,1.08-.34,2.06-.46.19-.91.95-1.36.23l.11,1.02c-.81.75-1.22.66-1.77-.38-1.43,2.08-1.91,3.93-2.07,5.36-.15,1.46-.01,2.61.3,3.47.51,1.76,1.22,2.45,1.22,2.45.73,1.06,1.15.93,1.72.36.56-.49,1.26-1.43,2.23-1.64Z"/>
    </g>
  </g>
</svg>