<?xml version="1.0" encoding="UTF-8"?>
<svg id="Livello_1" data-name="Livello 1" xmlns="http://www.w3.org/2000/svg" width="131.25mm" height="124.92mm" viewBox="0 0 372.05 354.12">
  <defs>
    <style>
      .cls-1 {
        fill: #f9a902;
      }

      .cls-2 {
        fill: #202020;
      }

      .cls-3 {
        fill: #f4c376;
      }
    </style>
  </defs>
  <g>
    <path class="cls-3" d="M24.11,208.68c-.01-.08-.02-.15-.03-.2-.44-.26-.69-.61-1.12-.84l1.15,1.05Z"/>
    <path class="cls-3" d="M340.87,204.82c-1.32-5.11-2.3-10.72-1.59-15.98,1.05-7.76,5.06-14.9,4.18-22.92-.8-7.28-3.73-14.13-7.65-20.26-4.08-6.5-9.37-12.44-14.74-17.39-5.37-4.98-10.89-8.94-15.53-12-.93-.4-1.87-.81-2.81-1.23-.85-.4-1.62-.78-2.34-1.21-1.43-.85-2.65-1.85-3.74-2.94-2.11-2.22-3.6-4.91-4.68-8-2.2-6.14-3-13.88-4.51-21.75-1.46-7.85-3.71-15.81-8.03-21.76-4.18-5.85-11.09-10.19-21.2-9.83.27-2.24-4.57-.05-5.39,1.34-7.9-5.88-17.66-11.74-29.63-16.01,0,0-.66-.24-1.96-.6-1.29-.36-3.11-.87-5.6-1.36-4.91-1.05-11.83-1.88-19.49-1.47-7.65.38-16,2.07-23.57,5.32-1.99.84-3.92,1.8-5.76,2.85-.19-.47-.39-.93-.59-1.37-2.23-3.64-5.06-6.54-8.11-8.79-3.04-2.26-6.31-3.92-9.26-4.91-2.97-1.03-5.67-1.58-7.62-1.88-1.96-.31-3.13-.3-3.13-.3-2.5-.4-4.91-.62-7.22-.67-2.32-.05-4.54.02-6.63.37-2.09.31-4.09.78-5.99,1.36-1.91.58-3.72,1.26-5.45,2.18-3.42,1.78-6.6,3.94-9.31,6.48-2.67,2.56-5.11,5.39-7.31,8.46-2.1,3.1-4.03,6.4-5.9,9.82-1.75,3.47-3.42,7.06-5.17,10.71-1.6,3.7-3.32,7.45-5.13,11.26-.87,1.92-1.79,3.85-2.77,5.78-.99,1.88-2,3.84-3.06,5.86-1.46,1.3-2.9,2.51-4.32,3.65-1.4,1.14-2.72,2.24-4.07,3.27-2.67,2.05-5.3,3.87-7.76,5.62-5.04,3.45-9.66,6.51-14.05,9.94-4.25,3.5-8.29,7.34-11.46,12.61-.81,1.31-1.58,2.7-2.3,4.17-.69,1.5-1.34,3.02-1.94,4.77-1.19,3.41-2.18,7.51-2.82,12.3-3.55,8.45-5.59,18.93-5.89,30.77-.45,16.65.82,31.45,11.48,44.46,8.64,10.53,10.38,21.58,15.09,33.88,4.8,12.53,14.91,22.16,24.71,31.33,1.52,1.43,3.18,2.93,5.25,3.24,2.06.31,4.53-1.2,4.35-3.28.72,8.61,13,12.06,18.72,16.4,3.57,2.71,5.37,6.7,8.76,7.86,3.18,1.09,6.76.3,9.89,1.74,8.66,4,12.88,12.37,23.08,14.83,1.8.44,3.65.74,5.38,1.43,1.33.54,2.57,1.31,3.94,1.75,4.42,1.42,9.12-.78,13.23-2.93,7.91-4.11,18.34-12.19,27.34-13.25,4.14-.49,3.95-4.44,6.46-6.53,5.9,4,8.43,11.99,12.04,17.86,1.7,2.78,3.81,5.48,6.73,6.92,7.67,3.77,19.41-1.24,26.73-3.96,9.11-3.38,17.78-7.91,25.76-13.44,19.32-13.41,27.4-37.19,50.36-46.8,3.02-1.26,6.42-2.47,7.99-5.33,1.4-2.53.93-5.62.88-8.5-.17-8.54,3.78-17.07,10.4-22.46,1.9-1.55,4.07-2.93,5.24-5.1,2.74-5.1-1.26-11.39-2.54-16.36Z"/>
    <path class="cls-3" d="M148.72,188.06c-.04.05-.08.1-.12.15-.07.07-.15.12-.24.15-.09.05-.19.07-.29.06-.1,0-.2-.02-.29-.06-.08-.03-.15-.08-.21-.14.03.02.06.05.09.07-.07-.05-.16-.08-.23-.13-.11-.07-.2-.16-.27-.27-.03-.06-.05-.12-.08-.18-.04-.13-.04-.26,0-.4.03-.06.05-.12.08-.18.05-.09.11-.16.19-.21.07-.07.16-.11.25-.13.1-.03.2-.04.3-.01.1,0,.19.03.28.09.04.03.09.05.13.07.02.01.05.02.07.04,0,0,.01,0,.02.01.06.04.11.08.16.13.01,0,.02.02.03.03.09.09.16.2.19.33,0,.07.02.13.03.2,0,.13-.03.26-.1.38Z"/>
  </g>
  <g>
    <path class="cls-1" d="M158.56,149.43c9,14.74,29.36,21.3,45.27,14.58,4.17-1.76,8.07-4.37,10.79-7.99,5.45-7.27,5.3-17.16,4.91-26.23-.21-4.96-.45-10.02-2.25-14.64-3.58-9.16-13.01-15.15-22.74-16.63-29.63-4.54-52.63,23.65-35.97,50.93Z"/>
    <g>
      <path class="cls-2" d="M184.33,161.63l.42.44c.02-.16-.08-.32-.42-.44Z"/>
      <path class="cls-2" d="M165.71,111.49s-.03.09-.03.13c.04-.08.04-.11.03-.13Z"/>
      <path class="cls-2" d="M207.74,170.47s-.02.01-.03.02c-.04.06-.09.1-.12.15l.16-.17Z"/>
      <path class="cls-2" d="M174.77,170.32c1.98.91,3.66,1.46,5.15,2.1,1.51.52,2.85,1.03,4.24,1.42,1.4.31,2.82.73,4.5.8.84.05,1.74.08,2.72.08.98-.06,2.05-.19,3.21-.35,4.5-.27,9.18-1.93,13.12-3.88.68-1.02,1.95-1.64,3.26-2.38,1.31-.73,2.66-1.59,3.34-2.8l1.23-.05c.46-.86,1.06-1.73,1.99-2.1l.11.19c.58-1.34,1.83-2.31,2.02-3.04l.13.18c.33-.46.61-.95.9-1.42l.09.41c.92-2.31,1.95-4.45,2.94-6.3l-.88-.16c1.27-1.86,1.41-3.36,1.57-4.73.11-1.38.19-2.66.99-4.38l.21.07c-.87-2.41-.42-4.05.05-5.8.46-1.73.86-3.48-.3-5.6.29.53.45-.24.66-.21-.31-1.98-.54-4.01-2.27-3.96-.04-1.41.48-1.19,1.14-1.41-.76.05-1.14-1.18-1.27-2.32l.33.5c-.17-1.09-.35-2.19-.57-3.3l-1.35.82c.2-1.79,1.69-.66,1.1-2.33l-1.17.21c-.18-2.45,1.26-4.33,1.13-7.27-.92-2.77-2.49-5.38-4.43-7.55-1.94-2.19-4.2-3.98-6.54-5.46-4.71-2.96-9.53-4.77-14.15-6.87l-.24-.98c.04-.66-.77-.32-1.56.04-.81.34-1.56.79-1.66.16l-1.18.46c-.28-.27-.93-.59-.34-.82-1.03-.18-1.09.07-1.86.41l-1.08-.87c-2.08-.39-4.04-.11-5.97.35-1.93.45-3.82,1.06-5.98,1.4-2.75-.21-6.55.96-9.9,3.03-3.38,2.04-6.22,4.9-8,7.14-2.25,3.38-5.51,6.07-8.34,9.65-2.77,3.51-4.97,7.98-4.43,12.39-.24.25.11,1.01.26,1.02-.34,2.55-.37,5.12-.2,7.68,0,0,.04.58.2,1.53.08.47.17,1.04.28,1.68.15.63.33,1.31.53,2.04.83,2.9,2.35,6.31,4.17,8.45,1.79,2.17,3.57,3.2,4.58,2.06.52-.57.89-1.68,1.1-3.39.24-1.71.39-4.07.8-6.99l.31.04c-.34-3.17-.4-4.9-2.05-6.88.86-.25.86-.85.71-1.51-.09-.65-.34-1.38-.06-1.72l.14.07c-.63-.93-.29-1.9.14-2.77.43-.89.89-1.68.53-2.67.12.1.58.25.51.64.02-1.27.26-3.04,1.22-2.78.42-1.41,1.14-3.03,1.93-4.48.73-1.49,1.44-2.85,1.45-4.15l.13.29c-.12-1.6.85-1.21,1.33-2.54.15.05.26.03.29.08.16-1.68,2.64-2.62,3.24-3.53l.45.51c.64-.55,1.33-1.02,2.03-1.51l-.89.37c-.36-.87.23-.89.99-.92.78-.01,1.73.01,2.29-.95.85-.22,1.23-1.52,1.82-2.64.56-1.15,1.27-2.25,2.35-2.07.66-1.1-.4,1.59.75.56.29.93-.44.76.09,1.41.56-.42,1.15-.3,1.75-.19.61.11,1.21.13,1.95-.28l.19.74c.9-.84,1.92-.73,2.81-.52.9.16,1.68.42,2.35-.24,1.06-.34,1.42.24,1.76.72.35.48.67.83,1.81.16l.73,1.12c.87.28.82-1.18,1.75-.54-.16.63,1.12.73.45,1.23.95.67,2.05.59,3.27.69,1.19.09,2.52.4,3.4,1.79,1.12-.87,2.01.5,2.9-.07-.2.5,2.33,1.68.35,1.76-.17,0-.35-.14-.22-.3l-.56.52c.27.99.86,1.23,1.63,1.37.71.17,1.59.24,2.03.86-.14-.49-.62-.86.02-.96l.94,1.07-.66.23c.37.59.75,1.15,1.04,1.75l.44-.7c.15.53,0,1.04.01,1.45-.02.42.11.72.87.88.8.12.38-1.33,1.16-.57.25,1.48.25,3.45.42,5.17.8-.37.9.08,1.17.55l-.73.22c1.4,1.73-1.49.95-.38,2.76l-.55-.11,1.63.34c1.69,1.78-1.45,1.12.75,3.18-.18-.88,1.64-.54,1.38.61l-.75-.24c.19.61.5.8.37,1.23-.41-.36-1.07-.15-.9.77l-.94-.58,1.42,1.71c-.72,1.4.32,3.49-.7,4.05,0,0-.11.71-.1,1.48.02.78.16,1.61.72,1.94-.69-.56-.99.93-1.8.47.77.7,1.31,2.8.36,3.47l-.08-.15c-.56,1.38-.48,2.53-.44,3.68.01,1.11-.03,2.24-.94,3.06.86.23-.03,1.14,1.1,1.32,0,1.34-1.06,2.05-1.78,2.55-.7.56-1.08.99-.11,2.51-.66.97-1.53.38-2.06.62l.08-.31c-1.38,1.56-1.95,1.94-3.38,2.71-.54.69.09,2.2-1.52,2.54.19-.8-.34-.41-.87-.18.31-.25.31-.49-.55-.6-.02.22-.13.39-.24.53-.02-.04-.07-.07-.08-.14-.81.53-.6.67-.14.6.01.1.09.2.29.32-.63-.21-1.28.04-1.84.23-.56.19-1.06.21-1.26-.29-.68.23-1.29.53-1.88.82-.61.24-1.18.52-1.75.8-1.13.61-2.29.95-3.55,1.3-.3-.55.28-1.09.97-1.36-.57.1-1.15.24-1.74.27,0-.41.25-.52.57-.55.31-.06.69-.04.95-.14-1.04-.54-2.06-.31-3.18.03-1.11.32-2.34.48-3.46-.23l-.6.54-.13-.13c-.05.34-.68.69-1.07.73-.21-.76.34-1.6-.85-1.78-.73-.95-2.69-.3-4.01-.45.6.35.27.65-.09.78-.6-.2-.68-.98-1.24-.86l.3-.91c-.12.96-1.85.28-2.21.52-.02-.79,1.13-.15,1.47-.58-2.22-.98-1.16-.39-3.33-1.49-1.5-.02-.23.91-1.2,1.33-.56-.23-1.21-.31-1.79-.56-.58-.25-1.13-.61-1.54-1.24l-.12.94c-1.17-.36-1.98-.88-2.6-1.46-.62-.57-1.05-1.23-1.29-2.11-2.18-.84-3.84-1.72-5.31-2.32-1.37-.67-2.47-1.13-3.35-1.34-1.74-.44-2.46.17-2.78,1.11-.22,1.02.16,2.54.62,3.81.49,1.24,1.1,2.17,1.1,2.17,1,2.03,2.32,3.47,3.6,4.78,1.4,1.16,2.76,2.24,4.36,2.99.79.4,1.58.79,2.42,1.17.85.32,1.74.66,2.67,1.01.91.38,1.92.64,2.95.99.52.17,1.05.35,1.6.54.56.16,1.13.32,1.73.49Z"/>
    </g>
  </g>
  <g>
    <path class="cls-1" d="M261.09,251.18c-10.46-20.47-22.87-42.72-44.57-50.29-7.33-2.56-15.18-3.19-22.94-3.67-11.58-.73-23.4-1.16-34.57,1.94-21.64,6.02-38.56,26.23-40.69,48.59"/>
    <g>
      <path class="cls-2" d="M243.69,229.65l.02-.59c-.13.1-.18.28-.02.59Z"/>
      <path class="cls-2" d="M139.09,215.77s-.03.09-.02.13c.04-.07.04-.11.02-.13Z"/>
      <path class="cls-2" d="M240.04,206.85l.02.02c.06,0,.11.03.16.03l-.19-.05Z"/>
      <path class="cls-2" d="M256.21,228.8c-1.67-3.06-2.46-5.2-3.47-7.29-.48-1.05-1.03-2.08-1.8-3.19-.75-1.11-1.67-2.32-3.02-3.66-.55-.71-1.12-1.42-1.74-2.11-.64-.67-1.31-1.34-1.98-1.99-1.3-1.33-2.81-2.5-4.15-3.68-1.03-.14-1.94-.87-2.85-1.69-.91-.8-1.83-1.67-3-1.82l-.2-1.05c-.79-.12-1.59-.4-1.93-1.14l.16-.15c-1.16-.17-2.02-1.02-2.6-1.08l.15-.16-1.14-.59.34-.14c-1.83-.52-3.59-1.23-4.96-2.26l-.26.86c-1.36-1.26-2.65-1.43-3.78-1.71-1.15-.27-2.24-.51-3.61-1.52l.1-.19c-2.27.53-3.65-.21-5.11-.94-1.45-.73-2.98-1.44-5.1-.63.53-.2-.15-.48-.08-.69-1.86,0-3.78-.07-3.98,1.65-1.28-.16-.99-.65-1.1-1.33-.06.76-1.21.96-2.2.93l.48-.25-2.86.04.45,1.47c-1.46-.52-.26-1.77-1.71-1.52l-.06,1.19c-2.04-.37-3.13-2.24-5.1-3.22-4.18-.47-8.63,0-13.02.53-4.4.52-8.66,1.13-12.91.78l-.52-.81c-.41-1.25-1.91,2.31-2.45,1.22l-.82.79c-.32-.17-.94-.28-.53-.68-.89.17-.87.39-1.4.93l-1.15-.54c-1.82.27-3.39.96-4.88,1.82-1.46.94-2.96,1.77-4.69,2.5-1.18.16-2.56.55-3.92,1.26-1.33.74-2.76,1.61-4.04,2.68-2.6,2.12-4.8,4.72-6.29,6.66-1.79,3.03-4.88,5-7.75,7.51-2.94,2.4-5.61,5.35-6.35,8.98-.28.11-.2.83-.05.9-.97,1.91-2.03,3.79-2.81,5.8,0,0-.18.46-.47,1.21-.31.75-.64,1.83-.94,3.09-.7,2.47-1.1,5.67-.89,8.13.27,2.49,1.01,4.17,2.53,3.92.76-.12,1.71-.71,2.9-1.83.6-.55,1.21-1.25,1.97-2.05.78-.8,1.63-1.72,2.55-2.76l.25.2c1.44-2.65,2.12-4.23,1.58-6.65.87.18,1.12-.36,1.27-1,.19-.62.26-1.36.66-1.54l.1.12c-.2-1.08.39-1.84,1.13-2.48.72-.65,1.43-1.26,1.34-2.32.09.13.48.41.31.77.37-1.21,1.1-2.81,1.96-2.33.66-1.33,1.82-2.67,2.73-4.04.93-1.36,1.77-2.61,1.81-3.91l.12.29c-.05-1.58.9-1.11,1.38-2.38.14.05.25.04.28.09.09-1.68,2.53-2.47,2.98-3.45l.47.49c.56-.57,1.19-1.07,1.81-1.57l-.82.41c-.84-1.68,2.15-.13,2.89-2.09.76-.32.95-1.57,1.24-2.78.27-1.23.69-2.35,1.71-2.35.36-1.16,0,1.59.81.43.48.85-.24.8.4,1.35.89-.94,2.15-.06,3.25-1.17l.35.67c.6-.99,1.54-1.12,2.38-1.19.87,0,1.63.02,2.03-.8,1.7-1.21,1.83,1.74,3.41-.19l1,.82c.87-.02.33-1.36,1.38-1.07.07.64,1.29.29.85.99,2.24.61,4.16-2.13,7.24-.66.54-1.29,2.06-.65,2.5-1.6.1.53,3-.02,1.36,1.22-.14.1-.39.1-.38-.12l-.17.75c1.7,1.34,3.02-.85,4.72-.64-.5-.24-1.16-.18-.72-.69l1.57.11-.33.62,2.34.41-.31-.78c1.15.43,1.5,1.75,2.85.7.62-.59-1.06-1.08.18-1.28,1.54.58,3.84,1.5,5.84,1.86-.14-.88.4-.82.97-.96l.02.76c2.2-.91.68,1.71,2.84,1.02l-.22.51.66-1.54c2-1.35.89,1.64,3.13-.23-.83.05-.24-1.7.74-1.28l-.32.7c.57-.1.79-.39,1.14-.2-.37.36-.28,1.04.54,1l-.63.85,1.66-1.17c1.08.9,3.03.2,3.34,1.29,0,0,.58.22,1.26.33.67.11,1.43.09,1.81-.39-.61.59.62,1.12.08,1.85.76-.66,2.7-.84,3.15.18l-.15.05c1.13.78,2.24.83,3.33,1,1.08.18,2.21.24,3.02,1.28.28-.84,1.19.16,1.41-.99,1.38.07,2.15,1.09,2.78,1.86.66.74,1.28,1.09,2.64-.11,1.09.5.67,1.49,1.06,1.97l-.33-.02c.96.53,1.58.88,2.11,1.23.51.39.93.77,1.53,1.33.83.28,2.04-.88,2.88.45-.78.13-.26.47.14.86-.33-.18-.56-.08-.34.74.21-.07.41-.05.59-.02-.03.04-.04.09-.1.13.83.49.85.23.6-.13.08-.06.15-.17.17-.39.06.64.56,1.1.95,1.51.38.43.65.82.29,1.24,2.11,1.86,4.26,2.73,6.13,4.35-.28.56-1.01.42-1.63.03.42.38.82.79,1.21,1.21-.66.49-.95-.5-1.41-.79.13,1.17.97,1.82,1.91,2.47.93.65,1.89,1.37,2.06,2.71l.81.04v.18c.27-.2.96-.02,1.25.21-.4.68-1.36.89-.67,1.85-.07,1.16,1.72,2.05,2.72,2.89-.26-.62.19-.65.56-.54.34.49-.09,1.17.41,1.4l-.79.55c.65-.67,1.64.83,2.09.82-.43.66-1-.48-1.54-.34,1.3,2.01.68.98,1.95,3.03,1.26.76.67-.66,1.7-.54.72.9,1.88,1.54,2,2.98l.54-.78c1.61,1.58,2.16,2.77,2.08,4.46,6.82,5.54,9.3,5.29,10.1,3.55.79-1.73-.13-4.91-.13-4.91-1.37-6.64-5.15-8.52-9.79-14.9Z"/>
    </g>
  </g>
  <g>
    <path class="cls-2" d="M143.14,105.56l.17.66c.11-.12.1-.33-.17-.66Z"/>
    <path class="cls-2" d="M244.93,211.36c.05.02.1.04.15.05-.09-.05-.12-.06-.15-.05Z"/>
    <path class="cls-2" d="M150.91,129.79l-.02-.02c-.06,0-.11-.04-.17-.04l.19.06Z"/>
    <path class="cls-2" d="M130.48,108.54c5.27,5.69,5.57,8.31,11.79,13.41,2.64,2.77,5.81,5.35,8.62,7.82,2.17.32,3.51,3.42,5.76,4.13l.07,1.09c.77.25,1.55.67,1.79,1.46l-.18.12c1.16.37,1.79,1.46,2.36,1.64l-.18.12,1,.86-.37.06c1.75.91,3.16,2.25,4.17,3.65l.52-.73c1.88,3.28,4.12,2.94,5.63,6.1l-.18.12c4.61,1.3,3.5,5.8,8.09,7.3-.57-.19-.16.48-.35.6,1.57,1.23,3.14,2.65,4.4,1.46,1,1.04.44,1.22.09,1.82.54-.54,1.64.14,2.45.92l-.57-.17,2.43,2.14.59-1.45c.9,1.52-.95,1.53.44,2.47l.84-.84c1.48,1.86,1.15,4.11,2.11,6.36,3.11,3.6,6.95,6.75,10.61,9.97,3.63,3.24,7.05,6.58,9.3,10.52l-.39.89c-.84,1.01,3.06.49,2.4,1.56l1.13.36c.02.37.25.99-.31.81.6.74.78.61,1.53.85l.09,1.3c2.06,3.19,5.38,4.49,7.76,7.66.96,2.32,3.21,4.89,5.73,7.29,2.49,2.42,5.25,4.68,7.27,6.33,3.13,2.08,5.04,5.6,6.99,9.1,1.95,3.5,3.95,6.97,7.14,9.13.01.3.73.52.84.42l4.17,5.34s1.3,1.59,3.07,3.62c1.78,2.02,4.08,4.44,6.15,6.04,4.14,3.19,7.44,3.19,3.76-10l.33-.05c-1.81-3.35-3.17-5.29-5.93-6.36,1.09-1.43-1.82-2.48-1.94-3.52l.16-.03c-2.49-.9-2.13-4.34-4.46-5.27.16-.02.56-.3.91.08-1.18-1.1-2.92-2.51-2.21-3.26-2.68-2.75-5.79-7.14-8.61-7.95l.32-.06c-1.75-.34-1.31-1.26-2.76-2.08.04-.15.02-.28.08-.3-1.82-.44-3.04-3.24-4.2-3.86l.46-.51-2.11-2.18.63.95c-1.66.94-.62-2.51-2.99-3.35-1.2-1.69-5.67-.54-6.4-2.74-1.33-.18,1.65-.27.14-.96.69-.68.93.12,1.24-.68-1.34-.81-.89-2.49-2.61-3.43l.51-.56c-2.62-.88-2.31-4.03-4.36-4.33-2.13-1.41.54-2.74-2.3-3.65l.08-1.43c-.62-.93-1.46.26-1.92-.98.53-.38-.67-1.49.27-1.38-1.14-2.74-4.89-3.16-6.13-7-1.46.27-2.17-1.58-3.26-1.37.33-.45-2.45-2.76-.18-2.06.19.06.39.31.22.44l.71-.33c-.4-2.5-3.17-2.22-4.43-3.87.24.61.85,1.16.11,1.11l-1.25-1.46.73-.14-1.7-2.32-.29.82c-.67-1.29-.06-2.55-1.94-2.94-.93-.09.16,1.68-1.03.78-.9-1.72-2.27-4.29-3.77-6.16-.47.77-.9.28-1.48-.07l.49-.58c-2.52-1.09.55-1.82-1.8-3.05l.53-.21-1.6.63c-2.65-.58.27-1.97-2.94-2.35.78.62-.87,1.5-1.48.39l.74-.29c-.58-.38-.96-.32-1.17-.75.56.01.91-.59.12-1.21l1.12-.16-2.28-.4c-.46-1.59-2.78-2.54-2.46-3.69,0,0-1.84-2.58-3.14-2.3.94-.04-.08-1.46.85-1.69-1.13-.02-3.28-1.26-3.36-2.54l.2.06c-1.89-3.12-5.12-3.45-6.62-6.44-.52.72-1.37-.8-1.87.29-3.11-1.54-2.65-5.84-5.93-4.21-1.19-.92-.69-1.82-1.11-2.49l.38.12c-2.19-1.77-2.79-2.32-4.21-3.84-.98-.49-2.22.55-3.28-1.03.88-.04.25-.48-.24-.97.39.24.65.17.3-.78-.23.05-.46,0-.66-.06.03-.04.03-.09.09-.13-.99-.65-.98-.37-.66.07-.09.05-.14.17-.15.42-.28-1.43-2.44-2.31-1.77-3.2-2.67-2.26-5.25-3.2-7.63-4.91.16-.63,1-.52,1.76-.09l-1.62-1.29c.58-.57,1.18.49,1.74.82-.84-2.65-4.54-2.58-5.76-5.45l-.88.05-.05-.2c-.23.25-1.02.13-1.4-.08.2-.79,1.16-1.15.11-2.12-.33-1.28-2.54-1.98-3.86-2.73.49.64.03.74-.39.68-.53-.48-.33-1.27-.94-1.43l.62-.74c-.43.84-2.01-.59-2.48-.49.2-.79,1.22.33,1.72.07-2.11-1.92-1.06-.96-3.17-2.88-1.6-.54-.43.84-1.54.94-1.1-.8-2.5-1.23-3.21-2.72l-.24.95c-2.28-1.28-3.3-2.4-3.92-4.2-18.34-8.06-9.42,4.06-9.42,4.06,4.02,6.49,8.49,7.35,15.28,13Z"/>
  </g>
</svg>