<?xml version="1.0" encoding="UTF-8"?>
<svg id="Livello_1" data-name="Livello 1" xmlns="http://www.w3.org/2000/svg" width="131.25mm" height="124.92mm" viewBox="0 0 372.05 354.12">
  <defs>
    <style>
      .cls-1 {
        fill: #202020;
      }

      .cls-2 {
        fill: #e6076c;
      }
    </style>
  </defs>
  <g>
    <path class="cls-2" d="M109.86,115.02c-16.25,25.55-26.2,63.84-17.05,93.36,11.44,36.93,48.22,61.74,86.32,64.43,37.24,2.64,74.19-21.17,91.93-53.15,17.75-32,11.63-78.23-12.63-104.04-31.68-33.71-80.42-51.3-126.01-23.57-9.28,5.67-16.67,13.71-22.56,22.96Z"/>
    <g>
      <path class="cls-1" d="M97.48,196.49l-.31,1.49c.26-.07.42-.46.31-1.49Z"/>
      <path class="cls-1" d="M218.45,95.07c-.12,0-.25-.04-.37-.03.24.06.33.06.37.03Z"/>
      <path class="cls-1" d="M112.25,258.14s-.05-.04-.07-.06c-.15-.05-.3-.15-.43-.19l.5.26Z"/>
      <path class="cls-1" d="M78.83,178.22c-.75,11.43-.74,18.97.24,26.72.6,3.87,1.37,7.83,2.89,12.05.36,1.07.73,2.18,1.16,3.31.51,1.1,1.03,2.24,1.58,3.43.58,1.18,1.18,2.4,1.8,3.69.7,1.24,1.5,2.5,2.33,3.82,5.69,10.49,14.49,19.8,23.34,26.85,2.78.87,5.59,3.22,8.71,5.4,1.56,1.08,3.15,2.18,4.73,3.13,1.61.9,3.26,1.57,4.82,1.98l1.53,2.24c2.19.52,4.65,1.19,6.32,2.74l-.27.25c3.26.63,6.48,2.32,8.11,2.55l-.25.27c1.22.47,2.48.82,3.73,1.18l-.8.25c5.64.94,11.16,2.38,16.1,3.75l-.14-1.48c2.58.84,4.8,1.45,6.83,1.65,2.04.2,3.87.23,5.65.26,1.77.08,3.6-.14,5.53-.03.97.03,1.99.1,3.07.23,1.08.11,2.23.16,3.49.34l-.12.35c1.56-.56,3.01-.97,4.41-1.25,1.39-.34,2.71-.63,4.02-.8,1.3-.18,2.57-.28,3.84-.33,1.25-.12,2.49-.23,3.74-.35,1.25-.11,2.51-.22,3.79-.37,1.26-.2,2.52-.51,3.82-.88,1.29-.38,2.61-.83,3.93-1.44,1.29-.68,2.61-1.5,3.92-2.49-1.32.99.9.44.92.81,5.35-2.54,10.8-5.63,9.51-8.2,3.65-1.97,3.39-.87,4.42-.19-.33-.54.27-1.32,1.23-2.27.95-.96,2.31-2,3.65-2.91l-1,1.21c2.58-1.74,4.99-3.7,7.38-5.67l-2.85-.79c4.25-2.38,2.8,1.63,6.06-1.81l-1.27-1.46c2.69-1.99,5.27-3.08,7.81-4.28,1.29-.58,2.62-1.14,3.99-1.79,1.31-.71,2.66-1.52,4.07-2.52,2.52-2.45,4.63-5.33,6.85-8.11,1.98-2.98,4.1-5.89,5.75-9.12.85-1.61,1.78-3.11,2.52-4.83l2.22-5.1c.76-1.69,1.21-3.47,1.82-5.2.58-1.74,1.17-3.46,1.54-5.23.43-1.75.85-3.5,1.28-5.25.3-1.76.61-3.51.91-5.25.35-1.74.56-3.48.73-5.21.2-1.73.4-3.45.6-5.16.16-3.43.61-6.82.64-10.17.09-1.68.17-3.35.26-5.01,0-1.65.04-3.3.11-4.95l1.34-1.31c1.06-.37.08-2.12-1.05-3.85-1.09-1.74-2.21-3.47-1.32-4.14-.45-.95-1.04-1.86-1.57-2.77.18-.9.16-2.76.97-1.38-.57-2.77-.89-2.77-2.03-4.55l.37-3.26c-.29-1.38-.64-2.72-1.02-4.02-.45-1.29-.97-2.53-1.49-3.76-.53-1.23-1.08-2.43-1.66-3.62l-2.01-3.45c-.69-1.14-1.33-2.29-2.07-3.42-.76-1.11-1.53-2.24-2.3-3.37-1.44-2.33-3.18-4.58-4.81-7.09-.72-1.7-1.86-3.38-3.13-5.15-.64-.89-1.32-1.8-2.04-2.72-.72-.87-1.49-1.66-2.28-2.51-1.6-1.66-3.25-3.42-5.1-5.04-1.88-1.6-3.83-3.2-5.8-4.77-8.1-6.1-17.32-10.8-24.22-13.62-9.98-3.38-19.95-8.53-31.26-11.85-11.15-3.36-23.72-4.53-34.42-.77-.77-.15-2.47.88-2.41,1.12-1.65.33-3.32.58-4.96.98l-4.84,1.41c-1.61.5-3.25.91-4.82,1.49l-4.66,1.89s-1.4.6-3.72,1.59c-2.26,1.1-5.28,2.88-8.72,4.85-3.51,2.05-7.3,5.03-10.52,8.19-3.26,3.19-6.02,6.69-8.04,9.92-4.03,6.5-5.16,11.68-2.53,11.9,1.35.16,3.62-.92,7.32-3.1,3.68-2.13,8.83-5.49,16.03-8.43l-.03.6c1.88-1.16,3.63-2.09,5.22-2.93,1.62-.83,3.32-1.59,4.75-2.45,1.47-.82,2.77-1.8,4.07-2.72,1.33-.87,2.58-1.85,3.83-3.02,1.03,1.17,2.71.35,4.58-.39,1.86-.74,3.82-1.78,4.96-1.66l-.13.28c.59-.47,1.21-.85,1.86-1.17.66-.24,1.35-.41,2.06-.53,1.4-.24,2.85-.3,4.27-.34,1.42-.11,2.85.04,4.22-.02,1.38-.07,2.71-.32,4-.95-.19.25-.25,1.04-1.45,1.21.95-.17,1.98-.44,3.01-.55,1.04-.08,2.07-.14,2.98-.14,1.84,0,3.22.25,3.33,1.08,2.28-.06,4.78.28,7.34.44,2.56.26,5.15.88,7.68,1.2,2.51.47,4.9,1.08,7.12,1.35,2.22.29,4.15.7,5.83.57l-.55.28c1.93-.22,3.04.08,4.11.58,1.06.55,2.1,1.21,4.07,1.63.1.29.3.5.22.57,1.04.03,2.25.24,3.42.77,1.17.52,2.38,1.2,3.55,1.89,1.16.71,2.32,1.36,3.32,2.02.99.67,1.89,1.2,2.65,1.48l-.44,1.03,3.26,2c1.08.68,2.09,1.47,3.14,2.2l-2.14-1.94c1.28-.93,2.18.36,3.42,2.08.62.86,1.33,1.82,2.23,2.69.88.9,1.9,1.76,3.28,2.3.92.93,2.14,1.54,3.51,2.01,1.37.48,2.81.94,4.29,1.38,2.96.89,5.94,2.01,7.12,4.67,2.8,1.09-3.26-.26.12,2-1.15,1.09-1.93-.73-2.26.82,1.54,1.13,2.11,2.64,2.73,4.19.63,1.55,1.43,3.05,2.98,4.79l-.96.8c1.21.99,2.15,2.12,2.79,3.36.6,1.27,1,2.57,1.37,3.8.4,1.22.69,2.41,1.05,3.5.39,1.07.93,2,1.8,2.74,1.6,2.71.89,4.06.55,5.26-.42,1.24-.52,2.34,1.31,5.16l-1.06,2.76c.36,2.64,2.36,1.51,2.09,4.61-1.07,0-.22,3.85-1.49,2.26-.12,1.7-.14,3.38.14,5.08.31,1.7.59,3.44.83,5.26.27,1.82.5,3.73.29,5.72-.16,1.98-.47,4.07-1.51,6.12.89,1.05.9,2.67.84,4.2-.17,1.51-.39,2.95.21,3.82-.49.01-.85,2.23-1.53,3.65-.6,1.46-1.14,2.22-1.38-.37-.03-.44.2-1.14.53-1l-1.03-.85c-1.77,2.04-2.03,4.17-2.18,6.42-.32,2.15-.2,4.6-1.44,6.65,1.06-1.05,1.54-2.94,1.88-1.41-.59,1.39-1.4,2.65-2.08,3.98l-.5-1.28-1.72,2.8-2.01,2.76,1.57-.16c-1.16,1.27-2.29,1.89-3.28,2.65-1.01.75-1.77,1.69-2.12,3.76-.19,2.01,3.22-1.65,1.48,1.53-1.68,1.61-3.93,3.47-6.19,5.44-2.33,1.9-4.77,3.89-7.01,5.71,1.37.65.21,1.69-.76,3.02l-.96-.78c-3.59,5.21-3.38-.53-7.23,4.19l-.1-.99.28,2.99c-3.04,5.3-3.79-.39-7.07,5.74,1.91-1.52,2.45,1.74-.49,2.82l.07-1.39c-1.33,1.02-1.58,1.72-2.68,2.05.56-1.04-.38-1.77-2.4-.42l.71-2.09c-.96,1.39-1.96,2.76-3.05,4.02-3.67.47-8.32,3.85-10.23,2.81,0,0-1.85.34-3.82.96-1.96.7-4.12,1.37-4.77,2.46,1.2-1.43-2.87-.97-2-2.54-.39.41-1.01.9-1.78,1.29-.77.37-1.67.7-2.61.96s-1.89.44-2.76.49c-.87.02-1.66-.16-2.24-.47l.41-.18c-4.14-.35-7.51,0-10.96.27-1.75.03-3.49.05-5.26-.08-1.76-.17-3.52-.68-5.3-1.4.03.73-.91.73-1.78.79-.86,0-1.67.06-1.38,1.08-2.05-.07-3.95-.51-5.64-1.17-1.67-.74-3.16-1.58-4.52-2.26-2.71-1.4-4.82-2.36-7.34-.28-3.56-1.26-3.44-3.11-5.02-4.17l.92.12c-6.32-2.75-8.05-3.87-12.2-6.84-2.42-.98-4.26.74-7.61-2.62,1.86.13.21-.87-1.04-2.08.93.63,1.42.55.22-1.48-.45.03-.95-.16-1.4-.34.04-.07.02-.18.13-.23-2.38-1.66-2.25-1.1-1.35-.09-.16.07-.22.29-.1.79-.71-1.46-2.12-2.99-3.32-4.29-1.18-1.31-2.14-2.38-1.54-3.13-5.91-6.17-10.65-10.55-14.51-16.88.5-1.14,1.93.07,3.14,1.78l-2.44-4.46c1.24-.49,1.92,2.32,2.8,3.62-.25-3.21-2.15-5.64-3.64-8.53-1.69-2.81-3.13-5.91-2.87-9.55l-1.29-1.24.09-.45c-.52.12-1.62-1.33-1.91-2.38,1.03-1.17,2.65-.3,2.19-3.75.79-2.81-1.02-7.81-1.5-11.6-.23,2-.86,1.35-1.25.46-.04-1.83,1.24-2.8.84-4.23l1.57-.06c-1.54.61-1.23-4.83-1.69-5.59,1.29-.89.58,2.92,1.49,3.45.29-3.59.46-4.49.53-5.39.08-.9.2-1.8.79-5.38-.47-4.06-1.57.42-2.58-1.68.42-3.47.12-7.13,2.16-10.77l-1.67.87c.73-6.75,2.38-10.55,5.27-14.22,2.08-12.55,3.89-19.88,4.01-23.9.14-4.02-1.31-4.57-3.33-3.7-2.01,1.04-4.81,3.75-6.77,6.35-1.01,1.29-1.92,2.5-2.52,3.42-.58.93-.95,1.5-.95,1.5-6.14,9.17-8.75,17.22-10.42,25.86-1.59,8.69-2.36,18.01-2.6,31Z"/>
    </g>
  </g>
  <g>
    <path class="cls-1" d="M154.75,202.56l-.21.58c.17-.2.28-.41.21-.58Z"/>
    <path class="cls-1" d="M204.65,208.82s0-.08-.01-.14c-.01.06,0,.1.01.14Z"/>
    <path class="cls-1" d="M151.51,224.03h-.01c-.06.03-.09.04-.14.08l.15-.08Z"/>
  </g>
  <g>
    <path class="cls-1" d="M155.23,136.92l-.58.06c.27,0,.49,0,.58-.06Z"/>
    <path class="cls-1" d="M154.97,155.23s.07.01.13.02c-.05-.01-.09-.02-.13-.02Z"/>
    <path class="cls-1" d="M135.78,139.23s0,0,0,0c-.06,0-.09-.02-.14-.02l.14.03Z"/>
    <path class="cls-1" d="M137.44,135.58c-.72.95-3.41,1.14-2.35,2.17-.23.47.37,1,.69,1.48,2.08.28.01.61,1.76.92l-1.19.07c.6.11,1,.22.36.3h-.34c.89.14.35.28.8.36h-.35s.15.15.15.15l-.49-.04c.95.26,1,.5.56.71l1.44.02c-1.62.42,1.35.66-.56,1.03h-.35c3.77.61-2.6.74.98,1.38-.45-.08-.74,0-1.09,0,.4.26.61.53,3.43.61-.04.18-.89.12-1.97.12,1.24.03,1.74.2,1.82.34l-.48-.08.41.41,2.33-.02c-.68.2-2.84-.02-2.29.2l1.93.05c-.39.29-3.32.39-4.75.64-.86,1.17,4.04,2.58.61,3.6h-1.45c-2.12-.02,3.13.4,1.17.39l.96.15c-.38.03-.79.09-1.26.02-.09.12.26.13.9.23l-1.32.09c-1.04.44,1.5.91.97,1.39-2.71.53-.26,1.71,1.16,2.39,3.14.99-5.32,1.83-1.72,2.85-.3.02.37.12.62.12l-.32.84s-.92,4.1,16.73,1.42l.46.03c1.14-.44,1.39-.72-.93-1.1,2.85.02.3-.37,1.23-.46l.23.02c-2.18-.34,1.84-.54-.12-.86.23.02,1.01.04,1.05.11-.35-.21-.98-.5.68-.47-.42-.49.36-1.13-2.28-1.51l.46.03c-1.78-.22-.26-.23-1.16-.45.22,0,.33-.02.42-.01-1.76-.23-.26-.56-1.01-.73l1.1.02-.25-.38-.24.14c-3.03-.13,1.91-.24-.05-.56.39-.25-6.28-.68-4.79-.91-1.41-.16,2.3.17,1.21-.05,1.58.03.99.11,2.25.1-.74-.21,1.62-.26.56-.52l1.23.02c-2.24-.36,1.63-.52-.51-.78-1.01-.34,3.66-.11,1.26-.5l1.67-.08c.27-.13-2.04-.15-1.23-.28,1.05.04.84-.17,1.83-.06,1.65-.3-2.31-.76.47-1.14-2.04-.15-.82-.35-2.35-.46.89.01.16-.46,2.08-.15.16.03.13.06-.22.05l1.21.06c2.29-.2-1.24-.5-.88-.75-.4.07-.3.17-1.13.08l.17-.23,1.02.08.6-.34-1.26.02c.65-.16,2.8-.16,1.01-.41-.99-.11-1.7.12-2.09-.07.86-.21,2.17-.53,2.55-.81-1.42,0-1.36-.09-1.65-.18l1.23.02c-1.7-.36,2.71-.05,1.36-.39l.86.05-2.57-.15c-2.43-.35,2.56-.09-.77-.49.21.13-2.71-.01-2.18-.15l1.19.07c-.25-.09-.75-.13-.5-.18.64.07,1.73.07,1.53-.06l1.48.12-2.18-.29c1.28-.15-.31-.48,1.36-.51,0,0,.83-.37-1-.5,1.14.11,1.58-.1,2.91,0-1.29-.13-2.34-.46-.96-.54l.15.03c1.42-.41-1.9-.8-.19-1.16-1.43-.02-.65-.21-2.47-.2-1.79-.46,3.73-.65-1.91-.94-.3-.19,1.33-.19,1.62-.28l.3.05c-.45-.36-.5-.46-.37-.72-.55-.14-3.17-.23-2.53-.45,1.04.1.85,0,.85-.08.16.06.54.09,1.25,0-.32-.02-.52-.05-.68-.08.08,0,.15,0,.26,0-.36-.15-.69-.14-.83-.07-.16,0-.36,0-.65,0,1.35-.12-.08-.42,1.71-.39-.4-.45-2.25-.81-2.93-1.19.92-.02,1.74.09,2.09.2l-.33-.27c1.33.04.76.17,1.02.25,2.15-.25-2.12-.69-.15-.99l-1.05-.1.17-.02c-.55-.01-1.31-.11-1.48-.17,1.16-.02,2.66.07,2.59-.11,1.12-.11-.55-.41-1.16-.61-.2.09-.84.05-1.24,0-.04-.09,1.12-.11.62-.19l1.56.03c-1.47,0-1.58-.27-2.21-.32,1.16-.02.99.16,1.86.21-.14-.36-.07-.18-.2-.54-1.17-.22-1.47,0-2.84-.13-.3-.18-1.38-.37-.44-.54l-1.38.03c-1.06-.34-.9-.53.5-.7-11.2-2.64-15.37-.89-15.37-.89-3.08.85.93,1.43,1.98,2.56Z"/>
  </g>
  <g>
    <path class="cls-1" d="M222.7,132.55l-.57.09c.27,0,.49-.03.57-.09Z"/>
    <path class="cls-1" d="M223.37,152.26s.07.01.13.02c-.05-.01-.09-.02-.13-.02Z"/>
    <path class="cls-1" d="M203.39,136.03s0,0,0,0c-.06,0-.09-.01-.15-.02l.15.02Z"/>
    <path class="cls-1" d="M204.87,132.02c-.67,1.06-3.35,1.4-2.23,2.45-.21.52.43,1.06.76,1.55,2.1.19.04.66,1.8.9l-1.18.14c.6.08,1.01.19.37.3h-.34c.9.13.37.3.82.37h-.35s.16.18.16.18l-.49-.02c.96.23,1.03.49.6.73l1.43-.05c-1.59.53,1.39.64-.51,1.13h-.35c3.8.48-2.56.95,1.05,1.45-.45-.06-.74.05-1.09.05.42.26.64.54,3.46.48-.03.2-.88.18-1.97.23,1.24-.03,1.75.13,1.83.28l-.48-.06.43.43,2.33-.14c-.67.25-2.84.12-2.27.33l1.93-.05c-.37.33-3.3.58-4.71.92-.8,1.3,4.16,2.57.79,3.84l-1.45.09c-2.12.07,3.15.26,1.19.35l.97.12c-.38.05-.78.14-1.26.08-.08.13.27.13.91.2l-1.31.17c-1.01.53,1.54.9,1.04,1.45-2.68.7-.18,1.85,1.28,2.52,3.19.9-5.22,2.24-1.58,3.15-.3.04.38.11.62.1l-.28.92s-.71,4.46,16.78.68h.46c1.11-.52,1.35-.84-.98-1.13,2.85-.12.28-.42,1.2-.56h.23c-2.2-.25,1.81-.67-.16-.92.23,0,1.01,0,1.06.06-.36-.21-1-.49.65-.54-.45-.5.3-1.24-2.35-1.5h.46c-1.79-.13-.27-.22-1.18-.41.22-.02.33-.03.42-.03-1.77-.16-.29-.59-1.05-.74l1.1-.04-.27-.4-.23.16c-3.03.02,1.89-.35-.08-.6.38-.28-6.31-.41-4.83-.74-1.42-.1,2.31.07,1.21-.11,1.58-.04.99.07,2.25,0-.75-.18,1.61-.37.53-.59l1.23-.04c-2.25-.27,1.6-.65-.54-.81-1.02-.31,3.65-.31,1.23-.6l1.66-.17c.27-.15-2.04-.06-1.24-.24,1.05-.01.83-.23,1.83-.15,1.63-.41-2.34-.7.42-1.26-2.04-.06-.83-.33-2.37-.38.89-.03.13-.5,2.07-.27.16.02.13.06-.22.07h1.21c2.28-.33-1.27-.47-.92-.76-.4.09-.29.2-1.12.14l.16-.26,1.02.03.59-.4-1.26.08c.64-.2,2.78-.32.99-.49-1-.07-1.69.22-2.09.03.85-.27,2.14-.67,2.51-1-1.42.06-1.37-.02-1.66-.11l1.23-.04c-1.72-.3,2.71-.19,1.34-.49h.86s-2.58-.02-2.58-.02c-2.45-.25,2.55-.22-.79-.48.21.13-2.71.13-2.18-.05h1.19c-.25-.07-.75-.09-.51-.16.64.04,1.73-.01,1.52-.14l1.49.05-2.19-.2c1.27-.22-.34-.5,1.34-.62,0,0,.81-.44-1.03-.49,1.14.06,1.57-.18,2.91-.15-1.29-.08-2.36-.38-.98-.54l.16.02c1.39-.51-1.94-.77-.25-1.23-1.43.05-.66-.19-2.48-.09-1.82-.4,3.69-.89-1.95-.92-.31-.19,1.32-.27,1.61-.38l.3.04c-.47-.37-.53-.47-.4-.76-.55-.13-3.18-.09-2.55-.35,1.04.06.85-.04.85-.13.17.06.55.07,1.25-.07-.32,0-.52-.03-.69-.05.08,0,.15,0,.26,0-.37-.15-.7-.11-.84-.04-.16,0-.36.01-.65.04,1.34-.19-.1-.45,1.69-.51-.43-.46-2.28-.75-2.99-1.13.92-.07,1.74,0,2.1.11l-.34-.27c1.33-.03.77.14,1.03.22,2.14-.38-2.15-.63-.2-1.06l-1.05-.06.17-.03c-.55.01-1.31-.05-1.49-.11,1.15-.08,2.66-.06,2.59-.25,1.11-.18-.57-.42-1.19-.6-.19.11-.83.09-1.24.05-.04-.09,1.11-.18.61-.24l1.56-.05c-1.47.07-1.59-.21-2.23-.23,1.15-.08,1,.13,1.87.13-.15-.38-.08-.19-.23-.57-1.18-.18-1.47.07-2.84,0-.31-.17-1.4-.33-.47-.55l-1.38.1c-1.08-.31-.93-.52.47-.78-11.32-2.27-15.4-.18-15.4-.18-3.03,1.07,1,1.49,2.11,2.65Z"/>
  </g>
  <g>
    <path class="cls-1" d="M138.22,204.94l.6-.07c-.18-.11-.39-.13-.6.07Z"/>
    <path class="cls-1" d="M217.3,200.96s.08.01.13,0c-.07-.02-.1-.02-.13,0Z"/>
    <path class="cls-1" d="M157.25,207.39s-.01,0-.01,0c.01.05,0,.08.02.13v-.14Z"/>
    <path class="cls-1" d="M149.25,214.87c.87-1.23,1.92-1.67,2.82-2.1.91-.43,1.61-.88,2.2-2.14,1.02-.8,1.85-2.15,2.97-3.24-.35-1.83,1.7-1.15,1.79-2.83l.79.65c.04-.58.23-1.05.77-.75l.11.26c.09-.87.79-.73.84-1.17l.11.26.48-.37.08.4c.43-1.06,1.24-1.49,2.09-1.46l-.51-1.05c2.04.57,1.8-1.91,3.77-.94l.07.27c.45-1.76,1.39-1.48,2.26-1.16.9.33,1.74.69,2.42-.93-.17.4.23.56.26.84.82-.51,1.76-.84,1.42-3.1.7-.08.67.62.89,1.48-.15-.98.39-1.5.93-1.62l-.2.41c.5-.17,1-.35,1.51-.51l-.5-1.85c.91.46.44,2.27,1.19,1.74l-.14-1.56c1.22.22,2.02,2.55,3.08,3.68,2.16.3,4.4-.39,6.7-.61,2.26-.22,4.6.05,5.96,2.03l-.25,1.17c-.26.82.18.31.66-.19.48-.51,1.01-1.02.77-.26l.72-.56c0,.32.1.74-.26.99.34.24.46,0,.95-.34l-.07,1.15c.26.36.59.55.96.65.35.13.75.18,1.17.22.42.04.85.07,1.26.17.39.13.76.33,1.05.67.11.74.45,1.31.9,1.84.45.53,1.11.88,1.75,1.29,1.36.73,2.98,1.37,4.21,1.89.99.26,1.61.92,1.94,1.78.29.89.41,1.9.4,2.93.02,2.07-.13,3.89,1.8,4.84-.19.19.42.24.6.17.32.96.51,1.94.72,2.91l.17.57c.09.36.22.86.43,1.42.23.56.44,1.18.74,1.8.3.62.7,1.23,1.11,1.78.86,1.08,2.17,1.93,4.09,1.7.96-.13,2.08-.53,3.37-1.45.65-.46,1.34-1.04,2.07-1.79.69-.75,1.4-1.66,2.14-2.78l.38.05c.31-1.26.32-2.27.07-3.12-.25-.85-.85-1.53-2-2.03,2.13-.89-.32-1.93.2-2.67h.2c-1.09-.4-1.01-1.19-.91-2.03.05-.42.1-.84.01-1.2-.11-.35-.35-.64-.86-.79.19-.03.78-.26.95.02-.71-.82-1.76-1.83-.6-2.52-.74-1.02-1.41-2.34-2.26-3.43-.89-1.05-1.89-1.9-3.21-1.89l.36-.13c-1.7.17-.86-.77-2.04-1.09.11-.15.13-.26.2-.3-1.65.13-1.95-1.93-2.91-2.1l.62-.64c-.46-.43-.96-.82-1.46-1.2l.37.62c-.96.77-.93.27-.94-.42,0-.69-.07-1.58-1.09-1.46-.37-.54-1.72.01-2.93.51-1.23.51-2.3.94-2.43.12-1.16.58,1.54-1.19.29-.99.73-1.04.82-.4,1.24-1.35-1.08-.03-.46-1.93-1.88-1.87l.51-.86c-1.13.37-1.55-.26-1.94-.88-.39-.61-.72-1.25-1.59-.7-1.74.05.37-3.12-1.96-2.09,0-.51-.02-1-.05-1.49-.6-.48-1.12,1.33-1.61.43.36-.77-.7-1,.03-1.58-.31-.48-.74-.7-1.22-.79-.48-.08-1-.03-1.53-.02-1.06.05-2.11,0-3.01-1.37-.88,1.48-1.82.27-2.43,1.42.08-.73-2.28-.52-.71-1.84.14-.11.33-.05.27.22l.33-.93c-1.06-2.06-2.63.59-3.88.18.36.37.88.34.46.97l-1.19-.26.33-.79c-.59-.22-1.19-.43-1.8-.64l.18,1.04c-.84-.58-1.1-2.34-2.17-.92-.47.79.79,1.4-.15,1.69-1.13-.74-2.92-1.78-4.47-2,.2,1.14-.21,1.12-.61,1.37l-.11-.99c-1.5,1.5-.75-2.16-2.28-.91l.08-.71-.22,2.11c-1.18,2.11-1.02-1.97-2.25.9.59-.26.58,2.13-.21,1.81l.05-.98c-.38.26-.46.68-.76.52.16-.54-.09-1.41-.67-1.14l.22-1.26c-.3.65-.59,1.3-.87,1.94-1.08-.86-2.22.7-2.87-.54,0,0-.52-.06-1.04.09-.53.15-1.06.5-1.09,1.27.15-.99-.99-1.05-.98-2.17-.24,1.14-1.42,2.38-2.32,1.5l.07-.15c-1.25-.2-2.05.49-2.8,1.14-.75.66-1.45,1.28-2.64,1.04.53,1.03-.68.86.14,2.11-.63,1.07-1.76.77-2.61.78-.85,0-1.39.32-.65,2.5-.68.63-1.44-.44-1.98-.42l.08-.32c-1.33,1.16-1.72,1.46-2.88,2.06-.31.73.77,2.55-.44,2.76-.18-.9-.47-.51-.82-.26.15-.26.05-.57-.75-.7.09.26.08.46.06.64-.04-.05-.09-.08-.14-.16-.42.67-.15.81.19.7.06.11.18.23.41.36-1.26-.44-1.6,1.33-2.59.27-1.54,1.72-1.66,3.92-2.42,5.65-.7-.34-.91-1.09-.75-1.7-.23.4-.48.78-.69,1.19-.82-.71.05-.99.17-1.45-1.21.02-1.44,1-1.63,1.95-.17.98-.32,1.94-1.49,2.3l.5.79-.18.02c.38.24.67.9.66,1.21-.93-.26-1.83-1.13-2.26-.28-1.17.21-.62,2.1-.54,3.15.35-.4.75-.03.96.3-.15.41-1.11.28-.89.76l-1.18-.45c1.15.3.75,1.6,1.17,1.93-.97-.09-.5-.94-1.11-1.31-.56,1.78-.29.89-.77,2.68.63,1.21,1.18.18,2.11.94.01.87.65,1.81-.27,2.54l1.15-.04c.53,1.61.3,2.36-.94,3.22,1.98,2.98,4.05,4.16,5.65,4.67,1.62.5,2.9.41,3.85-.04.98-.34,1.65-.82,2.1-1.21.46-.39.67-.69.67-.69,1.28-1.19,1.22-2,.83-3.13-.38-1.1-1.07-2.52-.78-4.25Z"/>
  </g>
</svg>